<?xml version="1.0" standalone="no"?>
<!DOCTYPE svg PUBLIC "-//W3C//DTD SVG 1.1//EN" "http://www.w3.org/Graphics/SVG/1.1/DTD/svg11.dtd" >
<svg xmlns="http://www.w3.org/2000/svg">
<metadata></metadata>
<defs>
<font id="kelson_sans_ruregular" horiz-adv-x="1073" >
<font-face units-per-em="2048" ascent="1536" descent="-512" />
<missing-glyph horiz-adv-x="514" />
<glyph horiz-adv-x="2048" />
<glyph horiz-adv-x="2048" />
<glyph horiz-adv-x="682" />
<glyph unicode="&#xd;" horiz-adv-x="548" />
<glyph unicode=" "  horiz-adv-x="514" />
<glyph unicode="&#x09;" horiz-adv-x="514" />
<glyph unicode="&#xa0;" horiz-adv-x="514" />
<glyph unicode="!" horiz-adv-x="466" d="M123 100q0 53 36.5 84t81 31.5t81 -30t36.5 -85.5q0 -51 -36.5 -82t-81 -32t-81 29t-36.5 85zM143 340v1243h195v-1243h-195z" />
<glyph unicode="&#x22;" horiz-adv-x="542" d="M72 1581h161l-6 -375h-149zM332 1581h162l-7 -375h-149z" />
<glyph unicode="#" horiz-adv-x="1497" d="M66 446l43 172h251l68 275h-254l43 172h254l127 518h170l-127 -518h358l127 518h170l-127 -518h277l-43 -172h-277l-67 -275h276l-43 -172h-274l-111 -450h-172l111 450h-359l-110 -450h-170l110 450h-251zM530 618h359l67 275h-358z" />
<glyph unicode="$" horiz-adv-x="1130" d="M90 418h211q8 -111 69 -173.5t203 -62.5h39q78 0 129.5 18t78.5 56.5t37.5 87.5t10.5 123q0 72 -20.5 123t-44 77.5t-81 44t-89 21.5t-110.5 10q-14 1 -21 2q-59 5 -112 18.5t-106.5 44t-91.5 74.5t-62 113t-24 156q0 205 93.5 315t296.5 127v199h182v-203 q172 -23 255.5 -123t92.5 -276h-203q-8 109 -61.5 165t-190.5 56q-80 0 -133 -17.5t-80.5 -53t-38 -79.5t-10.5 -108q0 -59 19.5 -100.5t48 -64.5t77.5 -37.5t91.5 -20t106.5 -11.5q30 -2 46 -4q371 -37 371 -438q0 -240 -91.5 -355t-299.5 -128v-209h-182v211 q-387 36 -406 422z" />
<glyph unicode="%" horiz-adv-x="1611" d="M61 1112v176q0 154 73.5 228.5t225.5 74.5q156 0 230 -73.5t74 -229.5v-176q0 -156 -74 -229.5t-230 -73.5q-153 0 -226 73.5t-73 229.5zM225 1120q0 -81 30 -121.5t105 -40.5q79 0 108.5 40t29.5 122v164q0 82 -29.5 120t-108.5 38q-75 0 -105 -38.5t-30 -119.5v-164z M473 -29l465 1624h147l-460 -1624h-152zM928 303v176q0 154 73.5 228.5t225.5 74.5q156 0 229.5 -73.5t73.5 -229.5v-176q0 -156 -73.5 -229.5t-229.5 -73.5q-153 0 -226 73.5t-73 229.5zM1092 311q0 -81 30 -121t105 -40q79 0 108 39.5t29 121.5v164q0 82 -29 120t-108 38 q-75 0 -105 -38.5t-30 -119.5v-164z" />
<glyph unicode="&#x26;" horiz-adv-x="1251" d="M109 442q0 145 69 244.5t176 157.5q-184 121 -184 330q0 190 116 309t302 119q200 0 308.5 -107.5t96.5 -306.5h-178q12 235 -227 235q-97 0 -162.5 -67.5t-65.5 -179.5q0 -95 66 -169.5t162 -74.5h604v-172h-191v-338q0 -242 160 -242l-4 -203q-102 0 -160.5 35.5 t-95.5 128.5q-116 -166 -315 -166q-109 0 -195 26t-150.5 80.5t-98.5 145.5t-33 215zM301 434q0 -66 19 -117t48 -81t68.5 -48.5t75.5 -25t74 -6.5q95 0 160 79.5t65 188.5v336h-225q-120 0 -202.5 -91.5t-82.5 -234.5z" />
<glyph unicode="'" horiz-adv-x="301" d="M72 1581h161l-6 -375h-149z" />
<glyph unicode="(" horiz-adv-x="528" d="M119 147v1053q0 204 87.5 309t274.5 105v-201q-97 0 -130.5 -53t-33.5 -162v-1048q0 -110 33.5 -163t130.5 -53v-200q-187 0 -274.5 105t-87.5 308z" />
<glyph unicode=")" horiz-adv-x="546" d="M63 -66q97 0 130.5 53t33.5 163v1048q0 109 -33.5 162t-130.5 53v201q187 0 275 -105.5t88 -308.5v-1053q0 -203 -87.5 -308t-275.5 -105v200z" />
<glyph unicode="*" horiz-adv-x="655" d="M59 1436l162 161l92 -151l45 -4l95 155l161 -159l-153 -95l-2 -43l155 -96l-161 -162l-95 154l-43 2l-94 -154l-160 160l150 94l2 43z" />
<glyph unicode="+" horiz-adv-x="927" d="M68 659v160h301v307h178v-307h303v-160h-303v-315h-178v315h-301z" />
<glyph unicode="," horiz-adv-x="387" d="M0 -211q80 59 101.5 128.5t21.5 197.5h170q0 -172 -52 -265.5t-180 -160.5z" />
<glyph unicode="-" horiz-adv-x="1009" d="M125 526v179h770v-179h-770z" />
<glyph unicode="." horiz-adv-x="411" d="M102 100q0 43 24.5 72.5t59 37t69 1t59 -36.5t24.5 -74q0 -41 -24.5 -70.5t-59 -37t-69 -1.5t-59 35.5t-24.5 73.5z" />
<glyph unicode="/" horiz-adv-x="761" d="M82 -2l428 1579h164l-428 -1579h-164z" />
<glyph unicode="0" horiz-adv-x="1056" d="M106 436v715q0 430 435 430q417 0 417 -430v-715q0 -243 -98 -349.5t-319 -106.5q-231 0 -333 106t-102 350zM301 436q0 -160 53.5 -219t186.5 -59q114 0 168.5 61t54.5 217v715q0 80 -14 131.5t-44.5 79t-68.5 37.5t-96 10q-60 0 -100.5 -10t-74 -37t-49.5 -79.5 t-16 -131.5v-715z" />
<glyph unicode="1" horiz-adv-x="776" d="M49 0v166h256v1241h-201v174h396v-1415h243v-166h-694z" />
<glyph unicode="2" horiz-adv-x="1052" d="M100 1157q0 223 116.5 332.5t322.5 109.5q203 0 315.5 -101t112.5 -306q0 -91 -23 -161.5t-61.5 -115.5t-88.5 -80t-105 -61l-110 -52t-105 -60t-88.5 -78t-61.5 -113t-23 -158v-120h653v-193h-852v311q0 107 23 193.5t61.5 144t88.5 103.5t105.5 77t111 58.5t105.5 55.5 t88.5 60t61.5 79.5t23 107.5q0 118 -58 174.5t-182 56.5q-235 0 -235 -264h-195z" />
<glyph unicode="3" horiz-adv-x="1060" d="M70 446h186q0 -141 57 -205.5t185 -64.5q130 0 194 68t64 221q0 83 -21.5 143t-60.5 93t-86 48t-105 15h-161v92l329 553h-528v172h833v-22l-370 -627q190 -22 282.5 -133.5t92.5 -331.5q0 -225 -117.5 -350t-343.5 -125q-231 0 -330.5 110t-99.5 344z" />
<glyph unicode="4" horiz-adv-x="1120" d="M-4 500l684 1083h182v-1063h139v-178h-139v-342h-194v342h-643zM223 520h445v719z" />
<glyph unicode="5" horiz-adv-x="1062" d="M82 467h192q0 -152 62.5 -222.5t185.5 -70.5q264 0 264 318v55q0 72 -7.5 120t-23.5 82.5t-45.5 53.5t-70.5 27t-102 8h-428v741h821v-182h-631v-375h242q245 0 342.5 -107t97.5 -364v-62q0 -254 -124 -378.5t-335 -124.5q-103 0 -181 25t-137.5 80t-90.5 149.5 t-31 226.5z" />
<glyph unicode="6" horiz-adv-x="1118" d="M113 436v291q0 138 38.5 267.5t107.5 237t155 195t188 156.5h258l4 -14q-151 -104 -275.5 -222t-180.5 -227q98 25 210 25q185 0 288.5 -103t103.5 -315v-291q0 -245 -103.5 -350.5t-345.5 -105.5t-345 105.5t-103 350.5zM307 436q0 -157 58.5 -213.5t195.5 -56.5 t195.5 56.5t58.5 213.5v291q0 144 -59 197t-195 53t-195 -53t-59 -197v-291z" />
<glyph unicode="7" horiz-adv-x="921" d="M27 1397v184h852v-47l-533 -1534h-211l492 1397h-600z" />
<glyph unicode="8" horiz-adv-x="1122" d="M82 471q0 176 44.5 270t135.5 144q-149 97 -149 309q0 194 118 304t320 110q208 0 320 -118t112 -300q0 -194 -149 -297q65 -36 103.5 -82t60.5 -127t22 -203q0 -257 -116 -378t-353 -121q-239 0 -354 119t-115 370zM299 477q0 -157 55 -233t197 -76t197 76t55 233 q0 161 -55.5 243t-196.5 85q-142 -3 -197 -85.5t-55 -242.5zM307 1188q0 -100 66.5 -156.5t175.5 -56.5q233 0 233 213q0 231 -231 231q-120 0 -182 -61.5t-62 -169.5z" />
<glyph unicode="9" horiz-adv-x="1118" d="M113 856v291q0 245 103 351t345 106t345.5 -106t103.5 -351v-291q0 -270 -131.5 -491.5t-343.5 -364.5h-265l-4 14q147 101 270 220t179 229q-97 -25 -211 -25q-185 0 -288 103t-103 315zM307 856q0 -144 59 -197t195 -53t195 53t59 197v291q0 157 -58.5 213.5 t-195.5 56.5t-195.5 -56.5t-58.5 -213.5v-291z" />
<glyph unicode=":" horiz-adv-x="428" d="M102 100q0 43 24.5 72.5t59 37t69 1t59 -36.5t24.5 -74q0 -41 -24.5 -70.5t-59 -37t-69 -1.5t-59 35.5t-24.5 73.5zM102 870q0 43 24.5 72.5t59 37t69 1t59 -36.5t24.5 -74q0 -41 -24.5 -70.5t-59 -37t-69 -1.5t-59 35.5t-24.5 73.5z" />
<glyph unicode=";" horiz-adv-x="456" d="M29 -211q80 59 101.5 128.5t21.5 197.5h170q0 -172 -52 -265.5t-180 -160.5zM117 870q0 53 36.5 84t81 31.5t81 -30t36.5 -85.5q0 -51 -36.5 -82t-81 -32t-81 29t-36.5 85z" />
<glyph unicode="&#x3c;" horiz-adv-x="786" d="M102 618v58l449 420l106 -115l-360 -334l367 -332l-113 -116z" />
<glyph unicode="=" horiz-adv-x="1167" d="M160 348v158h848v-158h-848zM160 780v158h848v-158h-848z" />
<glyph unicode="&#x3e;" horiz-adv-x="790" d="M127 309l367 338l-363 338l107 111l450 -420v-58l-450 -419z" />
<glyph unicode="?" horiz-adv-x="1003" d="M61 1190q0 57 3.5 101t15 91t30.5 81t51 65.5t76.5 51t107.5 31t142 11.5q414 0 414 -475v-90q0 -97 -21.5 -170t-56 -116.5t-76 -78t-83.5 -65t-76.5 -65t-56 -90.5t-21.5 -130h-184q0 96 21 168t54.5 114.5t74.5 76.5t81.5 64t74 65t54.5 91.5t21 133.5v86 q-3 165 -56 231t-174 66q-133 0 -180 -51t-47 -197h-189zM313 100q0 43 24.5 72.5t59 37t69 1t59 -36.5t24.5 -74q0 -41 -24.5 -70.5t-59 -37t-69 -1.5t-59 35.5t-24.5 73.5z" />
<glyph unicode="@" horiz-adv-x="1398" d="M92 360v752q0 88 7.5 151.5t26.5 119t51.5 91t83.5 61t121.5 37t166.5 11.5h295q115 0 195 -17.5t132.5 -51.5t82.5 -93t41.5 -131.5t11.5 -177.5v-395q0 -81 -16 -140.5t-41 -93.5t-62.5 -54.5t-73.5 -27t-82 -6.5q-137 0 -192 125q-20 -21 -32 -31.5t-36.5 -27t-56 -24 t-70.5 -7.5q-118 0 -184 65.5t-66 188.5v246q0 118 85.5 185t205.5 67h289v-477q0 -26 0.5 -37.5t2 -32.5t6 -30.5t11.5 -21t19.5 -16t29.5 -4.5q41 0 54.5 32t13.5 105v418q0 82 -9 129.5t-37 82t-77.5 47t-132.5 12.5h-330q-75 0 -124 -15t-74.5 -47.5t-35 -72.5 t-9.5 -101v-729q0 -61 9.5 -101t35 -72.5t74.5 -47.5t124 -15h525v-190h-586q-95 0 -163 17t-108.5 46t-63.5 77t-30.5 99t-7.5 123zM580 727q0 -123 108 -123q103 0 103 139v267h-105q-53 0 -79.5 -29.5t-26.5 -83.5v-170z" />
<glyph unicode="A" d="M18 0l420 1575h199l418 -1575h-201l-80 293h-473l-80 -293h-203zM350 477h373l-82 336l-104 508l-107 -514z" />
<glyph unicode="B" horiz-adv-x="1173" d="M123 -2v1587h397q206 0 317 -110.5t111 -298.5q0 -97 -27 -167.5t-85 -129.5q128 -40 196 -142.5t68 -255.5q0 -483 -510 -483h-467zM317 934h183q67 0 117.5 21t78.5 57t41 77t13 87q0 111 -63.5 169t-166.5 58h-203v-469zM322 184h272q169 0 238 75t69 220 q0 144 -77.5 206.5t-223.5 62.5h-278v-564z" />
<glyph unicode="C" horiz-adv-x="1208" d="M121 524v537q0 111 12 189t44 146.5t88 109.5t145.5 64t214.5 23q102 0 178.5 -12.5t130.5 -39t89.5 -62.5t56 -90t29 -113.5t9.5 -140.5h-190q-1 78 -11.5 124.5t-42 83.5t-92 52.5t-157.5 15.5q-69 0 -118 -8t-83.5 -27.5t-55.5 -44.5t-32 -67.5t-15 -87.5t-4 -113 v-541q0 -81 6.5 -133t25 -96.5t53 -68.5t89 -37t134.5 -13q69 0 115.5 5t82 20t56 35.5t33 57.5t16.5 80.5t4 110.5h186q0 -57 -1.5 -97.5t-7.5 -87.5t-16.5 -79t-28.5 -66.5t-44 -57.5t-62.5 -44.5t-84.5 -33.5t-110 -19.5t-138 -7.5q-86 0 -154 8.5t-119 27t-89 42 t-63 60.5t-41 74.5t-24 92.5t-11 106t-3 123z" />
<glyph unicode="D" horiz-adv-x="1230" d="M145 0v1579h480q125 0 213.5 -23t143.5 -63.5t86.5 -109t42.5 -145.5t11 -187v-521q0 -111 -11.5 -188.5t-44 -146.5t-88.5 -110t-148 -63q-88 -22 -209 -22h-11h-465zM340 186h270q64 0 110.5 6.5t81 17t57 33t36 45.5t20.5 63.5t9 78.5t2 98v525q0 60 -2 98t-9 78.5 t-20.5 63.5t-36 45.5t-57 33t-81 17t-110.5 6.5h-270v-1209z" />
<glyph unicode="E" horiz-adv-x="1067" d="M143 0v1581h797v-172h-602v-475h545v-182h-545v-570h653v-182h-848z" />
<glyph unicode="F" horiz-adv-x="1054" d="M141 -2v1581h848v-180h-653v-484h567v-182h-567v-735h-195z" />
<glyph unicode="G" horiz-adv-x="1251" d="M117 516v549q0 79 5.5 139t20 117.5t39.5 98.5t63.5 76t92 56.5t126.5 33t165 11.5q124 0 211 -17t143.5 -48.5t89 -87.5t46 -123t16.5 -166h-191q-2 73 -14.5 119t-46 81.5t-95.5 50.5t-159 15q-99 0 -160 -18.5t-96 -63.5t-47.5 -108t-12.5 -164v-553q0 -60 2 -98.5 t9 -79.5t20.5 -64.5t36 -46.5t57 -34.5t81.5 -18t110 -6.5q76 0 126 4.5t86.5 20.5t56 35t30.5 58.5t13.5 80t2.5 110.5v215h-307v176h504v-391q0 -57 -2 -97.5t-8 -87t-17 -79t-30 -66.5t-46 -57t-65 -44t-87.5 -33.5t-114 -19.5t-142.5 -7q-92 0 -165 11.5t-126.5 33 t-92 56.5t-63.5 76t-39.5 98.5t-20 117.5t-5.5 139z" />
<glyph unicode="H" horiz-adv-x="1206" d="M143 -2v1577h199v-727h528v727h195v-1575h-195v662h-528v-664h-199z" />
<glyph unicode="I" horiz-adv-x="485" d="M143 -2v1577h199v-1577h-199z" />
<glyph unicode="J" horiz-adv-x="989" d="M16 473h185q0 -167 50 -233t193 -66q44 0 77 6.5t57.5 18t40.5 34t26.5 47t15.5 64.5t7 79.5t2 98.5v1059h196v-1057q0 -111 -9.5 -189.5t-36.5 -148t-74 -110.5t-123 -64.5t-183 -23.5q-103 0 -177.5 22t-122 60.5t-75.5 100.5t-38.5 133.5t-10.5 168.5z" />
<glyph unicode="K" horiz-adv-x="1155" d="M133 0v1579h195v-696h75l471 696h230l-545 -791l588 -788h-240l-504 680h-75v-680h-195z" />
<glyph unicode="L" horiz-adv-x="1005" d="M143 0v1579h197v-1399h616v-180h-813z" />
<glyph unicode="M" horiz-adv-x="1288" d="M143 0v1581h224l278 -868l279 868h223v-1581h-195v743l29 433l-289 -887h-94l-289 887l29 -433v-743h-195z" />
<glyph unicode="N" horiz-adv-x="1167" d="M141 0v1579h185l534 -1208l-29 536v672h195v-1579h-182l-520 1135l12 -519v-616h-195z" />
<glyph unicode="O" horiz-adv-x="1271" d="M121 518v551q0 111 11.5 189t44 147t89 110t147.5 64t220 23t220 -23t147.5 -64t89 -110t44 -147t11.5 -189v-551q0 -79 -5.5 -139t-20 -117.5t-39.5 -98.5t-63.5 -76t-92 -56.5t-126.5 -33t-165 -11.5t-165 11.5t-126.5 33t-92 56.5t-63.5 76t-39.5 98.5t-20 117.5 t-5.5 139zM317 516q0 -60 2 -98.5t9 -79.5t20.5 -64.5t36 -46.5t57 -34.5t81.5 -18t110 -6.5q56 0 98.5 4.5t75 15.5t55.5 24t39 36.5t25 47t14 61t6.5 72t1.5 87.5v555q0 71 -3 113.5t-13.5 88t-30.5 69.5t-55 44.5t-87 28.5t-126 8q-63 0 -110.5 -7t-81.5 -18.5t-56.5 -35 t-36 -47.5t-20.5 -65.5t-9 -80t-2 -98.5v-555z" />
<glyph unicode="P" horiz-adv-x="1101" d="M143 -2v1581l424 2q218 0 333.5 -101t115.5 -329v-172q0 -245 -103.5 -351t-345.5 -106h-229v-524h-195zM338 709h229q137 0 195.5 56.5t58.5 213.5v172q0 54 -6 93t-21.5 65t-33.5 42.5t-50.5 25.5t-62.5 13t-80 7h-229v-688z" />
<glyph unicode="Q" horiz-adv-x="1267" d="M121 528v539q0 79 5.5 139t20 117.5t39.5 98.5t63.5 76t92 56.5t126.5 33t165 11.5t165 -11.5t126.5 -33t92 -56.5t63.5 -76t39.5 -98.5t20 -117.5t5.5 -139v-539q0 -88 -7 -154t-26 -127.5t-51.5 -104.5t-84.5 -75t-124 -49q4 -57 17.5 -96.5t43 -71.5t83.5 -44 q28 -6 63 -6q31 0 67 5v-174q-39 -3 -75 -3q-383 0 -394 368h-24q-92 0 -165 11.5t-126.5 33t-92 56.5t-63.5 76t-39.5 98.5t-20 117.5t-5.5 139zM317 526q0 -60 2 -98.5t9 -79.5t20.5 -64.5t36 -46.5t57 -34.5t81.5 -18t110 -6.5q56 0 98.5 4.5t75 15.5t55.5 24t39 36.5 t25 47t14 61t6.5 72t1.5 87.5v543q0 53 -1.5 87.5t-6.5 72t-14 61t-25 47t-39 36.5t-55.5 24t-75 15.5t-98.5 4.5q-63 0 -110 -6.5t-81.5 -18t-57 -34.5t-36 -46.5t-20.5 -64.5t-9 -79.5t-2 -98.5v-543z" />
<glyph unicode="R" horiz-adv-x="1105" d="M143 -2v1583l424 2q218 0 333.5 -102t115.5 -330v-111q0 -196 -68 -304.5t-227 -139.5l342 -596h-229l-318 584h-178v-586h-195zM338 770h229q137 0 195.5 56.5t58.5 213.5v111q0 54 -6 93t-21.5 65t-33.5 42.5t-50.5 25.5t-62.5 13t-80 7h-229v-627z" />
<glyph unicode="S" horiz-adv-x="1161" d="M90 418h211q8 -111 69 -173.5t203 -62.5h39q78 0 129.5 18t78.5 56.5t37.5 87.5t10.5 123q0 72 -20.5 123t-44 77.5t-81 44t-89 21.5t-110.5 10q-14 1 -21 2q-59 5 -112 18.5t-106.5 44t-91.5 74.5t-62 113t-24 156q0 224 110.5 334t354.5 110q228 0 336 -102t119 -303 h-203q-8 109 -61.5 165t-190.5 56q-80 0 -133 -17.5t-80.5 -53t-38 -79.5t-10.5 -108q0 -59 19.5 -100.5t48 -64.5t77.5 -37.5t91.5 -20t106.5 -11.5q30 -2 46 -4q371 -37 371 -438q0 -256 -106 -370.5t-349 -114.5h-39q-463 0 -485 426z" />
<glyph unicode="T" horiz-adv-x="882" d="M16 1391v180h850v-180h-327v-1391h-195v1391h-328z" />
<glyph unicode="U" horiz-adv-x="1232" d="M123 520v1059h196v-1061q0 -99 11.5 -160.5t43.5 -106t89 -63t149 -18.5q73 0 123.5 13t83.5 37t51 68t24.5 97t6.5 133v1063h197v-1061q0 -135 -23.5 -230t-78.5 -165t-150 -103.5t-234 -33.5t-234.5 33.5t-151 103.5t-79.5 165t-24 230z" />
<glyph unicode="V" horiz-adv-x="1071" d="M18 1581h201l158 -588l160 -694l157 696l158 586h201l-428 -1583h-179z" />
<glyph unicode="W" horiz-adv-x="1671" d="M18 1581h201l152 -668l114 -589l271 1171h151l271 -1171l114 589l152 668h201l-377 -1583h-178l-134 530l-125 568l-124 -568l-134 -530h-178z" />
<glyph unicode="X" horiz-adv-x="999" d="M18 -2l347 797l-347 786h213l131 -299l138 -354l137 352l131 301h213l-346 -786l346 -797h-213l-86 197l-182 462l-181 -460l-88 -199h-213z" />
<glyph unicode="Y" horiz-adv-x="944" d="M-4 1581h211l127 -307l139 -393l139 393l127 307h211l-381 -919v-664h-194v664z" />
<glyph unicode="Z" horiz-adv-x="962" d="M29 0l630 1409h-546v172h823l-631 -1403h608v-178h-884z" />
<glyph unicode="[" horiz-adv-x="679" d="M186 -223v1810h426v-153h-254v-1502h254v-155h-426z" />
<glyph unicode="\" horiz-adv-x="761" d="M92 1577h164l428 -1579h-164z" />
<glyph unicode="]" horiz-adv-x="698" d="M86 -61h254v1501h-254v153h426v-1810h-426v156z" />
<glyph unicode="^" horiz-adv-x="1267" d="M111 895l442 692h125l448 -692l-2 -10h-184l-324 516l-325 -516h-178z" />
<glyph unicode="_" horiz-adv-x="1101" d="M72 -18h962v-164h-962v164z" />
<glyph unicode="`" horiz-adv-x="501" d="M57 1577v6h199l109 -260v-10h-162z" />
<glyph unicode="a" d="M90 276q-2 21 -2 41q0 131 86 224q100 107 285 133q93 14 289 18v117q0 110 -50.5 166.5t-177.5 56.5q-93 0 -141 -43.5t-47 -157.5h-191v22q0 178 92 265q98 92 293 92q205 0 311.5 -95t106.5 -306v-809h-176l-16 162q-34 -71 -118.5 -121.5t-187.5 -50.5 q-79 0 -140.5 16.5t-99.5 43t-63.5 65.5t-36.5 77t-16 84zM287 301q6 -66 56 -95.5t124 -29.5q78 0 134 27t87.5 77t46.5 111t17 139q-188 0 -277 -20q-190 -41 -190 -181q0 -14 2 -28z" />
<glyph unicode="b" horiz-adv-x="1122" d="M113 436v1176h196v-522q37 55 109.5 87.5t173.5 32.5q220 0 319 -115.5t99 -344.5v-314q0 -245 -103.5 -350.5t-345.5 -105.5t-345 105.5t-103 350.5zM307 436q0 -156 60 -213t194 -57t194 57t60 213v309q0 161 -58.5 220t-195.5 59q-57 0 -100 -12t-78.5 -41t-54 -83.5 t-19.5 -133.5z" />
<glyph unicode="c" horiz-adv-x="1081" d="M102 436v340q0 229 116 332.5t333 103.5q104 0 180 -20t134 -65t89 -124t35 -192l-184 -2q-3 69 -20.5 114t-52 68.5t-76.5 32t-105 8.5q-66 0 -109.5 -9.5t-78 -36.5t-50.5 -78.5t-16 -131.5v-340q0 -80 16 -133.5t49.5 -83t78 -41.5t110.5 -12q67 0 110 9t77 34t50 73 t17 124h184q-3 -235 -103 -330.5t-335 -95.5t-342 106.5t-107 349.5z" />
<glyph unicode="d" horiz-adv-x="1159" d="M111 426v315q0 237 105 351t300 114q106 0 174.5 -21.5t114.5 -82.5v500h196v-1602h-163l-25 158q-27 -77 -108.5 -120.5t-188.5 -43.5q-93 0 -165 22.5t-127 71.5t-84 134t-29 204zM305 424q0 -142 57 -195t183 -53q132 5 196 74.5t64 238.5v259q0 151 -56.5 210.5 t-189.5 59.5q-134 0 -194 -63t-60 -218v-313z" />
<glyph unicode="e" horiz-adv-x="1101" d="M109 426v350q0 226 114 327t328 101q442 0 442 -428v-256h-692v-90q0 -154 57 -208t193 -54q129 0 189.5 44t60.5 136h188q0 -178 -105 -269t-333 -91q-240 0 -341 99t-101 339zM301 690h506v86q0 77 -17.5 128.5t-53.5 79t-79.5 38t-105.5 10.5t-104.5 -10.5 t-77.5 -37.5t-51.5 -78.5t-16.5 -129.5v-86z" />
<glyph unicode="f" horiz-adv-x="655" d="M121 -2v1155q0 240 131 351q109 92 285 92q33 0 69 -3v-178q-34 3 -64 3q-31 0 -58 -4q-50 -7 -90 -34.5t-59.5 -84t-19.5 -142.5v-41h256v-180h-256v-934h-194z" />
<glyph unicode="g" horiz-adv-x="1089" d="M102 406v362q0 119 29 204t84.5 134t127.5 71.5t165 22.5q106 0 186 -43.5t107 -120.5l24 152h162v-1229q0 -235 -116.5 -346t-325.5 -111q-199 0 -304 83.5t-112 273.5h186q7 -100 66 -139t166 -39q126 0 192 62t66 216v197q-24 -66 -100.5 -114t-186.5 -48 q-206 0 -311 104.5t-105 307.5zM297 428q0 -136 56 -194t165 -58q66 0 114 14.5t85.5 49t56.5 96.5t19 153v232q-2 109 -33 174.5t-84.5 92.5t-138.5 30q-126 0 -183 -53t-57 -195v-342z" />
<glyph unicode="h" horiz-adv-x="1105" d="M113 0v1612h196v-522q35 52 106.5 87t166.5 35q221 0 316 -115t95 -347v-750h-194v745q0 160 -54.5 219.5t-189.5 59.5q-124 0 -184.5 -64t-61.5 -206l-2 -754h-194z" />
<glyph unicode="i" horiz-adv-x="491" d="M129 1473q0 43 25 73q24 28 58 36q18 4 37 4l33 -2q34 -6 58.5 -36.5t24.5 -74.5q0 -41 -25 -71q-24 -28 -58 -36q-19 -4 -39 -5l-31 3q-34 6 -58.5 35.5t-24.5 73.5zM147 0v1190h195v-1190h-195z" />
<glyph unicode="j" horiz-adv-x="495" d="M2 -213q34 -5 63.5 -1.5t51.5 16t34.5 48.5t12.5 95v1243h190v-1243q0 -189 -84 -268q-72 -66 -212 -66q-27 0 -56 2v174zM141 1473q0 43 24.5 72.5t58.5 36.5q19 5 37 5l33 -3q34 -7 58.5 -37t24.5 -74q0 -41 -24.5 -70.5t-58.5 -36.5q-20 -5 -39 -5l-31 3 q-34 6 -58.5 35.5t-24.5 73.5z" />
<glyph unicode="k" horiz-adv-x="1044" d="M113 0v1581h194v-864h78l371 481h237l-438 -563l479 -635h-233l-406 532h-88v-532h-194z" />
<glyph unicode="l" horiz-adv-x="518" d="M143 311v1270h191v-1268q0 -70 28 -95t95 -25v-193q-91 0 -148 13t-96 48t-54.5 95t-15.5 155z" />
<glyph unicode="m" horiz-adv-x="1888" d="M152 0v1198h163l15 -131q99 145 307 145q244 0 328 -147q119 147 366 147q102 0 174.5 -21t126 -71t79.5 -135.5t26 -210.5v-774h-197v778q0 127 -61.5 187.5t-171.5 60.5q-133 0 -199 -74t-66 -231v-721h-196v782q0 78 -16 129t-49.5 76t-73 34t-99.5 9 q-119 0 -189.5 -60.5t-70.5 -189.5v-780h-196z" />
<glyph unicode="n" horiz-adv-x="1193" d="M162 0v1198h174l12 -127q50 81 127.5 111t179.5 30q204 0 301 -99.5t97 -332.5v-780h-197v778q0 125 -62.5 190.5t-170.5 65.5q-116 0 -190.5 -66t-74.5 -188v-780h-196z" />
<glyph unicode="o" horiz-adv-x="1101" d="M102 436v342q0 229 116 331.5t333 102.5t332.5 -102.5t115.5 -331.5v-342q0 -244 -105 -350t-343 -106q-242 0 -345.5 105.5t-103.5 350.5zM297 436q0 -159 60 -222.5t194 -63.5q138 0 196 63t58 223v342q0 80 -16 132t-51 79.5t-78.5 38t-108.5 10.5t-108.5 -10.5 t-78.5 -38t-51 -79.5t-16 -132v-342z" />
<glyph unicode="p" horiz-adv-x="1150" d="M135 -403v1601h164l25 -158q27 77 108.5 120.5t188.5 43.5q93 0 165 -22.5t127 -71.5t84 -134t29 -204v-315q0 -237 -105 -351t-300 -114q-106 0 -174.5 21.5t-114.5 82.5v-499h-197zM332 451q0 -151 56.5 -211t189.5 -60q134 0 193.5 63t59.5 218v313q0 142 -56.5 195 t-182.5 53q-132 -5 -196 -74.5t-64 -238.5v-258z" />
<glyph unicode="q" horiz-adv-x="1126" d="M109 446v314q0 245 103 351t345 106t345.5 -106t103.5 -351v-1176h-197v522q-37 -55 -109.5 -87.5t-173.5 -32.5q-220 0 -318.5 115t-98.5 345zM303 451q0 -161 58.5 -220t195.5 -59q57 0 100 12t78.5 41t54 83.5t19.5 133.5l2 318q0 156 -60 213t-194 57t-194 -57 t-60 -213v-309z" />
<glyph unicode="r" horiz-adv-x="712" d="M123 -2v1200h178l8 -111q45 69 141 101q56 19 116 20q43 0 87 -10v-199q-41 7 -79 7q-94 0 -162 -44q-95 -60 -95 -194v-770h-194z" />
<glyph unicode="s" horiz-adv-x="999" d="M78 371h196q7 -107 71.5 -155t166.5 -48q109 0 169 51t60 139q0 29 -8.5 52.5t-21.5 39.5t-37 28.5t-44.5 19.5t-54.5 12t-57.5 7t-62.5 5q-367 25 -367 324q0 165 106 265.5t310 100.5t304 -92q96 -87 95 -244v-16h-186q0 176 -219 176q-103 0 -159 -47.5t-56 -142.5 q0 -39 12 -65.5t29 -41.5t50.5 -24t60.5 -12t75 -7q18 -1 27 -2q37 -3 62 -6t61.5 -9t61.5 -14t56 -21t52 -30t42.5 -41.5t34.5 -54.5t21 -70.5t8 -87.5q0 -182 -115.5 -276t-308.5 -94q-206 0 -316.5 95.5t-117.5 285.5z" />
<glyph unicode="t" horiz-adv-x="600" d="M131 330v1077l191 23v-238h206v-184h-206v-672q0 -94 49 -132q35 -28 106 -29q27 0 60 5v-180q-48 -7 -90 -7q-40 1 -74 7q-69 12 -115.5 37t-74.5 70.5t-40 99t-12 123.5z" />
<glyph unicode="u" horiz-adv-x="1169" d="M135 418v772h197v-770q0 -125 62.5 -190.5t170.5 -65.5q116 0 190 65.5t74 188.5v772h197v-1190h-174l-12 127q-50 -81 -128 -111t-180 -30q-204 0 -300.5 99.5t-96.5 332.5z" />
<glyph unicode="v" horiz-adv-x="915" d="M6 1198h203l123 -399q62 -211 127 -529q74 374 127 533l123 395h202l-354 -1200h-197z" />
<glyph unicode="w" horiz-adv-x="1521" d="M16 1198h205l123 -399q24 -81 43.5 -168.5t42.5 -210t29 -150.5q56 283 119 533l110 395h143l113 -395q53 -211 117 -533q6 28 29 150.5t42.5 210t43.5 168.5l122 399h205l-344 -1200h-194l-99 350l-106 465l-109 -471l-96 -344h-195z" />
<glyph unicode="x" horiz-adv-x="972" d="M18 0l355 604l-342 590h219l112 -190l123 -238l127 240l111 188h213l-340 -588l360 -606h-219l-121 209l-133 252l-133 -254l-119 -207h-213z" />
<glyph unicode="y" horiz-adv-x="1005" d="M31 1198h213l114 -385l154 -555q43 220 150 567l116 373h203l-375 -1200l-71 -227q-57 -180 -162 -229q-43 -21 -98 -21q-77 0 -177 41l35 166q37 -15 65.5 -20.5t61 -0.5t58.5 35.5t44 85.5l50 170z" />
<glyph unicode="z" horiz-adv-x="995" d="M63 0v31l590 989h-534v178h823v-35l-582 -981h594v-182h-891z" />
<glyph unicode="{" horiz-adv-x="655" d="M84 696v129q154 0 154 209v369q0 188 87 265t283 40v-137q-118 23 -160 -13t-42 -161v-363q0 -40 -0.5 -59t-4.5 -53.5t-13 -54t-24 -42.5t-41 -38.5t-61 -24.5q27 -7 48.5 -17.5t36.5 -26t26 -29.5t17.5 -36.5t10 -37.5t5 -42t2 -41t0.5 -43v-446q0 -124 38 -155.5 t162 -14.5l2 -141l-2 -2q-202 -33 -286 41.5t-84 263.5v452q0 209 -154 209z" />
<glyph unicode="|" horiz-adv-x="538" d="M186 -211v1800h166v-1800h-166z" />
<glyph unicode="}" horiz-adv-x="694" d="M72 -268l2 141q124 -17 162 14.5t38 155.5v446q0 29 0.5 43t2 41t5 42t10 37.5t17.5 36.5t26 29.5t36.5 26t48.5 17.5q-35 9 -61 24.5t-41 38.5t-24 42.5t-13 54t-4.5 53.5t-0.5 59v363q0 125 -42 161t-160 13v137q196 37 283 -40t87 -265v-369q0 -209 154 -209v-129 q-154 0 -154 -209v-452q0 -189 -84 -263.5t-286 -41.5z" />
<glyph unicode="~" horiz-adv-x="1323" d="M156 557q47 140 160.5 201t240.5 0l260 -127q154 -78 230 108l127 -49q-34 -94 -90.5 -151t-135 -71t-174.5 30l-264 129q-38 14 -68 17t-62 -5.5t-59.5 -41.5t-48.5 -89z" />
<glyph unicode="&#xa1;" horiz-adv-x="466" d="M121 1110q0 51 36.5 82t81 32t81 -29t36.5 -85q0 -53 -36.5 -84t-81 -31.5t-81 30t-36.5 85.5zM141 -373v1243h195v-1243h-195z" />
<glyph unicode="&#xa2;" horiz-adv-x="1081" d="M102 436v340q0 197 94.5 302t262.5 128v203h190v-201q88 -11 148.5 -33.5t108.5 -67t70.5 -118.5t22.5 -182h-194q0 72 -14.5 117.5t-48 70.5t-77.5 34t-114 9q-134 0 -194 -58t-60 -204v-340q0 -157 59 -215.5t195 -58.5q71 0 114 9t77 35.5t48.5 76.5t14.5 131h194 q0 -217 -84.5 -315t-277.5 -115v-191h-186v193q-184 20 -266.5 126.5t-82.5 323.5z" />
<glyph unicode="&#xa3;" horiz-adv-x="1122" d="M68 0v186h196v535h-196v188h196v267q0 199 99 310t292 111q171 0 270 -101.5t99 -289.5h-178q0 103 -52.5 158t-138.5 55q-95 0 -147.5 -60t-52.5 -177v-273h366v-188h-366v-537h575v-184h-962z" />
<glyph unicode="&#xa4;" horiz-adv-x="1105" d="M111 305l108 117q-55 101 -55 225t57 232l-108 118l135 154l112 -125q92 55 201 55q113 0 199 -55l114 125l136 -154l-107 -116q58 -104 58 -230q0 -119 -58 -229l107 -117l-136 -151l-114 122q-88 -53 -201 -53q-107 0 -199 53l-112 -122zM326 651q0 -105 63 -181.5 t170 -76.5q110 0 172 72.5t62 185.5q0 120 -61 191t-173 71q-107 0 -170 -78t-63 -184z" />
<glyph unicode="&#xa5;" horiz-adv-x="1036" d="M45 1581h211l127 -307l139 -393l140 393l126 307h211l-329 -793h182v-149h-234v-78h236v-145h-236v-418h-194v418h-225v145h225v78h-225v149h172z" />
<glyph unicode="&#xa6;" horiz-adv-x="552" d="M188 -53v743h177v-743h-177zM188 836v743h177v-743h-177z" />
<glyph unicode="&#xa7;" horiz-adv-x="1024" d="M98 350h178q3 -97 59 -140.5t148 -43.5q98 0 154 47t59 125q1 37 -13.5 63.5t-35 41t-58.5 24t-68 12.5t-79 6q-42 1 -84 10t-87 31.5t-78 56.5t-53.5 90t-18.5 126q2 73 33.5 129.5t105.5 107.5q-64 21 -100 78.5t-33 142.5q5 149 103 239.5t280 90.5q184 0 271.5 -82.5 t78.5 -234.5h-168q3 78 -44 119t-146 41q-94 0 -146 -43.5t-55 -129.5q-2 -57 29 -87t63.5 -36t111.5 -12q5 -1 7.5 -1t6.5 -0.5t7 -0.5q43 -4 71.5 -7.5t69.5 -12.5t68 -21.5t57.5 -35.5t47.5 -52.5t28 -73t9 -98.5q-3 -74 -41.5 -139.5t-104.5 -106.5q146 -65 141 -233 q-4 -163 -111.5 -248.5t-281.5 -85.5q-375 0 -381 344zM295 799q-3 -73 48 -113.5t144 -40.5q99 0 154.5 47t58.5 125q1 67 -58.5 107.5t-139.5 40.5q-89 0 -147.5 -42.5t-59.5 -123.5z" />
<glyph unicode="&#xa8;" horiz-adv-x="911" d="M119 1475q0 53 36.5 84t81 32t81 -30t36.5 -86q0 -51 -36.5 -82t-81 -32t-81 29t-36.5 85zM565 1475q0 43 24.5 72.5t59 37t69 1t59 -36.5t24.5 -74q0 -41 -24.5 -70.5t-59 -37t-69 -1.5t-59 35.5t-24.5 73.5z" />
<glyph unicode="&#xa9;" horiz-adv-x="1724" d="M125 770q0 115 29 223.5t89.5 205t146.5 168.5t209 113.5t267 39.5v-2q142 1 262.5 -38t206.5 -108t147 -162t90.5 -200.5t29.5 -223.5q0 -158 -46 -294t-135 -241t-231.5 -165.5t-323.5 -60.5t-323.5 57.5t-233 158.5t-137.5 235.5t-47 293.5zM276 766q0 -129 37 -238 t109 -191t186 -128.5t258 -46.5t256.5 45.5t183.5 129t107.5 196t36.5 249.5q0 172 -65.5 304.5t-199 210t-319.5 77.5q-144 0 -257.5 -45.5t-185.5 -127.5t-109.5 -192t-37.5 -243zM549 662v233q0 158 83 232.5t232 74.5q296 0 307 -282l-135 -2q-3 91 -44 122t-128 31 q-92 0 -133 -35t-41 -141v-233q0 -109 42 -149t132 -40q94 0 133 32.5t39 133.5h135q-3 -163 -74 -231t-233 -68t-238.5 77t-76.5 245z" />
<glyph unicode="&#xaa;" horiz-adv-x="919" d="M98 1057v190q0 91 27 158t76 106.5t113 58.5t143 19q350 0 350 -342v-516h-131l-21 127q-19 -53 -77.5 -92t-145.5 -39q-334 0 -334 330zM131 426v158h674v-158h-674zM256 1075q0 -109 44 -156t132 -47q109 0 164 56t55 196v123q0 113 -51 155t-143 42q-97 0 -149 -49.5 t-52 -147.5v-172z" />
<glyph unicode="&#xab;" horiz-adv-x="935" d="M100 608l283 451h180l-280 -451l280 -452h-180zM369 608l282 451h180l-280 -451l280 -452h-180z" />
<glyph unicode="&#xac;" horiz-adv-x="1083" d="M160 635v153h753v-423h-153v270h-600z" />
<glyph unicode="&#xad;" horiz-adv-x="968" d="M109 600v160h733v-160h-733z" />
<glyph unicode="&#xae;" horiz-adv-x="1716" d="M119 725q0 156 50 293t142.5 241t234.5 164t316 60q175 0 318 -60t235.5 -164t142.5 -241t50 -293q0 -155 -50 -292t-142.5 -241t-235.5 -164.5t-318 -60.5q-173 0 -315.5 60.5t-235 164.5t-142.5 241t-50 292zM276 725v4q0 -174 67 -312.5t202 -222t317 -83.5 q138 0 250.5 48t186.5 132t113.5 195.5t39.5 240.5q0 130 -39.5 242t-113.5 196t-186.5 132.5t-250.5 48.5q-137 0 -249 -48.5t-185 -132.5t-112.5 -197t-39.5 -243zM610 301v875h269q65 0 114.5 -12t90.5 -40.5t63 -83t22 -133.5v-37q0 -114 -39.5 -177t-132.5 -81 l181 -311h-160l-166 285h-107v-285h-135zM745 715h134q80 0 113.5 31.5t33.5 123.5v37q0 38 -6.5 62.5t-15 38t-31 21t-39 9.5t-55.5 4h-134v-327z" />
<glyph unicode="&#xaf;" horiz-adv-x="788" d="M137 1436v151h502v-151h-502z" />
<glyph unicode="&#xb0;" horiz-adv-x="667" d="M71 1309.5q-4 40.5 1 80.5t26.5 76t51 64t74.5 44.5t98 16.5t97.5 -16.5t73.5 -44.5t49 -64t25 -76t1 -80.5t-24 -76.5t-48.5 -64t-73 -44.5t-98.5 -16.5q-56 0 -102.5 16.5t-76 44.5t-50 64t-24.5 76.5zM196.5 1348.5q-0.5 -30.5 12 -57.5t41.5 -44.5t69 -17.5 q38 0 66 17.5t40.5 44.5t12.5 57.5t-13 57.5t-40.5 44.5t-65.5 17.5t-66.5 -17.5t-42 -44.5t-14 -57.5z" />
<glyph unicode="&#xb1;" horiz-adv-x="1017" d="M119 684v156h315v321h164v-321h315v-156h-315v-324h-164v324h-315zM127 70v155h780v-155h-780z" />
<glyph unicode="&#xb2;" horiz-adv-x="649" d="M80 739v181q0 60 14.5 108t32.5 77t52.5 56t56 39t61.5 31q111 55 111 133q0 90 -89 90q-98 0 -90 -123h-139q-16 266 234 266q110 0 171.5 -59t61.5 -174q0 -55 -15 -97.5t-44 -71.5t-56 -47t-67 -36q-5 -2 -23.5 -11t-24 -12t-21 -11.5t-21 -15t-16.5 -17t-15.5 -22 t-10.5 -27t-8 -34t-2 -40.5v-31h322v-152h-475z" />
<glyph unicode="&#xb3;" horiz-adv-x="638" d="M57 995h152q3 -123 98 -123q99 0 99 119q0 63 -26 88t-73 25h-65v145h65q92 4 92 109q0 44 -23 67t-65 23t-69 -30.5t-27 -92.5h-147q0 135 60.5 198.5t184.5 65.5q109 0 175.5 -56.5t66.5 -174.5q0 -47 -25 -98.5t-69 -73.5q56 -24 80 -71t24 -124q0 -126 -67 -197 t-193 -71q-130 0 -189 67t-59 205z" />
<glyph unicode="&#xb4;" horiz-adv-x="501" d="M111 1313v10l108 260h193v-6l-146 -264h-155z" />
<glyph unicode="&#xb5;" horiz-adv-x="1112" d="M121 -451v1641h203v-756q0 -147 60 -213.5t179 -66.5q118 0 177 69.5t59 235.5v729h194v-1188h-166l-20 113q-29 -78 -96.5 -122t-153.5 -44q-194 0 -246 141v-541h-190v2z" />
<glyph unicode="&#xb6;" horiz-adv-x="1323" d="M86 1051q1 85 12.5 158t42 144t78.5 120t126 79.5t179 30.5h746v-194h-178v-1815h-199v1815h-219v-1817h-203v954q-93 7 -163.5 41t-112 82.5t-67 117t-34.5 136t-8 148.5z" />
<glyph unicode="&#xb7;" horiz-adv-x="411" d="M96 678q0 43 24.5 72.5t59 37t69 1t59 -36.5t24.5 -74q0 -41 -24.5 -70.5t-59 -37t-69 -1.5t-59 35.5t-24.5 73.5z" />
<glyph unicode="&#xb8;" horiz-adv-x="602" d="M55 -371l70 109q18 -31 52 -52.5t71 -21.5q80 0 98 70q13 58 -33.5 91.5t-115.5 2.5l-29 27l-4 -2l45 186h133l-23 -102q54 4 93 -17.5t55 -55.5t23.5 -74t-1.5 -75q-19 -92 -86.5 -144t-158.5 -46q-133 8 -189 104z" />
<glyph unicode="&#xb9;" horiz-adv-x="542" d="M78 735v131h131v588h-98v129h237v-717h123v-131h-393z" />
<glyph unicode="&#xba;" horiz-adv-x="894" d="M96 1245q0 161 98 252.5t250 91.5q151 0 250 -91.5t99 -250.5q0 -161 -99.5 -255.5t-247.5 -94.5q-152 0 -251 93t-99 255zM133 610v158h627v-158h-627zM250 1247q0 -93 53.5 -149t142.5 -56q88 0 142.5 55.5t54.5 147.5q0 91 -57 149t-142 58q-84 0 -139 -57.5 t-55 -147.5z" />
<glyph unicode="&#xbb;" horiz-adv-x="935" d="M106 160l279 450l-279 451h179l282 -451l-282 -450h-179zM375 160l278 450l-278 451h178l283 -451l-283 -450h-178z" />
<glyph unicode="&#xbc;" horiz-adv-x="1550" d="M106 735v131h132v588h-99v129h238v-717h123v-131h-394zM317 -4l758 1589h164l-762 -1589h-160zM877 279l331 550h168v-516h82v-143h-82v-172h-151v172h-330zM1067 313h160v133l20 197z" />
<glyph unicode="&#xbd;" horiz-adv-x="1660" d="M106 735v131h132v588h-99v129h238v-717h123v-131h-394zM317 -4l758 1589h164l-762 -1589h-160zM1006 0v180q0 60 14.5 108t32.5 77.5t52.5 56.5t56 39t61.5 31q110 54 110 133q0 90 -88 90q-98 0 -90 -123h-139q-16 266 233 266q110 0 172 -59t62 -174q0 -55 -15 -97.5 t-44.5 -72t-56.5 -46.5t-67 -36q-5 -2 -21.5 -10t-21.5 -10.5t-19 -10.5t-19 -12.5t-16 -14t-15.5 -18t-11.5 -21t-9.5 -26t-5 -31t-2.5 -37.5v-30h328v-152h-481z" />
<glyph unicode="&#xbe;" horiz-adv-x="1648" d="M119 995h151q3 -123 99 -123q98 0 98 119q0 63 -25.5 88t-72.5 25h-66v145h66q92 4 92 109q0 44 -23 67t-65 23t-69.5 -30.5t-27.5 -92.5h-147q0 135 61 198.5t185 65.5q109 0 175 -56.5t66 -174.5q0 -47 -25 -98.5t-69 -73.5q56 -24 80.5 -71t24.5 -124q0 -126 -67 -197 t-193 -71q-130 0 -189 67t-59 205zM379 -4l758 1589h163l-761 -1589h-160zM938 279l332 550h168v-516h82v-143h-82v-172h-152v172h-330zM1128 313h160v133l21 197z" />
<glyph unicode="&#xbf;" horiz-adv-x="1003" d="M92 57v72q0 97 21.5 171t56 119t76 81.5t83.5 69t76.5 68.5t56 93t21.5 131h185q0 -96 -21 -169t-54.5 -117.5t-74.5 -80t-81.5 -67.5t-74 -68.5t-54.5 -94t-21 -134.5v-68q3 -165 55.5 -230.5t173.5 -65.5q133 0 180 50.5t47 196.5h189q0 -57 -3.5 -101t-15 -91 t-30.5 -81t-51 -65.5t-76.5 -51t-107.5 -31t-142 -11.5q-414 0 -414 475zM444 1104q0 41 24.5 70.5t59 37t69 1.5t59 -35.5t24.5 -73.5q0 -43 -24.5 -72.5t-59 -37t-69 -1t-59 36.5t-24.5 74z" />
<glyph unicode="&#xc0;" d="M18 0l420 1575h199l418 -1575h-201l-80 293h-473l-80 -293h-203zM307 1944v6h199l108 -260v-11h-161zM350 477h373l-82 336l-104 508l-107 -514z" />
<glyph unicode="&#xc1;" d="M18 0l420 1575h199l418 -1575h-201l-80 293h-473l-80 -293h-203zM350 477h373l-82 336l-104 508l-107 -514zM467 1671v10l108 261h193v-7l-145 -264h-156z" />
<glyph unicode="&#xc2;" d="M18 0l420 1575h199l418 -1575h-201l-80 293h-473l-80 -293h-203zM227 1665v14l246 250h117l254 -250v-14h-191l-116 117l-119 -117h-191zM350 477h373l-82 336l-104 508l-107 -514z" />
<glyph unicode="&#xc3;" d="M18 0l420 1575h199l418 -1575h-201l-80 293h-473l-80 -293h-203zM258 1720q22 93 93 135t157 11l92 -43q79 -29 105 53l116 -47q-21 -104 -90.5 -143.5t-146.5 -8.5l-90 41q-91 32 -123 -51zM350 477h373l-82 336l-104 508l-107 -514z" />
<glyph unicode="&#xc4;" d="M18 0l420 1575h199l418 -1575h-201l-80 293h-473l-80 -293h-203zM195 1761q0 53 36.5 84t81 31.5t81 -30t36.5 -85.5q0 -51 -36.5 -82t-81 -32t-81 29t-36.5 85zM350 477h373l-82 336l-104 508l-107 -514zM641 1761q0 43 24.5 72.5t59 37t69 1t59 -36.5t24.5 -74 q0 -41 -24.5 -70.5t-59 -37t-69 -1.5t-59 35.5t-24.5 73.5z" />
<glyph unicode="&#xc5;" d="M18 0l400 1501q-103 59 -103 187h2q0 99 65 156t155 57q89 0 155 -56.5t66 -154.5q0 -63 -28 -111t-75 -74l400 -1505h-201l-80 293h-473l-80 -293h-203zM350 477h373l-82 336l-104 508l-107 -514zM442 1687.5q0 -34.5 25.5 -63.5t69.5 -29q46 0 72 29t25.5 63.5 t-26.5 63.5t-71 29q-44 0 -69.5 -29t-25.5 -63.5z" />
<glyph unicode="&#xc6;" horiz-adv-x="1536" d="M4 0l629 1581h815v-166h-537v-481h504v-174h-504v-586h555v-174h-735v377h-385l-143 -377h-199zM412 551h319v852l-123 -352z" />
<glyph unicode="&#xc7;" horiz-adv-x="1187" d="M100 524v537q0 111 12 189t44 146.5t88 109.5t145.5 64t214.5 23q102 0 178.5 -12.5t131 -39t90 -62.5t56 -90t29 -113.5t9.5 -140.5h-191q-1 78 -11.5 124.5t-42 83.5t-92 52.5t-157.5 15.5q-82 0 -137 -13t-89 -36.5t-52 -69t-23.5 -96.5t-5.5 -133v-541 q0 -81 6.5 -133t25 -96.5t53 -68.5t88.5 -37t134 -13q69 0 115.5 5t82 20t56 35.5t33 57.5t16.5 80.5t4 110.5h187q0 -71 -3 -119.5t-13 -103.5t-28.5 -90.5t-51 -71t-79 -56t-113 -34t-153.5 -16.5l-20 -96q44 3 78 -10.5t53.5 -37.5t32 -54.5t13 -62t-2.5 -59.5 q-20 -96 -88.5 -145t-161.5 -43q-132 8 -188 104l69 109q18 -31 52 -52.5t71 -21.5q81 0 99 70q13 58 -34 91.5t-116 2.5l-29 27l-4 -2l43 180q-72 4 -129.5 15t-100.5 31.5t-74.5 44.5t-52.5 60.5t-34.5 73.5t-20.5 89.5t-9.5 101.5t-2.5 116z" />
<glyph unicode="&#xc8;" horiz-adv-x="1042" d="M119 0v1581h796v-172h-602v-475h545v-182h-545v-570h654v-182h-848zM332 1942v6h198l109 -260v-11h-162z" />
<glyph unicode="&#xc9;" horiz-adv-x="1042" d="M119 0v1581h796v-172h-602v-475h545v-182h-545v-570h654v-182h-848zM451 1683v11l108 260h193v-6l-146 -265h-155z" />
<glyph unicode="&#xca;" horiz-adv-x="1042" d="M119 0v1581h796v-172h-602v-475h545v-182h-545v-570h654v-182h-848zM246 1690v14l246 250h116l254 -250v-14h-190l-117 116l-119 -116h-190z" />
<glyph unicode="&#xcb;" horiz-adv-x="1042" d="M119 0v1581h796v-172h-602v-475h545v-182h-545v-570h654v-182h-848zM197 1817q0 53 36.5 84t81 32t81 -30t36.5 -86q0 -51 -36.5 -82t-81 -32t-81 29t-36.5 85zM643 1817q0 43 24.5 72.5t59 37t69 1t59 -36.5t24.5 -74q0 -41 -24.5 -70.5t-59 -37t-69 -1.5t-59 35.5 t-24.5 73.5z" />
<glyph unicode="&#xcc;" horiz-adv-x="481" d="M25 1946v6h198l109 -260v-11h-162zM143 -2v1577h199v-1577h-199z" />
<glyph unicode="&#xcd;" horiz-adv-x="485" d="M143 -2v1577h199v-1577h-199zM174 1704v10l109 260h192v-6l-145 -264h-156z" />
<glyph unicode="&#xce;" horiz-adv-x="485" d="M-61 1681v15l245 250h117l254 -250v-15h-190l-117 117l-119 -117h-190zM143 -2v1577h199v-1577h-199z" />
<glyph unicode="&#xcf;" horiz-adv-x="485" d="M-72 1782q0 43 24.5 72.5t59 37t69 1t59 -36.5t24.5 -74q0 -41 -24.5 -70.5t-59 -37t-69 -1.5t-59 35.5t-24.5 73.5zM143 -2v1577h199v-1577h-199zM326 1782q0 53 36.5 84t81 31.5t81 -30t36.5 -85.5q0 -51 -36.5 -82t-81 -32t-81 29t-36.5 85z" />
<glyph unicode="&#xd0;" horiz-adv-x="1241" d="M6 702v160h150v717h479q105 0 183.5 -15t133 -46.5t90.5 -73.5t56 -104.5t27.5 -130t7.5 -158.5v-521q0 -111 -11.5 -188.5t-44 -146.5t-89 -110t-148 -63.5t-219.5 -21.5h-465v702h-150zM350 186h271q56 0 98.5 4t75 14.5t55.5 23t39 36t25 46t14 60t6.5 71.5t1.5 87 v525q0 53 -1.5 87t-6.5 71.5t-14 60t-25 46t-39 36t-55.5 23t-75 14.5t-98.5 4h-271v-533h244v-160h-244v-516z" />
<glyph unicode="&#xd1;" horiz-adv-x="1126" d="M129 0v1579h184l535 -1208l-29 536v672h195v-1579h-183l-520 1135l13 -519v-616h-195zM289 1772q22 93 93 134.5t157 10.5l92 -43q78 -29 104 53l117 -47q-21 -104 -91 -143t-147 -8l-90 40q-91 32 -123 -51z" />
<glyph unicode="&#xd2;" horiz-adv-x="1220" d="M104 518v551q0 111 11.5 189t44 147t89 110t147.5 64t220 23t220 -23t147.5 -64t89 -110t44 -147t11.5 -189v-551q0 -79 -5.5 -139t-20 -117.5t-39.5 -98.5t-63.5 -76t-92 -56.5t-126.5 -33t-165 -11.5t-165 11.5t-126.5 33t-92 56.5t-63.5 76t-39.5 98.5t-20 117.5 t-5.5 139zM301 516q0 -53 1.5 -87.5t6.5 -72t14 -61t25 -47t39 -36.5t55.5 -24t75 -15.5t98.5 -4.5q63 0 110 6.5t81.5 18t57 34.5t36 46.5t20.5 64.5t9 79.5t2 98.5v555q0 60 -2 98.5t-9 80t-20.5 65.5t-36 47.5t-56.5 35t-81.5 18.5t-110.5 7q-74 0 -126 -8t-87 -28.5 t-55 -44.5t-30.5 -69.5t-13.5 -88t-3 -113.5v-555zM412 1968v6h198l109 -260v-10h-162z" />
<glyph unicode="&#xd3;" horiz-adv-x="1220" d="M104 518v551q0 111 11.5 189t44 147t89 110t147.5 64t220 23t220 -23t147.5 -64t89 -110t44 -147t11.5 -189v-551q0 -79 -5.5 -139t-20 -117.5t-39.5 -98.5t-63.5 -76t-92 -56.5t-126.5 -33t-165 -11.5t-165 11.5t-126.5 33t-92 56.5t-63.5 76t-39.5 98.5t-20 117.5 t-5.5 139zM301 516q0 -53 1.5 -87.5t6.5 -72t14 -61t25 -47t39 -36.5t55.5 -24t75 -15.5t98.5 -4.5q63 0 110 6.5t81.5 18t57 34.5t36 46.5t20.5 64.5t9 79.5t2 98.5v555q0 60 -2 98.5t-9 80t-20.5 65.5t-36 47.5t-56.5 35t-81.5 18.5t-110.5 7q-74 0 -126 -8t-87 -28.5 t-55 -44.5t-30.5 -69.5t-13.5 -88t-3 -113.5v-555zM555 1704v10l109 260h192v-6l-145 -264h-156z" />
<glyph unicode="&#xd4;" horiz-adv-x="1220" d="M104 518v551q0 111 11.5 189t44 147t89 110t147.5 64t220 23t220 -23t147.5 -64t89 -110t44 -147t11.5 -189v-551q0 -79 -5.5 -139t-20 -117.5t-39.5 -98.5t-63.5 -76t-92 -56.5t-126.5 -33t-165 -11.5t-165 11.5t-126.5 33t-92 56.5t-63.5 76t-39.5 98.5t-20 117.5 t-5.5 139zM301 516q0 -53 1.5 -87.5t6.5 -72t14 -61t25 -47t39 -36.5t55.5 -24t75 -15.5t98.5 -4.5q63 0 110 6.5t81.5 18t57 34.5t36 46.5t20.5 64.5t9 79.5t2 98.5v555q0 60 -2 98.5t-9 80t-20.5 65.5t-36 47.5t-56.5 35t-81.5 18.5t-110.5 7q-74 0 -126 -8t-87 -28.5 t-55 -44.5t-30.5 -69.5t-13.5 -88t-3 -113.5v-555zM332 1704v14l246 250h116l254 -250v-14h-190l-117 117l-119 -117h-190z" />
<glyph unicode="&#xd5;" horiz-adv-x="1220" d="M104 518v551q0 111 11.5 189t44 147t89 110t147.5 64t220 23t220 -23t147.5 -64t89 -110t44 -147t11.5 -189v-551q0 -79 -5.5 -139t-20 -117.5t-39.5 -98.5t-63.5 -76t-92 -56.5t-126.5 -33t-165 -11.5t-165 11.5t-126.5 33t-92 56.5t-63.5 76t-39.5 98.5t-20 117.5 t-5.5 139zM301 516q0 -53 1.5 -87.5t6.5 -72t14 -61t25 -47t39 -36.5t55.5 -24t75 -15.5t98.5 -4.5q63 0 110 6.5t81.5 18t57 34.5t36 46.5t20.5 64.5t9 79.5t2 98.5v555q0 60 -2 98.5t-9 80t-20.5 65.5t-36 47.5t-56.5 35t-81.5 18.5t-110.5 7q-74 0 -126 -8t-87 -28.5 t-55 -44.5t-30.5 -69.5t-13.5 -88t-3 -113.5v-555zM340 1772q22 93 93 134.5t157 10.5l92 -43q78 -29 104 53l117 -47q-21 -104 -90.5 -143t-146.5 -8l-91 40q-90 32 -122 -51z" />
<glyph unicode="&#xd6;" horiz-adv-x="1220" d="M104 518v551q0 111 11.5 189t44 147t89 110t147.5 64t220 23t220 -23t147.5 -64t89 -110t44 -147t11.5 -189v-551q0 -79 -5.5 -139t-20 -117.5t-39.5 -98.5t-63.5 -76t-92 -56.5t-126.5 -33t-165 -11.5t-165 11.5t-126.5 33t-92 56.5t-63.5 76t-39.5 98.5t-20 117.5 t-5.5 139zM289 1815q0 53 36.5 84t81 32t81 -30t36.5 -86q0 -51 -36.5 -82t-81 -32t-81 29t-36.5 85zM301 516q0 -53 1.5 -87.5t6.5 -72t14 -61t25 -47t39 -36.5t55.5 -24t75 -15.5t98.5 -4.5q63 0 110 6.5t81.5 18t57 34.5t36 46.5t20.5 64.5t9 79.5t2 98.5v555 q0 60 -2 98.5t-9 80t-20.5 65.5t-36 47.5t-56.5 35t-81.5 18.5t-110.5 7q-74 0 -126 -8t-87 -28.5t-55 -44.5t-30.5 -69.5t-13.5 -88t-3 -113.5v-555zM735 1815q0 43 24.5 72.5t59 37t69 1t59 -36.5t24.5 -74q0 -41 -24.5 -70.5t-59 -37t-69 -1.5t-59 35.5t-24.5 73.5z" />
<glyph unicode="&#xd7;" horiz-adv-x="962" d="M139 424l234 233l-230 228l111 106l225 -227l228 227l108 -106l-231 -234l235 -233l-106 -103l-232 234l-231 -234z" />
<glyph unicode="&#xd8;" horiz-adv-x="1220" d="M104 518v551q0 111 11.5 189t44 147t89 110t147.5 64t220 23q105 0 205 -21l66 172h164l-86 -225q94 -59 128.5 -169.5t34.5 -289.5v-551q0 -79 -5.5 -139t-20 -117.5t-39.5 -98.5t-63.5 -76t-92 -56.5t-126.5 -33t-165 -11.5q-129 0 -225 22l-61 -164h-164l86 228 q-84 61 -116 168t-32 278zM301 516q0 -92 5.5 -145.5t23.5 -91.5l428 1132q-59 12 -142 12q-74 0 -126 -8t-87 -28.5t-55 -44.5t-30.5 -69.5t-13.5 -88t-3 -113.5v-555zM457 182q57 -14 159 -14q63 0 110 6.5t81.5 18t57 34.5t36 46.5t20.5 64.5t9 79.5t2 98.5v555 q0 98 -8.5 159t-32.5 101z" />
<glyph unicode="&#xd9;" horiz-adv-x="1232" d="M123 520v1059h196v-1061q0 -99 11.5 -160.5t43.5 -106t89 -63t149 -18.5q73 0 123.5 13t83.5 37t51 68t24.5 97t6.5 133v1063h197v-1061q0 -135 -23.5 -230t-78.5 -165t-150 -103.5t-234 -33.5t-234.5 33.5t-151 103.5t-79.5 165t-24 230zM393 1960v6h199l108 -260v-10 h-161z" />
<glyph unicode="&#xda;" horiz-adv-x="1232" d="M123 520v1059h196v-1061q0 -99 11.5 -160.5t43.5 -106t89 -63t149 -18.5q73 0 123.5 13t83.5 37t51 68t24.5 97t6.5 133v1063h197v-1061q0 -135 -23.5 -230t-78.5 -165t-150 -103.5t-234 -33.5t-234.5 33.5t-151 103.5t-79.5 165t-24 230zM539 1683v11l108 260h193v-6 l-146 -265h-155z" />
<glyph unicode="&#xdb;" horiz-adv-x="1232" d="M123 520v1059h196v-1061q0 -99 11.5 -160.5t43.5 -106t89 -63t149 -18.5q73 0 123.5 13t83.5 37t51 68t24.5 97t6.5 133v1063h197v-1061q0 -135 -23.5 -230t-78.5 -165t-150 -103.5t-234 -33.5t-234.5 33.5t-151 103.5t-79.5 165t-24 230zM324 1696v14l245 250h117 l254 -250v-14h-190l-117 116l-119 -116h-190z" />
<glyph unicode="&#xdc;" horiz-adv-x="1232" d="M123 520v1059h196v-1061q0 -99 11.5 -160.5t43.5 -106t89 -63t149 -18.5q73 0 123.5 13t83.5 37t51 68t24.5 97t6.5 133v1063h197v-1061q0 -135 -23.5 -230t-78.5 -165t-150 -103.5t-234 -33.5t-234.5 33.5t-151 103.5t-79.5 165t-24 230zM279 1825q0 53 36.5 84t81 32 t81 -30t36.5 -86q0 -51 -36.5 -82t-81 -32t-81 29t-36.5 85zM725 1825q0 43 24.5 72.5t59 37t69 1t59 -36.5t24.5 -74q0 -41 -24.5 -70.5t-59 -37t-69 -1.5t-59 35.5t-24.5 73.5z" />
<glyph unicode="&#xdd;" horiz-adv-x="944" d="M-4 1581h211l127 -307l139 -393l139 393l127 307h211l-381 -919v-664h-194v664zM385 1675v11l109 260h192v-7l-145 -264h-156z" />
<glyph unicode="&#xde;" horiz-adv-x="1085" d="M143 0v1579h195v-250h229q218 0 333.5 -101t115.5 -329v-172q0 -245 -103.5 -351t-345.5 -106h-229v-270h-195zM338 457h229q137 0 195.5 56.5t58.5 213.5v172q0 81 -14 130t-48 74.5t-77 33.5t-115 8h-229v-688z" />
<glyph unicode="&#xdf;" horiz-adv-x="1058" d="M104 0v1196q0 94 17.5 164.5t58.5 128t116.5 87.5t182.5 30t181.5 -30t115 -87.5t57.5 -128t17 -164.5q0 -215 -133 -313q140 -41 203 -142.5t63 -259.5q0 -255 -108 -368t-365 -113h-119v172h123q70 0 120 15.5t79.5 40.5t46.5 66t22.5 83.5t5.5 101.5 q0 148 -63.5 208.5t-204.5 60.5h-125v186h49q54 0 93.5 17t61.5 41.5t34.5 62t16 69.5t3.5 72q0 119 -38.5 177.5t-139.5 58.5q-97 0 -136.5 -59.5t-39.5 -176.5v-1196h-195z" />
<glyph unicode="&#xe0;" d="M90 276q-15 158 84.5 265t284.5 133q93 14 289 18v117q0 110 -50.5 166.5t-177.5 56.5q-93 0 -141 -43.5t-47 -157.5h-191q-6 195 92 287t293 92q205 0 311.5 -95t106.5 -306v-809h-176l-16 162q-34 -71 -118.5 -121.5t-187.5 -50.5q-79 0 -140.5 16.5t-99.5 43 t-63.5 65.5t-36.5 77t-16 84zM287 301q6 -66 56 -95.5t124 -29.5q78 0 134 27t87.5 77t46.5 111t17 139q-188 0 -277 -20q-208 -45 -188 -209zM350 1593v6h199l108 -260v-10h-161z" />
<glyph unicode="&#xe1;" d="M90 276q-15 158 84.5 265t284.5 133q93 14 289 18v117q0 110 -50.5 166.5t-177.5 56.5q-93 0 -141 -43.5t-47 -157.5h-191q-6 195 92 287t293 92q205 0 311.5 -95t106.5 -306v-809h-176l-16 162q-34 -71 -118.5 -121.5t-187.5 -50.5q-79 0 -140.5 16.5t-99.5 43 t-63.5 65.5t-36.5 77t-16 84zM287 301q6 -66 56 -95.5t124 -29.5q78 0 134 27t87.5 77t46.5 111t17 139q-188 0 -277 -20q-208 -45 -188 -209zM465 1333v10l108 261h193v-7l-145 -264h-156z" />
<glyph unicode="&#xe2;" d="M90 276q-15 158 84.5 265t284.5 133q93 14 289 18v117q0 110 -50.5 166.5t-177.5 56.5q-93 0 -141 -43.5t-47 -157.5h-191q-6 195 92 287t293 92q205 0 311.5 -95t106.5 -306v-809h-176l-16 162q-34 -71 -118.5 -121.5t-187.5 -50.5q-79 0 -140.5 16.5t-99.5 43 t-63.5 65.5t-36.5 77t-16 84zM260 1325v14l246 250h117l254 -250v-14h-191l-117 117l-118 -117h-191zM287 301q6 -66 56 -95.5t124 -29.5q78 0 134 27t87.5 77t46.5 111t17 139q-188 0 -277 -20q-208 -45 -188 -209z" />
<glyph unicode="&#xe3;" d="M90 276q-15 158 84.5 265t284.5 133q93 14 289 18v117q0 110 -50.5 166.5t-177.5 56.5q-93 0 -141 -43.5t-47 -157.5h-191q-6 195 92 287t293 92q205 0 311.5 -95t106.5 -306v-809h-176l-16 162q-34 -71 -118.5 -121.5t-187.5 -50.5q-79 0 -140.5 16.5t-99.5 43 t-63.5 65.5t-36.5 77t-16 84zM262 1436q22 93 93 134.5t157 10.5l92 -43q79 -29 105 53l116 -47q-21 -104 -90.5 -143t-146.5 -8l-90 41q-91 32 -123 -52zM287 301q6 -66 56 -95.5t124 -29.5q78 0 134 27t87.5 77t46.5 111t17 139q-188 0 -277 -20q-208 -45 -188 -209z" />
<glyph unicode="&#xe4;" d="M90 276q-15 158 84.5 265t284.5 133q93 14 289 18v117q0 110 -50.5 166.5t-177.5 56.5q-93 0 -141 -43.5t-47 -157.5h-191q-6 195 92 287t293 92q205 0 311.5 -95t106.5 -306v-809h-176l-16 162q-34 -71 -118.5 -121.5t-187.5 -50.5q-79 0 -140.5 16.5t-99.5 43 t-63.5 65.5t-36.5 77t-16 84zM254 1475q0 53 36.5 84t81 32t81 -30t36.5 -86q0 -51 -36.5 -82t-81 -32t-81 29t-36.5 85zM287 301q6 -66 56 -95.5t124 -29.5q78 0 134 27t87.5 77t46.5 111t17 139q-188 0 -277 -20q-208 -45 -188 -209zM657 1475q0 43 24.5 72.5t59 37t69 1 t59 -36.5t24.5 -74q0 -41 -24.5 -70.5t-59 -37t-69 -1.5t-59 35.5t-24.5 73.5z" />
<glyph unicode="&#xe5;" d="M90 276q-15 158 84.5 265t284.5 133q93 14 289 18v117q0 110 -50.5 166.5t-177.5 56.5q-93 0 -141 -43.5t-47 -157.5h-191q-6 195 92 287t293 92q205 0 311.5 -95t106.5 -306v-809h-176l-16 162q-34 -71 -118.5 -121.5t-187.5 -50.5q-79 0 -140.5 16.5t-99.5 43 t-63.5 65.5t-36.5 77t-16 84zM287 301q6 -66 56 -95.5t124 -29.5q78 0 134 27t87.5 77t46.5 111t17 139q-188 0 -277 -20q-208 -45 -188 -209zM330 1487q0 90 64.5 141t156.5 51q89 0 156 -51t67 -139q0 -90 -65.5 -141.5t-159.5 -51.5q-96 0 -158 51t-61 140zM455 1488 q0 -31 25.5 -57t70.5 -26q46 0 72 26t25.5 57t-26.5 57t-71 26t-70.5 -26t-25.5 -57z" />
<glyph unicode="&#xe6;" horiz-adv-x="1687" d="M80 276q-15 160 81.5 266t287.5 132q92 14 294 18v117q0 109 -52.5 166t-180.5 57q-93 0 -141 -43.5t-47 -157.5h-191q-6 195 92 287t293 92q115 0 193 -32.5t120 -110.5q50 77 129.5 111t196.5 34q213 0 324.5 -103t111.5 -331v-260h-680v-90q0 -108 26 -166t76 -79 t142 -21q129 0 185.5 44t56.5 138h190q0 -181 -101.5 -272.5t-330.5 -91.5q-146 0 -228.5 43t-129.5 135q-76 -95 -160.5 -136.5t-200.5 -41.5q-327 0 -356 296zM276 301q6 -66 57 -97.5t124 -31.5q280 0 291 352q-7 0 -51 1t-74.5 1t-76.5 -4t-81 -12q-209 -45 -189 -209z M911 692h492v86q0 79 -16 131t-50 80t-76.5 38.5t-105.5 10.5t-104.5 -10.5t-75 -38t-49 -79.5t-15.5 -132v-86z" />
<glyph unicode="&#xe7;" horiz-adv-x="1081" d="M102 436v340q0 229 116 332.5t333 103.5q104 0 180 -20t134 -65t89 -124t35 -192l-184 -2q-3 69 -20.5 114t-52 68.5t-76.5 32t-105 8.5q-66 0 -109.5 -9.5t-78 -36.5t-50.5 -78.5t-16 -131.5v-340q0 -80 16 -133.5t49.5 -83t78 -41.5t110.5 -12q67 0 110 9t77 34t50 73 t17 124h184q-3 -221 -92.5 -318t-294.5 -106l-20 -88q43 3 76.5 -10t52 -36t30.5 -52.5t12 -59.5t-3 -58q-19 -89 -86.5 -139.5t-157.5 -44.5q-130 8 -187 103l68 104q18 -30 52.5 -51t70.5 -21q79 0 98 68q11 57 -34.5 89t-114.5 3l-29 25l-4 -2l43 172q-191 15 -279 122.5 t-88 329.5z" />
<glyph unicode="&#xe8;" horiz-adv-x="1085" d="M109 426v350q0 226 114 327t328 101q442 0 442 -428v-256h-692v-90q0 -154 57 -208t193 -54q129 0 189.5 44t60.5 136h188q0 -178 -105 -269t-333 -91q-240 0 -341 99t-101 339zM301 690h506v86q0 77 -17.5 128.5t-53.5 79t-79.5 38t-105.5 10.5t-104.5 -10.5 t-77.5 -37.5t-51.5 -78.5t-16.5 -129.5v-86zM344 1587v6h199l108 -260v-10h-162z" />
<glyph unicode="&#xe9;" horiz-adv-x="1085" d="M109 426v350q0 226 114 327t328 101q442 0 442 -428v-256h-692v-90q0 -154 57 -208t193 -54q129 0 189.5 44t60.5 136h188q0 -178 -105 -269t-333 -91q-240 0 -341 99t-101 339zM301 690h506v86q0 77 -17.5 128.5t-53.5 79t-79.5 38t-105.5 10.5t-104.5 -10.5 t-77.5 -37.5t-51.5 -78.5t-16.5 -129.5v-86zM485 1333v10l109 261h192v-7l-145 -264h-156z" />
<glyph unicode="&#xea;" horiz-adv-x="1085" d="M109 426v350q0 226 114 327t328 101q442 0 442 -428v-256h-692v-90q0 -154 57 -208t193 -54q129 0 189.5 44t60.5 136h188q0 -178 -105 -269t-333 -91q-240 0 -341 99t-101 339zM254 1325v14l246 250h116l254 -250v-14h-190l-117 117l-119 -117h-190zM301 690h506v86 q0 77 -17.5 128.5t-53.5 79t-79.5 38t-105.5 10.5t-104.5 -10.5t-77.5 -37.5t-51.5 -78.5t-16.5 -129.5v-86z" />
<glyph unicode="&#xeb;" horiz-adv-x="1085" d="M109 426v350q0 226 114 327t328 101q442 0 442 -428v-256h-692v-90q0 -154 57 -208t193 -54q129 0 189.5 44t60.5 136h188q0 -178 -105 -269t-333 -91q-240 0 -341 99t-101 339zM260 1475q0 43 24.5 72.5t59 37t69 1t59 -36.5t24.5 -74q0 -41 -24.5 -70.5t-59 -37 t-69 -1.5t-59 35.5t-24.5 73.5zM301 690h506v86q0 77 -17.5 128.5t-53.5 79t-79.5 38t-105.5 10.5t-104.5 -10.5t-77.5 -37.5t-51.5 -78.5t-16.5 -129.5v-86zM655 1475q0 43 24.5 72.5t59 37t69 1t59 -36.5t24.5 -74q0 -41 -24.5 -70.5t-59 -37t-69 -1.5t-59 35.5 t-24.5 73.5z" />
<glyph unicode="&#xec;" horiz-adv-x="501" d="M55 1577v6h199l108 -260v-10h-161zM162 0v1190h194v-1190h-194z" />
<glyph unicode="&#xed;" horiz-adv-x="501" d="M162 0v1190h194v-1190h-194zM170 1313v10l109 260h192v-6l-145 -264h-156z" />
<glyph unicode="&#xee;" horiz-adv-x="501" d="M-2 1313v14l209 262h98l217 -262v-14h-162l-100 104l-100 -104h-162zM162 0v1190h194v-1190h-194z" />
<glyph unicode="&#xef;" horiz-adv-x="571" d="M-12 1475q0 53 36.5 84t81 32t81 -30t36.5 -86q0 -51 -36.5 -82t-81 -32t-81 29t-36.5 85zM182 0v1190h195v-1190h-195zM354 1475q0 43 24.5 72.5t59 37t69 1t59 -36.5t24.5 -74q0 -41 -24.5 -70.5t-59 -37t-69 -1.5t-59 35.5t-24.5 73.5z" />
<glyph unicode="&#xf0;" horiz-adv-x="1118" d="M115 436v291q0 212 103 315t288 103q114 0 211 -25q-51 94 -146 189l-131 -84l-63 96l108 72q-94 82 -225 176l4 14h258q63 -44 119 -92l133 90l66 -96l-113 -76q132 -140 208.5 -313t76.5 -369v-291q0 -245 -103.5 -350.5t-345.5 -105.5t-345 105.5t-103 350.5zM309 436 q0 -157 58.5 -213.5t195.5 -56.5t195.5 56.5t58.5 213.5v291q0 144 -59 197t-195 53t-195 -53t-59 -197v-291z" />
<glyph unicode="&#xf1;" horiz-adv-x="1193" d="M162 0v1198h174l12 -127q50 81 127.5 111t179.5 30q204 0 301 -99.5t97 -332.5v-780h-197v778q0 125 -62.5 190.5t-170.5 65.5q-116 0 -190.5 -66t-74.5 -188v-780h-196zM342 1438q22 93 93 134.5t157 10.5l92 -43q78 -29 104 53l117 -47q-21 -104 -90.5 -143t-146.5 -8 l-90 41q-91 32 -123 -52z" />
<glyph unicode="&#xf2;" horiz-adv-x="1101" d="M102 436v342q0 229 116 331.5t333 102.5t332.5 -102.5t115.5 -331.5v-342q0 -244 -105 -350t-343 -106q-242 0 -345.5 105.5t-103.5 350.5zM297 436q0 -159 60 -222.5t194 -63.5q138 0 196 63t58 223v342q0 80 -16 132t-51 79.5t-78.5 38t-108.5 10.5t-108.5 -10.5 t-78.5 -38t-51 -79.5t-16 -132v-342zM354 1585v6h199l109 -260v-10h-162z" />
<glyph unicode="&#xf3;" horiz-adv-x="1101" d="M102 436v342q0 229 116 331.5t333 102.5t332.5 -102.5t115.5 -331.5v-342q0 -244 -105 -350t-343 -106q-242 0 -345.5 105.5t-103.5 350.5zM297 436q0 -159 60 -222.5t194 -63.5q138 0 196 63t58 223v342q0 80 -16 132t-51 79.5t-78.5 38t-108.5 10.5t-108.5 -10.5 t-78.5 -38t-51 -79.5t-16 -132v-342zM471 1313v10l109 260h192v-6l-145 -264h-156z" />
<glyph unicode="&#xf4;" horiz-adv-x="1101" d="M102 436v342q0 229 116 331.5t333 102.5t332.5 -102.5t115.5 -331.5v-342q0 -244 -105 -350t-343 -106q-242 0 -345.5 105.5t-103.5 350.5zM262 1325v14l246 250h117l254 -250v-14h-191l-117 117l-118 -117h-191zM297 436q0 -159 60 -222.5t194 -63.5q138 0 196 63 t58 223v342q0 80 -16 132t-51 79.5t-78.5 38t-108.5 10.5t-108.5 -10.5t-78.5 -38t-51 -79.5t-16 -132v-342z" />
<glyph unicode="&#xf5;" horiz-adv-x="1101" d="M102 436v342q0 229 116 331.5t333 102.5t332.5 -102.5t115.5 -331.5v-342q0 -244 -105 -350t-343 -106q-242 0 -345.5 105.5t-103.5 350.5zM285 1417q22 93 93 135t157 11l92 -43q78 -29 104 53l117 -47q-21 -104 -91 -143.5t-147 -8.5l-90 41q-91 32 -123 -51zM297 436 q0 -159 60 -222.5t194 -63.5q138 0 196 63t58 223v342q0 80 -16 132t-51 79.5t-78.5 38t-108.5 10.5t-108.5 -10.5t-78.5 -38t-51 -79.5t-16 -132v-342z" />
<glyph unicode="&#xf6;" horiz-adv-x="1101" d="M102 436v342q0 229 116 331.5t333 102.5t332.5 -102.5t115.5 -331.5v-342q0 -244 -105 -350t-343 -106q-242 0 -345.5 105.5t-103.5 350.5zM244 1475q0 53 36.5 84t81 32t81 -30t36.5 -86q0 -51 -36.5 -82t-81 -32t-81 29t-36.5 85zM297 436q0 -159 60 -222.5t194 -63.5 q138 0 196 63t58 223v342q0 80 -16 132t-51 79.5t-78.5 38t-108.5 10.5t-108.5 -10.5t-78.5 -38t-51 -79.5t-16 -132v-342zM639 1475q0 53 36.5 84t81 32t81 -30t36.5 -86q0 -51 -36.5 -82t-81 -32t-81 29t-36.5 85z" />
<glyph unicode="&#xf7;" horiz-adv-x="1044" d="M72 592h868v166h-868v-166zM399 326q0 51 34 80.5t75.5 29.5t75.5 -29.5t34 -80.5t-34 -79.5t-75.5 -28.5t-75.5 28.5t-34 79.5zM399 1014q0 51 34 80.5t75.5 29.5t75.5 -29.5t34 -80.5t-34 -79.5t-75.5 -28.5t-75.5 28.5t-34 79.5z" />
<glyph unicode="&#xf8;" horiz-adv-x="1101" d="M102 436v342q0 229 116 331.5t333 102.5q93 0 170 -18l55 133h164l-82 -197q141 -107 141 -352v-342q0 -244 -105 -350t-343 -106q-90 0 -168 16l-59 -146h-164l84 201q-74 53 -108 147t-34 238zM297 436q0 -112 31 -182l323 774q-48 10 -100 10q-65 0 -108.5 -10.5 t-78.5 -38t-51 -79.5t-16 -132v-342zM453 160q36 -10 98 -10q138 0 196 63t58 223v342q0 98 -29 158z" />
<glyph unicode="&#xf9;" horiz-adv-x="1193" d="M160 418v772h196v-770q0 -125 63 -190.5t171 -65.5q116 0 190 65.5t74 188.5v772h197v-1190h-174l-13 127q-50 -81 -127.5 -111t-179.5 -30q-204 0 -300.5 99.5t-96.5 332.5zM420 1577v6h198l109 -260v-10h-162z" />
<glyph unicode="&#xfa;" horiz-adv-x="1193" d="M160 418v772h196v-770q0 -125 63 -190.5t171 -65.5q116 0 190 65.5t74 188.5v772h197v-1190h-174l-13 127q-50 -81 -127.5 -111t-179.5 -30q-204 0 -300.5 99.5t-96.5 332.5zM537 1313v10l108 260h193v-6l-146 -264h-155z" />
<glyph unicode="&#xfb;" horiz-adv-x="1193" d="M160 418v772h196v-770q0 -125 63 -190.5t171 -65.5q116 0 190 65.5t74 188.5v772h197v-1190h-174l-13 127q-50 -81 -127.5 -111t-179.5 -30q-204 0 -300.5 99.5t-96.5 332.5zM301 1325v14l246 250h117l254 -250v-14h-191l-117 117l-118 -117h-191z" />
<glyph unicode="&#xfc;" horiz-adv-x="1193" d="M160 418v772h196v-770q0 -125 63 -190.5t171 -65.5q116 0 190 65.5t74 188.5v772h197v-1190h-174l-13 127q-50 -81 -127.5 -111t-179.5 -30q-204 0 -300.5 99.5t-96.5 332.5zM291 1475q0 53 36.5 84t81 32t81 -30t36.5 -86q0 -51 -36.5 -82t-81 -32t-81 29t-36.5 85z M737 1475q0 43 24.5 72.5t59 37t69 1t59 -36.5t24.5 -74q0 -41 -24.5 -70.5t-59 -37t-69 -1.5t-59 35.5t-24.5 73.5z" />
<glyph unicode="&#xfd;" horiz-adv-x="1005" d="M31 1198h213l114 -385l154 -555q43 220 150 567l116 373h203l-375 -1200l-71 -227q-57 -180 -162 -229.5t-275 20.5l35 166q37 -15 65.5 -20.5t61 -0.5t58.5 35.5t44 85.5l50 170zM399 1313v10l109 260h192v-6l-145 -264h-156z" />
<glyph unicode="&#xfe;" horiz-adv-x="1150" d="M135 -403v1986h195v-528q32 71 110.5 110t180.5 39q93 0 165 -22.5t127 -71.5t84 -134t29 -204v-315q0 -237 -105 -351t-300 -114q-106 0 -174.5 21.5t-114.5 82.5v-499h-197zM332 451q0 -151 56.5 -211t189.5 -60q134 0 193.5 63t59.5 218v313q0 142 -56.5 195 t-182.5 53q-132 -5 -196 -74.5t-64 -238.5v-258z" />
<glyph unicode="&#xff;" horiz-adv-x="1005" d="M31 1198h213l114 -385l154 -555q43 220 150 567l116 373h203l-375 -1200l-71 -227q-57 -180 -162 -229.5t-275 20.5l35 166q37 -15 65.5 -20.5t61 -0.5t58.5 35.5t44 85.5l50 170zM174 1475q0 43 24.5 72.5t59 37t69 1t59 -36.5t24.5 -74q0 -41 -24.5 -70.5t-59 -37 t-69 -1.5t-59 35.5t-24.5 73.5zM621 1475q0 53 36.5 84t81 32t81 -30t36.5 -86q0 -51 -36.5 -82t-81 -32t-81 29t-36.5 85z" />
<glyph unicode="&#x100;" d="M18 0l420 1575h199l418 -1575h-201l-80 293h-473l-80 -293h-203zM311 1700v151h449v-151h-449zM350 477h373l-82 336l-104 508l-107 -514z" />
<glyph unicode="&#x101;" d="M90 276q-15 158 84.5 265t284.5 133q93 14 289 18v117q0 110 -50.5 166.5t-177.5 56.5q-93 0 -141 -43.5t-47 -157.5h-191q-6 195 92 287t293 92q205 0 311.5 -95t106.5 -306v-809h-176l-16 162q-34 -71 -118.5 -121.5t-187.5 -50.5q-79 0 -140.5 16.5t-99.5 43 t-63.5 65.5t-36.5 77t-16 84zM287 301q6 -66 56 -95.5t124 -29.5q78 0 134 27t87.5 77t46.5 111t17 139q-188 0 -277 -20q-208 -45 -188 -209zM319 1397v151h449v-151h-449z" />
<glyph unicode="&#x102;" d="M18 0l420 1575h199l418 -1575h-201l-80 293h-473l-80 -293h-203zM272 1944h146q0 -67 22 -100.5t92 -33.5t91.5 33.5t21.5 100.5h146q6 -135 -57.5 -202t-201.5 -67q-272 0 -260 269zM350 477h373l-82 336l-104 508l-107 -514z" />
<glyph unicode="&#x103;" d="M90 276q-15 158 84.5 265t284.5 133q93 14 289 18v117q0 110 -50.5 166.5t-177.5 56.5q-93 0 -141 -43.5t-47 -157.5h-191q-6 195 92 287t293 92q205 0 311.5 -95t106.5 -306v-809h-176l-16 162q-34 -71 -118.5 -121.5t-187.5 -50.5q-79 0 -140.5 16.5t-99.5 43 t-63.5 65.5t-36.5 77t-16 84zM287 301q6 -66 56 -95.5t124 -29.5q78 0 134 27t87.5 77t46.5 111t17 139q-188 0 -277 -20q-208 -45 -188 -209zM297 1604h145q0 -67 22.5 -100.5t92.5 -33.5t91.5 33.5t21.5 100.5h145q6 -135 -57 -202t-201 -67q-272 0 -260 269z" />
<glyph unicode="&#x104;" d="M18 0l420 1575h199l418 -1575q-69 -28 -107.5 -74t-38.5 -76q0 -67 72 -67q42 0 74 4v-174q-328 -18 -328 174q0 70 43 124t109 89h-25l-80 293h-473l-80 -293h-203zM350 477h373l-82 336l-104 508l-107 -514z" />
<glyph unicode="&#x105;" d="M90 276q-15 158 84.5 265t284.5 133q93 14 289 18v117q0 110 -50.5 166.5t-177.5 56.5q-93 0 -141 -43.5t-47 -157.5h-191q-6 195 92 287t293 92q205 0 311.5 -95t106.5 -306v-809q-69 -28 -107 -74t-38 -76q0 -67 71 -67q42 0 74 4v-174q-328 -18 -328 174q0 70 43 124 t109 89l-16 162q-34 -71 -118.5 -121.5t-187.5 -50.5q-79 0 -140.5 16.5t-99.5 43t-63.5 65.5t-36.5 77t-16 84zM287 301q6 -66 56 -95.5t124 -29.5q78 0 134 27t87.5 77t46.5 111t17 139q-188 0 -277 -20q-208 -45 -188 -209z" />
<glyph unicode="&#x106;" horiz-adv-x="1187" d="M100 524v537q0 111 12 189t44 146.5t88 109.5t145.5 64t214.5 23q102 0 178.5 -12.5t131 -39t90 -62.5t56 -90t29 -113.5t9.5 -140.5h-191q-1 78 -11.5 124.5t-42 83.5t-92 52.5t-157.5 15.5q-82 0 -137 -13t-89 -36.5t-52 -69t-23.5 -96.5t-5.5 -133v-541 q0 -81 6.5 -133t25 -96.5t53 -68.5t88.5 -37t134 -13q69 0 115.5 5t82 20t56 35.5t33 57.5t16.5 80.5t4 110.5h187q0 -57 -1.5 -97.5t-7.5 -87t-16.5 -79t-28.5 -67t-44 -57.5t-63 -44.5t-84.5 -33.5t-110 -19.5t-138.5 -7.5q-86 0 -154 8.5t-119 27t-89 42t-63 60.5 t-41 74.5t-24 92.5t-11 106t-3 123zM524 1710v10l109 260h192v-6l-145 -264h-156z" />
<glyph unicode="&#x107;" horiz-adv-x="1081" d="M102 436v340q0 229 116 332.5t333 103.5q104 0 180 -20t134 -65t89 -124t35 -192l-184 -2q-3 69 -20.5 114t-52 68.5t-76.5 32t-105 8.5q-66 0 -109.5 -9.5t-78 -36.5t-50.5 -78.5t-16 -131.5v-340q0 -80 16 -133.5t49.5 -83t78 -41.5t110.5 -12q67 0 110 9t77 34t50 73 t17 124h184q-3 -235 -103 -330.5t-335 -95.5t-342 106.5t-107 349.5zM455 1325v10l108 260h193v-6l-146 -264h-155z" />
<glyph unicode="&#x108;" horiz-adv-x="1187" d="M100 524v537q0 111 12 189t44 146.5t88 109.5t145.5 64t214.5 23q102 0 178.5 -12.5t131 -39t90 -62.5t56 -90t29 -113.5t9.5 -140.5h-191q-1 78 -11.5 124.5t-42 83.5t-92 52.5t-157.5 15.5q-82 0 -137 -13t-89 -36.5t-52 -69t-23.5 -96.5t-5.5 -133v-541 q0 -81 6.5 -133t25 -96.5t53 -68.5t88.5 -37t134 -13q69 0 115.5 5t82 20t56 35.5t33 57.5t16.5 80.5t4 110.5h187q0 -57 -1.5 -97.5t-7.5 -87t-16.5 -79t-28.5 -67t-44 -57.5t-63 -44.5t-84.5 -33.5t-110 -19.5t-138.5 -7.5q-86 0 -154 8.5t-119 27t-89 42t-63 60.5 t-41 74.5t-24 92.5t-11 106t-3 123zM305 1694v14l246 250h117l254 -250v-14h-191l-117 116l-118 -116h-191z" />
<glyph unicode="&#x109;" horiz-adv-x="1081" d="M102 436v340q0 229 116 332.5t333 103.5q104 0 180 -20t134 -65t89 -124t35 -192l-184 -2q-3 69 -20.5 114t-52 68.5t-76.5 32t-105 8.5q-66 0 -109.5 -9.5t-78 -36.5t-50.5 -78.5t-16 -131.5v-340q0 -80 16 -133.5t49.5 -83t78 -41.5t110.5 -12q67 0 110 9t77 34t50 73 t17 124h184q-3 -235 -103 -330.5t-335 -95.5t-342 106.5t-107 349.5zM266 1337v15l246 250h117l254 -250v-15h-191l-117 117l-118 -117h-191z" />
<glyph unicode="&#x10a;" horiz-adv-x="1187" d="M100 524v537q0 111 12 189t44 146.5t88 109.5t145.5 64t214.5 23q102 0 178.5 -12.5t131 -39t90 -62.5t56 -90t29 -113.5t9.5 -140.5h-191q-1 78 -11.5 124.5t-42 83.5t-92 52.5t-157.5 15.5q-82 0 -137 -13t-89 -36.5t-52 -69t-23.5 -96.5t-5.5 -133v-541 q0 -81 6.5 -133t25 -96.5t53 -68.5t88.5 -37t134 -13q69 0 115.5 5t82 20t56 35.5t33 57.5t16.5 80.5t4 110.5h187q0 -57 -1.5 -97.5t-7.5 -87t-16.5 -79t-28.5 -67t-44 -57.5t-63 -44.5t-84.5 -33.5t-110 -19.5t-138.5 -7.5q-86 0 -154 8.5t-119 27t-89 42t-63 60.5 t-41 74.5t-24 92.5t-11 106t-3 123zM516 1808q0 42 24 70.5t58 35.5t68 0.5t58 -35t24 -69.5q0 -42 -24 -70.5t-58 -35.5t-68 -0.5t-58 35t-24 69.5z" />
<glyph unicode="&#x10b;" horiz-adv-x="1081" d="M102 436v340q0 229 116 332.5t333 103.5q104 0 180 -20t134 -65t89 -124t35 -192l-184 -2q-3 69 -20.5 114t-52 68.5t-76.5 32t-105 8.5q-66 0 -109.5 -9.5t-78 -36.5t-50.5 -78.5t-16 -131.5v-340q0 -80 16 -133.5t49.5 -83t78 -41.5t110.5 -12q67 0 110 9t77 34t50 73 t17 124h184q-3 -235 -103 -330.5t-335 -95.5t-342 106.5t-107 349.5zM444 1483q0 50 35.5 78.5t78.5 28.5t78.5 -28.5t35.5 -78.5t-35.5 -78.5t-78.5 -28.5t-78.5 28.5t-35.5 78.5z" />
<glyph unicode="&#x10c;" horiz-adv-x="1187" d="M100 524v537q0 111 12 189t44 146.5t88 109.5t145.5 64t214.5 23q102 0 178.5 -12.5t131 -39t90 -62.5t56 -90t29 -113.5t9.5 -140.5h-191q-1 78 -11.5 124.5t-42 83.5t-92 52.5t-157.5 15.5q-82 0 -137 -13t-89 -36.5t-52 -69t-23.5 -96.5t-5.5 -133v-541 q0 -81 6.5 -133t25 -96.5t53 -68.5t88.5 -37t134 -13q69 0 115.5 5t82 20t56 35.5t33 57.5t16.5 80.5t4 110.5h187q0 -57 -1.5 -97.5t-7.5 -87t-16.5 -79t-28.5 -67t-44 -57.5t-63 -44.5t-84.5 -33.5t-110 -19.5t-138.5 -7.5q-86 0 -154 8.5t-119 27t-89 42t-63 60.5 t-41 74.5t-24 92.5t-11 106t-3 123zM311 1925v14h193l119 -108l120 108h193v-14l-250 -233h-119z" />
<glyph unicode="&#x10d;" horiz-adv-x="1081" d="M102 436v340q0 229 116 332.5t333 103.5q104 0 180 -20t134 -65t89 -124t35 -192l-184 -2q-3 69 -20.5 114t-52 68.5t-76.5 32t-105 8.5q-66 0 -109.5 -9.5t-78 -36.5t-50.5 -78.5t-16 -131.5v-340q0 -80 16 -133.5t49.5 -83t78 -41.5t110.5 -12q67 0 110 9t77 34t50 73 t17 124h184q-3 -235 -103 -330.5t-335 -95.5t-342 106.5t-107 349.5zM236 1569v14h190l117 -117l119 117h190v-14l-246 -250h-117z" />
<glyph unicode="&#x10e;" horiz-adv-x="1218" d="M133 0v1579h479q105 0 183.5 -15t133 -46.5t90.5 -73.5t56 -104.5t27.5 -130t7.5 -158.5v-521q0 -111 -11.5 -188.5t-44 -146.5t-89 -110t-148 -63.5t-219.5 -21.5h-465zM266 1925v14h191l116 -116l119 116h191v-14l-246 -250h-117zM328 186h270q56 0 98.5 4t75 14.5 t55.5 23t39 36t25 46t14 60t6.5 71.5t1.5 87v525q0 53 -1.5 87t-6.5 71.5t-14 60t-25 46t-39 36t-55.5 23t-75 14.5t-98.5 4h-270v-1209z" />
<glyph unicode="&#x10f;" horiz-adv-x="1370" d="M111 426v315q0 237 105 351t300 114q106 0 174.5 -21.5t114.5 -82.5v500h196v-1602h-163l-25 158q-27 -77 -108.5 -120.5t-188.5 -43.5q-93 0 -165 22.5t-127 71.5t-84 134t-29 204zM305 424q0 -142 57 -195t183 -53q132 5 196 74.5t64 238.5v259q0 151 -56.5 210.5 t-189.5 59.5q-134 0 -194 -63t-60 -218v-313zM1133 1241l65 361h168l-92 -361h-141z" />
<glyph unicode="&#x110;" horiz-adv-x="1241" d="M6 702v160h150v717h479q105 0 183.5 -15t133 -46.5t90.5 -73.5t56 -104.5t27.5 -130t7.5 -158.5v-521q0 -111 -11.5 -188.5t-44 -146.5t-89 -110t-148 -63.5t-219.5 -21.5h-465v702h-150zM350 186h271q56 0 98.5 4t75 14.5t55.5 23t39 36t25 46t14 60t6.5 71.5t1.5 87 v525q0 53 -1.5 87t-6.5 71.5t-14 60t-25 46t-39 36t-55.5 23t-75 14.5t-98.5 4h-271v-533h244v-160h-244v-516z" />
<glyph unicode="&#x111;" horiz-adv-x="1132" d="M111 426v315q0 237 105 351t300 114q106 0 174.5 -21.5t114.5 -82.5v233h-162v125h162v142h196v-142h125v-125h-125v-1335h-163l-25 158q-27 -77 -108.5 -120.5t-188.5 -43.5q-93 0 -165 22.5t-127 71.5t-84 134t-29 204zM305 424q0 -142 57 -195t183 -53q132 5 196 74.5 t64 238.5v259q0 151 -56.5 210.5t-189.5 59.5q-134 0 -194 -63t-60 -218v-313z" />
<glyph unicode="&#x112;" horiz-adv-x="1042" d="M119 0v1581h796v-172h-602v-475h545v-182h-545v-570h654v-182h-848zM299 1722v150h457v-150h-457z" />
<glyph unicode="&#x113;" horiz-adv-x="1085" d="M109 426v350q0 226 114 327t328 101q442 0 442 -428v-256h-692v-90q0 -154 57 -208t193 -54q129 0 189.5 44t60.5 136h188q0 -178 -105 -269t-333 -91q-240 0 -341 99t-101 339zM301 690h506v86q0 77 -17.5 128.5t-53.5 79t-79.5 38t-105.5 10.5t-104.5 -10.5 t-77.5 -37.5t-51.5 -78.5t-16.5 -129.5v-86zM342 1397v153h467v-153h-467z" />
<glyph unicode="&#x114;" horiz-adv-x="1042" d="M119 0v1581h796v-172h-602v-475h545v-182h-545v-570h654v-182h-848zM274 1960h146q0 -66 22.5 -99.5t92.5 -33.5t91 33t21 100h146q6 -135 -57 -201.5t-201 -66.5q-273 0 -261 268z" />
<glyph unicode="&#x115;" horiz-adv-x="1085" d="M109 426v350q0 226 114 327t328 101q442 0 442 -428v-256h-692v-90q0 -154 57 -208t193 -54q129 0 189.5 44t60.5 136h188q0 -178 -105 -269t-333 -91q-240 0 -341 99t-101 339zM291 1597h145q0 -66 22.5 -99.5t92.5 -33.5t91.5 33t21.5 100h145q6 -135 -57 -201.5 t-201 -66.5q-139 0 -202.5 67t-57.5 201zM301 690h506v86q0 77 -17.5 128.5t-53.5 79t-79.5 38t-105.5 10.5t-104.5 -10.5t-77.5 -37.5t-51.5 -78.5t-16.5 -129.5v-86z" />
<glyph unicode="&#x116;" horiz-adv-x="1042" d="M119 0v1581h796v-172h-602v-475h545v-182h-545v-570h654v-182h-848zM426 1792q0 50 35 78.5t77.5 28.5t77.5 -28.5t35 -78.5t-35 -78.5t-77.5 -28.5t-77.5 28.5t-35 78.5z" />
<glyph unicode="&#x117;" horiz-adv-x="1085" d="M109 426v350q0 226 114 327t328 101q442 0 442 -428v-256h-692v-90q0 -154 57 -208t193 -54q129 0 189.5 44t60.5 136h188q0 -178 -105 -269t-333 -91q-240 0 -341 99t-101 339zM301 690h506v86q0 77 -17.5 128.5t-53.5 79t-79.5 38t-105.5 10.5t-104.5 -10.5 t-77.5 -37.5t-51.5 -78.5t-16.5 -129.5v-86zM444 1481q0 30 13 54t34.5 36t47 18t51 0t47 -18t34.5 -36t13 -54q0 -51 -37.5 -80.5t-82.5 -29.5t-82.5 29.5t-37.5 80.5z" />
<glyph unicode="&#x118;" horiz-adv-x="1067" d="M143 0v1581h797v-172h-602v-475h545v-182h-545v-570h653v-182q-69 -28 -107 -74t-38 -76q0 -67 72 -67q41 0 73 4v-174q-327 -18 -327 174q0 70 43 124.5t108 88.5h-672z" />
<glyph unicode="&#x119;" horiz-adv-x="1101" d="M109 426v350q0 226 114 327t328 101q442 0 442 -428v-256h-692v-90q0 -154 57 -208t193 -54q129 0 189.5 44t60.5 136h188q0 -162 -94 -260q-68 -73 -103.5 -141t-35.5 -97q0 -67 71 -67q42 0 74 4v-174q-328 -18 -328 174q0 64 36.5 120.5t92.5 92.5q-68 -12 -151 -12 q-240 0 -341 99t-101 339zM301 690h506v86q0 77 -17.5 128.5t-53.5 79t-79.5 38t-105.5 10.5t-104.5 -10.5t-77.5 -37.5t-51.5 -78.5t-16.5 -129.5v-86z" />
<glyph unicode="&#x11a;" horiz-adv-x="1042" d="M119 0v1581h796v-172h-602v-475h545v-182h-545v-570h654v-182h-848zM229 1917v14h187l114 -108l117 108h187v-14l-242 -234h-115z" />
<glyph unicode="&#x11b;" horiz-adv-x="1085" d="M109 426v350q0 226 114 327t328 101q442 0 442 -428v-256h-692v-90q0 -154 57 -208t193 -54q129 0 189.5 44t60.5 136h188q0 -178 -105 -269t-333 -91q-240 0 -341 99t-101 339zM252 1579v14h190l117 -116l119 116h190v-14l-245 -250h-117zM301 690h506v86 q0 77 -17.5 128.5t-53.5 79t-79.5 38t-105.5 10.5t-104.5 -10.5t-77.5 -37.5t-51.5 -78.5t-16.5 -129.5v-86z" />
<glyph unicode="&#x11c;" horiz-adv-x="1230" d="M109 516v549q0 79 5.5 139t20 117.5t39.5 98.5t63.5 76t92 56.5t126.5 33t165 11.5q104 0 181 -10.5t132.5 -35t91.5 -58t57.5 -86t31 -111.5t11.5 -141h-190q-2 73 -14.5 119t-46 81.5t-95.5 50.5t-159 15q-99 0 -160 -18.5t-96 -63.5t-47.5 -108t-12.5 -164v-553 q0 -60 2 -98.5t9 -79.5t20.5 -64.5t36 -46.5t57 -34.5t81.5 -18t110 -6.5q76 0 126 4.5t86.5 20.5t56 35t30.5 58.5t13.5 80t2.5 110.5v215h-307v176h504v-391q0 -57 -2 -97.5t-8 -87t-17 -79t-30 -66.5t-46 -57t-65 -44t-87.5 -33.5t-114 -19.5t-142.5 -7q-92 0 -165 11.5 t-126.5 33t-92 56.5t-63.5 76t-39.5 98.5t-20 117.5t-5.5 139zM338 1677v15l246 250h116l254 -250v-15h-190l-117 117l-119 -117h-190z" />
<glyph unicode="&#x11d;" horiz-adv-x="1114" d="M102 406v362q0 119 29 204t84.5 134t127.5 71.5t165 22.5q106 0 186 -43.5t107 -120.5l24 152h162v-1229q0 -235 -116.5 -346t-325.5 -111q-199 0 -304 83.5t-112 273.5h186q7 -100 66 -139t166 -39q126 0 192 62t66 216v197q-24 -66 -100.5 -114t-186.5 -48 q-206 0 -311 104.5t-105 307.5zM281 1325v14l245 250h117l254 -250v-14h-190l-117 117l-119 -117h-190zM297 428q0 -136 56 -194t165 -58q66 0 114 14.5t85.5 49t56.5 96.5t19 153v232q-2 109 -33 174.5t-84.5 92.5t-138.5 30q-126 0 -183 -53t-57 -195v-342z" />
<glyph unicode="&#x11e;" horiz-adv-x="1222" d="M113 516v549q0 79 5.5 139t20 117.5t39.5 98.5t63.5 76t92 56.5t126.5 33t165 11.5q104 0 181 -10.5t132.5 -35t91.5 -58t57.5 -86t31 -111.5t11.5 -141h-190q-2 73 -14.5 119t-46 81.5t-95.5 50.5t-159 15q-99 0 -160 -18.5t-96 -63.5t-47.5 -108t-12.5 -164v-553 q0 -60 2 -98.5t9 -79.5t20.5 -64.5t36 -46.5t57 -34.5t81.5 -18t110 -6.5q76 0 126 4.5t86.5 20.5t56 35t30.5 58.5t13.5 80t2.5 110.5v215h-307v176h504v-391q0 -57 -2 -97.5t-8 -87t-17 -79t-30 -66.5t-46 -57t-65 -44t-87.5 -33.5t-114 -19.5t-142.5 -7q-92 0 -165 11.5 t-126.5 33t-92 56.5t-63.5 76t-39.5 98.5t-20 117.5t-5.5 139zM373 1956h145q0 -66 22.5 -99.5t92.5 -33.5t91 33t21 100h146q6 -135 -57 -201.5t-201 -66.5q-139 0 -202.5 67t-57.5 201z" />
<glyph unicode="&#x11f;" horiz-adv-x="1114" d="M102 406v362q0 119 29 204t84.5 134t127.5 71.5t165 22.5q106 0 186 -43.5t107 -120.5l24 152h162v-1229q0 -235 -116.5 -346t-325.5 -111q-199 0 -304 83.5t-112 273.5h186q7 -100 66 -139t166 -39q126 0 192 62t66 216v197q-24 -66 -100.5 -114t-186.5 -48 q-206 0 -311 104.5t-105 307.5zM297 428q0 -136 56 -194t165 -58q66 0 114 14.5t85.5 49t56.5 96.5t19 153v232q-2 109 -33 174.5t-84.5 92.5t-138.5 30q-126 0 -183 -53t-57 -195v-342zM297 1595h145q0 -66 22.5 -99.5t92.5 -33.5t91.5 33t21.5 100h145q6 -135 -57 -201.5 t-201 -66.5q-139 0 -202.5 67t-57.5 201z" />
<glyph unicode="&#x120;" horiz-adv-x="1230" d="M109 516v549q0 79 5.5 139t20 117.5t39.5 98.5t63.5 76t92 56.5t126.5 33t165 11.5q104 0 181 -10.5t132.5 -35t91.5 -58t57.5 -86t31 -111.5t11.5 -141h-190q-2 73 -14.5 119t-46 81.5t-95.5 50.5t-159 15q-99 0 -160 -18.5t-96 -63.5t-47.5 -108t-12.5 -164v-553 q0 -60 2 -98.5t9 -79.5t20.5 -64.5t36 -46.5t57 -34.5t81.5 -18t110 -6.5q76 0 126 4.5t86.5 20.5t56 35t30.5 58.5t13.5 80t2.5 110.5v215h-307v176h504v-391q0 -57 -2 -97.5t-8 -87t-17 -79t-30 -66.5t-46 -57t-65 -44t-87.5 -33.5t-114 -19.5t-142.5 -7q-92 0 -165 11.5 t-126.5 33t-92 56.5t-63.5 76t-39.5 98.5t-20 117.5t-5.5 139zM518 1806q0 40 23 67t56 33t65.5 0t55.5 -33t23 -67q0 -49 -35 -76.5t-76.5 -27.5t-76.5 27.5t-35 76.5z" />
<glyph unicode="&#x121;" horiz-adv-x="1097" d="M102 406v362q0 119 29 204t84.5 134t127.5 71.5t165 22.5q106 0 186 -43.5t107 -120.5l24 152h162v-1229q0 -235 -116.5 -346t-325.5 -111q-199 0 -304 83.5t-112 273.5h186q7 -100 66 -139t166 -39q126 0 192 62t66 216v197q-24 -66 -100.5 -114t-186.5 -48 q-206 0 -311 104.5t-105 307.5zM297 428q0 -136 56 -194t165 -58q66 0 114 14.5t85.5 49t56.5 96.5t19 153v232q-2 109 -33 174.5t-84.5 92.5t-138.5 30q-126 0 -183 -53t-57 -195v-342zM444 1483q0 43 25 72t60.5 36t71 0t60.5 -36t25 -72q0 -44 -25 -74t-60.5 -37t-71 0 t-60.5 37t-25 74z" />
<glyph unicode="&#x122;" horiz-adv-x="1234" d="M121 516v549q0 79 5.5 139t20 117.5t39.5 98.5t63.5 76t92 56.5t126.5 33t165 11.5q124 0 211 -17t143.5 -48.5t89 -87.5t46 -123t16.5 -166h-191q-2 73 -14.5 119t-46 81.5t-95.5 50.5t-159 15q-99 0 -160 -18.5t-96 -63.5t-47.5 -108t-12.5 -164v-553q0 -60 2 -98.5 t9 -79.5t20.5 -64.5t36 -46.5t57 -34.5t81.5 -18t110 -6.5q76 0 126 4.5t86.5 20.5t56 35t30.5 58.5t13.5 80t2.5 110.5v215h-307v176h504v-391q0 -57 -2 -97.5t-8 -87t-17 -79t-30 -66.5t-46 -57t-65 -44t-87.5 -33.5t-114 -19.5t-142.5 -7q-92 0 -165 11.5t-126.5 33 t-92 56.5t-63.5 76t-39.5 98.5t-20 117.5t-5.5 139zM418 -414q38 23 64.5 49t40.5 50t21.5 59.5t9 63.5t1.5 75h190q0 -157 -58 -242.5t-200 -146.5z" />
<glyph unicode="&#x123;" horiz-adv-x="1271" d="M102 406v362q0 119 29 204t84.5 134t127.5 71.5t165 22.5q106 0 186 -43.5t107 -120.5l24 152h162v-1229q0 -235 -116.5 -346t-325.5 -111q-199 0 -304 83.5t-112 273.5h186q7 -100 66 -139t166 -39q126 0 192 62t66 216v197q-24 -66 -100.5 -114t-186.5 -48 q-206 0 -311 104.5t-105 307.5zM297 428q0 -136 56 -194t165 -58q66 0 114 14.5t85.5 49t56.5 96.5t19 153v232q-2 109 -33 174.5t-84.5 92.5t-138.5 30q-126 0 -183 -53t-57 -195v-342zM459 1309q0 143 51.5 220t179.5 132l64 -84q-82 -48 -103.5 -105t-21.5 -163h-170z " />
<glyph unicode="&#x124;" horiz-adv-x="1189" d="M143 -2v1577h199v-727h528v727h195v-1575h-195v662h-528v-664h-199zM309 1688v14l246 250h117l254 -250v-14h-191l-117 116l-118 -116h-191z" />
<glyph unicode="&#x125;" horiz-adv-x="1118" d="M113 0v1612h196v-522q35 52 106.5 87t166.5 35q221 0 316 -115t95 -347v-750h-194v745q0 160 -54.5 219.5t-189.5 59.5q-124 0 -184.5 -64t-61.5 -206l-2 -754h-194zM223 1692v14l246 250h117l254 -250v-14h-191l-117 116l-118 -116h-191z" />
<glyph unicode="&#x126;" horiz-adv-x="1196" d="M14 1147v123h129v305h199v-305h528v305h195v-305h125v-123h-125v-1147h-195v662h-528v-664h-199v1149h-129zM342 848h528v299h-528v-299z" />
<glyph unicode="&#x127;" horiz-adv-x="1114" d="M-2 1331v123h115v158h196v-158h154v-123h-154v-241q35 52 106.5 87t166.5 35q221 0 316 -115t95 -347v-750h-194v745q0 160 -54.5 219.5t-189.5 59.5q-124 0 -184.5 -64t-61.5 -206l-2 -754h-194v1331h-115z" />
<glyph unicode="&#x128;" horiz-adv-x="485" d="M-12 1739q20 93 84.5 134.5t142.5 10.5l84 -43q70 -29 96 53l105 -47q-18 -104 -81.5 -143t-133.5 -8l-82 41q-84 33 -113 -51zM143 -2v1577h199v-1577h-199z" />
<glyph unicode="&#x129;" horiz-adv-x="491" d="M16 1434q23 95 87.5 131.5t134.5 -0.5l69 -41q60 -35 90 53l95 -57q-13 -55 -37 -91.5t-53 -51t-60 -13t-61 19.5l-70 35q-74 38 -105 -49zM147 0v1190h195v-1190h-195z" />
<glyph unicode="&#x12a;" horiz-adv-x="485" d="M33 1712v148h413v-148h-413zM143 -2v1577h199v-1577h-199z" />
<glyph unicode="&#x12b;" horiz-adv-x="487" d="M37 1395v157h407v-157h-407zM147 0v1190h195v-1190h-195z" />
<glyph unicode="&#x12c;" horiz-adv-x="485" d="M-4 1917h141q0 -63 22.5 -94t92.5 -31q36 0 59 8.5t33.5 27.5t14 38.5t3.5 50.5h144q6 -127 -56 -189.5t-198 -62.5q-137 0 -199.5 62.5t-56.5 189.5zM143 -2v1577h199v-1577h-199z" />
<glyph unicode="&#x12d;" horiz-adv-x="491" d="M2 1581h137q0 -66 21.5 -98.5t87.5 -32.5t86 32t20 99h138q6 -133 -53.5 -199.5t-190.5 -66.5t-191 66.5t-55 199.5zM147 0v1190h195v-1190h-195z" />
<glyph unicode="&#x12e;" horiz-adv-x="485" d="M12 -160q-14 70 18 140.5t113 103.5v1491h199v-1577h-63q-63 -9 -93 -40.5t-20 -68.5q7 -29 33.5 -43t60.5 -14q77 0 135 74l107 -76q-75 -149 -238 -156q-100 -3 -167 42.5t-85 123.5z" />
<glyph unicode="&#x12f;" horiz-adv-x="471" d="M28 -106.5q5 42.5 35.5 81t83.5 60.5v1155h195v-1190h-2q-49 -1 -84 -14.5t-50.5 -34.5t-21 -45t-0.5 -45t17 -35q19 -24 50.5 -36t75.5 -1t83 53l94 -86q-43 -66 -108 -98t-128 -29t-119 31.5t-86 75.5q-22 34 -31 74.5t-4 83zM129 1473q0 43 24.5 72.5t59 37t69 1 t59 -36.5t24.5 -74q0 -41 -24.5 -70.5t-59 -37t-69 -1.5t-59 35.5t-24.5 73.5z" />
<glyph unicode="&#x130;" horiz-adv-x="485" d="M125 1786q0 42 24.5 70.5t60 35.5t71 0t60 -36t24.5 -72q0 -42 -24.5 -70.5t-60 -35.5t-71 0t-60 36t-24.5 72zM143 -2v1577h199v-1577h-199z" />
<glyph unicode="&#x131;" horiz-adv-x="493" d="M162 0v1190h194v-1190h-194z" />
<glyph unicode="&#x132;" horiz-adv-x="1540" d="M156 -2v1577h198v-1577h-198zM530 473h185q0 -167 50 -233t193 -66q44 0 77 6.5t57.5 18t40.5 34t26.5 47t15.5 64.5t7 79.5t2 98.5v1059h196v-1057q0 -111 -9.5 -189.5t-36.5 -148t-74 -110.5t-123 -64.5t-183 -23.5q-103 0 -177.5 22t-122 60.5t-75.5 100.5 t-38.5 133.5t-10.5 168.5z" />
<glyph unicode="&#x133;" horiz-adv-x="907" d="M129 1473q0 43 24.5 72.5t59 37t69 1t59 -36.5t24.5 -74q0 -41 -24.5 -70.5t-59 -37t-69 -1.5t-59 35.5t-24.5 73.5zM147 0v1190h195v-1190h-195zM430 -213q34 -5 63.5 -1.5t51.5 16t34.5 48.5t12.5 95v1243h190v-1243q0 -189 -84.5 -268t-267.5 -64v174zM569 1473 q0 43 24.5 72.5t59 37t69 1t59 -36.5t24.5 -74q0 -41 -24.5 -70.5t-59 -37t-69 -1.5t-59 35.5t-24.5 73.5z" />
<glyph unicode="&#x134;" horiz-adv-x="1021" d="M61 473h185q0 -167 50 -233t193 -66q44 0 77 6.5t57.5 18t40.5 34t26.5 47t15.5 64.5t7 79.5t2 98.5v1059h196v-1057q0 -111 -9.5 -189.5t-36.5 -148t-74 -110.5t-123 -64.5t-183 -23.5q-103 0 -177.5 22t-122 60.5t-75.5 100.5t-38.5 133.5t-10.5 168.5zM504 1669v14 l246 250h116l254 -250v-14h-190l-117 117l-119 -117h-190z" />
<glyph unicode="&#x135;" horiz-adv-x="493" d="M-18 1311v14l227 264h106l236 -264v-14h-176l-109 123l-108 -123h-176zM2 -213q34 -5 63.5 -1.5t51.5 16t34.5 48.5t12.5 95v1243h190v-1243q0 -189 -84.5 -268t-267.5 -64v174z" />
<glyph unicode="&#x136;" horiz-adv-x="1138" d="M133 0v1579h195v-696h75l471 696h230l-545 -791l588 -788h-240l-504 680h-75v-680h-195zM428 -334q43 27 68.5 56t37 67t14.5 70t3 88h170q0 -148 -52 -229t-180 -140z" />
<glyph unicode="&#x137;" horiz-adv-x="1036" d="M113 0v1581h194v-864h78l371 481h237l-438 -563l479 -635h-233l-406 532h-88v-532h-194zM336 -340q43 27 68.5 56t37 67t14.5 70t3 88h170q0 -148 -52 -229t-180 -140z" />
<glyph unicode="&#x138;" horiz-adv-x="1044" d="M113 0v1194h194v-477h78l371 481h237l-438 -563l479 -635h-233l-406 532h-88v-532h-194z" />
<glyph unicode="&#x139;" horiz-adv-x="1005" d="M143 0v1579h197v-1399h616v-180h-813zM160 1686v10l108 260h193v-6l-146 -264h-155z" />
<glyph unicode="&#x13a;" horiz-adv-x="520" d="M143 311v1270h191v-1268q0 -70 28 -95t95 -25v-193q-91 0 -148 13t-96 48t-54.5 95t-15.5 155zM143 1681v11l109 260h192v-6l-145 -265h-156z" />
<glyph unicode="&#x13b;" horiz-adv-x="1005" d="M143 0v1579h197v-1399h616v-180h-813zM373 -377q43 27 68.5 56t37 67t14.5 70t3 88h170q0 -148 -52 -229t-180 -140z" />
<glyph unicode="&#x13c;" horiz-adv-x="520" d="M125 -381q43 27 68.5 56t37 67t14.5 70t3 88h170q0 -148 -52 -229t-180 -140zM143 311v1270h191v-1268q0 -70 28 -95t95 -25v-193q-91 0 -148 13t-96 48t-54.5 95t-15.5 155z" />
<glyph unicode="&#x13d;" horiz-adv-x="1005" d="M143 0v1579h197v-1399h616v-180h-813zM629 1214l88 363h174l-131 -363h-131z" />
<glyph unicode="&#x13e;" horiz-adv-x="684" d="M143 311v1270h191v-1268q0 -70 28 -95t95 -25v-193q-91 0 -148 13t-96 48t-54.5 95t-15.5 155zM471 1219l66 362h168l-97 -362h-137z" />
<glyph unicode="&#x13f;" horiz-adv-x="1005" d="M143 0v1579h197v-1399h616v-180h-813zM528 762q0 54 36 84.5t79 30.5t79 -30.5t36 -84.5t-36 -84.5t-79 -30.5t-79 30.5t-36 84.5z" />
<glyph unicode="&#x140;" horiz-adv-x="765" d="M143 311v1270h191v-1268q0 -70 28 -95t95 -25v-193q-91 0 -148 13t-96 48t-54.5 95t-15.5 155zM485 752q0 54 36 84.5t79 30.5t79 -30.5t36 -84.5t-36 -84.5t-79 -30.5t-79 30.5t-36 84.5z" />
<glyph unicode="&#x141;" horiz-adv-x="1005" d="M25 567v150l118 53v809h197v-721l319 146v-150l-319 -145v-529h616v-180h-813v621z" />
<glyph unicode="&#x142;" horiz-adv-x="514" d="M31 637v139l112 49v756h191v-672l137 62v-142l-137 -61v-455q0 -70 28 -95t95 -25v-193q-91 0 -148 13t-96 48t-54.5 95t-15.5 155v375z" />
<glyph unicode="&#x143;" horiz-adv-x="1126" d="M129 0v1579h184l535 -1208l-29 536v672h195v-1579h-183l-520 1135l13 -519v-616h-195zM479 1657v10l109 260h192v-6l-145 -264h-156z" />
<glyph unicode="&#x144;" horiz-adv-x="1193" d="M162 0v1198h174l12 -127q50 81 127.5 111t179.5 30q204 0 301 -99.5t97 -332.5v-780h-197v778q0 125 -62.5 190.5t-170.5 65.5q-116 0 -190.5 -66t-74.5 -188v-780h-196zM461 1329v10l108 260h193v-6l-146 -264h-155z" />
<glyph unicode="&#x145;" horiz-adv-x="1126" d="M129 0v1579h184l535 -1208l-29 536v672h195v-1579h-183l-520 1135l13 -519v-616h-195zM393 -377q43 27 68.5 56t37 67t14.5 70t3 88h170q0 -149 -51.5 -229.5t-179.5 -139.5z" />
<glyph unicode="&#x146;" horiz-adv-x="1193" d="M162 0v1198h174l12 -127q50 81 127.5 111t179.5 30q204 0 301 -99.5t97 -332.5v-780h-197v778q0 125 -62.5 190.5t-170.5 65.5q-116 0 -190.5 -66t-74.5 -188v-780h-196zM410 -377q34 22 57.5 46.5t36 47.5t19 56.5t8 59.5t1.5 71h170q0 -149 -51.5 -229.5t-179.5 -139.5 z" />
<glyph unicode="&#x147;" horiz-adv-x="1126" d="M129 0v1579h184l535 -1208l-29 536v672h195v-1579h-183l-520 1135l13 -519v-616h-195zM258 1921v14h191l116 -116l119 116h190v-14l-245 -250h-117z" />
<glyph unicode="&#x148;" horiz-adv-x="1193" d="M162 0v1198h174l12 -127q50 81 127.5 111t179.5 30q204 0 301 -99.5t97 -332.5v-780h-197v778q0 125 -62.5 190.5t-170.5 65.5q-116 0 -190.5 -66t-74.5 -188v-780h-196zM299 1569v14h190l117 -117l119 117h190v-14l-245 -250h-117z" />
<glyph unicode="&#x149;" horiz-adv-x="1193" d="M162 0v1198h174l12 -127q50 81 127.5 111t179.5 30q204 0 301 -99.5t97 -332.5v-780h-197v778q0 125 -62.5 190.5t-170.5 65.5q-116 0 -190.5 -66t-74.5 -188v-780h-196z" />
<glyph unicode="&#x14a;" horiz-adv-x="1128" d="M129 0v1579h184l535 -1208l-29 536v672h195v-1628q2 -183 -67.5 -278t-231.5 -95q-49 0 -92 12l36 150q32 -4 50 -4q45 1 74 16t43 45.5t19 65t5 86.5v35l-539 1151l13 -519v-616h-195z" />
<glyph unicode="&#x14b;" horiz-adv-x="1196" d="M162 0v1198h174l12 -127q50 81 127.5 111t179.5 30q204 0 301 -99.5t97 -332.5v-760q3 -179 -68 -273.5t-233 -94.5q-52 0 -86 10l26 172q16 -4 51 -4q24 0 42 4t30.5 11.5t20.5 18.5t12 25t6 30.5t2 36.5v42v25v755q0 125 -62.5 190.5t-170.5 65.5q-116 0 -190.5 -66 t-74.5 -188v-780h-196z" />
<glyph unicode="&#x14c;" horiz-adv-x="1220" d="M104 518v551q0 111 11.5 189t44 147t89 110t147.5 64t220 23t220 -23t147.5 -64t89 -110t44 -147t11.5 -189v-551q0 -79 -5.5 -139t-20 -117.5t-39.5 -98.5t-63.5 -76t-92 -56.5t-126.5 -33t-165 -11.5t-165 11.5t-126.5 33t-92 56.5t-63.5 76t-39.5 98.5t-20 117.5 t-5.5 139zM301 516q0 -53 1.5 -87.5t6.5 -72t14 -61t25 -47t39 -36.5t55.5 -24t75 -15.5t98.5 -4.5q63 0 110 6.5t81.5 18t57 34.5t36 46.5t20.5 64.5t9 79.5t2 98.5v555q0 60 -2 98.5t-9 80t-20.5 65.5t-36 47.5t-56.5 35t-81.5 18.5t-110.5 7q-74 0 -126 -8t-87 -28.5 t-55 -44.5t-30.5 -69.5t-13.5 -88t-3 -113.5v-555zM397 1737v149h459v-149h-459z" />
<glyph unicode="&#x14d;" horiz-adv-x="1101" d="M102 436v342q0 229 116 331.5t333 102.5t332.5 -102.5t115.5 -331.5v-342q0 -244 -105 -350t-343 -106q-242 0 -345.5 105.5t-103.5 350.5zM297 436q0 -159 60 -222.5t194 -63.5q138 0 196 63t58 223v342q0 80 -16 132t-51 79.5t-78.5 38t-108.5 10.5t-108.5 -10.5 t-78.5 -38t-51 -79.5t-16 -132v-342zM336 1393v153h448v-153h-448z" />
<glyph unicode="&#x14e;" horiz-adv-x="1220" d="M104 518v551q0 111 11.5 189t44 147t89 110t147.5 64t220 23t220 -23t147.5 -64t89 -110t44 -147t11.5 -189v-551q0 -79 -5.5 -139t-20 -117.5t-39.5 -98.5t-63.5 -76t-92 -56.5t-126.5 -33t-165 -11.5t-165 11.5t-126.5 33t-92 56.5t-63.5 76t-39.5 98.5t-20 117.5 t-5.5 139zM301 516q0 -53 1.5 -87.5t6.5 -72t14 -61t25 -47t39 -36.5t55.5 -24t75 -15.5t98.5 -4.5q63 0 110 6.5t81.5 18t57 34.5t36 46.5t20.5 64.5t9 79.5t2 98.5v555q0 60 -2 98.5t-9 80t-20.5 65.5t-36 47.5t-56.5 35t-81.5 18.5t-110.5 7q-74 0 -126 -8t-87 -28.5 t-55 -44.5t-30.5 -69.5t-13.5 -88t-3 -113.5v-555zM369 1970h145q0 -66 22.5 -99.5t92.5 -33.5t91 33t21 100h146q6 -135 -57 -201.5t-201 -66.5q-139 0 -202.5 67t-57.5 201z" />
<glyph unicode="&#x14f;" horiz-adv-x="1101" d="M102 436v342q0 229 116 331.5t333 102.5t332.5 -102.5t115.5 -331.5v-342q0 -244 -105 -350t-343 -106q-242 0 -345.5 105.5t-103.5 350.5zM297 436q0 -159 60 -222.5t194 -63.5q138 0 196 63t58 223v342q0 80 -16 132t-51 79.5t-78.5 38t-108.5 10.5t-108.5 -10.5 t-78.5 -38t-51 -79.5t-16 -132v-342zM303 1597h146q0 -67 22 -100t92 -33t91.5 33t21.5 100h145q6 -135 -57 -201.5t-201 -66.5q-139 0 -202.5 67t-57.5 201z" />
<glyph unicode="&#x150;" horiz-adv-x="1220" d="M104 518v551q0 111 11.5 189t44 147t89 110t147.5 64t220 23t220 -23t147.5 -64t89 -110t44 -147t11.5 -189v-551q0 -79 -5.5 -139t-20 -117.5t-39.5 -98.5t-63.5 -76t-92 -56.5t-126.5 -33t-165 -11.5t-165 11.5t-126.5 33t-92 56.5t-63.5 76t-39.5 98.5t-20 117.5 t-5.5 139zM301 516q0 -53 1.5 -87.5t6.5 -72t14 -61t25 -47t39 -36.5t55.5 -24t75 -15.5t98.5 -4.5q63 0 110 6.5t81.5 18t57 34.5t36 46.5t20.5 64.5t9 79.5t2 98.5v555q0 60 -2 98.5t-9 80t-20.5 65.5t-36 47.5t-56.5 35t-81.5 18.5t-110.5 7q-74 0 -126 -8t-87 -28.5 t-55 -44.5t-30.5 -69.5t-13.5 -88t-3 -113.5v-555zM393 1710l133 234h193v-5l-162 -229h-164zM709 1708l133 236h192v-5l-160 -231h-165z" />
<glyph unicode="&#x151;" horiz-adv-x="1101" d="M102 436v342q0 229 116 331.5t333 102.5t332.5 -102.5t115.5 -331.5v-342q0 -244 -105 -350t-343 -106q-242 0 -345.5 105.5t-103.5 350.5zM295 1346l133 233h193v-4l-162 -229h-164zM297 436q0 -159 60 -222.5t194 -63.5q138 0 196 63t58 223v342q0 80 -16 132t-51 79.5 t-78.5 38t-108.5 10.5t-108.5 -10.5t-78.5 -38t-51 -79.5t-16 -132v-342zM610 1343l133 236h193v-4l-160 -232h-166z" />
<glyph unicode="&#x152;" horiz-adv-x="1523" d="M104 528v521q0 79 5.5 139t20 117.5t39.5 98.5t63.5 76t92 56.5t126.5 33t165 11.5h801v-172h-506v-475h449v-182h-449v-570h527v-182h-822q-108 0 -188.5 14.5t-137 46t-93 73t-57 104t-28.5 130.5t-8 160zM301 526q0 -53 1.5 -87.5t6.5 -73t14 -62.5t25 -48.5t39 -38 t55.5 -25.5t75.5 -16.5t98 -4.5h111v1247h-111q-55 0 -98 -5t-75.5 -17.5t-55.5 -27t-39 -40t-25 -50.5t-14 -64t-6.5 -74t-1.5 -88v-525z" />
<glyph unicode="&#x153;" horiz-adv-x="1765" d="M102 436v342q0 229 116 331.5t333 102.5q128 0 213.5 -39t128.5 -133q85 172 338 172q448 0 448 -434v-260h-702v-90q0 -81 14.5 -133t47.5 -81.5t78 -40.5t114 -11q130 0 192 44.5t62 137.5h190q0 -180 -106.5 -272t-337.5 -92q-269 0 -336 188q-44 -93 -132.5 -140.5 t-211.5 -47.5q-242 0 -345.5 105.5t-103.5 350.5zM297 436q0 -159 60 -222.5t194 -63.5q135 0 193 62t61 224v342q0 80 -16 132t-51 79.5t-78.5 38t-108.5 10.5t-108.5 -10.5t-78.5 -38t-51 -79.5t-16 -132v-342zM977 692h514v86q0 78 -18 130.5t-54.5 80.5t-80.5 38.5 t-107 10.5q-62 0 -104 -10t-77.5 -37.5t-53.5 -80t-19 -132.5v-86z" />
<glyph unicode="&#x154;" horiz-adv-x="1105" d="M143 -2v1583l424 2q218 0 333.5 -102t115.5 -330v-111q0 -196 -68 -304.5t-227 -139.5l342 -596h-229l-318 584h-178v-586h-195zM338 770h229q137 0 195.5 56.5t58.5 213.5v111q0 54 -6 93t-21.5 65t-33.5 42.5t-50.5 25.5t-62.5 13t-80 7h-229v-627zM455 1708v10 l108 260h193v-6l-146 -264h-155z" />
<glyph unicode="&#x155;" horiz-adv-x="686" d="M123 -2v1200h178l8 -111q45 69 140.5 101.5t203.5 9.5v-199q-146 24 -241 -36.5t-95 -194.5v-770h-194zM289 1352v10l102 242h182v-7l-137 -245h-147z" />
<glyph unicode="&#x156;" horiz-adv-x="1105" d="M143 -2v1583l424 2q218 0 333.5 -102t115.5 -330v-111q0 -196 -68 -304.5t-227 -139.5l342 -596h-229l-318 584h-178v-586h-195zM338 770h229q137 0 195.5 56.5t58.5 213.5v111q0 54 -6 93t-21.5 65t-33.5 42.5t-50.5 25.5t-62.5 13t-80 7h-229v-627zM393 -377 q43 27 68.5 56t37 67t14.5 70t3 88h170q0 -149 -51.5 -229.5t-179.5 -139.5z" />
<glyph unicode="&#x157;" horiz-adv-x="686" d="M2 -358q44 26 70.5 52.5t38.5 61t15 64t3 80.5h176q0 -136 -53 -209.5t-186 -128.5zM123 -2v1200h178l8 -111q45 69 140.5 101.5t203.5 9.5v-199q-146 24 -241 -36.5t-95 -194.5v-770h-194z" />
<glyph unicode="&#x158;" horiz-adv-x="1105" d="M143 -2v1583l424 2q218 0 333.5 -102t115.5 -330v-111q0 -196 -68 -304.5t-227 -139.5l342 -596h-229l-318 584h-178v-586h-195zM244 1939v15h190l117 -117l119 117h190v-15l-246 -249h-116zM338 770h229q137 0 195.5 56.5t58.5 213.5v111q0 54 -6 93t-21.5 65 t-33.5 42.5t-50.5 25.5t-62.5 13t-80 7h-229v-627z" />
<glyph unicode="&#x159;" horiz-adv-x="704" d="M98 1579v14h191l117 -116l118 116h191v-14l-246 -250h-117zM123 -2v1200h178l8 -111q45 69 140.5 101.5t203.5 9.5v-199q-146 24 -241 -36.5t-95 -194.5v-770h-194z" />
<glyph unicode="&#x15a;" horiz-adv-x="1161" d="M90 418h211q8 -111 69 -173.5t203 -62.5h39q78 0 129.5 18t78.5 56.5t37.5 87.5t10.5 123q0 72 -20.5 123t-44 77.5t-81 44t-89 21.5t-110.5 10q-14 1 -21 2q-59 5 -112 18.5t-106.5 44t-91.5 74.5t-62 113t-24 156q0 224 110.5 334t354.5 110q228 0 336 -102t119 -303 h-203q-8 109 -61.5 165t-190.5 56q-80 0 -133 -17.5t-80.5 -53t-38 -79.5t-10.5 -108q0 -59 19.5 -100.5t48 -64.5t77.5 -37.5t91.5 -20t106.5 -11.5q30 -2 46 -4q371 -37 371 -438q0 -256 -106 -370.5t-349 -114.5h-39q-463 0 -485 426zM496 1702v10l108 260h193v-6 l-146 -264h-155z" />
<glyph unicode="&#x15b;" horiz-adv-x="999" d="M78 371h196q7 -107 71.5 -155t166.5 -48q109 0 169 51t60 139q0 29 -8.5 52.5t-21.5 39.5t-37 28.5t-44.5 19.5t-54.5 12t-57.5 7t-62.5 5q-367 25 -367 324q0 165 106 265.5t310 100.5q203 0 303.5 -91.5t95.5 -260.5h-186q0 176 -219 176q-103 0 -159 -47.5t-56 -142.5 q0 -39 12 -65.5t29 -41.5t50.5 -24t60.5 -12t75 -7q18 -1 27 -2q37 -3 62 -6t61.5 -9t61.5 -14t56 -21t52 -30t42.5 -41.5t34.5 -54.5t21 -70.5t8 -87.5q0 -182 -115.5 -276t-308.5 -94q-206 0 -316.5 95.5t-117.5 285.5zM420 1317v10l108 260h193v-6l-146 -264h-155z" />
<glyph unicode="&#x15c;" horiz-adv-x="1161" d="M90 418h211q8 -111 69 -173.5t203 -62.5h39q78 0 129.5 18t78.5 56.5t37.5 87.5t10.5 123q0 72 -20.5 123t-44 77.5t-81 44t-89 21.5t-110.5 10q-14 1 -21 2q-59 5 -112 18.5t-106.5 44t-91.5 74.5t-62 113t-24 156q0 224 110.5 334t354.5 110q228 0 336 -102t119 -303 h-203q-8 109 -61.5 165t-190.5 56q-80 0 -133 -17.5t-80.5 -53t-38 -79.5t-10.5 -108q0 -59 19.5 -100.5t48 -64.5t77.5 -37.5t91.5 -20t106.5 -11.5q30 -2 46 -4q371 -37 371 -438q0 -256 -106 -370.5t-349 -114.5h-39q-463 0 -485 426zM287 1690v14l245 250h117l254 -250 v-14h-190l-117 116l-119 -116h-190z" />
<glyph unicode="&#x15d;" horiz-adv-x="999" d="M78 371h196q7 -107 71.5 -155t166.5 -48q109 0 169 51t60 139q0 29 -8.5 52.5t-21.5 39.5t-37 28.5t-44.5 19.5t-54.5 12t-57.5 7t-62.5 5q-367 25 -367 324q0 165 106 265.5t310 100.5q203 0 303.5 -91.5t95.5 -260.5h-186q0 176 -219 176q-103 0 -159 -47.5t-56 -142.5 q0 -39 12 -65.5t29 -41.5t50.5 -24t60.5 -12t75 -7q18 -1 27 -2q37 -3 62 -6t61.5 -9t61.5 -14t56 -21t52 -30t42.5 -41.5t34.5 -54.5t21 -70.5t8 -87.5q0 -182 -115.5 -276t-308.5 -94q-206 0 -316.5 95.5t-117.5 285.5zM219 1339v15l246 250h117l254 -250v-15h-191 l-117 117l-118 -117h-191z" />
<glyph unicode="&#x15e;" horiz-adv-x="1161" d="M90 418h211q8 -111 69 -173.5t203 -62.5h39q78 0 129.5 18t78.5 56.5t37.5 87.5t10.5 123q0 72 -20.5 123t-44 77.5t-81 44t-89 21.5t-110.5 10q-14 1 -21 2q-59 5 -112 18.5t-106.5 44t-91.5 74.5t-62 113t-24 156q0 224 110.5 334t354.5 110q228 0 336 -102t119 -303 h-203q-8 109 -61.5 165t-190.5 56q-80 0 -133 -17.5t-80.5 -53t-38 -79.5t-10.5 -108q0 -59 19.5 -100.5t48 -64.5t77.5 -37.5t91.5 -20t106.5 -11.5q30 -2 46 -4q371 -37 371 -438q0 -248 -99 -363t-323 -122l-16 -74q55 4 94 -16t55.5 -52.5t24 -71t-1.5 -71.5 q-19 -87 -88 -137.5t-160 -44.5q-135 8 -193 100l72 105q18 -31 52.5 -51.5t72.5 -20.5q79 0 98 68q13 55 -34 87t-117 3l-29 24l-4 -2l39 156q-205 13 -309 122.5t-113 301.5z" />
<glyph unicode="&#x15f;" horiz-adv-x="999" d="M78 371h196q7 -107 71.5 -155t166.5 -48q109 0 169 51t60 139q0 29 -8.5 52.5t-21.5 39.5t-37 28.5t-44.5 19.5t-54.5 12t-57.5 7t-62.5 5q-367 25 -367 324q0 165 106 265.5t310 100.5q203 0 303.5 -91.5t95.5 -260.5h-186q0 176 -219 176q-103 0 -159 -47.5t-56 -142.5 q0 -39 12 -65.5t29 -41.5t50.5 -24t60.5 -12t75 -7q18 -1 27 -2q37 -3 62 -6t61.5 -9t61.5 -14t56 -21t52 -30t42.5 -41.5t34.5 -54.5t21 -70.5t8 -87.5q0 -167 -99 -260.5t-268 -105.5l-16 -78q54 4 93 -16t55 -51.5t23.5 -69.5t-1.5 -70q-19 -86 -86.5 -134.5 t-159.5 -43.5q-131 8 -186 98l69 103q18 -29 52 -49.5t69 -20.5q81 0 99 66q13 54 -33.5 85t-114.5 3l-29 24l-4 -2l39 156q-171 15 -262.5 110t-97.5 267z" />
<glyph unicode="&#x160;" horiz-adv-x="1161" d="M90 418h211q8 -111 69 -173.5t203 -62.5h39q78 0 129.5 18t78.5 56.5t37.5 87.5t10.5 123q0 72 -20.5 123t-44 77.5t-81 44t-89 21.5t-110.5 10q-14 1 -21 2q-59 5 -112 18.5t-106.5 44t-91.5 74.5t-62 113t-24 156q0 224 110.5 334t354.5 110q228 0 336 -102t119 -303 h-203q-8 109 -61.5 165t-190.5 56q-80 0 -133 -17.5t-80.5 -53t-38 -79.5t-10.5 -108q0 -59 19.5 -100.5t48 -64.5t77.5 -37.5t91.5 -20t106.5 -11.5q30 -2 46 -4q371 -37 371 -438q0 -256 -106 -370.5t-349 -114.5h-39q-463 0 -485 426zM285 1939v15h190l117 -117l119 117 h190v-15l-246 -249h-116z" />
<glyph unicode="&#x161;" horiz-adv-x="999" d="M78 371h196q7 -107 71.5 -155t166.5 -48q109 0 169 51t60 139q0 29 -8.5 52.5t-21.5 39.5t-37 28.5t-44.5 19.5t-54.5 12t-57.5 7t-62.5 5q-367 25 -367 324q0 165 106 265.5t310 100.5q203 0 303.5 -91.5t95.5 -260.5h-186q0 176 -219 176q-103 0 -159 -47.5t-56 -142.5 q0 -39 12 -65.5t29 -41.5t50.5 -24t60.5 -12t75 -7q18 -1 27 -2q37 -3 62 -6t61.5 -9t61.5 -14t56 -21t52 -30t42.5 -41.5t34.5 -54.5t21 -70.5t8 -87.5q0 -182 -115.5 -276t-308.5 -94q-206 0 -316.5 95.5t-117.5 285.5zM190 1569v14h191l117 -117l118 117h191v-14 l-246 -250h-117z" />
<glyph unicode="&#x162;" horiz-adv-x="882" d="M16 1391v180h850v-180h-327v-1391h-52l-20 -90q54 4 93 -16t55 -51.5t23.5 -69.5t-1.5 -70q-19 -86 -86.5 -134.5t-159.5 -43.5q-135 8 -190 98l69 103q18 -29 52.5 -49.5t72.5 -20.5q81 0 99 65q13 54 -34.5 85.5t-117.5 3.5l-29 24l-4 -2l43 168h-8v1391h-328z" />
<glyph unicode="&#x163;" horiz-adv-x="600" d="M131 330v1077l191 23v-238h206v-184h-206v-672q0 -94 49 -132.5t166 -23.5v-180q-74 -8 -140 -2l-22 -72q48 4 83 -14t49.5 -47t21.5 -63.5t-1 -63.5q-17 -79 -78 -124.5t-143 -39.5q-49 2 -96 24t-74 66l62 92q16 -26 46.5 -44.5t63.5 -18.5q72 0 90 59q11 50 -31 79.5 t-104 2.5l-26 23l-5 -2l52 168q-84 35 -119 112t-35 195z" />
<glyph unicode="&#x164;" horiz-adv-x="894" d="M16 1391v180h850v-180h-327v-1391h-195v1391h-328zM133 1937v15h191l116 -117l119 117h191v-15l-246 -249h-117z" />
<glyph unicode="&#x165;" horiz-adv-x="815" d="M131 330v1077l191 23v-238h149v-176h-149v-680q0 -94 49 -132.5t166 -23.5v-180q-95 -13 -164 -0.5t-115.5 37.5t-74.5 70.5t-40 99t-12 123.5zM596 1098l59 340h170l-104 -340h-125z" />
<glyph unicode="&#x166;" horiz-adv-x="884" d="M16 1391v180h850v-180h-327v-504h194v-137h-194v-750h-195v750h-190v137h190v504h-328z" />
<glyph unicode="&#x167;" horiz-adv-x="577" d="M27 637v123h104v647l191 23v-238h206v-184h-206v-248h143v-123h-143v-301q0 -94 49 -132.5t166 -23.5v-180q-95 -13 -164 -0.5t-115.5 37.5t-74.5 70.5t-40 99t-12 123.5v307h-104z" />
<glyph unicode="&#x168;" horiz-adv-x="1232" d="M123 520v1059h196v-1061q0 -99 11.5 -160.5t43.5 -106t89 -63t149 -18.5q73 0 123.5 13t83.5 37t51 68t24.5 97t6.5 133v1063h197v-1061q0 -135 -23.5 -230t-78.5 -165t-150 -103.5t-234 -33.5t-234.5 33.5t-151 103.5t-79.5 165t-24 230zM342 1747q22 93 93 134.5 t157 10.5l92 -43q78 -29 104 54l117 -48q-21 -104 -90.5 -143t-146.5 -8l-90 41q-91 32 -123 -51z" />
<glyph unicode="&#x169;" horiz-adv-x="1193" d="M160 418v772h196v-770q0 -125 63 -190.5t171 -65.5q116 0 190 65.5t74 188.5v772h197v-1190h-174l-13 127q-50 -81 -127.5 -111t-179.5 -30q-204 0 -300.5 99.5t-96.5 332.5zM326 1436q22 93 92.5 134.5t156.5 10.5l93 -43q78 -29 104 53l117 -47q-21 -104 -91 -143 t-147 -8l-90 41q-91 32 -123 -52z" />
<glyph unicode="&#x16a;" horiz-adv-x="1232" d="M123 520v1059h196v-1061q0 -99 11.5 -160.5t43.5 -106t89 -63t149 -18.5q73 0 123.5 13t83.5 37t51 68t24.5 97t6.5 133v1063h197v-1061q0 -135 -23.5 -230t-78.5 -165t-150 -103.5t-234 -33.5t-234.5 33.5t-151 103.5t-79.5 165t-24 230zM379 1708v160h463v-160h-463z " />
<glyph unicode="&#x16b;" horiz-adv-x="1193" d="M160 418v772h196v-770q0 -125 63 -190.5t171 -65.5q116 0 190 65.5t74 188.5v772h197v-1190h-174l-13 127q-50 -81 -127.5 -111t-179.5 -30q-204 0 -300.5 99.5t-96.5 332.5zM389 1395v155h467v-155h-467z" />
<glyph unicode="&#x16c;" horiz-adv-x="1232" d="M123 520v1059h196v-1061q0 -99 11.5 -160.5t43.5 -106t89 -63t149 -18.5q73 0 123.5 13t83.5 37t51 68t24.5 97t6.5 133v1063h197v-1061q0 -135 -23.5 -230t-78.5 -165t-150 -103.5t-234 -33.5t-234.5 33.5t-151 103.5t-79.5 165t-24 230zM367 1946h145 q0 -67 22.5 -100.5t92.5 -33.5q37 0 60.5 9.5t34 29.5t14 41t3.5 54h146q6 -135 -57 -202t-201 -67q-272 0 -260 269z" />
<glyph unicode="&#x16d;" horiz-adv-x="1193" d="M160 418v772h196v-770q0 -125 63 -190.5t171 -65.5q116 0 190 65.5t74 188.5v772h197v-1190h-174l-13 127q-50 -81 -127.5 -111t-179.5 -30q-204 0 -300.5 99.5t-96.5 332.5zM362 1583h146q0 -66 22.5 -99.5t92.5 -33.5t91 33t21 100h146q6 -135 -57 -201.5t-201 -66.5 q-273 0 -261 268z" />
<glyph unicode="&#x16e;" horiz-adv-x="1232" d="M123 520v1059h196v-1061q0 -99 11.5 -160.5t43.5 -106t89 -63t149 -18.5q73 0 123.5 13t83.5 37t51 68t24.5 97t6.5 133v1063h197v-1061q0 -135 -23.5 -230t-78.5 -165t-150 -103.5t-234 -33.5t-234.5 33.5t-151 103.5t-79.5 165t-24 230zM403 1825q0 86 62.5 135 t150.5 49q86 0 150.5 -48t64.5 -134q0 -89 -62.5 -139t-154.5 -50t-152 49.5t-59 137.5zM524 1824q0 -30 24.5 -55.5t67.5 -25.5q46 0 71.5 25.5t25 55.5t-26.5 55.5t-70 25.5q-43 0 -67.5 -25.5t-24.5 -55.5z" />
<glyph unicode="&#x16f;" horiz-adv-x="1193" d="M160 418v772h196v-770q0 -125 63 -190.5t171 -65.5q116 0 190 65.5t74 188.5v772h197v-1190h-174l-13 127q-50 -81 -127.5 -111t-179.5 -30q-204 0 -300.5 99.5t-96.5 332.5zM412 1442q0 86 62.5 135t150.5 49q86 0 150.5 -48t64.5 -134q0 -89 -62.5 -139t-154.5 -50 t-152 49.5t-59 137.5zM533 1441q0 -30 24.5 -55.5t67.5 -25.5q46 0 71.5 25.5t25 55.5t-26.5 55.5t-70 25.5q-43 0 -67.5 -25.5t-24.5 -55.5z" />
<glyph unicode="&#x170;" horiz-adv-x="1232" d="M123 520v1059h196v-1061q0 -99 11.5 -160.5t43.5 -106t89 -63t149 -18.5q73 0 123.5 13t83.5 37t51 68t24.5 97t6.5 133v1063h197v-1061q0 -135 -23.5 -230t-78.5 -165t-150 -103.5t-234 -33.5t-234.5 33.5t-151 103.5t-79.5 165t-24 230zM358 1694l134 233h192v-4 l-162 -229h-164zM674 1692l133 235h192v-4l-159 -231h-166z" />
<glyph unicode="&#x171;" horiz-adv-x="1193" d="M160 418v772h196v-770q0 -125 63 -190.5t171 -65.5q116 0 190 65.5t74 188.5v772h197v-1190h-174l-13 127q-50 -81 -127.5 -111t-179.5 -30q-204 0 -300.5 99.5t-96.5 332.5zM358 1354l134 233h192v-4l-162 -229h-164zM674 1352l133 235h192v-4l-159 -231h-166z" />
<glyph unicode="&#x172;" horiz-adv-x="1232" d="M123 520v1059h196v-1061q0 -99 11.5 -160.5t43.5 -106t89 -63t149 -18.5q73 0 123.5 13t83.5 37t51 68t24.5 97t6.5 133v1063h197v-1061q0 -214 -64.5 -339t-216.5 -169q-45 -19 -66 -59t-6 -76q25 -58 103 -55q70 3 125 61l88 -106q-42 -48 -96 -79t-109 -34 q-67 -2 -121 10.5t-97.5 48t-59.5 93.5q-13 32 -1.5 87t44.5 85h-9q-139 0 -234.5 33.5t-151 103.5t-79.5 165t-24 230z" />
<glyph unicode="&#x173;" horiz-adv-x="1198" d="M160 418v772h196v-770q0 -125 63 -190.5t171 -65.5q116 0 190 65.5t74 188.5v772h197v-1256q-87 14 -140.5 -34.5t-33.5 -108.5t90 -57q56 3 102 49l78 -90q-65 -77 -174 -84q-82 -3 -142 31t-83 104q-12 45 -7 93t41.5 93.5t94.5 65.5l-13 131q-50 -81 -127.5 -111 t-179.5 -30q-204 0 -300.5 99.5t-96.5 332.5z" />
<glyph unicode="&#x174;" horiz-adv-x="1644" d="M18 1581h201l152 -668l114 -589l271 1171h151l271 -1171l114 589l152 668h201l-377 -1583h-178l-134 530l-125 568l-124 -568l-134 -530h-178zM526 1640v15l246 250h117l254 -250v-15h-191l-116 117l-119 -117h-191z" />
<glyph unicode="&#x175;" horiz-adv-x="1501" d="M16 1198h205l123 -399q24 -81 43.5 -168.5t42.5 -210t29 -150.5q56 283 119 533l110 395h143l113 -395q53 -211 117 -533q6 28 29 150.5t42.5 210t43.5 168.5l122 399h205l-344 -1200h-194l-99 350l-106 465l-109 -471l-96 -344h-195zM451 1333v15l245 249h117l254 -249 v-15h-190l-117 117l-119 -117h-190z" />
<glyph unicode="&#x176;" horiz-adv-x="948" d="M-4 1581h211l127 -307l139 -393l139 393l127 307h211l-381 -919v-664h-194v664zM166 1690v14l246 250h116l254 -250v-14h-190l-117 116l-119 -116h-190z" />
<glyph unicode="&#x177;" horiz-adv-x="980" d="M31 1198h213l114 -385l154 -555q43 220 150 567l116 373h203l-375 -1200l-71 -227q-57 -180 -162 -229.5t-275 20.5l35 166q37 -15 65.5 -20.5t61 -0.5t58.5 35.5t44 85.5l50 170zM201 1346v14l245 250h117l254 -250v-14h-190l-117 116l-119 -116h-190z" />
<glyph unicode="&#x178;" horiz-adv-x="944" d="M-4 1581h211l127 -307l139 -393l139 393l127 307h211l-381 -919v-664h-194v664zM131 1821q0 43 24.5 72.5t59 37t69 1t59 -36.5t24.5 -74q0 -41 -24.5 -70.5t-59 -37t-69 -1.5t-59 35.5t-24.5 73.5zM578 1821q0 53 36.5 84t81 32t81 -30t36.5 -86q0 -51 -36.5 -82 t-81 -32t-81 29t-36.5 85z" />
<glyph unicode="&#x179;" horiz-adv-x="948" d="M29 0l630 1409h-546v172h823l-631 -1403h608v-178h-884zM422 1694v10l108 260h193v-6l-145 -264h-156z" />
<glyph unicode="&#x17a;" horiz-adv-x="985" d="M63 0v31l590 989h-534v178h823v-35l-582 -981h594v-182h-891zM430 1325v10l109 260h192v-6l-145 -264h-156z" />
<glyph unicode="&#x17b;" horiz-adv-x="940" d="M29 0l630 1409h-546v172h823l-631 -1403h608v-178h-884zM418 1800q0 51 34.5 80.5t76 29.5t76 -29.5t34.5 -80.5t-34.5 -80.5t-76 -29.5t-76 29.5t-34.5 80.5z" />
<glyph unicode="&#x17c;" horiz-adv-x="985" d="M63 0v31l590 989h-534v178h823v-35l-582 -981h594v-182h-891zM416 1473q0 53 36.5 84t81 32t81 -30t36.5 -86q0 -51 -36.5 -82t-81 -32t-81 29t-36.5 85z" />
<glyph unicode="&#x17d;" horiz-adv-x="962" d="M29 0l630 1409h-546v172h823l-631 -1403h608v-178h-884zM219 1929v15h191l116 -117l119 117h191v-15l-246 -250h-117z" />
<glyph unicode="&#x17e;" horiz-adv-x="995" d="M63 0v31l590 989h-534v178h823v-35l-582 -981h594v-182h-891zM225 1569v14h191l116 -117l119 117h191v-14l-246 -250h-117z" />
<glyph unicode="&#x17f;" horiz-adv-x="632" d="M121 -2v1155q0 240 130.5 350.5t354.5 89.5v-178q-71 7 -121.5 -0.5t-90.5 -35t-59.5 -84t-19.5 -142.5v-1155h-194z" />
<glyph unicode="&#x192;" horiz-adv-x="790" d="M-25 -195q145 -15 218 40.5t73 222.5v864h-211v180h211v41q0 240 130.5 350.5t355.5 89.5v-178q-71 7 -121.5 -0.5t-90.5 -35t-59.5 -84t-19.5 -142.5v-41h256v-180h-256v-864q0 -240 -131 -351t-355 -90v178z" />
<glyph unicode="&#x1fa;" horiz-adv-x="1056" d="M18 0l381 1432q-85 58 -82 167q0 99 64.5 153t155.5 54q90 0 155.5 -53t65.5 -151q0 -105 -84 -168l381 -1434h-201l-80 293h-473l-80 -293h-203zM350 477h373l-82 336l-104 508l-107 -514zM442 1599.5q0 -32.5 25.5 -59.5t69.5 -27q46 0 72 27t25.5 59.5t-26.5 59.5 t-71 27q-44 0 -69.5 -27t-25.5 -59.5zM455 1855v9l147 159h221l-207 -168h-161z" />
<glyph unicode="&#x1fb;" horiz-adv-x="1050" d="M90 276q-15 158 84.5 265t284.5 133q93 14 289 18v117q0 110 -50.5 166.5t-177.5 56.5q-93 0 -141 -43.5t-47 -157.5h-191q-6 195 92 287t293 92q205 0 311.5 -95t106.5 -306v-809h-176l-16 162q-34 -71 -118.5 -121.5t-187.5 -50.5q-79 0 -140.5 16.5t-99.5 43 t-63.5 65.5t-36.5 77t-16 84zM287 301q6 -66 56 -95.5t124 -29.5q78 0 134 27t87.5 77t46.5 111t17 139q-188 0 -277 -20q-208 -45 -188 -209zM336 1456q0 88 62 138.5t149 50.5q84 0 147.5 -50t63.5 -137q0 -89 -61.5 -139.5t-151.5 -50.5q-91 0 -150.5 50t-58.5 138z M459 1704v6l129 166h196l-176 -172h-149zM468 1416.5q23 -40.5 79 -40.5q44 0 69 25.5t24.5 55.5t-25.5 55.5t-68 25.5q-56 0 -79 -40.5t0 -81z" />
<glyph unicode="&#x1fc;" horiz-adv-x="1519" d="M4 0l629 1581h815v-166h-537v-481h504v-174h-504v-586h555v-174h-735v377h-385l-143 -377h-199zM412 551h319v852l-123 -352zM823 1673v8l109 240h192v-6l-145 -242h-156z" />
<glyph unicode="&#x1fd;" horiz-adv-x="1708" d="M98 276q-15 160 81.5 266t287.5 132q92 14 295 18v117q0 109 -53 166t-181 57q-93 0 -141 -43.5t-47 -157.5h-190q-6 195 92 287t293 92q115 0 193 -32.5t120 -110.5q50 77 129.5 111t196.5 34q213 0 324.5 -103t111.5 -331v-260h-680v-90q0 -108 26 -166t76 -79t142 -21 q128 0 184.5 44t56.5 138h191q0 -181 -101.5 -272.5t-330.5 -91.5q-147 0 -229.5 43t-129.5 135q-76 -95 -160 -136.5t-200 -41.5q-328 0 -357 296zM295 301q6 -66 56.5 -97.5t123.5 -31.5q280 0 291 352q-7 0 -51 1t-74.5 1t-76.5 -4t-81 -12q-208 -45 -188 -209zM776 1329 v10l109 260h192v-6l-145 -264h-156zM930 692h491v86q0 79 -16 131t-49.5 80t-76 38.5t-105.5 10.5t-104.5 -10.5t-75 -38t-49 -79.5t-15.5 -132v-86z" />
<glyph unicode="&#x1fe;" horiz-adv-x="1220" d="M104 518v551q0 111 11.5 189t44 147t89 110t147.5 64t220 23q105 0 205 -21l66 172h164l-86 -225q94 -59 128.5 -169.5t34.5 -289.5v-551q0 -79 -5.5 -139t-20 -117.5t-39.5 -98.5t-63.5 -76t-92 -56.5t-126.5 -33t-165 -11.5q-129 0 -225 22l-61 -164h-164l86 228 q-84 61 -116 168t-32 278zM301 516q0 -92 5.5 -145.5t23.5 -91.5l428 1132q-59 12 -142 12q-74 0 -126 -8t-87 -28.5t-55 -44.5t-30.5 -69.5t-13.5 -88t-3 -113.5v-555zM457 182q57 -14 159 -14q63 0 110 6.5t81.5 18t57 34.5t36 46.5t20.5 64.5t9 79.5t2 98.5v555 q0 98 -8.5 159t-32.5 101zM537 1720v9l110 235h193v-6l-146 -238h-157z" />
<glyph unicode="&#x1ff;" horiz-adv-x="1101" d="M102 436v342q0 229 116 331.5t333 102.5q93 0 170 -18l55 133h164l-82 -197q141 -107 141 -352v-342q0 -244 -105 -350t-343 -106q-90 0 -168 16l-59 -146h-164l84 201q-74 53 -108 147t-34 238zM297 436q0 -112 31 -182l323 774q-48 10 -100 10q-65 0 -108.5 -10.5 t-78.5 -38t-51 -79.5t-16 -132v-342zM453 160q36 -10 98 -10q138 0 196 63t58 223v342q0 98 -29 158zM453 1352v8l110 235h193v-6l-146 -237h-157z" />
<glyph unicode="&#x218;" horiz-adv-x="1163" d="M90 418h211q8 -111 69 -173.5t203 -62.5h39q78 0 129.5 18t78.5 56.5t37.5 87.5t10.5 123q0 72 -20.5 123t-44 77.5t-81 44t-89 21.5t-110.5 10q-14 1 -21 2q-59 5 -112 18.5t-106.5 44t-91.5 74.5t-62 113t-24 156q0 224 110.5 334t354.5 110q228 0 336 -102t119 -303 h-203q-8 109 -61.5 165t-190.5 56q-80 0 -133 -17.5t-80.5 -53t-38 -79.5t-10.5 -108q0 -59 19.5 -100.5t48 -64.5t77.5 -37.5t91.5 -20t106.5 -11.5q30 -2 46 -4q371 -37 371 -438q0 -256 -106 -370.5t-349 -114.5h-39q-463 0 -485 426zM379 -371q44 27 70.5 55.5 t38.5 66.5t15 69.5t3 87.5h176q0 -154 -48 -238.5t-175 -138.5z" />
<glyph unicode="&#x219;" horiz-adv-x="999" d="M78 371h196q7 -107 71.5 -155t166.5 -48q109 0 169 51t60 139q0 29 -8.5 52.5t-21.5 39.5t-37 28.5t-44.5 19.5t-54.5 12t-57.5 7t-62.5 5q-367 25 -367 324q0 165 106 265.5t310 100.5q203 0 303.5 -91.5t95.5 -260.5h-186q0 176 -219 176q-103 0 -159 -47.5t-56 -142.5 q0 -39 12 -65.5t29 -41.5t50.5 -24t60.5 -12t75 -7q18 -1 27 -2q37 -3 62 -6t61.5 -9t61.5 -14t56 -21t52 -30t42.5 -41.5t34.5 -54.5t21 -70.5t8 -87.5q0 -182 -115.5 -276t-308.5 -94q-206 0 -316.5 95.5t-117.5 285.5zM311 -393q44 27 70.5 55.5t38.5 66t15 69t3 87.5 h176q0 -154 -48 -238.5t-175 -138.5z" />
<glyph unicode="&#x21a;" horiz-adv-x="886" d="M16 1391v180h850v-180h-327v-1391h-195v1391h-328zM229 -393q44 27 70.5 55.5t38.5 66t15 69t3 87.5h176q0 -154 -48 -238.5t-175 -138.5z" />
<glyph unicode="&#x21b;" horiz-adv-x="595" d="M131 330v1077l191 23v-238h206v-184h-206v-672q0 -94 49 -132.5t166 -23.5v-180q-95 -13 -164 -0.5t-115.5 37.5t-74.5 70.5t-40 99t-12 123.5zM158 -393q44 27 70.5 55.5t38.5 66t15 69t3 87.5h176q0 -154 -48 -238.5t-175 -138.5z" />
<glyph unicode="&#x2c6;" horiz-adv-x="727" d="M53 1325v14l246 250h117l254 -250v-14h-191l-117 117l-118 -117h-191z" />
<glyph unicode="&#x2c7;" horiz-adv-x="847" d="M117 1569v14h190l117 -117l119 117h190v-14l-246 -250h-116z" />
<glyph unicode="&#x2d8;" horiz-adv-x="643" d="M57 1583h146q0 -67 22 -100t92 -33t91.5 33t21.5 100h145q6 -135 -57 -201.5t-201 -66.5q-139 0 -202.5 67t-57.5 201z" />
<glyph unicode="&#x2d9;" horiz-adv-x="434" d="M102 1485q0 43 24.5 72.5t59 37t69 1t59 -36.5t24.5 -74q0 -41 -24.5 -70.5t-59 -37t-69 -1.5t-59 35.5t-24.5 73.5z" />
<glyph unicode="&#x2da;" horiz-adv-x="655" d="M125 1378q0 99 64.5 156t154.5 57q89 0 155 -56.5t66 -154.5q0 -100 -64.5 -157.5t-158.5 -57.5q-95 0 -156.5 57t-60.5 156zM249 1378q0 -34 25.5 -63t69.5 -29q37 0 62.5 19t31 46t-1 54t-31.5 46t-61 19q-44 0 -69.5 -29t-25.5 -63z" />
<glyph unicode="&#x2db;" horiz-adv-x="825" d="M293 -213q0 70 43.5 124t109.5 89h175q-69 -28 -107.5 -74t-38.5 -76q0 -67 72 -67q42 0 74 4v-174q-328 -18 -328 174z" />
<glyph unicode="&#x2dc;" horiz-adv-x="731" d="M82 1438q22 93 93 134.5t157 10.5l92 -43q78 -29 104 53l117 -47q-21 -104 -90.5 -143t-146.5 -8l-91 41q-90 32 -122 -52z" />
<glyph unicode="&#x2dd;" horiz-adv-x="755" d="M88 1354l133 233h193v-4l-162 -229h-164zM403 1352l134 235h192v-4l-160 -231h-166z" />
<glyph unicode="&#x401;" horiz-adv-x="1042" d="M119 0v1581h796v-172h-602v-475h545v-182h-545v-570h654v-182h-848zM197 1817q0 53 36.5 84t81 32t81 -30t36.5 -86q0 -51 -36.5 -82t-81 -32t-81 29t-36.5 85zM643 1817q0 43 24.5 72.5t59 37t69 1t59 -36.5t24.5 -74q0 -41 -24.5 -70.5t-59 -37t-69 -1.5t-59 35.5 t-24.5 73.5z" />
<glyph unicode="&#x402;" horiz-adv-x="1335" d="M16 1405v180h850v-180h-327v-387q41 60 105 91.5t167 31.5q221 0 316.5 -115.5t95.5 -347.5v-354q0 -188 -86.5 -267.5t-270.5 -64.5v174q34 -5 63.5 -1.5t51.5 16t34.5 48.5t12.5 95v350q0 160 -54.5 219t-189.5 59q-120 0 -180.5 -61t-64.5 -195v-696h-195v1405h-328z " />
<glyph unicode="&#x403;" horiz-adv-x="907" d="M143 0v1581h715v-182h-514v-1399h-201zM434 1690v10l109 260h188v-6l-145 -264h-152z" />
<glyph unicode="&#x404;" horiz-adv-x="1249" d="M121 528v539q0 92 8 160.5t28.5 131.5t57.5 106t92.5 75t135 47t184.5 15q122 0 208.5 -19.5t141.5 -54.5t87 -94.5t44.5 -128t13.5 -166.5h-190q-1 52 -5.5 88t-16.5 69.5t-33 54.5t-55 36.5t-82 22.5t-113 7q-69 0 -118 -7.5t-83.5 -27t-55.5 -44.5t-32 -67.5t-15 -88 t-4 -113.5v-172h463v-180h-463v-191q0 -67 4 -113t16 -88.5t33.5 -68t55.5 -45t83 -27.5t116 -8q69 0 115.5 5t82.5 20t56.5 35.5t33.5 57.5t17 81t4 110h186q0 -57 -2 -97.5t-7.5 -87t-16.5 -79t-29 -67t-44 -57.5t-63 -44.5t-84.5 -34t-110 -19.5t-138.5 -7 q-98 0 -173.5 12t-129 32.5t-91 57.5t-59.5 76t-34 100t-15.5 118t-3.5 140z" />
<glyph unicode="&#x405;" horiz-adv-x="1161" d="M90 418h211q8 -111 69 -173.5t203 -62.5h39q78 0 129.5 18t78.5 56.5t37.5 87.5t10.5 123q0 72 -20.5 123t-44 77.5t-81 44t-89 21.5t-110.5 10q-14 1 -21 2q-59 5 -112 18.5t-106.5 44t-91.5 74.5t-62 113t-24 156q0 224 110.5 334t354.5 110q228 0 336 -102t119 -303 h-203q-8 109 -61.5 165t-190.5 56q-80 0 -133 -17.5t-80.5 -53t-38 -79.5t-10.5 -108q0 -59 19.5 -100.5t48 -64.5t77.5 -37.5t91.5 -20t106.5 -11.5q30 -2 46 -4q371 -37 371 -438q0 -256 -106 -370.5t-349 -114.5h-39q-463 0 -485 426z" />
<glyph unicode="&#x406;" horiz-adv-x="485" d="M143 -2v1577h199v-1577h-199z" />
<glyph unicode="&#x407;" horiz-adv-x="485" d="M-72 1782q0 43 24.5 72.5t59 37t69 1t59 -36.5t24.5 -74q0 -41 -24.5 -70.5t-59 -37t-69 -1.5t-59 35.5t-24.5 73.5zM143 -2v1577h199v-1577h-199zM326 1782q0 53 36.5 84t81 31.5t81 -30t36.5 -85.5q0 -51 -36.5 -82t-81 -32t-81 29t-36.5 85z" />
<glyph unicode="&#x408;" horiz-adv-x="989" d="M16 473h185q0 -167 50 -233t193 -66q44 0 77 6.5t57.5 18t40.5 34t26.5 47t15.5 64.5t7 79.5t2 98.5v1059h196v-1057q0 -111 -9.5 -189.5t-36.5 -148t-74 -110.5t-123 -64.5t-183 -23.5q-103 0 -177.5 22t-122 60.5t-75.5 100.5t-38.5 133.5t-10.5 168.5z" />
<glyph unicode="&#x409;" horiz-adv-x="1705" d="M10 -6v188q59 -4 104.5 9t75.5 36t50.5 64t31 82t15.5 102.5t6.5 113t1.5 125.5v46l6 821h703v-635h170q241 0 343.5 -106t102.5 -351v-59q0 -227 -115 -328.5t-331 -101.5h-365v1399h-315l-7 -643q0 -95 -1.5 -149.5t-6 -134t-13.5 -125t-25.5 -105.5t-40.5 -93t-60 -69 t-82.5 -53t-108.5 -27t-139 -6zM1004 184h170q57 0 93.5 5t69.5 19.5t50.5 41.5t27.5 71t10 109v59q0 156 -58.5 216.5t-192.5 60.5h-170v-582z" />
<glyph unicode="&#x40a;" horiz-adv-x="1669" d="M143 -2v1577h199v-635h430v647h195v-641h170q241 0 343.5 -106t102.5 -351v-59q0 -227 -115 -328.5t-331 -101.5h-365v760h-430v-762h-199zM967 184h170q72 0 114 8t76 33.5t48 74.5t14 130v59q0 156 -59 216.5t-193 60.5h-170v-582z" />
<glyph unicode="&#x40b;" horiz-adv-x="1335" d="M16 1405v180h850v-180h-327v-387q41 60 105 91.5t167 31.5q221 0 316.5 -115.5t95.5 -347.5v-678h-195v674q0 160 -54.5 219t-189.5 59q-120 0 -180.5 -61t-64.5 -195v-696h-195v1405h-328z" />
<glyph unicode="&#x40c;" horiz-adv-x="1140" d="M133 0v1581h195v-696h75q30 0 57 10t47 23.5t40 40t33 47.5t29 58.5t24.5 60.5t23.5 65q59 169 100 237q87 143 234 153q41 3 88 -3l-12 -180q-34 4 -62 -2t-48 -23t-35 -35t-27 -48.5t-19 -52.5t-17.5 -57t-16.5 -53q-47 -134 -93.5 -217.5t-117.5 -132.5l502 -776h-240 l-442 705h-123v-705h-195zM498 1669v10l108 260h189v-6l-146 -264h-151z" />
<glyph unicode="&#x40e;" horiz-adv-x="985" d="M25 1581h221l149 -477l111 -377q49 205 108 387l152 467h213l-381 -1114l-70 -227q-57 -181 -162.5 -230.5t-277.5 21.5l35 164q38 -15 65.5 -19.5t59 1t56 36t42.5 84.5l51 172zM190 1962h160q1 -69 39.5 -95t110.5 -26q69 0 105.5 26t37.5 95h164q-3 -270 -307 -270 q-307 0 -310 270z" />
<glyph unicode="&#x40f;" horiz-adv-x="1210" d="M143 0v1581h195v-1395h532v1395h199v-1581h-364v-217h-191v217h-371z" />
<glyph unicode="&#x410;" d="M18 0l420 1575h199l418 -1575h-201l-80 293h-473l-80 -293h-203zM350 477h373l-82 336l-104 508l-107 -514z" />
<glyph unicode="&#x411;" horiz-adv-x="1116" d="M123 0v1581h786v-182h-585v-447h208q245 0 377.5 -119.5t132.5 -361.5q0 -239 -132 -355t-378 -116h-409zM324 186h213q168 0 238.5 73t70.5 212q0 142 -70.5 218.5t-238.5 76.5h-213v-580z" />
<glyph unicode="&#x412;" horiz-adv-x="1118" d="M123 0v1581h395q222 0 322.5 -108t103.5 -304q2 -102 -44 -183.5t-142 -119.5q283 -58 286 -381q0 -485 -512 -485h-409zM317 930h177q69 0 120.5 20.5t79.5 56t41 76t13 86.5q0 124 -54 177t-176 53h-201v-469zM322 186h215q170 0 238.5 75.5t68.5 221.5q0 144 -76 201 t-225 57h-221v-555z" />
<glyph unicode="&#x413;" horiz-adv-x="907" d="M143 0v1581h715v-182h-514v-1399h-201z" />
<glyph unicode="&#x414;" horiz-adv-x="1271" d="M10 184h90q58 49 96 114t56 143t24.5 143.5t8.5 154.5l30 844h768v-1399h140v-411h-189v227h-837v-227h-187v411zM330 184h551v1215h-383l-15 -660q-2 -115 -12 -199t-45 -183.5t-96 -172.5z" />
<glyph unicode="&#x415;" horiz-adv-x="1067" d="M143 0v1581h797v-172h-602v-475h545v-182h-545v-570h653v-182h-848z" />
<glyph unicode="&#x416;" horiz-adv-x="1708" d="M10 0l490 784q-53 41 -92 100t-54 97t-44 127q-5 13 -7 20q-7 20 -20 62.5t-21 67t-25 57.5t-36.5 50.5t-51 28t-71.5 5.5l-12 182q66 8 119.5 -0.5t94 -39t68.5 -59.5t55 -87t41.5 -95t38.5 -108q48 -140 69 -182q59 -116 156 -123h13h43v696h190v-696h43q39 0 71 17.5 t52 36.5t42.5 66t31 70.5t29.5 85.5q7 19 10 29q30 86 47.5 129.5t54.5 108t75.5 93.5t101 48.5t141.5 9.5l-13 -182q-40 5 -71.5 -5.5t-51 -28t-36.5 -50.5t-25 -57.5t-21 -67t-20 -62.5q-48 -145 -77 -201q-47 -86 -121 -143l489 -784h-238l-424 707h-90v-707h-190v707 h-90l-424 -707h-240z" />
<glyph unicode="&#x417;" horiz-adv-x="1056" d="M80 442h186q0 -139 56 -202.5t184 -63.5q133 0 200.5 66.5t67.5 222.5q0 82 -23 142t-64 93t-90 48.5t-108 15.5h-110v172h110q46 2 91 16.5t86 43.5t66.5 80.5t25.5 117.5q0 111 -59.5 170t-176.5 59q-241 0 -241 -264h-185q0 215 108.5 324.5t321.5 111.5 q186 0 303 -103t117 -300q0 -65 -18 -127t-68 -123t-125 -92q124 -47 180 -134t56 -249q0 -227 -118 -353t-345 -126q-231 0 -329.5 110.5t-98.5 343.5z" />
<glyph unicode="&#x418;" horiz-adv-x="1171" d="M143 0v1583h195v-674l-29 -538l537 1212h184v-1583h-194v618l10 519l-520 -1137h-183z" />
<glyph unicode="&#x419;" horiz-adv-x="1171" d="M143 0h183l520 1137l-10 -519v-618h194v1583h-184l-537 -1212l29 538v674h-195v-1583zM307 1944h160q1 -69 39.5 -95t109.5 -26q69 0 106 26t38 95h164q-3 -271 -308 -271q-306 0 -309 271z" />
<glyph unicode="&#x41a;" horiz-adv-x="1140" d="M133 0v1581h195v-696h75q30 0 57 10t47 23.5t40 40t33 47.5t29 58.5t24.5 60.5t23.5 65q59 169 100 237q87 143 234 153q41 3 88 -3l-12 -180q-34 4 -62 -2t-48 -23t-35 -35t-27 -48.5t-19 -52.5t-17.5 -57t-16.5 -53q-47 -134 -93.5 -217.5t-117.5 -132.5l502 -776h-240 l-442 705h-123v-705h-195z" />
<glyph unicode="&#x41b;" horiz-adv-x="1261" d="M10 -6v188q59 -4 104.5 9t75.5 36t50.5 64t31 82t15.5 102.5t6.5 113t1.5 125.5v46l6 821h819v-1581h-196v1397h-430l-7 -641q0 -95 -1.5 -149.5t-6 -134t-13.5 -125t-25.5 -105.5t-40.5 -93t-60 -69t-82.5 -53t-108.5 -27t-139 -6z" />
<glyph unicode="&#x41c;" horiz-adv-x="1288" d="M143 0v1581h224l278 -868l279 868h223v-1581h-195v743l29 433l-289 -887h-94l-289 887l29 -433v-743h-195z" />
<glyph unicode="&#x41d;" horiz-adv-x="1206" d="M143 -2v1577h199v-727h528v727h195v-1575h-195v662h-528v-664h-199z" />
<glyph unicode="&#x41e;" horiz-adv-x="1271" d="M121 518v551q0 111 11.5 189t44 147t89 110t147.5 64t220 23t220 -23t147.5 -64t89 -110t44 -147t11.5 -189v-551q0 -79 -5.5 -139t-20 -117.5t-39.5 -98.5t-63.5 -76t-92 -56.5t-126.5 -33t-165 -11.5t-165 11.5t-126.5 33t-92 56.5t-63.5 76t-39.5 98.5t-20 117.5 t-5.5 139zM317 516q0 -60 2 -98.5t9 -79.5t20.5 -64.5t36 -46.5t57 -34.5t81.5 -18t110 -6.5q56 0 98.5 4.5t75 15.5t55.5 24t39 36.5t25 47t14 61t6.5 72t1.5 87.5v555q0 71 -3 113.5t-13.5 88t-30.5 69.5t-55 44.5t-87 28.5t-126 8q-63 0 -110.5 -7t-81.5 -18.5t-56.5 -35 t-36 -47.5t-20.5 -65.5t-9 -80t-2 -98.5v-555z" />
<glyph unicode="&#x41f;" horiz-adv-x="1210" d="M143 0v1581h926v-1581h-195v1395h-532v-1395h-199z" />
<glyph unicode="&#x420;" horiz-adv-x="1101" d="M143 -2v1581l424 2q218 0 333.5 -101t115.5 -329v-172q0 -245 -103.5 -351t-345.5 -106h-229v-524h-195zM338 709h229q137 0 195.5 56.5t58.5 213.5v172q0 54 -6 93t-21.5 65t-33.5 42.5t-50.5 25.5t-62.5 13t-80 7h-229v-688z" />
<glyph unicode="&#x421;" horiz-adv-x="1208" d="M121 524v537q0 111 12 189t44 146.5t88 109.5t145.5 64t214.5 23q102 0 178.5 -12.5t130.5 -39t89.5 -62.5t56 -90t29 -113.5t9.5 -140.5h-190q-1 78 -11.5 124.5t-42 83.5t-92 52.5t-157.5 15.5q-69 0 -118 -8t-83.5 -27.5t-55.5 -44.5t-32 -67.5t-15 -87.5t-4 -113 v-541q0 -81 6.5 -133t25 -96.5t53 -68.5t89 -37t134.5 -13q69 0 115.5 5t82 20t56 35.5t33 57.5t16.5 80.5t4 110.5h186q0 -57 -1.5 -97.5t-7.5 -87.5t-16.5 -79t-28.5 -66.5t-44 -57.5t-62.5 -44.5t-84.5 -33.5t-110 -19.5t-138 -7.5q-86 0 -154 8.5t-119 27t-89 42 t-63 60.5t-41 74.5t-24 92.5t-11 106t-3 123z" />
<glyph unicode="&#x422;" horiz-adv-x="882" d="M16 1391v180h850v-180h-327v-1391h-195v1391h-328z" />
<glyph unicode="&#x423;" horiz-adv-x="985" d="M25 1581h221l149 -477l111 -377q49 205 108 387l152 467h213l-381 -1114l-70 -227q-57 -181 -162.5 -230.5t-277.5 21.5l35 164q38 -15 65.5 -19.5t59 1t56 36t42.5 84.5l51 172z" />
<glyph unicode="&#x424;" horiz-adv-x="1675" d="M121 631v364q0 232 115.5 333.5t336.5 101.5l164 -3v154h195v-154l166 3q220 0 335 -101.5t115 -333.5v-364q0 -244 -103.5 -349.5t-346.5 -105.5h-166v-176h-195v176h-164q-245 0 -348.5 105.5t-103.5 349.5zM315 631q0 -156 59.5 -212.5t198.5 -56.5h164v883h-164 q-51 -3 -81.5 -7t-63.5 -13.5t-51 -25.5t-34 -43t-22 -66.5t-6 -94.5v-364zM932 362h166q138 0 197 56.5t59 212.5v364q0 55 -6 94.5t-22 66.5t-33.5 43t-50.5 25.5t-63.5 13.5t-80.5 7h-166v-883z" />
<glyph unicode="&#x425;" horiz-adv-x="999" d="M18 -2l347 797l-347 786h213l131 -299l138 -354l137 352l131 301h213l-346 -786l346 -797h-213l-86 197l-182 462l-181 -460l-88 -199h-213z" />
<glyph unicode="&#x426;" horiz-adv-x="1249" d="M143 0v1581h195v-1397h512v1397h201v-1397h147v-409h-188v225h-867z" />
<glyph unicode="&#x427;" horiz-adv-x="1196" d="M127 1053v528h197v-526q0 -156 64 -217.5t202 -61.5q150 0 268 92v713h197v-1581h-197v674q-126 -86 -297 -86q-224 0 -329 117.5t-105 347.5z" />
<glyph unicode="&#x428;" horiz-adv-x="1640" d="M143 0v1581h197v-1395h387v1395h188v-1395h385v1395h199v-1581h-1356z" />
<glyph unicode="&#x429;" horiz-adv-x="1695" d="M143 0v1581h195v-1395h387v1395h188v-1395h387v1395h197v-1395h148v-409h-187v223h-1315z" />
<glyph unicode="&#x42a;" horiz-adv-x="1234" d="M-4 1399v182h475v-520h229q242 0 345.5 -106.5t103.5 -350.5v-174q0 -227 -116 -328.5t-333 -101.5h-426v1399h-278zM471 184h229q71 0 113.5 8t77 33.5t49 75t14.5 129.5v174q0 80 -15 133t-48 83t-78 42t-113 12h-229v-690z" />
<glyph unicode="&#x42b;" horiz-adv-x="1579" d="M143 0v1581h195v-520h231q242 0 344.5 -106.5t102.5 -350.5v-174q0 -227 -115.5 -328.5t-331.5 -101.5h-426zM338 184h231q72 0 114 8t76 33.5t48 74.5t14 130v174q0 155 -58.5 212.5t-193.5 57.5h-231v-690zM1249 0v1581h195v-1581h-195z" />
<glyph unicode="&#x42c;" horiz-adv-x="1101" d="M143 0v1587h195v-526h231q242 0 344.5 -106.5t102.5 -350.5v-174q0 -227 -115.5 -328.5t-331.5 -101.5h-426zM338 184h231q72 0 114 8t76 33.5t48 74.5t14 130v174q0 155 -58.5 212.5t-193.5 57.5h-231v-690z" />
<glyph unicode="&#x42d;" horiz-adv-x="1249" d="M121 485h186q0 -66 4 -110t17 -81t33.5 -57.5t56.5 -35.5t82.5 -20t115.5 -5q67 0 116 8t83 27.5t55.5 45t33.5 68t16 88.5t4 113v191h-463v180h463v172q0 68 -4 113.5t-15 88t-32 67.5t-55.5 44.5t-83.5 27t-118 7.5q-65 0 -113 -7t-82 -22.5t-55 -36.5t-33 -54.5 t-16.5 -69.5t-5.5 -88h-190q1 98 13.5 166.5t44.5 128t87 94.5t141.5 54.5t208.5 19.5q105 0 184.5 -15t135 -47t92.5 -75t57.5 -106t28.5 -131.5t8 -160.5v-539q0 -83 -3.5 -140t-15.5 -118t-34 -100t-59.5 -76t-91 -57.5t-129 -32.5t-173.5 -12q-76 0 -138.5 7t-110 19.5 t-84.5 34t-63 44.5t-44 57.5t-29 67t-16.5 79t-7.5 87t-2 97.5z" />
<glyph unicode="&#x42e;" horiz-adv-x="1693" d="M143 0v1581h201v-729h254v223q0 109 11 186.5t41.5 147t83.5 111.5t139.5 66t207.5 24q87 0 156 -12t119.5 -34.5t87.5 -58t60.5 -77.5t37.5 -99.5t19.5 -117t5.5 -136.5v-553q0 -109 -11 -186.5t-42 -146.5t-84.5 -110.5t-140.5 -65t-208 -23.5q-101 0 -178 15 t-129.5 47.5t-87.5 75t-54 106t-26.5 130.5t-7.5 158v148h-254v-670h-201zM795 520q0 -69 2.5 -110.5t12 -86.5t28 -69t50 -45t79 -29t114.5 -8t115 8t80 29t51 45.5t28.5 68.5t12 86t2.5 111v557q0 51 -1.5 85.5t-6 72.5t-13 61.5t-23 48t-35.5 38.5t-51 25.5t-69 16.5 t-90 5q-57 0 -100 -7.5t-74 -19.5t-51.5 -36t-32.5 -48t-18 -65.5t-8 -79.5t-2 -97v-557z" />
<glyph unicode="&#x42f;" horiz-adv-x="1157" d="M92 2l346 598q-88 18 -148.5 58.5t-92.5 101.5t-45 129.5t-13 157.5v102q0 229 116.5 330.5t334.5 101.5h426v-1581h-197v590h-178l-319 -588h-230zM334 1047q0 -157 59.5 -214t196.5 -57h229v619h-229q-38 -3 -61.5 -5.5t-51.5 -7.5t-44.5 -12.5t-35 -20t-28.5 -30 t-19 -41.5t-12.5 -56t-3.5 -73v-102z" />
<glyph unicode="&#x430;" d="M90 276q-15 158 84.5 265t284.5 133q93 14 289 18v117q0 110 -50.5 166.5t-177.5 56.5q-93 0 -141 -43.5t-47 -157.5h-191q-6 195 92 287t293 92q205 0 311.5 -95t106.5 -306v-809h-176l-16 162q-34 -71 -118.5 -121.5t-187.5 -50.5q-79 0 -140.5 16.5t-99.5 43 t-63.5 65.5t-36.5 77t-16 84zM287 301q6 -66 56 -95.5t124 -29.5q78 0 134 27t87.5 77t46.5 111t17 139q-188 0 -277 -20q-208 -45 -188 -209z" />
<glyph unicode="&#x431;" horiz-adv-x="1099" d="M102 434v617q0 89 6.5 153.5t25 124t50.5 99.5t82 72t122 50t169 25q50 4 72.5 7t62 10.5t67 21t48.5 33.5l119 -129q-20 -21 -42 -38t-38 -28t-43.5 -20t-39.5 -14t-47 -9.5t-44.5 -5.5t-53 -4t-53.5 -4q-67 -5 -112 -13.5t-75.5 -30.5t-46.5 -41t-23.5 -65.5t-9 -81.5 t-1.5 -110q45 64 121.5 95.5t159.5 31.5q221 0 320 -115.5t99 -345.5v-285q0 -246 -102 -350t-344 -104t-345.5 104t-103.5 350zM297 434q-1 -154 59.5 -211t194.5 -57q132 0 192 57t60 211v281q0 110 -28.5 171.5t-80.5 84t-143 22.5q-120 0 -186 -59t-66 -209z" />
<glyph unicode="&#x432;" horiz-adv-x="1048" d="M113 0v1192h419q157 0 261 -78t104 -229q0 -90 -30.5 -146t-108.5 -90q96 -34 148 -109t52 -178q0 -362 -428 -362h-417zM303 715h234q78 0 123 39.5t45 111.5q0 74 -47.5 113t-125.5 39h-229v-303zM307 178h230q125 0 176 46.5t51 140.5q0 101 -59 143.5t-166 42.5h-232 v-373z" />
<glyph unicode="&#x433;" horiz-adv-x="798" d="M125 0v1192h635v-182h-445v-1010h-190z" />
<glyph unicode="&#x434;" horiz-adv-x="1153" d="M23 182h83q92 76 140 232q30 118 30 317l13 461h698v-1010h139v-405h-184v225h-735v-225h-184v405zM334 182h461v828h-316l-6 -279q0 -195 -43 -366q-27 -98 -96 -183z" />
<glyph unicode="&#x435;" horiz-adv-x="1101" d="M109 426v350q0 226 114 327t328 101q442 0 442 -428v-256h-692v-90q0 -154 57 -208t193 -54q129 0 189.5 44t60.5 136h188q0 -178 -105 -269t-333 -91q-240 0 -341 99t-101 339zM301 690h506v86q0 77 -17.5 128.5t-53.5 79t-79.5 38t-105.5 10.5t-104.5 -10.5 t-77.5 -37.5t-51.5 -78.5t-16.5 -129.5v-86z" />
<glyph unicode="&#x436;" horiz-adv-x="1529" d="M16 0l396 606q-53 35 -89 94t-54.5 113.5t-40 104.5t-59 76t-97.5 18v178q75 7 132.5 -10t91.5 -49.5t61 -76.5t43 -91t36.5 -92.5t42 -81.5t59 -58t87.5 -22h39v481h194v-481h39q45 0 79 17.5t55.5 47.5t39 68t33 79.5t33 83t43.5 77.5t59.5 62.5t86.5 39t120 6.5v-178 q-60 8 -97 -18t-57.5 -76t-39 -104.5t-54.5 -113.5t-90 -94l395 -606h-227l-340 530h-78v-530h-194v530h-82l-338 -530h-228z" />
<glyph unicode="&#x437;" horiz-adv-x="1005" d="M82 328h194q0 -58 13.5 -94t45 -53t65.5 -22t92 -5q99 0 163 47.5t64 144.5q0 112 -48.5 153.5t-160.5 41.5h-156v172h156q91 0 138.5 36.5t47.5 124.5q0 160 -207 160q-97 0 -147.5 -35t-50.5 -125h-189q0 332 390 332q83 0 152.5 -17.5t126 -54.5t88.5 -102t32 -153 t-35.5 -155.5t-114.5 -94.5q95 -32 133.5 -103t38.5 -180q0 -96 -31.5 -167.5t-89.5 -113t-133.5 -61.5t-169.5 -20q-105 0 -174.5 13.5t-125 50.5t-81.5 105.5t-26 174.5z" />
<glyph unicode="&#x438;" horiz-adv-x="1130" d="M119 0v1190h194v-860l494 860h211v-1190h-193v866l-497 -866h-209z" />
<glyph unicode="&#x439;" horiz-adv-x="1130" d="M119 0v1190h194v-860l494 860h211v-1190h-193v866l-497 -866h-209zM252 1589h166q1 -71 40.5 -98t114.5 -27q74 0 112.5 26.5t39.5 98.5h172q-5 -278 -324 -278q-318 0 -321 278z" />
<glyph unicode="&#x43a;" horiz-adv-x="1040" d="M115 0v1190h194v-481h66q57 0 98.5 29t66.5 74.5t47.5 100t50 107.5t65 95.5t102.5 64.5t153 14l-4 -178q-61 10 -102 -16t-65 -76.5t-45.5 -106t-60 -116t-91.5 -95.5l440 -606h-231l-385 532h-105v-532h-194z" />
<glyph unicode="&#x43b;" horiz-adv-x="1134" d="M53 -6v190q49 3 87.5 24t63 53t41.5 77t26 90.5t13.5 99.5t5.5 97.5t1 89.5v39l6 436h725v-1190h-197v1008h-333l-7 -256q-2 -70 -4 -118t-7.5 -116.5t-14.5 -116t-25.5 -105.5t-38 -98t-54 -80.5t-73 -65.5t-95.5 -41t-120 -17z" />
<glyph unicode="&#x43c;" horiz-adv-x="1277" d="M121 0v1190h246l161 -393l115 -299l117 299l160 393h245v-1190h-192v432l2 414l-266 -635h-131l-267 635l2 -414v-432h-192z" />
<glyph unicode="&#x43d;" horiz-adv-x="1118" d="M121 0v1190h194v-475h496v475h195v-1190h-195v535h-496v-535h-194z" />
<glyph unicode="&#x43e;" horiz-adv-x="1101" d="M102 436v342q0 229 116 331.5t333 102.5t332.5 -102.5t115.5 -331.5v-342q0 -244 -105 -350t-343 -106q-242 0 -345.5 105.5t-103.5 350.5zM297 436q0 -159 60 -222.5t194 -63.5q138 0 196 63t58 223v342q0 80 -16 132t-51 79.5t-78.5 38t-108.5 10.5t-108.5 -10.5 t-78.5 -38t-51 -79.5t-16 -132v-342z" />
<glyph unicode="&#x43f;" horiz-adv-x="1118" d="M121 0v1190h885v-1190h-195v1008h-498v-1008h-192z" />
<glyph unicode="&#x440;" horiz-adv-x="1150" d="M135 -403v1601h164l25 -158q27 77 108.5 120.5t188.5 43.5q93 0 165 -22.5t127 -71.5t84 -134t29 -204v-315q0 -237 -105 -351t-300 -114q-106 0 -174.5 21.5t-114.5 82.5v-499h-197zM332 451q0 -151 56.5 -211t189.5 -60q134 0 193.5 63t59.5 218v313q0 142 -56.5 195 t-182.5 53q-132 -5 -196 -74.5t-64 -238.5v-258z" />
<glyph unicode="&#x441;" horiz-adv-x="1081" d="M102 436v340q0 229 116 332.5t333 103.5q104 0 180 -20t134 -65t89 -124t35 -192l-184 -2q-3 69 -20.5 114t-52 68.5t-76.5 32t-105 8.5q-66 0 -109.5 -9.5t-78 -36.5t-50.5 -78.5t-16 -131.5v-340q0 -80 16 -133.5t49.5 -83t78 -41.5t110.5 -12q67 0 110 9t77 34t50 73 t17 124h184q-3 -235 -103 -330.5t-335 -95.5t-342 106.5t-107 349.5z" />
<glyph unicode="&#x442;" horiz-adv-x="831" d="M10 1010v180h805v-180h-305v-1010h-195v1010h-305z" />
<glyph unicode="&#x443;" horiz-adv-x="1005" d="M31 1198h213l114 -385l154 -555q43 220 150 567l116 373h203l-375 -1200l-71 -227q-57 -180 -162 -229.5t-275 20.5l35 166q37 -15 65.5 -20.5t61 -0.5t58.5 35.5t44 85.5l50 170z" />
<glyph unicode="&#x444;" horiz-adv-x="1669" d="M102 453v282q0 78 12 145t40 126.5t70.5 101.5t107.5 66.5t147 23.5q185 -8 260 -104v495h193v-495q70 96 254 104q103 1 178.5 -35.5t118.5 -102t63.5 -146.5t20.5 -179v-282q0 -92 -22 -173t-66.5 -147t-119.5 -104t-173 -37q-77 0 -145.5 25t-108.5 79v-495h-193v495 q-81 -104 -260 -104q-79 -1 -143 24.5t-107 68.5t-72 102.5t-42 126t-13 139.5zM295 455q0 -146 54 -211.5t171 -65.5q116 0 167.5 62t51.5 204v299q0 134 -47.5 201.5t-171.5 67.5q-116 0 -170.5 -66t-54.5 -213v-278zM932 444q0 -143 50 -204.5t165 -61.5q117 0 171 65.5 t54 211.5v278q0 147 -53.5 213t-171.5 66q-123 0 -169 -67.5t-46 -201.5v-299z" />
<glyph unicode="&#x445;" horiz-adv-x="972" d="M18 0l355 604l-342 590h219l112 -190l123 -238l127 240l111 188h213l-340 -588l360 -606h-219l-121 209l-133 252l-133 -254l-119 -207h-213z" />
<glyph unicode="&#x446;" horiz-adv-x="1173" d="M121 0v1190h194v-1008h480v1008h194v-1008h135v-407h-186v225h-817z" />
<glyph unicode="&#x447;" horiz-adv-x="1077" d="M90 856v334h193v-330q0 -158 54.5 -217t188.5 -59q122 0 182.5 64t61.5 204l2 338h193v-1190h-195v518q-36 -52 -106.5 -87.5t-165.5 -35.5q-220 0 -314 115t-94 346z" />
<glyph unicode="&#x448;" horiz-adv-x="1576" d="M121 0v1190h194v-1008h383v1008h189v-1008h383v1008h194v-1190h-1343z" />
<glyph unicode="&#x449;" horiz-adv-x="1650" d="M121 0v1190h196v-1008h383v1008h187v-1008h383v1008h196v-1008h136v-407h-187v225h-1294z" />
<glyph unicode="&#x44a;" horiz-adv-x="1208" d="M2 1014v176h487v-367h207q214 0 321 -96t107 -317q0 -226 -95.5 -318t-332.5 -92h-403v1014h-291zM489 178h207q137 0 185.5 52t48.5 180q0 134 -48 186.5t-186 52.5h-207v-471z" />
<glyph unicode="&#x44b;" horiz-adv-x="1472" d="M121 0v1190h196v-367h209q211 0 318.5 -96t107.5 -317q0 -227 -94.5 -318.5t-331.5 -91.5h-405zM317 178h209q134 0 183 52.5t49 179.5q0 134 -47.5 186.5t-184.5 52.5h-209v-471zM1163 0v1190h197v-1190h-197z" />
<glyph unicode="&#x44c;" horiz-adv-x="1024" d="M123 0v1190h196v-367h209q211 0 318.5 -96t107.5 -317q0 -227 -94.5 -318.5t-331.5 -91.5h-405zM319 178h209q134 0 183 52.5t49 179.5q0 134 -47.5 186.5t-184.5 52.5h-209v-471z" />
<glyph unicode="&#x44d;" horiz-adv-x="1083" d="M102 393h183q2 -71 18 -116.5t49.5 -69.5t76 -32.5t108.5 -8.5t110.5 12t78 41t49.5 81.5t16 131.5v80h-332v172h332v88q0 78 -16 129t-50.5 77.5t-78 36t-109.5 9.5q-62 0 -104 -8t-76 -30.5t-51.5 -65t-20.5 -107.5h-183q10 215 118 303t317 88q216 0 330 -102 t114 -330v-340q0 -241 -105 -346.5t-339 -105.5q-231 0 -331 92.5t-104 320.5z" />
<glyph unicode="&#x44e;" horiz-adv-x="1482" d="M129 0v1190h190v-475h224v55q0 221 109.5 325.5t310.5 104.5q426 0 426 -430v-348q0 -220 -111 -324t-315 -104q-201 0 -310.5 104t-109.5 324v110h-224v-532h-190zM735 422q0 -143 56.5 -198.5t171.5 -55.5q117 0 173 55t56 199v348q0 145 -56 200.5t-173 55.5 q-115 0 -171.5 -55.5t-56.5 -200.5v-348z" />
<glyph unicode="&#x44f;" horiz-adv-x="1017" d="M51 0l281 461q-234 61 -234 323v82q0 87 27.5 150.5t78 101t115.5 55t146 17.5h440v-1190h-198v440h-175l-253 -440h-228zM293 788q0 -99 42 -134.5t142 -35.5h230v394h-230q-102 0 -143 -29.5t-41 -124.5v-70z" />
<glyph unicode="&#x451;" horiz-adv-x="1085" d="M109 426v350q0 226 114 327t328 101q442 0 442 -428v-256h-692v-90q0 -154 57 -208t193 -54q129 0 189.5 44t60.5 136h188q0 -178 -105 -269t-333 -91q-240 0 -341 99t-101 339zM260 1475q0 43 24.5 72.5t59 37t69 1t59 -36.5t24.5 -74q0 -41 -24.5 -70.5t-59 -37 t-69 -1.5t-59 35.5t-24.5 73.5zM301 690h506v86q0 77 -17.5 128.5t-53.5 79t-79.5 38t-105.5 10.5t-104.5 -10.5t-77.5 -37.5t-51.5 -78.5t-16.5 -129.5v-86zM655 1475q0 43 24.5 72.5t59 37t69 1t59 -36.5t24.5 -74q0 -41 -24.5 -70.5t-59 -37t-69 -1.5t-59 35.5 t-24.5 73.5z" />
<glyph unicode="&#x452;" horiz-adv-x="1126" d="M-12 1272v160h145v149h195v-149h268v-160h-266v-254q41 60 105 91.5t167 31.5q221 0 316.5 -115.5t95.5 -347.5v-682q0 -188 -86.5 -267.5t-270.5 -64.5v174q34 -5 63.5 -1.5t51.5 16t34.5 48.5t12.5 95v678q0 160 -54.5 219t-189.5 59q-120 0 -180.5 -61t-64.5 -195 v-696h-195v1272h-147z" />
<glyph unicode="&#x453;" horiz-adv-x="798" d="M125 0v1192h635v-182h-445v-1010h-190zM389 1315v10l109 256h180v-6l-146 -260h-143z" />
<glyph unicode="&#x454;" horiz-adv-x="1083" d="M104 432v340q0 228 114 330t331 102q209 0 316.5 -88t117.5 -303h-182q-3 65 -20.5 107.5t-51.5 65t-76 30.5t-104 8q-66 0 -109.5 -9.5t-78 -36t-50.5 -77.5t-16 -129v-88h332v-172h-332v-80q0 -79 16 -131.5t49.5 -81.5t78 -41t110.5 -12t108.5 8.5t76 32.5t49.5 69.5 t18 116.5h182q-4 -228 -103.5 -320.5t-330.5 -92.5q-234 0 -339.5 105.5t-105.5 346.5z" />
<glyph unicode="&#x455;" horiz-adv-x="999" d="M78 371h196q7 -107 71.5 -155t166.5 -48q109 0 169 51t60 139q0 29 -8.5 52.5t-21.5 39.5t-37 28.5t-44.5 19.5t-54.5 12t-57.5 7t-62.5 5q-367 25 -367 324q0 165 106 265.5t310 100.5q203 0 303.5 -91.5t95.5 -260.5h-186q0 176 -219 176q-103 0 -159 -47.5t-56 -142.5 q0 -39 12 -65.5t29 -41.5t50.5 -24t60.5 -12t75 -7q18 -1 27 -2q37 -3 62 -6t61.5 -9t61.5 -14t56 -21t52 -30t42.5 -41.5t34.5 -54.5t21 -70.5t8 -87.5q0 -182 -115.5 -276t-308.5 -94q-206 0 -316.5 95.5t-117.5 285.5z" />
<glyph unicode="&#x456;" horiz-adv-x="491" d="M129 1473q0 43 24.5 72.5t59 37t69 1t59 -36.5t24.5 -74q0 -41 -24.5 -70.5t-59 -37t-69 -1.5t-59 35.5t-24.5 73.5zM147 0v1190h195v-1190h-195z" />
<glyph unicode="&#x457;" horiz-adv-x="571" d="M-12 1475q0 53 36.5 84t81 32t81 -30t36.5 -86q0 -51 -36.5 -82t-81 -32t-81 29t-36.5 85zM182 0v1190h195v-1190h-195zM354 1475q0 43 24.5 72.5t59 37t69 1t59 -36.5t24.5 -74q0 -41 -24.5 -70.5t-59 -37t-69 -1.5t-59 35.5t-24.5 73.5z" />
<glyph unicode="&#x458;" horiz-adv-x="495" d="M2 -213q34 -5 63.5 -1.5t51.5 16t34.5 48.5t12.5 95v1243h190v-1243q0 -189 -84.5 -268t-267.5 -64v174zM141 1473q0 43 24.5 72.5t59 37t69 1t59 -36.5t24.5 -74q0 -41 -24.5 -70.5t-59 -37t-69 -1.5t-59 35.5t-24.5 73.5z" />
<glyph unicode="&#x459;" horiz-adv-x="1597" d="M12 -6v190q57 -2 101.5 17.5t73.5 51t49.5 81.5t30.5 96t15.5 107.5t7 103t1.5 94.5v19l6 436h664v-422h141q213 0 319.5 -87t106.5 -298q0 -209 -95 -296t-331 -87h-338v1008h-272l-7 -256q-2 -69 -4.5 -121t-9 -119t-17 -117.5t-28.5 -108t-42.5 -98.5t-60 -80.5 t-79.5 -63.5t-103 -38t-129 -12zM961 178h141q136 0 183.5 43.5t47.5 159.5q0 54 -10 91t-35 65.5t-71 42.5t-115 14h-141v-416z" />
<glyph unicode="&#x45a;" horiz-adv-x="1544" d="M121 0v1190h194v-426h396v426h196v-422h142q106 0 181.5 -18.5t132 -61.5t84.5 -119t28 -186q0 -209 -95 -296t-331 -87h-338v584h-396v-584h-194zM907 178h142q136 0 183.5 43.5t47.5 159.5q0 120 -47 166.5t-184 46.5h-142v-416z" />
<glyph unicode="&#x45b;" horiz-adv-x="1126" d="M-12 1272v160h145v149h195v-149h268v-160h-266v-254q41 60 105 91.5t167 31.5q221 0 316.5 -115.5t95.5 -347.5v-678h-195v674q0 160 -54.5 219t-189.5 59q-120 0 -180.5 -61t-64.5 -195v-696h-195v1272h-147z" />
<glyph unicode="&#x45c;" horiz-adv-x="1040" d="M115 0v1190h194v-481h66q57 0 98.5 29t66.5 74.5t47.5 100t50 107.5t65 95.5t102.5 64.5t153 14l-4 -178q-61 10 -102 -16t-65 -76.5t-45.5 -106t-60 -116t-91.5 -95.5l440 -606h-231l-385 532h-105v-532h-194zM424 1319v10l108 260h189v-6l-146 -264h-151z" />
<glyph unicode="&#x45e;" horiz-adv-x="1005" d="M31 1198h213l114 -385l154 -555q43 220 150 567l116 373h203l-375 -1200l-71 -227q-57 -180 -162 -229.5t-275 20.5l35 166q37 -15 65.5 -20.5t61 -0.5t58.5 35.5t44 85.5l50 170zM197 1579h159q1 -69 39.5 -95t110.5 -26q69 0 105.5 26t37.5 95h164q-3 -270 -307 -270 q-306 0 -309 270z" />
<glyph unicode="&#x45f;" horiz-adv-x="1118" d="M121 0v1190h194v-1008h498v1008h193v-1190h-347v-203h-186v203h-352z" />
<glyph unicode="&#x490;" horiz-adv-x="907" d="M143 0v1581h529v219h186v-401h-514v-1399h-201z" />
<glyph unicode="&#x491;" horiz-adv-x="798" d="M125 0v1192h463v176h172v-358h-445v-1010h-190z" />
<glyph unicode="&#x1e80;" horiz-adv-x="1669" d="M18 1581h201l152 -668l114 -589l271 1171h151l271 -1171l114 589l152 668h201l-377 -1583h-178l-134 530l-125 568l-124 -568l-134 -530h-178zM621 1925v6h198l109 -260v-10h-162z" />
<glyph unicode="&#x1e81;" horiz-adv-x="1544" d="M16 1198h205l123 -399q24 -81 43.5 -168.5t42.5 -210t29 -150.5q56 283 119 533l110 395h143l113 -395q53 -211 117 -533q6 28 29 150.5t42.5 210t43.5 168.5l122 399h205l-344 -1200h-194l-99 350l-106 465l-109 -471l-96 -344h-195zM541 1593v6h198l109 -260v-10h-162z " />
<glyph unicode="&#x1e82;" horiz-adv-x="1673" d="M18 1581h201l152 -668l114 -589l271 1171h151l271 -1171l114 589l152 668h201l-377 -1583h-178l-134 530l-125 568l-124 -568l-134 -530h-178zM758 1640v11l108 260h193v-6l-146 -265h-155z" />
<glyph unicode="&#x1e83;" horiz-adv-x="1529" d="M16 1198h205l123 -399q24 -81 43.5 -168.5t42.5 -210t29 -150.5q56 283 119 533l110 395h143l113 -395q53 -211 117 -533q6 28 29 150.5t42.5 210t43.5 168.5l122 399h205l-344 -1200h-194l-99 350l-106 465l-109 -471l-96 -344h-195zM678 1325v10l108 260h193v-6 l-145 -264h-156z" />
<glyph unicode="&#x1e84;" horiz-adv-x="1669" d="M18 1581h201l152 -668l114 -589l271 1171h151l271 -1171l114 589l152 668h201l-377 -1583h-178l-134 530l-125 568l-124 -568l-134 -530h-178zM485 1755q0 43 24.5 72.5t59 37t69 1t59 -36.5t24.5 -74q0 -41 -24.5 -70.5t-59 -37t-69 -1.5t-59 35.5t-24.5 73.5zM932 1755 q0 53 36.5 84t81 32t81 -30t36.5 -86q0 -51 -36.5 -82t-81 -32t-81 29t-36.5 85z" />
<glyph unicode="&#x1e85;" horiz-adv-x="1523" d="M16 1198h205l123 -399q24 -81 43.5 -168.5t42.5 -210t29 -150.5q56 283 119 533l110 395h143l113 -395q53 -211 117 -533q6 28 29 150.5t42.5 210t43.5 168.5l122 399h205l-344 -1200h-194l-99 350l-106 465l-109 -471l-96 -344h-195zM412 1473q0 43 23 72t56 36t65.5 0 t55.5 -36t23 -72q0 -51 -35 -80.5t-76.5 -29.5t-76.5 29.5t-35 80.5zM891 1470q0 43 23 72t55.5 36t64.5 0.5t55 -35t23 -70.5q0 -41 -23 -69.5t-55 -35.5t-64.5 -0.5t-55.5 34t-23 68.5z" />
<glyph unicode="&#x1ef2;" horiz-adv-x="944" d="M-4 1581h211l127 -307l139 -393l139 393l127 307h211l-381 -919v-664h-194v664zM268 1913v6h199l108 -260v-10h-161z" />
<glyph unicode="&#x1ef3;" horiz-adv-x="997" d="M31 1198h213l114 -385l154 -555q43 220 150 567l116 373h203l-375 -1200l-71 -227q-57 -180 -162 -229.5t-275 20.5l35 166q37 -15 65.5 -20.5t61 -0.5t58.5 35.5t44 85.5l50 170zM305 1589v6h199l108 -260v-10h-161z" />
<glyph unicode="&#x2000;" horiz-adv-x="1011" />
<glyph unicode="&#x2001;" horiz-adv-x="2023" />
<glyph unicode="&#x2002;" horiz-adv-x="1011" />
<glyph unicode="&#x2003;" horiz-adv-x="2023" />
<glyph unicode="&#x2004;" horiz-adv-x="674" />
<glyph unicode="&#x2005;" horiz-adv-x="505" />
<glyph unicode="&#x2006;" horiz-adv-x="337" />
<glyph unicode="&#x2007;" horiz-adv-x="337" />
<glyph unicode="&#x2008;" horiz-adv-x="252" />
<glyph unicode="&#x2009;" horiz-adv-x="404" />
<glyph unicode="&#x200a;" horiz-adv-x="112" />
<glyph unicode="&#x2010;" horiz-adv-x="1009" d="M125 526v179h770v-179h-770z" />
<glyph unicode="&#x2011;" horiz-adv-x="1009" d="M125 526v179h770v-179h-770z" />
<glyph unicode="&#x2012;" horiz-adv-x="1009" d="M125 526v179h770v-179h-770z" />
<glyph unicode="&#x2013;" horiz-adv-x="1253" d="M158 612v158h938v-158h-938z" />
<glyph unicode="&#x2014;" horiz-adv-x="1462" d="M158 616v158h1147v-158h-1147z" />
<glyph unicode="&#x2018;" horiz-adv-x="501" d="M121 1190l137 391h137l-94 -391h-180z" />
<glyph unicode="&#x2019;" horiz-adv-x="491" d="M125 1188l96 399h180l-137 -399h-139z" />
<glyph unicode="&#x201a;" horiz-adv-x="516" d="M88 -236l94 398h180l-137 -398h-137z" />
<glyph unicode="&#x201c;" horiz-adv-x="774" d="M92 1186l139 395h138l-97 -395h-180zM389 1186l139 395h140l-99 -395h-180z" />
<glyph unicode="&#x201d;" horiz-adv-x="792" d="M129 1190l96 389h181l-138 -389h-139zM428 1190l94 389h180l-137 -389h-137z" />
<glyph unicode="&#x201e;" horiz-adv-x="813" d="M86 -236l96 398h180l-137 -398h-139zM385 -236l94 398h180l-137 -398h-137z" />
<glyph unicode="&#x2020;" horiz-adv-x="1183" d="M80 1038v154h424v395h178v-395h422v-154h-422v-1140h-178v1140h-424z" />
<glyph unicode="&#x2021;" horiz-adv-x="1275" d="M125 371v153h424v518h-424v154h424v393h178v-393h424v-154h-424v-518h424v-153h-424v-480h-178v480h-424z" />
<glyph unicode="&#x2022;" horiz-adv-x="829" d="M186 653q0 100 65.5 163t164.5 63q97 0 161 -63.5t64 -164.5q0 -100 -64 -161.5t-161 -61.5v2q-100 0 -165 61.5t-65 161.5z" />
<glyph unicode="&#x2026;" horiz-adv-x="1210" d="M102 100q0 43 24.5 72.5t59 37t69 1t59 -36.5t24.5 -74q0 -41 -24.5 -70.5t-59 -37t-69 -1.5t-59 35.5t-24.5 73.5zM494 100q0 53 36.5 84t81 31.5t81 -30t36.5 -85.5q0 -51 -36.5 -82t-81 -32t-81 29t-36.5 85zM885 100q0 53 36.5 84t81 31.5t81 -30t36.5 -85.5 q0 -51 -36.5 -82t-81 -32t-81 29t-36.5 85z" />
<glyph unicode="&#x202f;" horiz-adv-x="404" />
<glyph unicode="&#x2030;" horiz-adv-x="2336" d="M61 1112v176q0 154 73.5 228.5t225.5 74.5q156 0 230 -73.5t74 -229.5v-176q0 -156 -74 -229.5t-230 -73.5q-153 0 -226 73.5t-73 229.5zM225 1120q0 -81 30 -121.5t105 -40.5q79 0 108.5 40t29.5 122v164q0 82 -29.5 120t-108.5 38q-75 0 -105 -38.5t-30 -119.5v-164z M473 -29l465 1624h147l-460 -1624h-152zM928 303v176q0 154 73.5 228.5t225.5 74.5q156 0 229.5 -73.5t73.5 -229.5v-176q0 -156 -73.5 -229.5t-229.5 -73.5q-153 0 -226 73.5t-73 229.5zM1092 311q0 -81 30 -121t105 -40q79 0 108 39.5t29 121.5v164q0 82 -29 120t-108 38 q-75 0 -105 -38.5t-30 -119.5v-164zM1669 303v176q0 154 73.5 228.5t225.5 74.5q156 0 229.5 -73.5t73.5 -229.5v-176q0 -156 -73.5 -229.5t-229.5 -73.5q-153 0 -226 73.5t-73 229.5zM1833 311q0 -81 30 -121t105 -40q79 0 108 39.5t29 121.5v164q0 82 -29 120t-108 38 q-75 0 -105 -38.5t-30 -119.5v-164z" />
<glyph unicode="&#x2039;" horiz-adv-x="667" d="M100 610l283 451h180l-280 -451l280 -452h-180z" />
<glyph unicode="&#x203a;" horiz-adv-x="671" d="M109 156l280 452l-280 451h180l282 -451l-282 -452h-180z" />
<glyph unicode="&#x2044;" horiz-adv-x="333" d="M-272 -6l729 1593h192l-729 -1593h-192z" />
<glyph unicode="&#x205f;" horiz-adv-x="505" />
<glyph unicode="&#x20ac;" horiz-adv-x="1099" d="M57 846v158h142q20 131 66.5 236.5t121 187t185 126.5t249.5 45q88 0 180 -36l-45 -164q-59 22 -131 22q-86 0 -153 -20t-113 -54t-80.5 -88t-55.5 -114t-38 -141h442l-30 -158h-443v-64v-57h416l-25 -156h-362q15 -81 34 -140t52.5 -113.5t79.5 -88t115.5 -53.5 t160.5 -20q85 0 164 39l43 -170v-7q-109 -45 -209 -45q-125 0 -223 28.5t-164.5 77.5t-114.5 125.5t-76 162.5t-46 198h-140v156h121q-2 8 -2 59q0 45 2 68h-123z" />
<glyph unicode="&#x2122;" horiz-adv-x="1028" d="M51 1462v111h367v-111h-125v-536h-117v536h-125zM500 924v651h141l86 -254l86 254h141v-651h-114v217l10 186l-96 -289h-54l-96 289l10 -186v-217h-114z" />
<glyph unicode="&#x25fc;" horiz-adv-x="1198" d="M0 0v1198h1198v-1198h-1198z" />
<glyph unicode="&#xfb01;" horiz-adv-x="1112" d="M6 967v174h166v45q0 123 32.5 207.5t95 130t142.5 62t187 9.5v-178q-61 7 -109.5 1t-82.5 -27.5t-52 -72t-18 -132.5v-41h600v-1145h-195v967h-405v-969h-195v969h-166zM756 1473q0 53 36.5 84t81 32t81 -30t36.5 -86q0 -51 -36.5 -82t-81 -32t-81 29t-36.5 85z" />
<glyph unicode="&#xfb02;" horiz-adv-x="1136" d="M121 -2v1155q0 240 130.5 350.5t354.5 89.5v-178q-71 7 -121.5 -0.5t-90.5 -35t-59.5 -84t-19.5 -142.5v-41h256v-180h-256v-934h-194zM762 311v1270h190v-1268q0 -70 28 -95t95 -25v-193q-91 0 -147.5 13t-95.5 48t-54.5 94.5t-15.5 155.5z" />
</font>
</defs>
</svg>
