<?xml version="1.0" standalone="no"?>
<!DOCTYPE svg PUBLIC "-//W3C//DTD SVG 1.1//EN" "http://www.w3.org/Graphics/SVG/1.1/DTD/svg11.dtd" >
<svg xmlns="http://www.w3.org/2000/svg">
<metadata></metadata>
<defs>
<font id="kelson_sans_rulight" horiz-adv-x="974" >
<font-face units-per-em="2048" ascent="1536" descent="-512" />
<missing-glyph horiz-adv-x="514" />
<glyph horiz-adv-x="2048" />
<glyph horiz-adv-x="2048" />
<glyph horiz-adv-x="682" />
<glyph unicode="&#xd;" horiz-adv-x="548" />
<glyph unicode=" "  horiz-adv-x="514" />
<glyph unicode="&#x09;" horiz-adv-x="514" />
<glyph unicode="&#xa0;" horiz-adv-x="514" />
<glyph unicode="!" horiz-adv-x="382" d="M123 68q0 34 23.5 53.5t52 20t52 -19t23.5 -54.5q0 -34 -23.5 -53.5t-52 -20t-52 19t-23.5 54.5zM139 248v1337h109v-1337h-109z" />
<glyph unicode="&#x22;" horiz-adv-x="407" d="M72 1585h96l-10 -348h-84zM262 1585h96l-10 -348h-84z" />
<glyph unicode="#" horiz-adv-x="1265" d="M66 500l18 94h197l84 412h-197l18 92h197l94 465h101l-95 -465h432l95 465h98l-94 -463h200l-18 -94h-201l-84 -412h201l-18 -94h-199l-102 -500h-101l103 500h-433l-102 -500h-100l102 500h-196zM381 594h432l84 412h-432z" />
<glyph unicode="$" horiz-adv-x="1032" d="M90 358h98q0 -144 80.5 -210t243.5 -66q195 1 274.5 87.5t79.5 291.5q0 59 -12.5 106t-31.5 80t-52.5 58t-65.5 40t-82 26t-89.5 16.5t-98.5 11.5q-69 7 -123.5 26t-106.5 60t-81 117t-29 182q0 206 95.5 305t289.5 110v191h86v-191q80 -3 142 -22t112.5 -58.5 t79.5 -108.5t33 -165h-98q-3 264 -308 264q-84 0 -142.5 -15t-102.5 -50.5t-65 -100t-21 -159.5q0 -56 9.5 -99.5t23.5 -73t42 -52t52 -35t68 -22t75.5 -14t87.5 -10.5q35 -4 53 -6q173 -23 269 -131.5t96 -281.5q0 -132 -28 -224t-84 -144t-126.5 -76t-167.5 -29v-179h-86 v177q-195 8 -292 99.5t-97 274.5z" />
<glyph unicode="%" horiz-adv-x="1308" d="M61 1206v135q0 131 62.5 194.5t191.5 63.5q130 0 192 -62.5t62 -195.5v-135q0 -130 -62.5 -193t-191.5 -63q-130 0 -192 61.5t-62 194.5zM143 1260q0 -130 32 -177t140 -47q103 0 137.5 48.5t34.5 172.5v29q0 67 -5.5 106t-24 68t-52.5 40t-90 11q-103 0 -137.5 -48.5 t-34.5 -172.5v-30zM266 -2l668 1622h94l-670 -1626zM719 246v135q0 131 62.5 194.5t191.5 63.5q130 0 192 -62.5t62 -195.5v-135q0 -130 -62.5 -193t-191.5 -63q-130 0 -192 61.5t-62 194.5zM801 299q0 -130 32 -176.5t140 -46.5q103 0 137.5 48.5t34.5 172.5v29 q0 67 -5.5 106t-24 68t-52.5 40t-90 11q-103 0 -137.5 -48.5t-34.5 -172.5v-31z" />
<glyph unicode="&#x26;" horiz-adv-x="1144" d="M106 444q0 79 17.5 143t52 111t71.5 80t89 66q-95 51 -148 138.5t-53 203.5q0 171 106.5 283t276.5 112q85 0 149.5 -19t116 -61.5t78.5 -118t27 -182.5h-96q-5 145 -67.5 216t-207.5 71q-137 0 -206.5 -87t-69.5 -212q0 -116 78.5 -206.5t191.5 -90.5h539v-92h-160v-385 q0 -63 2 -101.5t12.5 -88.5t30 -75.5t57.5 -40.5t92 -6v-104q-121 -13 -183.5 36t-82.5 154q-130 -194 -309 -194q-187 0 -295.5 110.5t-108.5 339.5zM215 442q0 -166 77.5 -252t217.5 -86q115 0 198 94t83 220v381h-281q-120 0 -207.5 -103.5t-87.5 -253.5z" />
<glyph unicode="'" horiz-adv-x="235" d="M72 1585h96l-10 -348h-84z" />
<glyph unicode="(" horiz-adv-x="430" d="M119 256v967q0 218 57 298t207 78v-88q-38 0 -65.5 -6.5t-45 -24t-28 -37t-15.5 -56.5t-6.5 -70t-1.5 -90v-975q0 -49 1 -78.5t4.5 -63.5t10 -53.5t18 -39t29 -29t42 -15.5t57.5 -6v-88q-150 -2 -207 78.5t-57 298.5z" />
<glyph unicode=")" horiz-adv-x="448" d="M63 -33q33 0 57.5 6t42 15.5t29 29t18 39t10 53.5t4.5 63.5t1 78.5v975q0 57 -1.5 90t-6.5 70t-15.5 56.5t-28 37t-45 24t-65.5 6.5v88q150 2 207.5 -78t57.5 -298v-967q0 -218 -57.5 -298.5t-207.5 -78.5v88z" />
<glyph unicode="*" horiz-adv-x="499" d="M59 1260q91 91 144 114l2 37q-50 15 -142 107l70 71q89 -89 109 -143h32q17 52 113 143l72 -69q-92 -92 -144 -115l-2 -37q55 -19 142 -106l-70 -72q-90 90 -109 141h-34q-3 -10 -9 -20.5t-14.5 -22.5t-15.5 -21t-19 -22.5t-18 -20t-19 -20t-16 -16.5z" />
<glyph unicode="+" horiz-adv-x="858" d="M68 741v93h307v309h100v-309h305v-93h-305v-311h-100v311h-307z" />
<glyph unicode="," horiz-adv-x="299" d="M0 -203q68 36 89 94.5t13 190.5h103q0 -111 -12 -167.5t-45.5 -97.5t-108.5 -85z" />
<glyph unicode="-" horiz-adv-x="831" d="M125 598v92h592v-92h-592z" />
<glyph unicode="." horiz-adv-x="327" d="M102 68q0 34 24 53.5t52 20t52 -19t24 -54.5q0 -34 -24 -53.5t-52 -20t-52 19t-24 54.5z" />
<glyph unicode="/" horiz-adv-x="739" d="M82 -23l471 1600h98l-471 -1600h-98z" />
<glyph unicode="0" horiz-adv-x="962" d="M106 387v823q0 195 93 290t286 95q194 0 286.5 -93t92.5 -292v-829q0 -203 -92 -297t-287 -94q-193 0 -286 98.5t-93 298.5zM205 381q0 -57 6.5 -99.5t24.5 -82t48.5 -64t81 -39t119.5 -14.5q158 0 219.5 74t61.5 231v821q0 59 -6.5 101.5t-24.5 80t-49 60.5t-81 36 t-120 13q-159 0 -219.5 -68.5t-60.5 -218.5v-831z" />
<glyph unicode="1" horiz-adv-x="808" d="M49 0v94h324v1387h-271v100h373v-1487h301v-94h-727z" />
<glyph unicode="2" horiz-adv-x="1034" d="M100 1176q0 114 32.5 197.5t92.5 130.5t134 69t167 22q63 0 118 -11.5t110 -42.5t94 -80t63.5 -130.5t24.5 -187.5q0 -93 -24.5 -166.5t-66 -121.5t-95 -85.5t-113 -64.5t-118.5 -52t-112.5 -54t-95 -65t-66 -90.5t-24.5 -124.5v-215h727v-104h-833v309q0 86 24.5 153.5 t66 112t95.5 79.5t114 61.5t119.5 52.5t113.5 58.5t95.5 73.5t66 102.5t24.5 140.5q0 354 -314 354q-162 0 -239.5 -84t-77.5 -237h-103z" />
<glyph unicode="3" horiz-adv-x="968" d="M78 397h104q0 -303 275 -303q178 0 254.5 80.5t76.5 271.5q0 192 -80 288.5t-266 96.5h-90v43l363 607h-604v98h753v-14l-372 -643q85 -2 152.5 -27.5t113 -67t75.5 -100.5t43 -125.5t13 -144.5q0 -247 -100 -355t-336 -108q-185 0 -280 98t-95 305z" />
<glyph unicode="4" horiz-adv-x="1103" d="M-4 444l698 1139h129v-1102h162v-98h-162v-383h-102v383h-703zM129 481h592l6 977z" />
<glyph unicode="5" horiz-adv-x="964" d="M82 387h96q0 -156 66.5 -223.5t242.5 -67.5q166 0 229.5 69t63.5 245v213q0 177 -57.5 249t-218.5 72h-381v635h696v-100h-592v-432h277q197 0 288 -97t91 -325v-217q0 -223 -96 -318.5t-302 -95.5q-213 0 -308 95t-95 298z" />
<glyph unicode="6" horiz-adv-x="978" d="M113 434v283q0 236 113.5 447.5t344.5 418.5h136l2 -8q-83 -53 -164.5 -139t-137.5 -166.5t-98 -159.5q77 51 232 51q163 0 246 -105.5t83 -344.5v-277q0 -244 -90 -346t-288 -102q-100 0 -168.5 21t-117 72t-71 138t-22.5 217zM215 442q0 -104 10 -166.5t40 -110 t84.5 -66.5t142.5 -19q161 0 218.5 81t57.5 277v273q0 100 -9.5 162t-37 109.5t-77.5 68t-130 22.5q-162 0 -230.5 -84.5t-68.5 -273.5v-273z" />
<glyph unicode="7" horiz-adv-x="880" d="M27 1485v96h811v-37l-609 -1544h-106l586 1485h-682z" />
<glyph unicode="8" horiz-adv-x="1081" d="M82 446q0 160 46 265t151 157q-44 31 -70.5 63t-46 99t-19.5 164q0 215 92.5 307t290.5 92t286.5 -90.5t88.5 -314.5q0 -92 -19 -157.5t-43.5 -97.5t-64.5 -63q107 -47 156 -150t49 -274q0 -92 -10 -157.5t-39 -125t-78.5 -95.5t-130.5 -57t-193 -21q-110 0 -192 26.5 t-130 68.5t-76.5 104t-38 122t-9.5 135zM184 446q0 -59 6 -104.5t27 -94.5t57 -81t100 -53t152 -21q108 0 175.5 18.5t107 62.5t54 108t14.5 165q0 100 -15.5 166.5t-55.5 114.5t-109 69.5t-175 22.5h-2q-88 0 -151 -20.5t-98.5 -52.5t-55.5 -84t-25.5 -100t-5.5 -116z M246 1198q0 -85 10.5 -135.5t41 -86t83.5 -48.5t141 -13q83 0 136.5 15.5t84.5 50t43.5 82.5t12.5 121q0 95 -10.5 151.5t-41 96t-83 54.5t-138.5 15q-157 0 -218.5 -76.5t-61.5 -226.5z" />
<glyph unicode="9" horiz-adv-x="978" d="M113 872v277q0 244 90.5 346t288.5 102q134 0 214 -39t122 -138t42 -271v-283q0 -236 -113.5 -447.5t-344.5 -418.5h-136l-2 8q83 53 164.5 139t137.5 166.5t98 159.5q-77 -51 -232 -51q-163 0 -246 105.5t-83 344.5zM215 872q0 -100 9.5 -162t37 -109.5t77.5 -68 t130 -22.5q162 0 230.5 84.5t68.5 273.5v273q0 104 -10 166.5t-39.5 110t-84 66.5t-142.5 19q-161 0 -219 -81t-58 -277v-273z" />
<glyph unicode=":" horiz-adv-x="327" d="M102 88q0 34 24 53.5t52 20t52 -19t24 -54.5q0 -34 -24 -53.5t-52 -20t-52 19t-24 54.5zM102 776q0 34 24 53.5t52 20t52 -19t24 -54.5q0 -34 -24 -53.5t-52 -20t-52 19t-24 54.5z" />
<glyph unicode=";" horiz-adv-x="327" d="M25 -203q68 36 89 94.5t13 190.5h102q0 -111 -12 -167.5t-45.5 -97.5t-108.5 -85zM102 776q0 34 24 53.5t52 20t52 -19t24 -54.5q0 -34 -24 -53.5t-52 -20t-52 19t-24 54.5z" />
<glyph unicode="&#x3c;" horiz-adv-x="690" d="M102 657v35l402 381l61 -59l-350 -338v-2l352 -338l-63 -60z" />
<glyph unicode="=" horiz-adv-x="1003" d="M160 453v96h684v-96h-684zM160 799v100h684v-100h-684z" />
<glyph unicode="&#x3e;" horiz-adv-x="694" d="M127 336l352 338v2l-350 338l61 59l402 -381v-35l-402 -381z" />
<glyph unicode="?" horiz-adv-x="911" d="M61 1243q0 184 95.5 270t281.5 86q95 0 165 -25t108.5 -62.5t61.5 -95t29.5 -108.5t6.5 -116v-135q0 -96 -21 -167.5t-55 -114.5t-75.5 -78t-82.5 -67t-75 -71t-55 -102t-21 -148h-98q0 96 21.5 167.5t55.5 114.5t75.5 77.5t82.5 66.5t75 70.5t55.5 101t21.5 146.5v137 q0 181 -60.5 250t-214.5 69q-146 0 -215 -58.5t-69 -207.5h-93zM299 68q0 34 23.5 53.5t52.5 20t52.5 -19t23.5 -54.5q0 -34 -23.5 -53.5t-52.5 -20t-52.5 19t-23.5 54.5z" />
<glyph unicode="@" horiz-adv-x="1327" d="M92 0v784q0 130 18 209.5t66.5 130t125 69.5t200.5 19h323q124 0 201.5 -19.5t125 -69t65.5 -124.5t18 -196v-572q0 -121 -53 -174t-152 -53q-51 0 -89.5 15t-59 39.5t-30.5 48t-13 47.5q-22 -35 -76.5 -65t-130.5 -30q-250 0 -250 254v226q0 134 84 203t207 69h248v-563 q0 -152 110 -152q55 0 79 27.5t24 99.5v563q0 75 -5.5 127t-21.5 89t-37 58.5t-58.5 34t-78.5 16t-105 3.5h-327q-95 0 -148.5 -11t-91.5 -47t-51.5 -99t-13.5 -171v-751q0 -62 9.5 -105.5t34.5 -81.5t75 -57.5t124 -19.5h410v-103h-389q-186 0 -276.5 77t-90.5 255z M483 319q0 -90 38 -123.5t132 -33.5q86 0 125 52.5t39 172.5v328h-151q-183 0 -183 -178v-218z" />
<glyph unicode="A" horiz-adv-x="960" d="M18 0l406 1581h113l405 -1581h-108l-103 389h-506l-100 -389h-107zM250 485h459l-226 947h-2z" />
<glyph unicode="B" horiz-adv-x="1038" d="M123 -4l2 1585h301q211 0 309.5 -93.5t98.5 -295.5q0 -114 -43 -202t-125 -128q299 -51 299 -403q0 -105 -14 -178.5t-46 -130t-88 -89.5t-136 -49t-194 -16h-364zM225 96h262q65 0 115.5 4.5t88.5 16.5t65 26t46 38.5t30 47.5t17.5 60.5t9 70.5t3.5 84q0 44 -2.5 76 t-11.5 70t-24.5 64.5t-43.5 53t-67 42.5t-96.5 26t-129.5 10h-262v-690zM225 889h189q177 3 249 78.5t72 224.5q0 164 -71.5 230.5t-237.5 66.5h-199z" />
<glyph unicode="C" horiz-adv-x="1071" d="M121 508v559q0 112 10.5 191.5t39.5 148t78.5 109.5t127.5 63.5t188 22.5q121 0 201.5 -25t128 -80t67 -131t19.5 -188h-96q0 88 -14 147t-49 102.5t-98 63.5t-159 20q-68 0 -120.5 -11.5t-88.5 -29.5t-61.5 -50.5t-39.5 -64.5t-22 -82t-10 -92.5t-2 -105.5v-563 q0 -66 2 -110t10 -94t22 -81t39.5 -62t61.5 -47.5t88.5 -27t120.5 -10.5q79 0 134.5 13.5t90.5 38t56 67.5t29.5 92t11.5 123h94q-4 -113 -23.5 -188t-65.5 -131.5t-126 -82.5t-201 -26q-135 0 -222 30.5t-136 98.5t-67.5 160t-18.5 233z" />
<glyph unicode="D" horiz-adv-x="1095" d="M145 0v1581h387q96 0 167.5 -13.5t122 -43.5t82.5 -71t50.5 -104.5t25.5 -134.5t7 -170v-522q0 -113 -12 -193t-41.5 -145.5t-82 -104t-132 -59t-191.5 -20.5h-383zM248 100h280q57 0 103 6t81.5 15.5t62 28t45 36.5t30.5 49t19 56.5t10.5 68.5t4.5 75.5t1 86.5v527 q0 71 -1.5 112t-8.5 94t-21.5 83t-40 63t-63.5 49.5t-93.5 27.5t-128.5 11h-280v-1389z" />
<glyph unicode="E" d="M143 0v1581h715v-94h-612v-594h551v-96h-551v-697h653v-100h-756z" />
<glyph unicode="F" horiz-adv-x="950" d="M141 0v1581h744v-98h-641v-588h567v-100h-567v-795h-103z" />
<glyph unicode="G" horiz-adv-x="1142" d="M117 516v553q0 98 7.5 168.5t26.5 132.5t52 102.5t84 69.5t122 42t166 13q130 0 216 -26t137 -83t73 -135.5t25 -195.5l-92 -2q-3 98 -20 161t-57.5 107t-108.5 63t-173 19q-51 0 -94 -4.5t-76 -15.5t-59.5 -23t-45.5 -33t-33 -40t-22.5 -50t-14 -55.5t-8 -64.5t-3 -70 t-0.5 -78v-555q0 -49 1 -79t4.5 -71.5t10 -67.5t19 -58t30.5 -51.5t45 -40t61.5 -31.5t81 -18t103.5 -7q91 0 155.5 16.5t105 46t64 79.5t32 107.5t8.5 139.5v248h-362v92h454v-340q0 -103 -11.5 -177t-41.5 -136t-81.5 -99.5t-131 -58t-191.5 -20.5q-140 0 -230 30.5 t-140 99t-69 161t-19 235.5z" />
<glyph unicode="H" horiz-adv-x="1046" d="M143 0v1581h107v-690h553v690h102v-1581h-102v788h-553v-788h-107z" />
<glyph unicode="I" horiz-adv-x="395" d="M143 0v1581h109v-1581h-109z" />
<glyph unicode="J" horiz-adv-x="897" d="M16 379h99q0 -54 5.5 -94t23 -79t47 -63t79.5 -38.5t119 -14.5t119.5 13.5t81 36t49 59t25.5 75t8 91.5v1216h102v-1212q0 -197 -94.5 -289t-290.5 -92q-193 0 -283 95.5t-90 295.5z" />
<glyph unicode="K" horiz-adv-x="968" d="M133 0v1581h109v-707h77l490 707h129l-526 -752l549 -829h-134l-503 766h-82v-766h-109z" />
<glyph unicode="L" horiz-adv-x="907" d="M143 0v1581h103v-1487h612v-94h-715z" />
<glyph unicode="M" horiz-adv-x="1191" d="M143 0v1581h113l340 -995l342 995h113v-1581h-105v913l12 416l-344 -969h-34l-344 969l14 -416v-913h-107z" />
<glyph unicode="N" horiz-adv-x="1046" d="M141 2v1579h109l561 -1356h4l-18 563v793h108v-1579h-119l-546 1341h-4l14 -495v-846h-109z" />
<glyph unicode="O" horiz-adv-x="1165" d="M121 506v571q0 115 11.5 194t40.5 144.5t81 103.5t132 58t194 20q142 0 232 -29t140 -96.5t68 -159.5t18 -237v-567q0 -112 -11.5 -191.5t-41.5 -145.5t-82 -104.5t-131.5 -59.5t-191.5 -21q-94 0 -164.5 13.5t-121.5 43t-84.5 70.5t-53 101.5t-27.5 129.5t-8 162z M223 512q0 -66 1.5 -105t9 -91t21 -82t39.5 -63t64 -50.5t93.5 -29t128.5 -11.5q57 0 103.5 7t81 17t61.5 30.5t45 39.5t30.5 51.5t19 58.5t10 69t4.5 75t1 84v559q0 69 -1.5 109t-8.5 92.5t-21 82t-39.5 62t-63.5 48.5t-93.5 27t-128.5 11q-57 0 -103 -6.5t-81.5 -16 t-62 -29t-45 -38t-30.5 -50.5t-19 -58t-10.5 -69.5t-4.5 -77t-1 -87.5v-559z" />
<glyph unicode="P" horiz-adv-x="989" d="M143 0v1581h381q102 0 169 -18.5t116.5 -67t71.5 -135.5t22 -221v-138q0 -170 -42 -268.5t-122.5 -138t-214.5 -39.5h-272v-555h-109zM252 653h272q162 0 219.5 76t57.5 270v129q0 81 -6 134.5t-23 98.5t-48.5 70t-80 38.5t-119.5 13.5h-272v-830z" />
<glyph unicode="Q" horiz-adv-x="1161" d="M121 487v613q0 88 7.5 153t26.5 122.5t52.5 95.5t84 66.5t122 41t166.5 12.5q114 0 194 -20t131.5 -56t81 -98.5t40.5 -136.5t11 -180v-613q0 -117 -17 -198.5t-58 -145t-114 -98.5t-181 -45q1 -59 12.5 -98.5t30.5 -64t56 -37.5t78 -17t107 -4v-103q-104 0 -171.5 13.5 t-117 49t-72 98t-24.5 159.5q-109 1 -186.5 22t-128 59t-79.5 100t-40.5 135t-11.5 175zM223 522q0 -54 1 -87t4.5 -76t10.5 -68.5t19 -56.5t30.5 -49t45 -37t62 -28.5t81.5 -15.5t103 -6q73 0 128.5 10t93.5 25.5t63.5 47t39.5 59.5t21 80t8.5 92t1.5 110v543 q0 71 -1.5 111t-8.5 92.5t-21 81t-39.5 60.5t-63.5 47t-93.5 25.5t-128.5 10.5t-128.5 -10.5t-93.5 -25.5t-63.5 -47t-40 -60.5t-21.5 -80.5t-8.5 -93t-1.5 -111v-543z" />
<glyph unicode="R" d="M143 0v1581h381q101 0 169 -21t116.5 -73.5t71 -142.5t22.5 -226v-121q0 -213 -72.5 -305t-232.5 -106l334 -586h-127l-324 584h-229v-584h-109zM252 680h272q165 0 221 64.5t56 254.5v119q0 104 -10 166.5t-40 109t-84.5 65t-142.5 18.5h-272v-797z" />
<glyph unicode="S" horiz-adv-x="1062" d="M90 358h98q0 -144 80.5 -210t243.5 -66q195 1 274.5 87.5t79.5 291.5q0 59 -12.5 106t-31.5 80t-52.5 58t-65.5 40t-82 26t-89.5 16.5t-98.5 11.5q-69 7 -123.5 26t-106.5 60t-81 117t-29 182q0 219 107 317.5t327 100.5q88 0 155.5 -17t124 -56t88.5 -110.5t36 -173.5 h-98q-3 264 -308 264q-84 0 -142.5 -15t-102.5 -50.5t-65 -100t-21 -159.5q0 -56 9.5 -99.5t23.5 -73t42 -52t52 -35t68 -22t75.5 -14t87.5 -10.5q35 -4 53 -6q173 -23 269 -131.5t96 -281.5q0 -114 -22 -198.5t-60.5 -137t-98.5 -84t-126.5 -43.5t-153.5 -12 q-211 2 -315.5 93.5t-104.5 280.5z" />
<glyph unicode="T" horiz-adv-x="794" d="M16 1485v96h762v-96h-329v-1485h-103v1485h-330z" />
<glyph unicode="U" horiz-adv-x="1110" d="M123 512v1069h104v-1069q0 -65 2 -108.5t9.5 -92t21 -79.5t37 -61t57.5 -46.5t83 -26.5t112 -10t111.5 10t82.5 26.5t57.5 46.5t37 61t21 79.5t9.5 92t2 108.5v1069h105v-1069q0 -112 -10 -189t-36.5 -143t-74 -104t-123 -59t-182.5 -21t-182.5 21t-123 59t-74 104 t-36.5 143t-10 189z" />
<glyph unicode="V" horiz-adv-x="960" d="M18 1581h113l205 -809l143 -610h2l142 608l206 811h113l-405 -1583h-113z" />
<glyph unicode="W" horiz-adv-x="1556" d="M18 1581h113l170 -745l135 -652h4l293 1311h82l293 -1311h4l135 652l170 745h113l-367 -1583h-112l-166 727l-111 553l-108 -543l-168 -737h-113z" />
<glyph unicode="X" horiz-adv-x="892" d="M18 0l365 784l-332 797h111l157 -371l127 -327l129 327l156 371h111l-332 -797l364 -784h-114l-146 309l-168 381l-172 -391l-141 -299h-115z" />
<glyph unicode="Y" horiz-adv-x="806" d="M-4 1581h119l145 -383l141 -407l144 407l149 383h119l-356 -907v-676h-111v676z" />
<glyph unicode="Z" horiz-adv-x="831" d="M29 0l618 1483h-528v98h686l-623 -1483h623v-98h-776z" />
<glyph unicode="[" horiz-adv-x="575" d="M186 -233v1824h322v-90h-219v-1638h219v-96h-322z" />
<glyph unicode="\" horiz-adv-x="688" d="M92 1575h113l405 -1577h-112z" />
<glyph unicode="]" horiz-adv-x="593" d="M86 -137h219v1638h-219v90h322v-1824h-322v96z" />
<glyph unicode="^" horiz-adv-x="1105" d="M111 938l389 649h80l385 -649h-111l-315 547l-320 -547h-108z" />
<glyph unicode="_" horiz-adv-x="901" d="M72 -4h762v-90h-762v90z" />
<glyph unicode="`" horiz-adv-x="409" d="M57 1577v6h115l100 -242v-10h-86z" />
<glyph unicode="a" horiz-adv-x="991" d="M88 307q0 109 46.5 181t134 106t212.5 44q50 4 105 4q83 0 178 -9v172v10q0 151 -59 221q-61 72 -201 72q-67 0 -113 -12t-80.5 -43t-50.5 -86.5t-16 -139.5h-99q0 192 84 282.5t275 90.5q184 0 271 -93t87 -300v-807h-86l-2 160q-59 -96 -142 -133t-210 -37 q-156 0 -245 77t-89 240zM190 305q0 -114 66 -166.5t203 -52.5q65 0 118.5 19t87.5 49.5t57 70t32.5 78.5t9.5 78v154q-108 11 -195 11q-153 0 -241 -34q-138 -53 -138 -207z" />
<glyph unicode="b" horiz-adv-x="983" d="M113 438v1213h102v-564q41 71 116.5 102.5t160.5 31.5q202 0 290 -105.5t88 -357.5v-332q0 -235 -91 -338.5t-287 -103.5q-101 0 -169 20.5t-117 71.5t-71 139.5t-22 222.5zM213 436q0 -197 58 -273.5t221 -76.5q162 0 219 76t57 270v328q0 101 -12 165.5t-43 109.5 t-84.5 64t-136.5 19q-143 0 -211 -71t-68 -238v-373z" />
<glyph unicode="c" horiz-adv-x="946" d="M102 438v318q0 243 94 345.5t293 102.5q190 0 271.5 -83.5t89.5 -260.5h-96q-3 59 -16 101.5t-41.5 77t-80.5 52t-127 17.5q-160 0 -222 -80t-62 -272v-312q0 -98 11.5 -161t41.5 -109.5t84 -67t139 -20.5q83 0 138 17.5t84.5 54.5t41 83t13.5 115h96q0 -188 -92.5 -279 t-280.5 -91q-197 0 -288 105t-91 347z" />
<glyph unicode="d" horiz-adv-x="1026" d="M111 426v387q0 399 378 399q95 0 161.5 -25t115.5 -81v557h102v-1663h-90l-10 131q-93 -137 -297 -137q-191 0 -275.5 99.5t-84.5 332.5zM213 428q0 -100 16 -166t51 -103.5t82.5 -53t118.5 -15.5q152 3 218.5 81t66.5 230v396v11q0 168 -57 238q-59 72 -220 72 q-82 0 -136.5 -19.5t-85 -60.5t-42.5 -95.5t-12 -133.5v-381z" />
<glyph unicode="e" horiz-adv-x="964" d="M109 438v322q0 242 90.5 347t287.5 105q203 0 286 -105.5t83 -346.5v-178h-649v-136q0 -192 59.5 -276t220.5 -84q80 0 133 17t81 51t38.5 74.5t10.5 97.5h92q0 -332 -355 -332q-197 0 -287.5 102t-90.5 342zM207 676h559v82q0 94 -10.5 155.5t-39.5 113t-85.5 75.5 t-143.5 24q-161 0 -220.5 -83t-59.5 -279v-88z" />
<glyph unicode="f" horiz-adv-x="548" d="M121 0v1167q0 233 91 335q81 90 245 90q21 0 43 -1v-90q-20 1 -38 1q-59 0 -100 -12q-53 -16 -84 -58.5t-43 -105t-12 -161.5v-78h234v-92h-234v-995h-102z" />
<glyph unicode="g" horiz-adv-x="970" d="M102 406v372q0 121 22.5 202.5t72 130.5t119 71t171.5 24q213 0 289 -149v133h92v-1206q0 -240 -94 -342.5t-293 -102.5q-170 0 -254.5 71.5t-91.5 227.5h96q5 -104 58.5 -154.5t191.5 -50.5q165 0 226 80t61 271v153q-42 -79 -116 -111t-183 -32q-188 0 -277.5 95 t-89.5 317zM205 403q2 -122 32.5 -190t87.5 -93.5t154 -25.5q150 0 217.5 76.5t67.5 230.5v342q0 184 -61.5 275.5t-215.5 91.5q-161 -3 -221.5 -74t-60.5 -260v-373z" />
<glyph unicode="h" horiz-adv-x="966" d="M113 0v1581h102v-494q35 62 112 93.5t156 31.5q201 0 286 -102.5t85 -351.5v-758h-102v760q0 100 -11 162t-40.5 106.5t-82 63t-135.5 18.5q-140 0 -205 -70.5t-65 -230.5v-809h-100z" />
<glyph unicode="i" horiz-adv-x="407" d="M129 1511q0 34 23.5 53.5t52.5 19.5q1 0 1 1q28 1 52 -19t23 -55q0 -34 -23.5 -53.5t-52.5 -20t-52.5 19t-23.5 54.5zM158 0v1208h100v-1208h-100z" />
<glyph unicode="j" horiz-adv-x="421" d="M2 -279h7q70 0 103 19q35 20 50.5 79.5t15.5 184.5v1204h103v-1198q0 -107 -11.5 -176t-42 -119.5t-85.5 -70.5q-46 -18 -113 -18q-13 0 -27 1v94zM152 1526q0 34 23.5 53.5t52.5 20.5h1q28 0 51 -20q23 -19 23 -54q0 -34 -23.5 -53.5t-51.5 -20.5h-2q-28 0 -50 20 q-24 19 -24 54z" />
<glyph unicode="k" horiz-adv-x="897" d="M113 0v1581h104v-879h113l383 510h123l-420 -563l471 -649h-127l-428 596h-113v-596h-106z" />
<glyph unicode="l" horiz-adv-x="499" d="M143 336v1245h103v-1251q0 -84 5.5 -127.5t28 -71t57 -34.5t101.5 -7v-92q-27 -2 -51 -2q-43 0 -76 6q-51 9 -84.5 31t-51.5 65.5t-25 98t-7 139.5z" />
<glyph unicode="m" horiz-adv-x="1734" d="M152 0v1190h94l10 -96q86 118 295 118q126 0 206.5 -47.5t114.5 -128.5q68 104 150.5 140t194.5 36q108 0 180.5 -27.5t112.5 -86t56.5 -135.5t16.5 -189v-774h-102v776q0 100 -11 161.5t-42 104t-84 59.5t-138 17q-288 0 -288 -311v-807h-103v776q0 89 -11.5 148.5 t-41 105.5t-84 67t-137.5 21q-159 0 -223 -68.5t-64 -203.5v-846h-102z" />
<glyph unicode="n" horiz-adv-x="1069" d="M162 0v1190h90l8 -127q93 149 301 149q207 0 287 -99.5t80 -336.5v-776h-103v776q0 201 -57 273.5t-217 72.5q-77 0 -135 -25t-90 -67t-47 -91t-15 -103v-836h-102z" />
<glyph unicode="o" horiz-adv-x="962" d="M102 434v328q0 167 42 266t123 139.5t214 40.5q100 0 168.5 -21t117 -72.5t71 -139.5t22.5 -219v-322q0 -244 -90.5 -346t-288.5 -102q-100 0 -168.5 21t-117 72t-71 138t-22.5 217zM205 442q0 -104 10 -166.5t39.5 -110t84 -66.5t142.5 -19q161 0 219 81t58 277v318 q0 83 -6.5 137t-23 99t-48 69.5t-80 37.5t-119.5 13q-83 0 -136.5 -19t-84.5 -63.5t-43 -107.5t-12 -162v-318z" />
<glyph unicode="p" horiz-adv-x="1017" d="M135 -373v1579h90l11 -131q93 137 296 137q191 0 276 -99.5t85 -332.5v-387q0 -399 -379 -399q-95 0 -161 25t-115 81v-473h-103zM238 410v-12q0 -166 56 -237q59 -73 220 -73q82 0 136.5 19.5t85 60.5t43 95.5t12.5 133.5v381q0 132 -31 207t-87 103t-151 28 q-152 -3 -218 -81t-66 -230v-395z" />
<glyph unicode="q" horiz-adv-x="987" d="M109 449v321q0 235 91 338.5t287 103.5q101 0 169 -20.5t117 -71.5t71 -139.5t22 -222.5v-1131h-102v492q-72 -125 -277 -125q-203 0 -290.5 102t-87.5 353zM211 446q0 -101 12 -164.5t43.5 -107t84 -61t136.5 -17.5q144 0 211.5 67.5t67.5 233.5v363q0 197 -58 273.5 t-221 76.5q-162 0 -219 -76t-57 -270v-318z" />
<glyph unicode="r" horiz-adv-x="600" d="M123 0v1208h92l6 -143q39 77 127 119q60 28 128 28q31 0 65 -6v-96q-30 5 -59 5q-98 -1 -166 -59q-90 -76 -89 -204l-2 -852h-102z" />
<glyph unicode="s" horiz-adv-x="909" d="M78 334h102q0 -242 283 -242q136 0 206 63.5t70 180.5q0 42 -9 75.5t-23 56t-38.5 40t-46.5 28t-57.5 18.5t-61 12t-65.5 9l-13.5 1.5t-12 1.5t-13.5 2q-57 7 -95.5 15.5t-84 30t-73 53t-46 86t-18.5 128.5q0 150 95.5 234.5t275.5 84.5q362 0 362 -317h-100 q-3 112 -64.5 166.5t-195.5 54.5t-199.5 -58t-65.5 -163q0 -40 8 -72t19 -53.5t33.5 -38.5t40 -26t51 -16.5t53.5 -10.5t60 -8q21 -3 32 -4q45 -7 75 -12.5t71.5 -17t68.5 -26t57 -39.5t47 -56t28.5 -76.5t11.5 -100.5q0 -162 -96 -253t-287 -91q-385 0 -385 340z" />
<glyph unicode="t" horiz-adv-x="559" d="M131 336v1141l102 14v-283h248v-96h-248v-774q0 -84 13 -135.5t46 -79.5q33 -27 80 -35q26 -4 61 -5q28 0 63 3v-90q-41 -4 -77 -4q-141 0 -207 62q-82 78 -81 282z" />
<glyph unicode="u" horiz-adv-x="1044" d="M135 418v772h103v-772q0 -201 57 -273.5t217 -72.5q77 0 135 25t90 67t47 91t15 103v832h102v-1190h-90l-8 131q-93 -149 -301 -149q-207 0 -287 99.5t-80 336.5z" />
<glyph unicode="v" horiz-adv-x="765" d="M6 1190h113l131 -483l133 -553h2l133 553l131 483h113l-320 -1192h-116z" />
<glyph unicode="w" horiz-adv-x="1245" d="M16 1190h107l137 -594l86 -446h2l230 1040h88l247 -1040h2l84 458l125 582h103l-254 -1192h-121l-139 594l-90 405l-88 -415l-132 -584h-114z" />
<glyph unicode="x" horiz-adv-x="831" d="M18 0l334 618l-313 572h115l147 -272l113 -230l118 236l150 266h115l-322 -572l340 -618h-119l-164 309l-118 240l-127 -252l-156 -297h-113z" />
<glyph unicode="y" horiz-adv-x="843" d="M31 1190h112l131 -483l162 -553h2l137 553l132 483h112l-393 -1419q-44 -159 -136 -209q-46 -24 -108 -24q-63 0 -143 26l35 90q61 -21 105 -21q35 0 59 13q53 30 88 137l55 211z" />
<glyph unicode="z" horiz-adv-x="884" d="M63 0v18l621 1078h-578v94h732v-21l-623 -1073h629v-96h-781z" />
<glyph unicode="{" horiz-adv-x="575" d="M84 684v80q47 0 79.5 20.5t47.5 57.5t21 74t6 85v373q0 170 66.5 247t225.5 67v-82q-59 8 -99.5 -6t-60.5 -49t-28 -78t-8 -103v-369q0 -34 -0.5 -55t-6.5 -60.5t-16.5 -66t-32.5 -53.5t-53 -41q111 -44 111 -268v-414q0 -60 7.5 -101.5t27.5 -75.5t59.5 -47t99.5 -5v-93 q-159 -10 -225.5 67t-66.5 247v420q0 229 -154 229z" />
<glyph unicode="|" horiz-adv-x="466" d="M186 -211v1806h95v-1806h-95z" />
<glyph unicode="}" horiz-adv-x="614" d="M72 -186q60 -8 99.5 5t59.5 47t27.5 75.5t7.5 101.5v414q0 224 111 268q-31 14 -53 41t-32.5 53.5t-16.5 66t-6.5 60.5t-0.5 55v369q0 60 -8 103t-28 78t-60.5 49t-99.5 6v82q159 10 226 -67t67 -247v-373q0 -48 5.5 -85t20.5 -74t47.5 -57.5t79.5 -20.5v-80 q-153 0 -153 -229v-420q0 -170 -67 -247t-226 -67v93z" />
<glyph unicode="~" horiz-adv-x="1191" d="M123 578q45 131 149 179.5t224 -9.5l243 -117q40 -17 69.5 -22t63 2t62 41.5t51.5 95.5l76 -33q-46 -136 -137.5 -180t-227.5 18l-241 119q-35 16 -69 19t-68.5 -8t-65.5 -46.5t-53 -93.5z" />
<glyph unicode="&#xa1;" horiz-adv-x="382" d="M106 1143q0 34 24 53.5t52 20t52 -19t24 -54.5q0 -34 -24 -53.5t-52 -20t-52 19t-24 54.5zM133 -375v1338h109v-1338h-109z" />
<glyph unicode="&#xa2;" horiz-adv-x="946" d="M102 438v318q0 226 81.5 330t252.5 116v178h88v-178q171 -7 244.5 -90t81.5 -252h-96q-3 59 -16 101.5t-41.5 77t-80.5 52t-127 17.5q-160 0 -222 -80t-62 -272v-312q0 -98 11.5 -161t41.5 -109.5t84 -67t139 -20.5q83 0 138 17.5t84.5 54.5t41 83t13.5 115h96 q0 -178 -82 -268.5t-248 -99.5v-174h-88v174q-173 9 -253.5 115t-80.5 335z" />
<glyph unicode="&#xa3;" horiz-adv-x="1206" d="M82 0v96h223v690h-205v99h205v327q0 197 91.5 286t287.5 89q193 0 286 -95t93 -290h-102q0 68 -10.5 115.5t-39 89t-85 62t-142.5 20.5q-69 0 -118.5 -13.5t-79.5 -35t-47 -58t-23.5 -74t-7.5 -91.5v-332h452v-99h-452v-690h682v-96h-1008z" />
<glyph unicode="&#xa4;" horiz-adv-x="1105" d="M160 303l98 109q-65 101 -65 239q0 155 86 273l-99 108l64 64l96 -109q90 72 219 72q136 0 225 -68l97 105l63 -64l-96 -106q78 -110 78 -275q0 -134 -60 -239l99 -109l-66 -65l-90 100q-96 -90 -250 -90q-146 0 -244 92l-90 -102zM281 651q0 -125 75.5 -219t202.5 -94 q131 0 205 88.5t74 224.5q0 142 -73.5 229t-205.5 87q-85 0 -150 -46.5t-96.5 -117.5t-31.5 -152z" />
<glyph unicode="&#xa5;" horiz-adv-x="806" d="M-4 1585h119l145 -387l141 -407l144 407l149 387h119l-313 -799h221v-86h-254l-10 -26v-127h264v-84h-264v-465h-111v465h-272v84h272v127l-10 26h-262v86h229z" />
<glyph unicode="&#xa6;" horiz-adv-x="438" d="M166 -100v790h94v-790h-94zM166 836v743h94v-743h-94z" />
<glyph unicode="&#xa7;" horiz-adv-x="901" d="M70 827q0 196 174 285q-80 28 -126 89.5t-46 176.5q0 144 89 224.5t261 80.5q189 0 267.5 -83t78.5 -250h-96q0 129 -53.5 183t-194.5 54q-248 0 -248 -203q0 -61 19.5 -103t57 -65t78 -34.5t97.5 -18.5q52 -6 88 -12.5t83.5 -20t79.5 -35.5t61.5 -54t44 -80.5 t14.5 -110.5q0 -100 -44.5 -173.5t-127.5 -113.5q78 -36 124 -99t46 -175q0 -156 -91 -247t-272 -91q-178 0 -270 83t-92 269h98q0 -54 11.5 -96.5t39.5 -79.5t81.5 -57.5t131.5 -20.5q133 0 198.5 55.5t65.5 171.5q0 55 -15.5 96t-37.5 64.5t-62 41t-72 25t-85 15.5 q-135 20 -186 39q-131 47 -160 176q-10 43 -10 94zM168 834q0 -103 71.5 -159.5t194.5 -56.5q129 0 196.5 58t67.5 166q0 219 -260 219q-134 0 -202 -62.5t-68 -164.5z" />
<glyph unicode="&#xa8;" horiz-adv-x="782" d="M129 1507q0 34 23.5 53.5t51.5 20t51.5 -19t23.5 -54.5q0 -44 -37.5 -63t-75 -0.5t-37.5 63.5zM502 1507q0 34 23.5 53.5t51 20t51 -19t23.5 -54.5q0 -33 -23.5 -52.5t-51 -19.5t-51 19t-23.5 53z" />
<glyph unicode="&#xa9;" horiz-adv-x="1845" d="M134 788q0 152 50.5 298t144.5 260t246 183.5t340 69.5q153 0 283.5 -45.5t222.5 -123.5t157 -181.5t95.5 -220.5t30.5 -240t-30.5 -240t-95.5 -220.5t-157 -181.5t-222.5 -123.5t-283.5 -45.5q-188 0 -340 69.5t-246 183.5t-144.5 260t-50.5 298zM223 788.5 q0 -134.5 45 -263.5t127.5 -230.5t217.5 -163t302 -61.5q169 0 305.5 61.5t220.5 163t129.5 230.5t45.5 263.5t-45.5 263.5t-129.5 230.5t-220.5 163t-305.5 61.5q-167 0 -302 -61.5t-217.5 -163t-127.5 -230.5t-45 -263.5zM555 649v271q0 108 15 177t55 121.5t113.5 75.5 t187.5 23q110 0 181.5 -23t112 -75t56.5 -122.5t16 -176.5h-82q0 79 -11.5 132.5t-41 97t-87 64.5t-144.5 21q-47 0 -84 -5t-65.5 -12.5t-50 -22.5t-36.5 -29.5t-25 -39.5t-15.5 -45.5t-8.5 -55.5t-3.5 -61.5t-0.5 -70.5v-215q0 -44 0.5 -70.5t3.5 -61.5t8.5 -55.5 t15.5 -45.5t25 -39.5t36.5 -29.5t50 -22.5t65.5 -12.5t84 -5q73 0 124 13.5t82.5 36.5t48.5 64t23 86.5t6 112.5h84q0 -105 -15 -174.5t-55 -122t-113 -76.5t-185 -24t-185.5 24t-114 76.5t-56 122t-15.5 174.5z" />
<glyph unicode="&#xaa;" horiz-adv-x="735" d="M86 1159v168q0 145 64 215t204 70l242 -2v-727h-74l-6 96q-49 -62 -96.5 -84.5t-122.5 -22.5q-94 0 -152.5 72.5t-58.5 214.5zM102 662v92h514v-92h-514zM182 1194q0 -124 29 -173.5t117 -49.5q23 0 36 1t35 6t34.5 15t29 30.5t25 50t14.5 74.5t6 103v273h-154 q-107 0 -139.5 -49t-32.5 -175v-106z" />
<glyph unicode="&#xab;" horiz-adv-x="755" d="M76 657l282 451h109l-281 -451l281 -452h-109zM297 657l283 451h108l-280 -451l280 -452h-108z" />
<glyph unicode="&#xac;" horiz-adv-x="1079" d="M102 795v96h852v-447h-92v351h-760z" />
<glyph unicode="&#xad;" horiz-adv-x="884" d="M109 625v98h684v-98h-684z" />
<glyph unicode="&#xae;" horiz-adv-x="970" d="M41 1257q0 200 117.5 315.5t298.5 115.5q182 0 302 -112t120 -310q0 -200 -117.5 -315t-298.5 -115q-182 0 -302 111.5t-120 309.5zM98 1262q0 -175 101.5 -271t257.5 -96q73 0 137.5 22t115.5 65.5t81 115.5t30 164q0 174 -101.5 270t-256.5 96q-73 0 -137.5 -22 t-116 -65t-81.5 -115t-30 -164zM330 999v525h125q85 0 124 -36t39 -124q0 -75 -26 -107t-84 -43l115 -215h-52l-114 211h-76v-211h-51zM381 1255h74q40 0 58 2.5t33.5 13.5t20 33t4.5 62q0 61 -23 87t-93 26h-74v-224z" />
<glyph unicode="&#xaf;" horiz-adv-x="751" d="M137 1493v92h469v-92h-469z" />
<glyph unicode="&#xb0;" horiz-adv-x="667" d="M86.5 1311.5q-3.5 38.5 1 76.5t24.5 73t48 61.5t70 42.5t92 16t92 -16t69 -42.5t46.5 -61.5t23.5 -73.5t0.5 -76.5t-22 -73t-45.5 -61.5t-69.5 -42.5t-92.5 -16q-53 0 -96.5 16t-71.5 42.5t-47 61.5t-22.5 73.5zM170 1303.5q9 -44.5 50 -76t102 -31.5q58 0 97 31.5t48 76 t-0.5 89.5t-48.5 76.5t-96 31.5q-58 0 -99 -31.5t-51.5 -76.5t-1.5 -89.5z" />
<glyph unicode="&#xb1;" horiz-adv-x="946" d="M72 696v92h336v332h90v-332h336v-92h-336v-338h-90v338h-336zM86 113v92h733v-92h-733z" />
<glyph unicode="&#xb2;" horiz-adv-x="593" d="M100 848v199q0 48 10.5 85.5t26 60.5t41 41.5t46.5 27.5t52 20q4 1 24 7.5t25 8.5t21.5 9t21.5 12t17 14t16 19t10.5 24t8.5 31t2 37q0 133 -125 133q-117 0 -117 -127h-71q0 100 51 149.5t137 49.5q89 0 144 -48.5t55 -148.5q0 -37 -7.5 -68t-15.5 -52.5t-28 -41.5 t-31 -30t-40 -23.5t-38 -17t-41 -14.5q-5 -2 -8 -3q-56 -18 -85.5 -51.5t-29.5 -108.5v-114h324v-80h-396z" />
<glyph unicode="&#xb3;" horiz-adv-x="559" d="M80 1069h65q0 -89 36 -123.5t100 -34.5q59 0 99 41.5t40 122.5q0 65 -44.5 110.5t-105.5 47.5h-55v76h55q60 0 99 31.5t39 97.5q0 131 -127 131q-113 0 -113 -135h-74q0 101 51 154.5t136 53.5q88 0 143 -51.5t55 -152.5q0 -62 -29.5 -105.5t-82.5 -64.5 q127 -69 127 -189q0 -122 -61 -179.5t-152 -57.5q-96 0 -148.5 48t-52.5 179z" />
<glyph unicode="&#xb4;" horiz-adv-x="389" d="M90 1331v10l100 242h115v-6l-129 -246h-86z" />
<glyph unicode="&#xb5;" horiz-adv-x="1032" d="M139 -451v1641h94v-803q0 -99 43.5 -170t109.5 -103t146 -32q58 0 108 19.5t90.5 58.5t63.5 103.5t23 148.5v776h92v-1188h-67l-15 152q-46 -83 -126.5 -121.5t-174.5 -38.5q-95 0 -183.5 44.5t-117.5 123.5v-613h-86v2z" />
<glyph unicode="&#xb6;" horiz-adv-x="1355" d="M72 1079v117q0 195 93 290t286 95h792v-104h-182v-1682h-109v1682h-247v-1682h-109v899h-145q-194 0 -286.5 93t-92.5 292z" />
<glyph unicode="&#xb7;" horiz-adv-x="346" d="M102 696q0 34 24 53.5t52 20t52 -19t24 -54.5q0 -34 -24 -53.5t-52 -20t-52 19t-24 54.5z" />
<glyph unicode="&#xb8;" horiz-adv-x="602" d="M63 -348l48 59q22 -40 65.5 -65t83.5 -25q71 0 105 24t45 70q6 27 -1 55.5t-30 53.5t-65 34t-105 -3l43 194h74l-25 -117q55 -1 96 -22.5t62 -55t28.5 -71t1.5 -72.5q-17 -90 -79 -132t-156 -36q-132 8 -191 109z" />
<glyph unicode="&#xb9;" horiz-adv-x="542" d="M63 854v72h146v651h-98v68h172v-719h133v-72h-353z" />
<glyph unicode="&#xba;" horiz-adv-x="657" d="M78 1276v88q0 126 60.5 196t180.5 70q122 0 183 -69t61 -197v-88q0 -130 -61.5 -203.5t-182.5 -73.5q-120 0 -180.5 73.5t-60.5 203.5zM98 801v86h459v-86h-459zM160 1288q0 -106 34 -156.5t125 -50.5t125.5 50.5t34.5 156.5v58q0 106 -34.5 156t-125.5 50t-125 -50 t-34 -156v-58z" />
<glyph unicode="&#xbb;" horiz-adv-x="755" d="M55 207l281 452l-281 451h109l282 -451l-282 -452h-109zM276 207l281 452l-281 451h109l283 -451l-283 -452h-109z" />
<glyph unicode="&#xbc;" horiz-adv-x="1454" d="M150 813v72h145v622h-98v68h172v-690h133v-72h-352zM303 -4l750 1577h86l-754 -1577h-82zM795 238l342 575h82v-539h92v-77h-92v-197h-78v197h-328zM907 274h234l4 414z" />
<glyph unicode="&#xbd;" horiz-adv-x="1454" d="M150 813v72h145v622h-98v68h172v-690h133v-72h-352zM295 -4l749 1577h86l-753 -1577h-82zM899 4v199q0 48 10.5 85.5t26 60.5t41 41.5t46.5 27.5t52 20q4 1 24 7.5t25 8.5t21.5 9t21.5 12t17 14t16 19t10.5 24t8.5 31t2 37q0 133 -125 133q-117 0 -117 -127h-72 q0 100 51.5 149.5t137.5 49.5q89 0 143.5 -48.5t54.5 -148.5q0 -37 -7.5 -68t-15.5 -52.5t-28 -41.5t-31 -30t-40 -23.5t-38 -17t-41 -14.5q-5 -2 -8 -3q-56 -18 -85 -51t-29 -108v-115h323v-80h-395z" />
<glyph unicode="&#xbe;" horiz-adv-x="1454" d="M123 1014h65q0 -89 36 -123.5t100 -34.5q59 0 99 41.5t40 122.5q0 65 -44.5 110.5t-105.5 47.5h-55v75h55q60 0 99 31.5t39 97.5q0 131 -127 131q-113 0 -113 -135h-74q0 101 51 155t136 54q88 0 143 -52t55 -153q0 -62 -29.5 -105.5t-82.5 -64.5q60 -33 93.5 -77 t33.5 -111q0 -122 -61 -180t-152 -58q-45 0 -78.5 9.5t-63 33t-44.5 70t-15 115.5zM303 -4l750 1577h86l-754 -1577h-82zM795 238l342 575h82v-539h92v-77h-92v-197h-78v197h-328zM907 274h234l4 414z" />
<glyph unicode="&#xbf;" horiz-adv-x="911" d="M66 37v135q0 96 21 167.5t55 114.5t75 78t82.5 67t75.5 71t55 102t21 148h98q0 -96 -21.5 -167.5t-55.5 -114.5t-75 -77.5t-82.5 -66.5t-75.5 -70.5t-55.5 -101t-21.5 -146.5v-137q0 -182 60.5 -251t213.5 -69q146 0 215.5 59t69.5 208h92q0 -357 -377 -357 q-80 0 -142 16.5t-101 47.5t-65.5 68t-39 86.5t-17.5 92.5t-5 97zM424 1161q0 34 23.5 53.5t52 20t52 -19t23.5 -54.5q0 -34 -23.5 -53.5t-52 -20t-52 19t-23.5 54.5z" />
<glyph unicode="&#xc0;" horiz-adv-x="960" d="M18 -2l406 1577h113l405 -1577h-108l-103 391h-506l-100 -391h-107zM250 485h459l-226 940h-2zM322 1911v6h114l101 -242v-10h-86z" />
<glyph unicode="&#xc1;" horiz-adv-x="960" d="M18 -2l406 1577h113l405 -1577h-108l-103 391h-506l-100 -391h-107zM250 485h459l-226 940h-2zM422 1663v10l100 242h115v-6l-129 -246h-86z" />
<glyph unicode="&#xc2;" horiz-adv-x="960" d="M18 -2l406 1577h113l405 -1577h-108l-103 391h-506l-100 -391h-107zM197 1649v8l256 233h63l256 -233v-8h-108l-181 161l-178 -161h-108zM250 485h459l-226 940h-2z" />
<glyph unicode="&#xc3;" horiz-adv-x="960" d="M18 -2l406 1577h113l405 -1577h-108l-103 391h-506l-100 -391h-107zM207 1710q31 77 94 112t148 -1l92 -41q18 -6 25.5 -8t23 -5t24.5 -1t21 7t20 17.5t15 30.5l78 -19q-10 -48 -33.5 -78.5t-55.5 -41t-67 -8t-72 17.5l-90 41q-98 43 -147 -54zM250 485h459l-226 940h-2z " />
<glyph unicode="&#xc4;" horiz-adv-x="960" d="M18 -2l406 1577h113l405 -1577h-108l-103 391h-506l-100 -391h-107zM221 1731q0 34 23.5 53.5t51.5 20t51.5 -19t23.5 -54.5q0 -44 -37.5 -63t-75 -0.5t-37.5 63.5zM250 485h459l-226 940h-2zM594 1731q0 34 23.5 53.5t51 20t51 -19t23.5 -54.5q0 -33 -23.5 -52.5 t-51 -19.5t-51 19t-23.5 53z" />
<glyph unicode="&#xc5;" horiz-adv-x="960" d="M18 -2l390 1515q-53 18 -84 62t-31 108q0 85 54.5 133t131.5 48q74 0 130.5 -47t56.5 -131q0 -62 -31.5 -106t-83.5 -64l391 -1518h-108l-103 391h-506l-100 -391h-107zM250 485h459l-226 940h-2zM364.5 1688q-1.5 -40 26 -74.5t76.5 -38.5h12q55 0 86 34t30 75.5 t-32 75.5t-84 34q-52 0 -82.5 -33t-32 -73z" />
<glyph unicode="&#xc6;" horiz-adv-x="1316" d="M8 -2l617 1583h585v-90h-465v-598h422v-96h-422v-697h506v-100h-608v387h-375l-149 -389h-111zM303 485h340l4 899z" />
<glyph unicode="&#xc7;" horiz-adv-x="1071" d="M121 508v559q0 112 10.5 191.5t39.5 148t78.5 109.5t127.5 63.5t188 22.5q121 0 201.5 -25t128 -80t67 -131t19.5 -188h-96q0 88 -14 147t-49 102.5t-98 63.5t-159 20q-68 0 -120.5 -11.5t-88.5 -29.5t-61.5 -50.5t-39.5 -64.5t-22 -82t-10 -92.5t-2 -105.5v-563 q0 -66 2 -110t10 -94t22 -81t39.5 -62t61.5 -47.5t88.5 -27t120.5 -10.5q79 0 134.5 13.5t90.5 38t56 67.5t29.5 92t11.5 123h94q-4 -107 -22 -179.5t-58.5 -129t-111.5 -85t-177 -32.5l-20 -99q55 -1 96 -22.5t62 -55t28.5 -71t1.5 -72.5q-17 -90 -79 -132t-156 -36 q-132 8 -191 109l47 59q22 -40 66 -65t84 -25q71 0 104.5 24t44.5 70q6 27 -1 55.5t-29.5 53.5t-64.5 34t-105 -3l39 174q-126 3 -208.5 35t-128.5 100t-63.5 158.5t-17.5 228.5z" />
<glyph unicode="&#xc8;" d="M143 0v1585h715v-94h-612v-598h551v-96h-551v-697h653v-100h-756zM383 1925v6h115l100 -241v-11h-86z" />
<glyph unicode="&#xc9;" d="M143 0v1585h715v-94h-612v-598h551v-96h-551v-697h653v-100h-756zM473 1673v10l100 242h115v-6l-129 -246h-86z" />
<glyph unicode="&#xca;" d="M143 0v1585h715v-94h-612v-598h551v-96h-551v-697h653v-100h-756zM229 1688v8l256 233h64l256 -233v-8h-109l-180 161l-178 -161h-109z" />
<glyph unicode="&#xcb;" d="M143 0v1585h715v-94h-612v-598h551v-96h-551v-697h653v-100h-756zM262 1778q0 34 23.5 53.5t51.5 20t51.5 -19t23.5 -54.5q0 -44 -37.5 -63t-75 -0.5t-37.5 63.5zM635 1778q0 34 23.5 53.5t51 20t51 -19t23.5 -54.5q0 -44 -37 -63t-74.5 -0.5t-37.5 63.5z" />
<glyph unicode="&#xcc;" horiz-adv-x="395" d="M37 1927v6h115l100 -241v-11h-86zM143 -2v1585h109v-1585h-109z" />
<glyph unicode="&#xcd;" horiz-adv-x="395" d="M143 -2v1585h109v-1585h-109zM145 1677v11l101 241h114v-6l-129 -246h-86z" />
<glyph unicode="&#xce;" horiz-adv-x="395" d="M-90 1663v8l256 234h63l256 -234v-8h-108l-180 162l-179 -162h-108zM143 -2v1585h109v-1585h-109z" />
<glyph unicode="&#xcf;" horiz-adv-x="395" d="M-23 1767q0 34 23.5 53.5t51.5 20t51.5 -19t23.5 -54.5q0 -44 -37.5 -63t-75 -0.5t-37.5 63.5zM143 -2v1585h109v-1585h-109zM281 1767q0 34 23.5 53.5t51 20t51 -19t23.5 -54.5q0 -44 -37 -63t-74.5 -0.5t-37.5 63.5z" />
<glyph unicode="&#xd0;" horiz-adv-x="1095" d="M0 778v96h145v711h387q96 0 167.5 -13t122 -43.5t82.5 -71t50.5 -104t25.5 -134.5t7 -170v-527q0 -113 -12 -193t-41.5 -145.5t-82 -104t-132 -59t-191.5 -20.5h-383v778h-145zM248 100h280q57 0 103 6t81.5 15.5t62 28t45 36.5t30.5 49t19 56.5t10.5 68.5t4.5 75.5 t1 86.5v531q0 71 -1.5 112t-8.5 94t-21.5 83t-40 63t-63.5 49.5t-93.5 27.5t-128.5 11h-280v-619h313v-96h-313v-678z" />
<glyph unicode="&#xd1;" horiz-adv-x="1046" d="M141 2v1583h109l561 -1360h4l-18 563v797h108v-1583h-119l-546 1346h-4l14 -496v-850h-109zM258 1759q31 77 94 112t148 -1l92 -41q18 -6 25.5 -8t23 -5t24.5 -1t21 7t20 17.5t15 30.5l78 -19q-10 -48 -33.5 -78.5t-55.5 -41t-67 -8t-72 17.5l-90 41q-99 43 -147 -53z " />
<glyph unicode="&#xd2;" horiz-adv-x="1165" d="M121 506v571q0 115 11.5 194t40.5 144.5t81 103.5t132 58t194 20q142 0 232 -29t140 -96.5t68 -159.5t18 -237v-567q0 -112 -11.5 -191.5t-41.5 -145.5t-82 -104.5t-131.5 -59.5t-191.5 -21q-94 0 -164.5 13.5t-121.5 43t-84.5 70.5t-53 101.5t-27.5 129.5t-8 162z M223 512q0 -66 1.5 -105t9 -91t21 -82t39.5 -63t64 -50.5t93.5 -29t128.5 -11.5q57 0 103.5 7t81 17t61.5 30.5t45 39.5t30.5 51.5t19 58.5t10 69t4.5 75t1 84v559q0 69 -1.5 109t-8.5 92.5t-21 82t-39.5 62t-63.5 48.5t-93.5 27t-128.5 11q-57 0 -103 -6.5t-81.5 -16 t-62 -29t-45 -38t-30.5 -50.5t-19 -58t-10.5 -69.5t-4.5 -77t-1 -87.5v-559zM432 1958v6h115l100 -242v-10h-86z" />
<glyph unicode="&#xd3;" horiz-adv-x="1165" d="M121 506v571q0 115 11.5 194t40.5 144.5t81 103.5t132 58t194 20q142 0 232 -29t140 -96.5t68 -159.5t18 -237v-567q0 -112 -11.5 -191.5t-41.5 -145.5t-82 -104.5t-131.5 -59.5t-191.5 -21q-94 0 -164.5 13.5t-121.5 43t-84.5 70.5t-53 101.5t-27.5 129.5t-8 162z M223 512q0 -66 1.5 -105t9 -91t21 -82t39.5 -63t64 -50.5t93.5 -29t128.5 -11.5q57 0 103.5 7t81 17t61.5 30.5t45 39.5t30.5 51.5t19 58.5t10 69t4.5 75t1 84v559q0 69 -1.5 109t-8.5 92.5t-21 82t-39.5 62t-63.5 48.5t-93.5 27t-128.5 11q-57 0 -103 -6.5t-81.5 -16 t-62 -29t-45 -38t-30.5 -50.5t-19 -58t-10.5 -69.5t-4.5 -77t-1 -87.5v-559zM518 1704v10l100 242h115v-6l-129 -246h-86z" />
<glyph unicode="&#xd4;" horiz-adv-x="1165" d="M121 506v571q0 115 11.5 194t40.5 144.5t81 103.5t132 58t194 20q142 0 232 -29t140 -96.5t68 -159.5t18 -237v-567q0 -112 -11.5 -191.5t-41.5 -145.5t-82 -104.5t-131.5 -59.5t-191.5 -21q-94 0 -164.5 13.5t-121.5 43t-84.5 70.5t-53 101.5t-27.5 129.5t-8 162z M223 512q0 -66 1.5 -105t9 -91t21 -82t39.5 -63t64 -50.5t93.5 -29t128.5 -11.5q57 0 103.5 7t81 17t61.5 30.5t45 39.5t30.5 51.5t19 58.5t10 69t4.5 75t1 84v559q0 69 -1.5 109t-8.5 92.5t-21 82t-39.5 62t-63.5 48.5t-93.5 27t-128.5 11q-57 0 -103 -6.5t-81.5 -16 t-62 -29t-45 -38t-30.5 -50.5t-19 -58t-10.5 -69.5t-4.5 -77t-1 -87.5v-559zM301 1694v8l256 233h64l256 -233v-8h-109l-180 161l-178 -161h-109z" />
<glyph unicode="&#xd5;" horiz-adv-x="1165" d="M121 506v571q0 115 11.5 194t40.5 144.5t81 103.5t132 58t194 20q142 0 232 -29t140 -96.5t68 -159.5t18 -237v-567q0 -112 -11.5 -191.5t-41.5 -145.5t-82 -104.5t-131.5 -59.5t-191.5 -21q-94 0 -164.5 13.5t-121.5 43t-84.5 70.5t-53 101.5t-27.5 129.5t-8 162z M223 512q0 -66 1.5 -105t9 -91t21 -82t39.5 -63t64 -50.5t93.5 -29t128.5 -11.5q57 0 103.5 7t81 17t61.5 30.5t45 39.5t30.5 51.5t19 58.5t10 69t4.5 75t1 84v559q0 69 -1.5 109t-8.5 92.5t-21 82t-39.5 62t-63.5 48.5t-93.5 27t-128.5 11q-57 0 -103 -6.5t-81.5 -16 t-62 -29t-45 -38t-30.5 -50.5t-19 -58t-10.5 -69.5t-4.5 -77t-1 -87.5v-559zM330 1769q31 77 93.5 112t147.5 -1l93 -41q18 -6 25.5 -8t23 -5t24.5 -1t21 7t20 17.5t15 30.5l77 -18q-10 -48 -33.5 -78.5t-55 -41.5t-67 -8.5t-71.5 17.5l-90 41q-99 43 -147 -53z" />
<glyph unicode="&#xd6;" horiz-adv-x="1165" d="M121 506v571q0 115 11.5 194t40.5 144.5t81 103.5t132 58t194 20q142 0 232 -29t140 -96.5t68 -159.5t18 -237v-567q0 -112 -11.5 -191.5t-41.5 -145.5t-82 -104.5t-131.5 -59.5t-191.5 -21q-94 0 -164.5 13.5t-121.5 43t-84.5 70.5t-53 101.5t-27.5 129.5t-8 162z M223 512q0 -66 1.5 -105t9 -91t21 -82t39.5 -63t64 -50.5t93.5 -29t128.5 -11.5q57 0 103.5 7t81 17t61.5 30.5t45 39.5t30.5 51.5t19 58.5t10 69t4.5 75t1 84v559q0 69 -1.5 109t-8.5 92.5t-21 82t-39.5 62t-63.5 48.5t-93.5 27t-128.5 11q-57 0 -103 -6.5t-81.5 -16 t-62 -29t-45 -38t-30.5 -50.5t-19 -58t-10.5 -69.5t-4.5 -77t-1 -87.5v-559zM330 1792q0 34 23.5 53.5t51 20t51 -19t23.5 -54.5q0 -44 -37 -63t-74.5 -0.5t-37.5 63.5zM702 1792q0 34 23.5 53.5t51.5 20t51.5 -19t23.5 -54.5q0 -44 -37.5 -63t-75 -0.5t-37.5 63.5z" />
<glyph unicode="&#xd7;" horiz-adv-x="819" d="M133 381l232 231l-232 232l66 65l231 -231l232 231l65 -63l-233 -232l231 -231l-68 -66l-231 232l-231 -234z" />
<glyph unicode="&#xd8;" horiz-adv-x="1165" d="M121 506v571q0 115 11.5 194t40.5 144.5t81 103.5t132 58t194 20q162 0 251 -38l62 153h98l-80 -199q72 -59 99.5 -163.5t27.5 -274.5v-567q0 -112 -11.5 -191.5t-41.5 -145.5t-82 -104.5t-131.5 -59.5t-191.5 -21q-163 0 -261 43l-57 -148h-98l78 197q-67 60 -94 163 t-27 265zM223 512q0 -128 11 -203t51 -127l510 1284q-75 37 -215 37q-57 0 -103 -6.5t-81.5 -16t-62 -29t-45 -38t-30.5 -50.5t-19 -58t-10.5 -69.5t-4.5 -77t-1 -87.5v-559zM356 121q77 -41 224 -41q57 0 103.5 7t81 17t61.5 30.5t45 39.5t30.5 51.5t19 58.5t10 69t4.5 75 t1 84v559q0 131 -12 209.5t-54 130.5z" />
<glyph unicode="&#xd9;" horiz-adv-x="1110" d="M123 512v1073h104v-1073q0 -65 2 -108.5t9.5 -92t21 -79.5t37 -61t57.5 -46.5t83 -26.5t112 -10t111.5 10t82.5 26.5t57.5 46.5t37 61t21 79.5t9.5 92t2 108.5v1073h105v-1073q0 -112 -10 -189t-36.5 -143t-74 -104t-123 -59t-182.5 -21t-182.5 21t-123 59t-74 104 t-36.5 143t-10 189zM414 1944v6h114l101 -242v-10h-86z" />
<glyph unicode="&#xda;" horiz-adv-x="1110" d="M123 512v1073h104v-1073q0 -65 2 -108.5t9.5 -92t21 -79.5t37 -61t57.5 -46.5t83 -26.5t112 -10t111.5 10t82.5 26.5t57.5 46.5t37 61t21 79.5t9.5 92t2 108.5v1073h105v-1073q0 -112 -10 -189t-36.5 -143t-74 -104t-123 -59t-182.5 -21t-182.5 21t-123 59t-74 104 t-36.5 143t-10 189zM492 1688v10l100 241h115v-6l-129 -245h-86z" />
<glyph unicode="&#xdb;" horiz-adv-x="1110" d="M123 512v1073h104v-1073q0 -65 2 -108.5t9.5 -92t21 -79.5t37 -61t57.5 -46.5t83 -26.5t112 -10t111.5 10t82.5 26.5t57.5 46.5t37 61t21 79.5t9.5 92t2 108.5v1073h105v-1073q0 -112 -10 -189t-36.5 -143t-74 -104t-123 -59t-182.5 -21t-182.5 21t-123 59t-74 104 t-36.5 143t-10 189zM270 1686v8l256 233h64l256 -233v-8h-109l-180 161l-178 -161h-109z" />
<glyph unicode="&#xdc;" horiz-adv-x="1110" d="M123 512v1073h104v-1073q0 -65 2 -108.5t9.5 -92t21 -79.5t37 -61t57.5 -46.5t83 -26.5t112 -10t111.5 10t82.5 26.5t57.5 46.5t37 61t21 79.5t9.5 92t2 108.5v1073h105v-1073q0 -112 -10 -189t-36.5 -143t-74 -104t-123 -59t-182.5 -21t-182.5 21t-123 59t-74 104 t-36.5 143t-10 189zM293 1761q0 34 23.5 53.5t51 20t51 -19t23.5 -54.5q0 -44 -37 -63t-74.5 -0.5t-37.5 63.5zM666 1761q0 34 23.5 53.5t51 20t51 -19t23.5 -54.5q0 -33 -23.5 -52.5t-51 -19.5t-51 19t-23.5 53z" />
<glyph unicode="&#xdd;" horiz-adv-x="806" d="M-4 1585h119l145 -387l141 -407l144 407l149 387h119l-356 -911v-676h-111v676zM342 1651v10l100 242h115v-7l-129 -245h-86z" />
<glyph unicode="&#xde;" horiz-adv-x="983" d="M143 0v1581h109v-270h272q102 0 169 -19t116.5 -67.5t71.5 -135.5t22 -221v-139q0 -170 -42 -268.5t-122.5 -138t-214.5 -39.5h-272v-283h-109zM252 381h272q162 0 219.5 76t57.5 270v131q0 81 -6 134.5t-23 98.5t-48.5 69.5t-80 38t-119.5 13.5h-272v-831z" />
<glyph unicode="&#xdf;" horiz-adv-x="1050" d="M119 0l2 1206q0 373 340 373q81 0 143.5 -22.5t100 -59t61.5 -88t32.5 -103t8.5 -110.5q0 -130 -34.5 -207.5t-117.5 -126.5q80 -20 137.5 -63.5t87 -101.5t42 -116t12.5 -122q0 -89 -13.5 -157.5t-46.5 -127.5t-87 -97t-136.5 -59.5t-193.5 -21.5h-99v102h99 q73 0 129.5 9.5t95 24.5t66 41.5t43 52t24.5 65.5t11.5 72t4.5 81q0 46 -4 80.5t-16 77.5t-37.5 73.5t-65 57.5t-103.5 41t-148 14h-92v101h26q178 3 244.5 74t66.5 229q0 46 -4 81t-18.5 75.5t-40 67.5t-71.5 45.5t-109 19.5q-59 0 -103 -16t-69 -41t-40 -63.5t-19.5 -75.5 t-4.5 -85v-1200h-104z" />
<glyph unicode="&#xe0;" horiz-adv-x="991" d="M88 307q0 109 46.5 181t134 106t212.5 44t283 -5v172q2 160 -59 231.5t-201 71.5q-67 0 -113 -12t-80.5 -43t-50.5 -86.5t-16 -139.5h-99q0 192 84 282.5t275 90.5q184 0 271 -93t87 -300v-807h-86l-2 160q-59 -96 -142 -133t-210 -37q-156 0 -245 77t-89 240zM190 305 q0 -114 66 -166.5t203 -52.5q65 0 118.5 19t87.5 49.5t57 70t32.5 78.5t9.5 78v154q-298 30 -436 -23t-138 -207zM356 1577v6h115l100 -242v-10h-86z" />
<glyph unicode="&#xe1;" horiz-adv-x="991" d="M88 307q0 109 46.5 181t134 106t212.5 44t283 -5v172q2 160 -59 231.5t-201 71.5q-67 0 -113 -12t-80.5 -43t-50.5 -86.5t-16 -139.5h-99q0 192 84 282.5t275 90.5q184 0 271 -93t87 -300v-807h-86l-2 160q-59 -96 -142 -133t-210 -37q-156 0 -245 77t-89 240zM190 305 q0 -114 66 -166.5t203 -52.5q65 0 118.5 19t87.5 49.5t57 70t32.5 78.5t9.5 78v154q-298 30 -436 -23t-138 -207zM455 1331v10l100 242h115v-6l-129 -246h-86z" />
<glyph unicode="&#xe2;" horiz-adv-x="991" d="M88 307q0 109 46.5 181t134 106t212.5 44t283 -5v172q2 160 -59 231.5t-201 71.5q-67 0 -113 -12t-80.5 -43t-50.5 -86.5t-16 -139.5h-99q0 192 84 282.5t275 90.5q184 0 271 -93t87 -300v-807h-86l-2 160q-59 -96 -142 -133t-210 -37q-156 0 -245 77t-89 240zM190 305 q0 -114 66 -166.5t203 -52.5q65 0 118.5 19t87.5 49.5t57 70t32.5 78.5t9.5 78v154q-298 30 -436 -23t-138 -207zM244 1341v9l239 231h58l239 -231v-9h-100l-168 162l-168 -162h-100z" />
<glyph unicode="&#xe3;" horiz-adv-x="991" d="M88 307q0 109 46.5 181t134 106t212.5 44t283 -5v172q2 160 -59 231.5t-201 71.5q-67 0 -113 -12t-80.5 -43t-50.5 -86.5t-16 -139.5h-99q0 192 84 282.5t275 90.5q184 0 271 -93t87 -300v-807h-86l-2 160q-59 -96 -142 -133t-210 -37q-156 0 -245 77t-89 240zM190 305 q0 -114 66 -166.5t203 -52.5q65 0 118.5 19t87.5 49.5t57 70t32.5 78.5t9.5 78v154q-298 30 -436 -23t-138 -207zM238 1444q31 76 93.5 111t147.5 -1l92 -41q18 -6 25.5 -8t23 -5t24.5 -1t21 7t20 17.5t15 30.5l78 -18q-10 -48 -33.5 -78.5t-55 -41.5t-67 -8.5t-71.5 17.5 l-90 41q-100 44 -148 -53z" />
<glyph unicode="&#xe4;" horiz-adv-x="991" d="M88 307q0 109 46.5 181t134 106t212.5 44t283 -5v172q2 160 -59 231.5t-201 71.5q-67 0 -113 -12t-80.5 -43t-50.5 -86.5t-16 -139.5h-99q0 192 84 282.5t275 90.5q184 0 271 -93t87 -300v-807h-86l-2 160q-59 -96 -142 -133t-210 -37q-156 0 -245 77t-89 240zM190 305 q0 -114 66 -166.5t203 -52.5q65 0 118.5 19t87.5 49.5t57 70t32.5 78.5t9.5 78v154q-298 30 -436 -23t-138 -207zM252 1456q0 34 23.5 53.5t51 20t51 -19t23.5 -54.5q0 -44 -37 -63t-74.5 -0.5t-37.5 63.5zM625 1456q0 34 23.5 53.5t51 20t51 -19t23.5 -54.5q0 -44 -37 -63 t-74.5 -0.5t-37.5 63.5z" />
<glyph unicode="&#xe5;" horiz-adv-x="991" d="M88 307q0 109 46.5 181t134 106t212.5 44t283 -5v172q2 160 -59 231.5t-201 71.5q-67 0 -113 -12t-80.5 -43t-50.5 -86.5t-16 -139.5h-99q0 192 84 282.5t275 90.5q184 0 271 -93t87 -300v-807h-86l-2 160q-59 -96 -142 -133t-210 -37q-156 0 -245 77t-89 240zM190 305 q0 -114 66 -166.5t203 -52.5q65 0 118.5 19t87.5 49.5t57 70t32.5 78.5t9.5 78v154q-298 30 -436 -23t-138 -207zM332 1464q0 83 56.5 130.5t135.5 47.5t138 -46.5t59 -129.5q0 -84 -57.5 -132t-141.5 -48q-83 0 -137 47.5t-53 130.5zM404.5 1430.5q7.5 -33.5 40 -57 t79.5 -23.5q61 0 95 36t33.5 78.5t-34.5 78.5t-94 36q-47 0 -79.5 -23.5t-40 -57.5t0 -67.5z" />
<glyph unicode="&#xe6;" horiz-adv-x="1556" d="M102 307q0 110 40 181t120 106t199 44t276 -5v172q2 168 -45 238.5t-182 70.5q-134 0 -193 -61.5t-59 -225.5h-98q0 194 80.5 286.5t269.5 92.5q113 0 179.5 -40.5t98.5 -135.5q58 182 306 182q102 0 170.5 -29t107 -89t54.5 -139.5t16 -194.5v-178h-606v-170 q0 -182 54 -254t204 -72q64 0 109 12t70.5 31t39.5 52t18 65t4 80h92q0 -168 -77.5 -250t-255.5 -82q-126 0 -204.5 41t-115.5 133q-56 -97 -140 -137.5t-200 -40.5q-156 0 -244 77t-88 240zM205 305q0 -114 65 -166.5t201 -52.5q103 0 171 55.5t101 149.5q-6 55 -6 123v121 q-294 29 -413 -22t-119 -208zM834 838q0 -5 1 -15.5t1 -15.5v-131h516v82q0 51 -1.5 87.5t-8 77.5t-17 69t-30 55t-46.5 43t-66 26t-89 10q-74 0 -123 -16.5t-78 -53.5t-42 -88.5t-17 -129.5z" />
<glyph unicode="&#xe7;" horiz-adv-x="946" d="M102 438v318q0 243 94 345.5t293 102.5q190 0 271.5 -83.5t89.5 -260.5h-96q-3 59 -16 101.5t-41.5 77t-80.5 52t-127 17.5q-160 0 -222 -80t-62 -272v-312q0 -98 11.5 -161t41.5 -109.5t84 -67t139 -20.5q83 0 138 17.5t84.5 54.5t41 83t13.5 115h96q0 -179 -84 -269.5 t-254 -98.5l-16 -84q64 -1 106 -34.5t55 -76.5t5 -86q-13 -69 -60 -111t-103.5 -49t-113.5 17t-90 76l41 59q20 -31 57 -51.5t75.5 -23.5t73 18.5t48.5 68.5q5 22 -1 45.5t-25 45.5t-56 29t-94 -3l33 160q-181 8 -265 112.5t-84 337.5z" />
<glyph unicode="&#xe8;" horiz-adv-x="964" d="M109 438v322q0 242 90.5 347t287.5 105q203 0 286 -105.5t83 -346.5v-178h-649v-136q0 -192 59.5 -276t220.5 -84q80 0 133 17t81 51t38.5 74.5t10.5 97.5h92q0 -332 -355 -332q-197 0 -287.5 102t-90.5 342zM207 676h559v82q0 94 -10.5 155.5t-39.5 113t-85.5 75.5 t-143.5 24q-161 0 -220.5 -83t-59.5 -279v-88zM344 1577v6h115l100 -242v-10h-86z" />
<glyph unicode="&#xe9;" horiz-adv-x="964" d="M109 438v322q0 242 90.5 347t287.5 105q203 0 286 -105.5t83 -346.5v-178h-649v-136q0 -192 59.5 -276t220.5 -84q80 0 133 17t81 51t38.5 74.5t10.5 97.5h92q0 -332 -355 -332q-197 0 -287.5 102t-90.5 342zM207 676h559v82q0 94 -10.5 155.5t-39.5 113t-85.5 75.5 t-143.5 24q-161 0 -220.5 -83t-59.5 -279v-88zM440 1331v10l101 242h114v-6l-129 -246h-86z" />
<glyph unicode="&#xea;" horiz-adv-x="964" d="M109 438v322q0 242 90.5 347t287.5 105q203 0 286 -105.5t83 -346.5v-178h-649v-136q0 -192 59.5 -276t220.5 -84q80 0 133 17t81 51t38.5 74.5t10.5 97.5h92q0 -332 -355 -332q-197 0 -287.5 102t-90.5 342zM207 676h559v82q0 94 -10.5 155.5t-39.5 113t-85.5 75.5 t-143.5 24q-161 0 -220.5 -83t-59.5 -279v-88zM217 1341v9l246 252h61l246 -252v-9h-104l-174 175l-170 -175h-105z" />
<glyph unicode="&#xeb;" horiz-adv-x="964" d="M109 438v322q0 242 90.5 347t287.5 105q203 0 286 -105.5t83 -346.5v-178h-649v-136q0 -192 59.5 -276t220.5 -84q80 0 133 17t81 51t38.5 74.5t10.5 97.5h92q0 -332 -355 -332q-197 0 -287.5 102t-90.5 342zM207 676h559v82q0 94 -10.5 155.5t-39.5 113t-85.5 75.5 t-143.5 24q-161 0 -220.5 -83t-59.5 -279v-88zM240 1446q0 34 23.5 53.5t51 20t51 -19t23.5 -54.5q0 -44 -37 -63t-74.5 -0.5t-37.5 63.5zM612 1446q0 34 23.5 53.5t51.5 20t51.5 -19t23.5 -54.5q0 -44 -37.5 -63t-75 -0.5t-37.5 63.5z" />
<glyph unicode="&#xec;" horiz-adv-x="399" d="M41 1583v6h115l100 -241v-11h-86zM152 0v1208h100v-1208h-100z" />
<glyph unicode="&#xed;" horiz-adv-x="413" d="M156 1331v10l100 242h115v-6l-129 -246h-86zM158 0v1208h100v-1208h-100z" />
<glyph unicode="&#xee;" horiz-adv-x="421" d="M6 1315v8l187 262h47l186 -262v-8h-86l-125 168l-123 -168h-86zM166 0v1208h100v-1208h-100z" />
<glyph unicode="&#xef;" horiz-adv-x="417" d="M-2 1505q0 34 23.5 53.5t51 20t51 -19t23.5 -54.5q0 -44 -37 -63t-74.5 -0.5t-37.5 63.5zM158 0v1208h100v-1208h-100zM268 1505q0 34 23.5 53.5t51.5 20t51.5 -19t23.5 -54.5q0 -44 -37.5 -63t-75 -0.5t-37.5 63.5z" />
<glyph unicode="&#xf0;" horiz-adv-x="1011" d="M123 434v277q0 239 83.5 344.5t246.5 105.5q154 0 231 -51q-61 115 -147 225l-113 -67l-41 59l106 66q-97 111 -204 182l2 8h135q70 -65 145 -143l133 82l41 -60l-127 -78q267 -317 267 -667v-283q0 -130 -22.5 -217t-71 -138t-117 -72t-168.5 -21q-198 0 -288.5 102 t-90.5 346zM225 438q0 -196 58 -277t219 -81q88 0 142.5 19t84 66.5t39.5 110t10 166.5v273q0 189 -68.5 273.5t-230.5 84.5q-80 -2 -130 -22.5t-77.5 -68t-37 -109.5t-9.5 -162v-273z" />
<glyph unicode="&#xf1;" horiz-adv-x="1069" d="M162 0v1194h90l8 -131q93 149 301 149q207 0 287 -99.5t80 -336.5v-776h-103v776q0 201 -57 273.5t-217 72.5q-77 0 -135 -25t-90 -67t-47 -91t-15 -103v-836h-102zM283 1462q31 77 93.5 112t147.5 -1l92 -41q18 -6 25.5 -8t23 -5t24.5 -1t21 7t20 17.5t15 30.5l78 -19 q-10 -48 -33.5 -78.5t-55 -41t-66.5 -8t-72 17.5l-90 41q-100 44 -148 -53z" />
<glyph unicode="&#xf2;" horiz-adv-x="962" d="M102 434v328q0 167 42 266t123 139.5t214 40.5q100 0 168.5 -21t117 -72.5t71 -139.5t22.5 -219v-322q0 -244 -90.5 -346t-288.5 -102q-100 0 -168.5 21t-117 72t-71 138t-22.5 217zM205 442q0 -104 10 -166.5t39.5 -110t84 -66.5t142.5 -19q161 0 219 81t58 277v318 q0 83 -6.5 137t-23 99t-48 69.5t-80 37.5t-119.5 13q-83 0 -136.5 -19t-84.5 -63.5t-43 -107.5t-12 -162v-318zM346 1577v6h115l100 -242v-10h-86z" />
<glyph unicode="&#xf3;" horiz-adv-x="962" d="M102 434v328q0 167 42 266t123 139.5t214 40.5q100 0 168.5 -21t117 -72.5t71 -139.5t22.5 -219v-322q0 -244 -90.5 -346t-288.5 -102q-100 0 -168.5 21t-117 72t-71 138t-22.5 217zM205 442q0 -104 10 -166.5t39.5 -110t84 -66.5t142.5 -19q161 0 219 81t58 277v318 q0 83 -6.5 137t-23 99t-48 69.5t-80 37.5t-119.5 13q-83 0 -136.5 -19t-84.5 -63.5t-43 -107.5t-12 -162v-318zM436 1331v10l101 242h114v-6l-129 -246h-86z" />
<glyph unicode="&#xf4;" horiz-adv-x="962" d="M102 434v328q0 167 42 266t123 139.5t214 40.5q100 0 168.5 -21t117 -72.5t71 -139.5t22.5 -219v-322q0 -244 -90.5 -346t-288.5 -102q-100 0 -168.5 21t-117 72t-71 138t-22.5 217zM205 442q0 -104 10 -166.5t39.5 -110t84 -66.5t142.5 -19q161 0 219 81t58 277v318 q0 83 -6.5 137t-23 99t-48 69.5t-80 37.5t-119.5 13q-83 0 -136.5 -19t-84.5 -63.5t-43 -107.5t-12 -162v-318zM225 1335v8l238 259h59l238 -259v-8h-101l-167 178l-166 -178h-101z" />
<glyph unicode="&#xf5;" horiz-adv-x="962" d="M102 434v328q0 167 42 266t123 139.5t214 40.5q100 0 168.5 -21t117 -72.5t71 -139.5t22.5 -219v-322q0 -244 -90.5 -346t-288.5 -102q-100 0 -168.5 21t-117 72t-71 138t-22.5 217zM205 442q0 -104 10 -166.5t39.5 -110t84 -66.5t142.5 -19q161 0 219 81t58 277v318 q0 83 -6.5 137t-23 99t-48 69.5t-80 37.5t-119.5 13q-83 0 -136.5 -19t-84.5 -63.5t-43 -107.5t-12 -162v-318zM233 1448q29 75 89 108.5t141 -2.5l88 -38q22 -7 29.5 -9.5t25.5 -5t27.5 2t21 17t19.5 33.5l74 -16q-10 -47 -32.5 -77t-53 -40t-64 -7.5t-68.5 16.5l-86 40 q-93 41 -139 -53z" />
<glyph unicode="&#xf6;" horiz-adv-x="962" d="M102 434v328q0 167 42 266t123 139.5t214 40.5q100 0 168.5 -21t117 -72.5t71 -139.5t22.5 -219v-322q0 -244 -90.5 -346t-288.5 -102q-100 0 -168.5 21t-117 72t-71 138t-22.5 217zM205 442q0 -104 10 -166.5t39.5 -110t84 -66.5t142.5 -19q161 0 219 81t58 277v318 q0 83 -6.5 137t-23 99t-48 69.5t-80 37.5t-119.5 13q-83 0 -136.5 -19t-84.5 -63.5t-43 -107.5t-12 -162v-318zM238 1475q0 34 23.5 53.5t51 20t51 -19t23.5 -54.5q0 -44 -37 -63t-74.5 -0.5t-37.5 63.5zM592 1475q0 34 23.5 53.5t51 20t51 -19t23.5 -54.5 q0 -33 -23.5 -52.5t-51 -19.5t-51 19t-23.5 53z" />
<glyph unicode="&#xf7;" horiz-adv-x="851" d="M74 664h641v92h-641v-92zM330 463q0 44 35 62.5t70.5 0t35.5 -62.5q0 -43 -35.5 -61t-70.5 0t-35 61zM330 948q0 44 35 62.5t70.5 0t35.5 -62.5q0 -43 -35.5 -61t-70.5 0t-35 61z" />
<glyph unicode="&#xf8;" horiz-adv-x="962" d="M102 434v328q0 167 42 266t123 139.5t214 40.5q118 0 189 -28l57 143h88l-74 -184q119 -98 119 -383v-322q0 -244 -90.5 -346t-288.5 -102q-112 0 -186 26l-59 -149h-89l76 190q-121 93 -121 381zM205 442q0 -110 12.5 -178.5t44.5 -109.5l371 933q-61 25 -152 25 q-83 0 -136.5 -19t-84.5 -63.5t-43 -107.5t-12 -162v-318zM330 102q54 -22 151 -22q161 0 219 81t58 277v318q0 208 -56 282z" />
<glyph unicode="&#xf9;" horiz-adv-x="1044" d="M135 418v774h103v-774q0 -201 57 -273.5t217 -72.5q77 0 135 25t90 67t47 91t15 103v834h102v-1192h-90l-8 131q-93 -149 -301 -149q-207 0 -287 99.5t-80 336.5zM379 1577v6h115l100 -242v-10h-86z" />
<glyph unicode="&#xfa;" horiz-adv-x="1044" d="M135 418v774h103v-774q0 -201 57 -273.5t217 -72.5q77 0 135 25t90 67t47 91t15 103v834h102v-1192h-90l-8 131q-93 -149 -301 -149q-207 0 -287 99.5t-80 336.5zM459 1331v10l100 242h115v-6l-129 -246h-86z" />
<glyph unicode="&#xfb;" horiz-adv-x="1044" d="M135 418v774h103v-774q0 -201 57 -273.5t217 -72.5q77 0 135 25t90 67t47 91t15 103v834h102v-1192h-90l-8 131q-93 -149 -301 -149q-207 0 -287 99.5t-80 336.5zM233 1360v8l256 234h64l256 -234v-8h-109l-180 162l-178 -162h-109z" />
<glyph unicode="&#xfc;" horiz-adv-x="1044" d="M135 418v774h103v-774q0 -201 57 -273.5t217 -72.5q77 0 135 25t90 67t47 91t15 103v834h102v-1192h-90l-8 131q-93 -149 -301 -149q-207 0 -287 99.5t-80 336.5zM260 1507q0 34 23.5 53.5t51.5 20t51.5 -19t23.5 -54.5q0 -44 -37.5 -63t-75 -0.5t-37.5 63.5zM633 1507 q0 34 23.5 53.5t51 20t51 -19t23.5 -54.5q0 -44 -37 -63t-74.5 -0.5t-37.5 63.5z" />
<glyph unicode="&#xfd;" horiz-adv-x="843" d="M31 1190h112l131 -483l162 -553h2l137 553l132 483h112l-393 -1419q-44 -159 -136.5 -208.5t-250.5 1.5l35 90q110 -37 163.5 -7.5t88.5 136.5l55 211zM365 1331v10l100 242h115v-6l-129 -246h-86z" />
<glyph unicode="&#xfe;" horiz-adv-x="1017" d="M135 -373v1946h103v-473q49 56 115 81t161 25q379 0 379 -399v-414q0 -399 -379 -399q-95 0 -161 25t-115 81v-473h-103zM238 410q-2 -176 56.5 -249t219.5 -73q82 0 136.5 19.5t85 60.5t43 95.5t12.5 133.5v406q0 79 -12.5 133.5t-43 95.5t-85 60.5t-136.5 19.5 q-161 0 -219.5 -72.5t-56.5 -248.5v-381z" />
<glyph unicode="&#xff;" horiz-adv-x="843" d="M31 1190h112l131 -483l162 -553h2l137 553l132 483h112l-393 -1419q-44 -159 -136.5 -208.5t-250.5 1.5l35 90q110 -37 163.5 -7.5t88.5 136.5l55 211zM168 1456q0 34 23.5 53.5t51 20t51 -19t23.5 -54.5q0 -44 -37 -63t-74.5 -0.5t-37.5 63.5zM541 1456q0 34 23.5 53.5 t51 20t51 -19t23.5 -54.5q0 -44 -37 -63t-74.5 -0.5t-37.5 63.5z" />
<glyph unicode="&#x100;" horiz-adv-x="960" d="M18 -2l406 1577h113l405 -1577h-108l-103 391h-506l-100 -391h-107zM248 1692v92h469v-92h-469zM250 485h459l-226 940h-2z" />
<glyph unicode="&#x101;" horiz-adv-x="991" d="M88 307q0 109 46.5 181t134 106t212.5 44t283 -5v172q2 160 -59 231.5t-201 71.5q-67 0 -113 -12t-80.5 -43t-50.5 -86.5t-16 -139.5h-99q0 192 84 282.5t275 90.5q184 0 271 -93t87 -300v-807h-86l-2 160q-59 -96 -142 -133t-210 -37q-156 0 -245 77t-89 240zM190 305 q0 -114 66 -166.5t203 -52.5q65 0 118.5 19t87.5 49.5t57 70t32.5 78.5t9.5 78v154q-298 30 -436 -23t-138 -207zM279 1444v92h469v-92h-469z" />
<glyph unicode="&#x102;" horiz-adv-x="960" d="M18 -2l406 1577h113l405 -1577h-108l-103 391h-506l-100 -391h-107zM248 1894h78q9 -139 153 -139q145 0 154 139h78q-8 -214 -232 -217q-220 3 -231 217zM250 485h459l-226 940h-2z" />
<glyph unicode="&#x103;" horiz-adv-x="991" d="M88 307q0 109 46.5 181t134 106t212.5 44t283 -5v172q2 160 -59 231.5t-201 71.5q-67 0 -113 -12t-80.5 -43t-50.5 -86.5t-16 -139.5h-99q0 192 84 282.5t275 90.5q184 0 271 -93t87 -300v-807h-86l-2 160q-59 -96 -142 -133t-210 -37q-156 0 -245 77t-89 240zM190 305 q0 -114 66 -166.5t203 -52.5q65 0 118.5 19t87.5 49.5t57 70t32.5 78.5t9.5 78v154q-298 30 -436 -23t-138 -207zM279 1569h77q9 -139 154 -139t154 139h77q-8 -214 -231 -217q-220 3 -231 217z" />
<glyph unicode="&#x104;" horiz-adv-x="960" d="M18 0l406 1581h113l405 -1581q-101 -70 -142.5 -119t-41.5 -92q0 -40 27 -56t77 -16q48 0 80 4v-94q-52 -6 -103 -2t-91.5 15.5t-65.5 45.5t-25 89q0 66 52.5 129.5t119.5 105.5l-98 379h-506l-100 -389h-107zM250 485h459l-226 947h-2z" />
<glyph unicode="&#x105;" horiz-adv-x="991" d="M88 307q0 109 46.5 181t134 106t212.5 44t283 -5v172q2 160 -59 231.5t-201 71.5q-67 0 -113 -12t-80.5 -43t-50.5 -86.5t-16 -139.5h-99q0 192 84 282.5t275 90.5q184 0 271 -93t87 -300v-807q-101 -70 -142.5 -119t-41.5 -92q0 -40 27 -56t77 -16q48 0 80 4v-94 q-52 -6 -103 -2t-91 15.5t-65 45.5t-25 89q0 71 61.5 136.5t136.5 106.5l-2 142q-59 -96 -142 -133t-210 -37q-156 0 -245 77t-89 240zM190 305q0 -114 66 -166.5t203 -52.5q65 0 118.5 19t87.5 49.5t57 70t32.5 78.5t9.5 78v154q-298 30 -436 -23t-138 -207z" />
<glyph unicode="&#x106;" horiz-adv-x="1071" d="M121 508v559q0 112 10.5 191.5t39.5 148t78.5 109.5t127.5 63.5t188 22.5q121 0 201.5 -25t128 -80t67 -131t19.5 -188h-96q0 88 -14 147t-49 102.5t-98 63.5t-159 20q-68 0 -120.5 -11.5t-88.5 -29.5t-61.5 -50.5t-39.5 -64.5t-22 -82t-10 -92.5t-2 -105.5v-563 q0 -66 2 -110t10 -94t22 -81t39.5 -62t61.5 -47.5t88.5 -27t120.5 -10.5q79 0 134.5 13.5t90.5 38t56 67.5t29.5 92t11.5 123h94q-4 -113 -23.5 -188t-65.5 -131.5t-126 -82.5t-201 -26q-135 0 -222 30.5t-136 98.5t-67.5 160t-18.5 233zM508 1704v10l100 242h115v-6 l-129 -246h-86z" />
<glyph unicode="&#x107;" horiz-adv-x="946" d="M102 438v318q0 243 94 345.5t293 102.5q190 0 271.5 -83.5t89.5 -260.5h-96q-3 59 -16 101.5t-41.5 77t-80.5 52t-127 17.5q-160 0 -222 -80t-62 -272v-312q0 -98 11.5 -161t41.5 -109.5t84 -67t139 -20.5q83 0 138 17.5t84.5 54.5t41 83t13.5 115h96q0 -188 -92.5 -279 t-280.5 -91q-197 0 -288 105t-91 347zM432 1331v10l100 242h115v-6l-129 -246h-86z" />
<glyph unicode="&#x108;" horiz-adv-x="1071" d="M121 508v559q0 112 10.5 191.5t39.5 148t78.5 109.5t127.5 63.5t188 22.5q121 0 201.5 -25t128 -80t67 -131t19.5 -188h-96q0 88 -14 147t-49 102.5t-98 63.5t-159 20q-68 0 -120.5 -11.5t-88.5 -29.5t-61.5 -50.5t-39.5 -64.5t-22 -82t-10 -92.5t-2 -105.5v-563 q0 -66 2 -110t10 -94t22 -81t39.5 -62t61.5 -47.5t88.5 -27t120.5 -10.5q79 0 134.5 13.5t90.5 38t56 67.5t29.5 92t11.5 123h94q-4 -113 -23.5 -188t-65.5 -131.5t-126 -82.5t-201 -26q-135 0 -222 30.5t-136 98.5t-67.5 160t-18.5 233zM248 1751v8l256 234h63l256 -234v-8 h-108l-180 162l-179 -162h-108z" />
<glyph unicode="&#x109;" horiz-adv-x="946" d="M102 438v318q0 243 94 345.5t293 102.5q190 0 271.5 -83.5t89.5 -260.5h-96q-3 59 -16 101.5t-41.5 77t-80.5 52t-127 17.5q-160 0 -222 -80t-62 -272v-312q0 -98 11.5 -161t41.5 -109.5t84 -67t139 -20.5q83 0 138 17.5t84.5 54.5t41 83t13.5 115h96q0 -188 -92.5 -279 t-280.5 -91q-197 0 -288 105t-91 347zM229 1354v8l234 240h57l232 -240v-8h-99l-164 166l-161 -166h-99z" />
<glyph unicode="&#x10a;" horiz-adv-x="1071" d="M121 508v559q0 112 10.5 191.5t39.5 148t78.5 109.5t127.5 63.5t188 22.5q121 0 201.5 -25t128 -80t67 -131t19.5 -188h-96q0 88 -14 147t-49 102.5t-98 63.5t-159 20q-68 0 -120.5 -11.5t-88.5 -29.5t-61.5 -50.5t-39.5 -64.5t-22 -82t-10 -92.5t-2 -105.5v-563 q0 -66 2 -110t10 -94t22 -81t39.5 -62t61.5 -47.5t88.5 -27t120.5 -10.5q79 0 134.5 13.5t90.5 38t56 67.5t29.5 92t11.5 123h94q-4 -113 -23.5 -188t-65.5 -131.5t-126 -82.5t-201 -26q-135 0 -222 30.5t-136 98.5t-67.5 160t-18.5 233zM489 1827q0 29 16.5 49.5t40.5 25.5 t48 0.5t40.5 -25t16.5 -50.5q0 -29 -16.5 -49t-40.5 -25t-48 -0.5t-40.5 24.5t-16.5 50z" />
<glyph unicode="&#x10b;" horiz-adv-x="946" d="M102 438v318q0 243 94 345.5t293 102.5q190 0 271.5 -83.5t89.5 -260.5h-96q-3 59 -16 101.5t-41.5 77t-80.5 52t-127 17.5q-160 0 -222 -80t-62 -272v-312q0 -98 11.5 -161t41.5 -109.5t84 -67t139 -20.5q83 0 138 17.5t84.5 54.5t41 83t13.5 115h96q0 -188 -92.5 -279 t-280.5 -91q-197 0 -288 105t-91 347zM414 1475q0 36 25 57t55.5 21.5t55.5 -20.5t25 -58q0 -35 -25 -56t-55.5 -22t-55.5 20t-25 58z" />
<glyph unicode="&#x10c;" horiz-adv-x="1071" d="M121 508v559q0 112 10.5 191.5t39.5 148t78.5 109.5t127.5 63.5t188 22.5q121 0 201.5 -25t128 -80t67 -131t19.5 -188h-96q0 88 -14 147t-49 102.5t-98 63.5t-159 20q-68 0 -120.5 -11.5t-88.5 -29.5t-61.5 -50.5t-39.5 -64.5t-22 -82t-10 -92.5t-2 -105.5v-563 q0 -66 2 -110t10 -94t22 -81t39.5 -62t61.5 -47.5t88.5 -27t120.5 -10.5q79 0 134.5 13.5t90.5 38t56 67.5t29.5 92t11.5 123h94q-4 -113 -23.5 -188t-65.5 -131.5t-126 -82.5t-201 -26q-135 0 -222 30.5t-136 98.5t-67.5 160t-18.5 233zM315 1913v8h101l168 -149l164 149 h100v-8l-238 -215h-57z" />
<glyph unicode="&#x10d;" horiz-adv-x="946" d="M102 438v318q0 243 94 345.5t293 102.5q190 0 271.5 -83.5t89.5 -260.5h-96q-3 59 -16 101.5t-41.5 77t-80.5 52t-127 17.5q-160 0 -222 -80t-62 -272v-312q0 -98 11.5 -161t41.5 -109.5t84 -67t139 -20.5q83 0 138 17.5t84.5 54.5t41 83t13.5 115h96q0 -188 -92.5 -279 t-280.5 -91q-197 0 -288 105t-91 347zM231 1571v8h103l170 -154l168 154h104v-8l-244 -223h-59z" />
<glyph unicode="&#x10e;" horiz-adv-x="1095" d="M145 0v1585h387q96 0 167.5 -13t122 -43.5t82.5 -71t50.5 -104t25.5 -134.5t7 -170v-527q0 -113 -12 -193t-41.5 -145.5t-82 -104t-132 -59t-191.5 -20.5h-383zM236 1937v9h108l180 -162l178 162h109v-9l-256 -233h-63zM248 100h280q57 0 103 6t81.5 15.5t62 28t45 36.5 t30.5 49t19 56.5t10.5 68.5t4.5 75.5t1 86.5v531q0 71 -1.5 112t-8.5 94t-21.5 83t-40 63t-63.5 49.5t-93.5 27.5t-128.5 11h-280v-1393z" />
<glyph unicode="&#x10f;" horiz-adv-x="1167" d="M111 426v387q0 399 378 399q95 0 161.5 -25t115.5 -81v557h102v-1663h-90l-10 131q-93 -137 -297 -137q-191 0 -275.5 99.5t-84.5 332.5zM213 428q0 -100 16 -166t51 -103.5t82.5 -53t118.5 -15.5q152 3 218.5 81t66.5 230v396q2 176 -57 248.5t-220 72.5 q-82 0 -136.5 -19.5t-85 -60.5t-42.5 -95.5t-12 -133.5v-381zM1014 1268l53 360h94l-67 -360h-80z" />
<glyph unicode="&#x110;" horiz-adv-x="1095" d="M0 778v96h145v711h387q96 0 167.5 -13t122 -43.5t82.5 -71t50.5 -104t25.5 -134.5t7 -170v-527q0 -113 -12 -193t-41.5 -145.5t-82 -104t-132 -59t-191.5 -20.5h-383v778h-145zM248 100h280q57 0 103 6t81.5 15.5t62 28t45 36.5t30.5 49t19 56.5t10.5 68.5t4.5 75.5 t1 86.5v531q0 71 -1.5 112t-8.5 94t-21.5 83t-40 63t-63.5 49.5t-93.5 27.5t-128.5 11h-280v-619h313v-96h-313v-678z" />
<glyph unicode="&#x111;" horiz-adv-x="989" d="M111 426v387q0 399 378 399q95 0 161.5 -25t115.5 -81v285h-170v84h170v188h102v-188h119v-84h-119v-1391h-90l-10 131q-93 -137 -297 -137q-191 0 -275.5 99.5t-84.5 332.5zM213 428q0 -100 16 -166t51 -103.5t82.5 -53t118.5 -15.5q152 3 218.5 81t66.5 230v396 q2 176 -57 248.5t-220 72.5q-82 0 -136.5 -19.5t-85 -60.5t-42.5 -95.5t-12 -133.5v-381z" />
<glyph unicode="&#x112;" d="M143 0v1585h715v-94h-612v-598h551v-96h-551v-697h653v-100h-756zM270 1731v92h469v-92h-469z" />
<glyph unicode="&#x113;" horiz-adv-x="964" d="M109 438v322q0 242 90.5 347t287.5 105q203 0 286 -105.5t83 -346.5v-178h-649v-136q0 -192 59.5 -276t220.5 -84q80 0 133 17t81 51t38.5 74.5t10.5 97.5h92q0 -332 -355 -332q-197 0 -287.5 102t-90.5 342zM207 676h559v82q0 94 -10.5 155.5t-39.5 113t-85.5 75.5 t-143.5 24q-161 0 -220.5 -83t-59.5 -279v-88zM285 1430v81h415v-81h-415z" />
<glyph unicode="&#x114;" d="M143 0v1585h715v-94h-612v-598h551v-96h-551v-697h653v-100h-756zM283 1896h73q9 -131 146 -131q66 0 103.5 33.5t41.5 97.5h74q-8 -201 -219 -204q-208 3 -219 204z" />
<glyph unicode="&#x115;" horiz-adv-x="964" d="M109 438v322q0 242 90.5 347t287.5 105q203 0 286 -105.5t83 -346.5v-178h-649v-136q0 -192 59.5 -276t220.5 -84q80 0 133 17t81 51t38.5 74.5t10.5 97.5h92q0 -332 -355 -332q-197 0 -287.5 102t-90.5 342zM207 676h559v82q0 94 -10.5 155.5t-39.5 113t-85.5 75.5 t-143.5 24q-161 0 -220.5 -83t-59.5 -279v-88zM274 1571h76q6 -133 146 -133q138 0 147 133h74q-4 -110 -61.5 -157.5t-159.5 -49.5q-211 3 -222 207z" />
<glyph unicode="&#x116;" d="M143 0v1585h715v-94h-612v-598h551v-96h-551v-697h653v-100h-756zM436 1778q0 33 24 52.5t53 20t53 -18.5t24 -54q0 -33 -24 -52t-53 -19.5t-53 18.5t-24 53z" />
<glyph unicode="&#x117;" horiz-adv-x="964" d="M109 438v322q0 242 90.5 347t287.5 105q203 0 286 -105.5t83 -346.5v-178h-649v-136q0 -192 59.5 -276t220.5 -84q80 0 133 17t81 51t38.5 74.5t10.5 97.5h92q0 -332 -355 -332q-197 0 -287.5 102t-90.5 342zM207 676h559v82q0 94 -10.5 155.5t-39.5 113t-85.5 75.5 t-143.5 24q-161 0 -220.5 -83t-59.5 -279v-88zM399 1477q0 33 25 52.5t55 20t55 -18.5t25 -54q0 -33 -25 -52t-55 -19.5t-55 18.5t-25 53z" />
<glyph unicode="&#x118;" d="M143 0v1581h715v-94h-612v-594h551v-96h-551v-697h653v-100q-101 -70 -142.5 -119t-41.5 -92q0 -40 27 -56t77 -16q48 0 80 4v-94q-52 -6 -103 -2t-91.5 15.5t-65.5 45.5t-25 89q0 60 45.5 120t108.5 105h-625z" />
<glyph unicode="&#x119;" horiz-adv-x="964" d="M109 438v322q0 242 90.5 347t287.5 105q203 0 286 -105.5t83 -346.5v-178h-649v-136q0 -192 59.5 -276t220.5 -84q80 0 133 17t81 51t38.5 74.5t10.5 97.5h92q0 -162 -84 -246q-193 -196 -193 -291q0 -72 105 -72q48 0 80 4v-94q-52 -6 -103 -2t-91.5 15.5t-65.5 45.5 t-25 89t36.5 116t90.5 111q-66 -8 -105 -8q-197 0 -287.5 102t-90.5 342zM207 676h559v82q0 94 -10.5 155.5t-39.5 113t-85.5 75.5t-143.5 24q-161 0 -220.5 -83t-59.5 -279v-88z" />
<glyph unicode="&#x11a;" d="M143 0v1585h715v-94h-612v-598h551v-96h-551v-697h653v-100h-756zM252 1878v6h100l166 -137l164 137h100v-6l-235 -199h-60z" />
<glyph unicode="&#x11b;" horiz-adv-x="964" d="M109 438v322q0 242 90.5 347t287.5 105q203 0 286 -105.5t83 -346.5v-178h-649v-136q0 -192 59.5 -276t220.5 -84q80 0 133 17t81 51t38.5 74.5t10.5 97.5h92q0 -332 -355 -332q-197 0 -287.5 102t-90.5 342zM207 676h559v82q0 94 -10.5 155.5t-39.5 113t-85.5 75.5 t-143.5 24q-161 0 -220.5 -83t-59.5 -279v-88zM213 1573v8h102l170 -154l168 154h105v-8l-244 -221h-59z" />
<glyph unicode="&#x11c;" horiz-adv-x="1142" d="M117 516v553q0 98 7.5 168.5t26.5 132.5t52 102.5t84 69.5t122 42t166 13q130 0 216 -26t137 -83t73 -135.5t25 -195.5l-92 -2q-3 98 -20 161t-57.5 107t-108.5 63t-173 19q-51 0 -94 -4.5t-76 -15.5t-59.5 -23t-45.5 -33t-33 -40t-22.5 -50t-14 -55.5t-8 -64.5t-3 -70 t-0.5 -78v-555q0 -49 1 -79t4.5 -71.5t10 -67.5t19 -58t30.5 -51.5t45 -40t61.5 -31.5t81 -18t103.5 -7q91 0 155.5 16.5t105 46t64 79.5t32 107.5t8.5 139.5v248h-362v92h454v-340q0 -103 -11.5 -177t-41.5 -136t-81.5 -99.5t-131 -58t-191.5 -20.5q-140 0 -230 30.5 t-140 99t-69 161t-19 235.5zM307 1694v8l256 233h64l256 -233v-8h-109l-180 161l-178 -161h-109z" />
<glyph unicode="&#x11d;" horiz-adv-x="970" d="M102 406v372q0 121 22.5 202.5t72 130.5t119 71t171.5 24q213 0 289 -149v133h92v-1206q0 -240 -94 -342.5t-293 -102.5q-170 0 -254.5 71.5t-91.5 227.5h96q5 -104 58.5 -154.5t191.5 -50.5q165 0 226 80t61 271v153q-42 -79 -116 -111t-183 -32q-188 0 -277.5 95 t-89.5 317zM205 403q2 -122 32.5 -190t87.5 -93.5t154 -25.5q150 0 217.5 76.5t67.5 230.5v342q0 184 -61.5 275.5t-215.5 91.5q-161 -3 -221.5 -74t-60.5 -260v-373zM231 1343v9l256 233h64l256 -233v-9h-109l-180 162l-178 -162h-109z" />
<glyph unicode="&#x11e;" horiz-adv-x="1142" d="M117 516v553q0 98 7.5 168.5t26.5 132.5t52 102.5t84 69.5t122 42t166 13q130 0 216 -26t137 -83t73 -135.5t25 -195.5l-92 -2q-3 98 -20 161t-57.5 107t-108.5 63t-173 19q-51 0 -94 -4.5t-76 -15.5t-59.5 -23t-45.5 -33t-33 -40t-22.5 -50t-14 -55.5t-8 -64.5t-3 -70 t-0.5 -78v-555q0 -49 1 -79t4.5 -71.5t10 -67.5t19 -58t30.5 -51.5t45 -40t61.5 -31.5t81 -18t103.5 -7q91 0 155.5 16.5t105 46t64 79.5t32 107.5t8.5 139.5v248h-362v92h454v-340q0 -103 -11.5 -177t-41.5 -136t-81.5 -99.5t-131 -58t-191.5 -20.5q-140 0 -230 30.5 t-140 99t-69 161t-19 235.5zM352 1925h78q9 -139 154 -139q144 0 153 139h78q-8 -214 -231 -217q-221 3 -232 217z" />
<glyph unicode="&#x11f;" horiz-adv-x="970" d="M102 406v372q0 121 22.5 202.5t72 130.5t119 71t171.5 24q213 0 289 -149v133h92v-1206q0 -240 -94 -342.5t-293 -102.5q-170 0 -254.5 71.5t-91.5 227.5h96q5 -104 58.5 -154.5t191.5 -50.5q165 0 226 80t61 271v153q-42 -79 -116 -111t-183 -32q-188 0 -277.5 95 t-89.5 317zM205 403q2 -122 32.5 -190t87.5 -93.5t154 -25.5q150 0 217.5 76.5t67.5 230.5v342q0 184 -61.5 275.5t-215.5 91.5q-161 -3 -221.5 -74t-60.5 -260v-373zM272 1559h78q9 -140 154 -140q144 0 153 140h78q-8 -215 -231 -218q-221 3 -232 218z" />
<glyph unicode="&#x120;" horiz-adv-x="1230" d="M109 516v553q0 98 7.5 168.5t26.5 132.5t52 102.5t84 69.5t122 42t166 13q130 0 216 -26t137 -83t73 -135.5t25 -195.5l-92 -2q-3 98 -20 161t-57.5 107t-108.5 63t-173 19q-51 0 -94 -4.5t-76 -15.5t-59.5 -23t-45.5 -33t-33 -40t-22.5 -50t-14 -55.5t-8 -64.5t-3 -70 t-0.5 -78v-555q0 -49 1 -79t4.5 -71.5t10 -67.5t19 -58t30.5 -51.5t45 -40t61.5 -31.5t81 -18t103.5 -7q91 0 155.5 16.5t105 46t64 79.5t32 107.5t8.5 139.5v248h-363v92h455v-340q0 -103 -11.5 -177t-41.5 -136t-81.5 -99.5t-131 -58t-191.5 -20.5q-140 0 -230 30.5 t-140 99t-69 161t-19 235.5zM512 1792q0 44 39 62.5t78 0t39 -62.5q0 -43 -39 -61t-78 0t-39 61z" />
<glyph unicode="&#x121;" horiz-adv-x="970" d="M102 406v372q0 121 22.5 202.5t72 130.5t119 71t171.5 24q213 0 289 -149v133h92v-1206q0 -240 -94 -342.5t-293 -102.5q-170 0 -254.5 71.5t-91.5 227.5h96q5 -104 58.5 -154.5t191.5 -50.5q165 0 226 80t61 271v153q-42 -79 -116 -111t-183 -32q-188 0 -277.5 95 t-89.5 317zM205 403q2 -122 32.5 -190t87.5 -93.5t154 -25.5q150 0 217.5 76.5t67.5 230.5v342q0 184 -61.5 275.5t-215.5 91.5q-161 -3 -221.5 -74t-60.5 -260v-373zM432 1487q0 29 16.5 49.5t40.5 25.5t48 0.5t40.5 -25t16.5 -50.5q0 -29 -16.5 -49t-40.5 -25t-48 -0.5 t-40.5 24.5t-16.5 50z" />
<glyph unicode="&#x122;" horiz-adv-x="1142" d="M117 516v553q0 98 7.5 168.5t26.5 132.5t52 102.5t84 69.5t122 42t166 13q130 0 216 -26t137 -83t73 -135.5t25 -195.5l-92 -2q-3 98 -20 161t-57.5 107t-108.5 63t-173 19q-51 0 -94 -4.5t-76 -15.5t-59.5 -23t-45.5 -33t-33 -40t-22.5 -50t-14 -55.5t-8 -64.5t-3 -70 t-0.5 -78v-555q0 -49 1 -79t4.5 -71.5t10 -67.5t19 -58t30.5 -51.5t45 -40t61.5 -31.5t81 -18t103.5 -7q91 0 155.5 16.5t105 46t64 79.5t32 107.5t8.5 139.5v248h-362v92h454v-340q0 -103 -11.5 -177t-41.5 -136t-81.5 -99.5t-131 -58t-191.5 -20.5q-140 0 -230 30.5 t-140 99t-69 161t-19 235.5z" />
<glyph unicode="&#x123;" horiz-adv-x="970" d="M102 406v372q0 121 22.5 202.5t72 130.5t119 71t171.5 24q213 0 289 -149v133h92v-1206q0 -240 -94 -342.5t-293 -102.5q-170 0 -254.5 71.5t-91.5 227.5h96q5 -104 58.5 -154.5t191.5 -50.5q165 0 226 80t61 271v153q-42 -79 -116 -111t-183 -32q-188 0 -277.5 95 t-89.5 317zM205 403q2 -122 32.5 -190t87.5 -93.5t154 -25.5q150 0 217.5 76.5t67.5 230.5v342q0 184 -61.5 275.5t-215.5 91.5q-161 -3 -221.5 -74t-60.5 -260v-373zM381 1630l121 342h86l-105 -342h-102z" />
<glyph unicode="&#x124;" horiz-adv-x="1019" d="M143 -2v1577h107v-684h553v684h102v-1575h-102v788h-553v-790h-107zM242 1690v8l256 233h63l256 -233v-8h-108l-181 161l-178 -161h-108z" />
<glyph unicode="&#x125;" horiz-adv-x="966" d="M113 0v1579h102v-492q35 62 112 93.5t156 31.5q201 0 286 -102.5t85 -351.5v-758h-102v760q0 100 -11 162t-40.5 106.5t-82 63t-135.5 18.5q-140 0 -205 -70.5t-65 -230.5v-809h-100zM158 1677v9l248 225h59l248 -225v-9h-105l-174 158l-172 -158h-104z" />
<glyph unicode="&#x126;" horiz-adv-x="1046" d="M18 1182v82h125v311h107v-311h553v311h102v-311h127v-82h-127v-1182h-102v788h-553v-790h-107v1184h-125zM250 891h553v291h-553v-291z" />
<glyph unicode="&#x127;" horiz-adv-x="966" d="M6 1343v78h107v158h102v-158h191v-78h-191v-256q35 62 112 93.5t156 31.5q201 0 286 -102.5t85 -351.5v-758h-102v760q0 100 -11 162t-40.5 106.5t-82 63t-135.5 18.5q-140 0 -205 -70.5t-65 -230.5v-809h-100v1343h-107z" />
<glyph unicode="&#x128;" horiz-adv-x="395" d="M-41 1769q28 77 82 112t127 -1l80 -41q17 -7 25.5 -9.5t24 -4.5t24.5 3t19 17.5t17 34.5l68 -18q-8 -48 -28.5 -78.5t-48 -41t-58 -8t-62.5 16.5l-77 41q-85 43 -127 -53zM143 -2v1585h109v-1585h-109z" />
<glyph unicode="&#x129;" horiz-adv-x="407" d="M-10 1468q26 74 77 107.5t119 -0.5l74 -39q15 -6 24 -9t23 -4.5t23 3t18.5 16.5t16.5 33l61 -19q-7 -46 -26 -75t-44.5 -39t-53.5 -7t-58 17l-74 39q-79 42 -119 -51zM158 0v1208h100v-1208h-100z" />
<glyph unicode="&#x12a;" horiz-adv-x="395" d="M-2 1720v86h399v-86h-399zM143 -2v1585h109v-1585h-109z" />
<glyph unicode="&#x12b;" horiz-adv-x="401" d="M33 1444v94h358v-94h-358zM158 0v1208h100v-1208h-100z" />
<glyph unicode="&#x12c;" horiz-adv-x="395" d="M-20 1903h71q9 -129 146 -129q134 0 143 129h74q-8 -200 -217 -203q-209 3 -217 203zM143 -2v1585h109v-1585h-109z" />
<glyph unicode="&#x12d;" horiz-adv-x="407" d="M-12 1567h73q6 -144 142 -144q134 0 143 144h72q-4 -119 -59.5 -171.5t-155.5 -54.5q-204 3 -215 226zM158 0v1208h100v-1208h-100z" />
<glyph unicode="&#x12e;" horiz-adv-x="395" d="M39 -184q-23 61 4 119.5t100 91.5v1556h109v-1585h-6q-83 -13 -111.5 -55t-7.5 -101q12 -37 51 -50t85.5 -4t86.5 32l17 -70q-43 -23 -93 -32.5t-97 -5t-85 31t-53 72.5z" />
<glyph unicode="&#x12f;" horiz-adv-x="407" d="M43 -178q-25 66 5 130t110 85v1171h100v-1208q-94 -7 -126.5 -48.5t-10.5 -101.5q11 -34 46 -46t76.5 -5t82.5 27l12 -70q-43 -19 -87 -27t-86 -4t-75 29t-47 68zM129 1511q0 34 23.5 53.5t52.5 20t52.5 -19t23.5 -54.5q0 -34 -23.5 -53.5t-52.5 -20t-52.5 19t-23.5 54.5 z" />
<glyph unicode="&#x130;" horiz-adv-x="395" d="M121 1815q0 29 16.5 49.5t40.5 25.5t48 0.5t40.5 -25t16.5 -50.5q0 -29 -16.5 -49t-40.5 -25t-48 -0.5t-40.5 24.5t-16.5 50zM143 -2v1585h109v-1585h-109z" />
<glyph unicode="&#x131;" horiz-adv-x="407" d="M158 0v1208h100v-1208h-100z" />
<glyph unicode="&#x132;" horiz-adv-x="1402" d="M156 -2v1585h108v-1585h-108zM530 379h99q0 -54 5.5 -94t23 -79t47 -63t79.5 -38.5t119 -14.5t119.5 13.5t81 36t49 59t25.5 75t8 91.5v1222h102v-1218q0 -197 -94.5 -289t-290.5 -92q-193 0 -283 95.5t-90 295.5z" />
<glyph unicode="&#x133;" horiz-adv-x="743" d="M129 1511q0 34 23.5 53.5t52.5 20t52.5 -19t23.5 -54.5q0 -34 -23.5 -53.5t-52.5 -20t-52.5 19t-23.5 54.5zM158 0v1208h100v-1208h-100zM348 -279q75 -1 110 19t50.5 79.5t15.5 184.5v1204h103v-1198q0 -107 -11.5 -176t-42 -119.5t-85.5 -71t-140 -16.5v94zM498 1526 q0 34 23.5 53.5t52 20t52 -19t23.5 -54.5q0 -34 -23.5 -53.5t-52 -20t-52 19t-23.5 54.5z" />
<glyph unicode="&#x134;" horiz-adv-x="897" d="M16 379h99q0 -54 5.5 -94t23 -79t47 -63t79.5 -38.5t119 -14.5t119.5 13.5t81 36t49 59t25.5 75t8 91.5v1222h102v-1218q0 -197 -94.5 -289t-290.5 -92q-193 0 -283 95.5t-90 295.5zM451 1659v8l233 240h57l232 -240v-8h-99l-163 166l-162 -166h-98z" />
<glyph unicode="&#x135;" horiz-adv-x="421" d="M-14 1335v8l219 246h53l219 -246v-8h-92l-156 170l-151 -170h-92zM2 -279q75 -1 110 19t50.5 79.5t15.5 184.5v1204h103v-1198q0 -107 -11.5 -176t-42 -119.5t-85.5 -71t-140 -16.5v94z" />
<glyph unicode="&#x136;" horiz-adv-x="962" d="M133 2v1585h109v-713h77l490 711h129l-526 -756l549 -829h-134l-503 766h-82v-764h-109zM385 -328q69 32 89.5 82.5t12.5 165.5h103q0 -73 -5 -114.5t-24 -77t-49.5 -59t-87.5 -52.5z" />
<glyph unicode="&#x137;" horiz-adv-x="897" d="M113 0v1581h104v-879h113l383 510h123l-420 -563l471 -649h-127l-428 596h-113v-596h-106z" />
<glyph unicode="&#x138;" horiz-adv-x="897" d="M113 0v1200h104v-526h113l383 528h123l-420 -581l471 -621h-127l-428 567h-113v-567h-106z" />
<glyph unicode="&#x139;" horiz-adv-x="907" d="M143 0v1575h103v-1481h612v-94h-715zM168 1679v11l100 241h115v-6l-129 -246h-86z" />
<glyph unicode="&#x13a;" horiz-adv-x="499" d="M143 336v1243h103v-1249q0 -84 5.5 -127.5t28 -71t57 -34.5t101.5 -7v-92q-76 -5 -127 4t-84.5 31t-51.5 65.5t-25 98t-7 139.5zM156 1673v10l100 242h115v-6l-129 -246h-86z" />
<glyph unicode="&#x13b;" horiz-adv-x="907" d="M143 0v1575h103v-1481h612v-94h-715zM373 -371q69 32 89.5 82.5t12.5 165.5h103q0 -73 -5 -114.5t-24 -77t-49.5 -59t-87.5 -52.5z" />
<glyph unicode="&#x13c;" horiz-adv-x="489" d="M143 336v1243h103v-1249q0 -84 5.5 -127.5t28 -71t57 -34.5t101.5 -7v-92q-76 -5 -127 4t-84.5 31t-51.5 65.5t-25 98t-7 139.5zM150 -375q69 32 89.5 82.5t12.5 165.5h102q0 -73 -5 -114.5t-24 -77t-49.5 -59t-87.5 -52.5z" />
<glyph unicode="&#x13d;" horiz-adv-x="905" d="M143 0v1575h103v-1481h612v-94h-715zM647 1288l70 289h98l-92 -289h-76z" />
<glyph unicode="&#x13e;" horiz-adv-x="581" d="M143 336v1243h103v-1249q0 -84 5.5 -127.5t28 -71t57 -34.5t101.5 -7v-92q-76 -5 -127 4t-84.5 31t-51.5 65.5t-25 98t-7 139.5zM424 1288l70 289h98l-92 -289h-76z" />
<glyph unicode="&#x13f;" horiz-adv-x="907" d="M143 0v1575h103v-1481h612v-94h-715zM561 764q0 34 23.5 53.5t52.5 20t52.5 -19t23.5 -54.5q0 -34 -23.5 -53.5t-52.5 -20t-52.5 19t-23.5 54.5z" />
<glyph unicode="&#x140;" horiz-adv-x="624" d="M143 336v1243h103v-1249q0 -84 5.5 -127.5t28 -71t57 -34.5t101.5 -7v-92q-76 -5 -127 4t-84.5 31t-51.5 65.5t-25 98t-7 139.5zM449 696q0 34 23.5 53.5t52 20t52 -19t23.5 -54.5q0 -34 -23.5 -53.5t-52 -20t-52 19t-23.5 54.5z" />
<glyph unicode="&#x141;" horiz-adv-x="878" d="M4 616v84l111 41v834h102v-797l344 127v-84l-344 -127v-600h612v-94h-714v657z" />
<glyph unicode="&#x142;" horiz-adv-x="499" d="M4 707v84l139 51v737h103v-700l225 84v-84l-225 -84v-465q0 -84 5.5 -127.5t28 -71t57 -34.5t101.5 -7v-92q-76 -5 -127 4t-84.5 31t-51.5 65.5t-25 98t-7 139.5v422z" />
<glyph unicode="&#x143;" horiz-adv-x="1046" d="M141 2v1583h109l561 -1360h4l-18 563v797h108v-1583h-119l-546 1346h-4l14 -496v-850h-109zM467 1659v10l100 242h115v-6l-129 -246h-86z" />
<glyph unicode="&#x144;" horiz-adv-x="1069" d="M162 0v1194h90l8 -131q93 149 301 149q207 0 287 -99.5t80 -336.5v-776h-103v776q0 201 -57 273.5t-217 72.5q-77 0 -135 -25t-90 -67t-47 -91t-15 -103v-836h-102zM483 1346v10l97 227h106v-6l-121 -231h-82z" />
<glyph unicode="&#x145;" horiz-adv-x="1046" d="M141 2v1583h109l561 -1360h4l-18 563v797h108v-1583h-119l-546 1346h-4l14 -496v-850h-109zM393 -346q69 32 90 83t13 165h102q0 -73 -5 -114.5t-24 -77t-49.5 -59t-87.5 -52.5z" />
<glyph unicode="&#x146;" horiz-adv-x="1069" d="M162 0v1194h90l8 -131q93 149 301 149q207 0 287 -99.5t80 -336.5v-776h-103v776q0 201 -57 273.5t-217 72.5q-77 0 -135 -25t-90 -67t-47 -91t-15 -103v-836h-102zM391 -344q69 32 90 83t13 165h102q0 -73 -5 -114.5t-24 -77t-49.5 -59t-87.5 -52.5z" />
<glyph unicode="&#x147;" horiz-adv-x="1046" d="M141 2v1583h109l561 -1360h4l-18 563v797h108v-1583h-119l-546 1346h-4l14 -496v-850h-109zM254 1872v8h102l168 -151l166 151h101v-8l-238 -217h-59z" />
<glyph unicode="&#x148;" horiz-adv-x="1069" d="M162 0v1194h90l8 -131q93 149 301 149q207 0 287 -99.5t80 -336.5v-776h-103v776q0 201 -57 273.5t-217 72.5q-77 0 -135 -25t-90 -67t-47 -91t-15 -103v-836h-102zM276 1559v8h103l170 -154l168 154h104v-8l-243 -222h-60z" />
<glyph unicode="&#x149;" horiz-adv-x="1069" d="M162 0v1194h90l8 -131q93 149 301 149q207 0 287 -99.5t80 -336.5v-776h-103v776q0 201 -57 273.5t-217 72.5q-77 0 -135 -25t-90 -67t-47 -91t-15 -103v-836h-102z" />
<glyph unicode="&#x14a;" horiz-adv-x="1046" d="M141 2v1583h109l561 -1360h4l-18 563v797h108v-1646q0 -171 -72 -269t-204 -98l-17 94q42 0 74 9.5t52 30t33 42.5t19.5 56.5t9 61.5t3.5 68v68l-563 1346h-4l14 -496v-850h-109z" />
<glyph unicode="&#x14b;" horiz-adv-x="1069" d="M162 0v1194h90l8 -131q93 149 301 149q207 0 287 -99.5t80 -336.5v-766q0 -107 -11.5 -176t-42 -119.5t-85.5 -71t-140 -16.5v94q75 -1 110 19t50.5 79.5t15.5 184.5v772q0 201 -57 273.5t-217 72.5q-77 0 -135 -25t-90 -67t-47 -91t-15 -103v-836h-102z" />
<glyph unicode="&#x14c;" horiz-adv-x="1165" d="M121 506v571q0 115 11.5 194t40.5 144.5t81 103.5t132 58t194 20q142 0 232 -29t140 -96.5t68 -159.5t18 -237v-567q0 -112 -11.5 -191.5t-41.5 -145.5t-82 -104.5t-131.5 -59.5t-191.5 -21q-94 0 -164.5 13.5t-121.5 43t-84.5 70.5t-53 101.5t-27.5 129.5t-8 162z M223 512q0 -66 1.5 -105t9 -91t21 -82t39.5 -63t64 -50.5t93.5 -29t128.5 -11.5q57 0 103.5 7t81 17t61.5 30.5t45 39.5t30.5 51.5t19 58.5t10 69t4.5 75t1 84v559q0 69 -1.5 109t-8.5 92.5t-21 82t-39.5 62t-63.5 48.5t-93.5 27t-128.5 11q-57 0 -103 -6.5t-81.5 -16 t-62 -29t-45 -38t-30.5 -50.5t-19 -58t-10.5 -69.5t-4.5 -77t-1 -87.5v-559zM375 1729v83h426v-83h-426z" />
<glyph unicode="&#x14d;" horiz-adv-x="962" d="M102 434v328q0 167 42 266t123 139.5t214 40.5q100 0 168.5 -21t117 -72.5t71 -139.5t22.5 -219v-322q0 -244 -90.5 -346t-288.5 -102q-100 0 -168.5 21t-117 72t-71 138t-22.5 217zM205 442q0 -104 10 -166.5t39.5 -110t84 -66.5t142.5 -19q161 0 219 81t58 277v318 q0 83 -6.5 137t-23 99t-48 69.5t-80 37.5t-119.5 13q-83 0 -136.5 -19t-84.5 -63.5t-43 -107.5t-12 -162v-318zM250 1419v92h469v-92h-469z" />
<glyph unicode="&#x14e;" horiz-adv-x="1165" d="M121 506v571q0 115 11.5 194t40.5 144.5t81 103.5t132 58t194 20q142 0 232 -29t140 -96.5t68 -159.5t18 -237v-567q0 -112 -11.5 -191.5t-41.5 -145.5t-82 -104.5t-131.5 -59.5t-191.5 -21q-94 0 -164.5 13.5t-121.5 43t-84.5 70.5t-53 101.5t-27.5 129.5t-8 162z M223 512q0 -66 1.5 -105t9 -91t21 -82t39.5 -63t64 -50.5t93.5 -29t128.5 -11.5q57 0 103.5 7t81 17t61.5 30.5t45 39.5t30.5 51.5t19 58.5t10 69t4.5 75t1 84v559q0 69 -1.5 109t-8.5 92.5t-21 82t-39.5 62t-63.5 48.5t-93.5 27t-128.5 11q-57 0 -103 -6.5t-81.5 -16 t-62 -29t-45 -38t-30.5 -50.5t-19 -58t-10.5 -69.5t-4.5 -77t-1 -87.5v-559zM352 1917h78q9 -139 154 -139q144 0 153 139h78q-8 -214 -231 -217q-221 3 -232 217z" />
<glyph unicode="&#x14f;" horiz-adv-x="962" d="M102 434v328q0 167 42 266t123 139.5t214 40.5q100 0 168.5 -21t117 -72.5t71 -139.5t22.5 -219v-322q0 -244 -90.5 -346t-288.5 -102q-100 0 -168.5 21t-117 72t-71 138t-22.5 217zM205 442q0 -104 10 -166.5t39.5 -110t84 -66.5t142.5 -19q161 0 219 81t58 277v318 q0 83 -6.5 137t-23 99t-48 69.5t-80 37.5t-119.5 13q-83 0 -136.5 -19t-84.5 -63.5t-43 -107.5t-12 -162v-318zM270 1569h74q9 -131 148 -131q66 0 103.5 33.5t41.5 97.5h74q-8 -202 -219 -205q-211 3 -222 205z" />
<glyph unicode="&#x150;" horiz-adv-x="1165" d="M121 506v571q0 115 11.5 194t40.5 144.5t81 103.5t132 58t194 20q142 0 232 -29t140 -96.5t68 -159.5t18 -237v-567q0 -112 -11.5 -191.5t-41.5 -145.5t-82 -104.5t-131.5 -59.5t-191.5 -21q-94 0 -164.5 13.5t-121.5 43t-84.5 70.5t-53 101.5t-27.5 129.5t-8 162z M223 512q0 -66 1.5 -105t9 -91t21 -82t39.5 -63t64 -50.5t93.5 -29t128.5 -11.5q57 0 103.5 7t81 17t61.5 30.5t45 39.5t30.5 51.5t19 58.5t10 69t4.5 75t1 84v559q0 69 -1.5 109t-8.5 92.5t-21 82t-39.5 62t-63.5 48.5t-93.5 27t-128.5 11q-57 0 -103 -6.5t-81.5 -16 t-62 -29t-45 -38t-30.5 -50.5t-19 -58t-10.5 -69.5t-4.5 -77t-1 -87.5v-559zM430 1722l109 183h108v-4l-125 -179h-92zM645 1720l117 185h108v-4l-133 -181h-92z" />
<glyph unicode="&#x151;" horiz-adv-x="962" d="M102 434v328q0 167 42 266t123 139.5t214 40.5q100 0 168.5 -21t117 -72.5t71 -139.5t22.5 -219v-322q0 -244 -90.5 -346t-288.5 -102q-100 0 -168.5 21t-117 72t-71 138t-22.5 217zM205 442q0 -104 10 -166.5t39.5 -110t84 -66.5t142.5 -19q161 0 219 81t58 277v318 q0 83 -6.5 137t-23 99t-48 69.5t-80 37.5t-119.5 13q-83 0 -136.5 -19t-84.5 -63.5t-43 -107.5t-12 -162v-318zM328 1382l106 181h109v-4l-123 -177h-92zM541 1380l114 183h107v-4l-131 -179h-90z" />
<glyph unicode="&#x152;" horiz-adv-x="1454" d="M82 506v549q0 117 11.5 197.5t40.5 147.5t81 105.5t132 59t194 20.5h821v-94h-547v-598h485v-96h-485v-697h563v-100h-837q-94 0 -164.5 12.5t-121.5 40.5t-84.5 67t-53 98t-27.5 127.5t-8 160.5zM184 512q0 -93 4 -143t22.5 -111.5t55.5 -91.5t105.5 -51t169.5 -21h176 v1397h-176q-73 0 -128.5 -10.5t-93.5 -26t-63.5 -48t-40 -62t-21.5 -83.5t-8.5 -96t-1.5 -116v-537z" />
<glyph unicode="&#x153;" horiz-adv-x="1540" d="M92 434v328q0 168 39.5 266t118 139t211.5 41q125 0 198 -36t107 -123q38 85 113.5 124t197.5 39q202 0 278.5 -104t76.5 -348v-178h-623v-136q0 -97 11 -160t40.5 -110.5t82.5 -68.5t136 -21q80 0 130.5 16.5t75 51.5t32.5 73.5t8 98.5h92q0 -167 -79.5 -249.5 t-258.5 -82.5q-122 0 -198 37.5t-115 120.5q-35 -88 -108 -127t-197 -39q-134 0 -212 39t-117.5 137.5t-39.5 271.5zM195 442q0 -85 5 -138t20.5 -100t45 -71.5t77 -38.5t118.5 -14q79 0 129.5 18.5t78 62t37.5 102t11 151.5v370q-1 77 -6 125.5t-20 91t-43.5 64.5 t-73.5 34.5t-113 12.5q-83 0 -135 -18.5t-81 -64t-39.5 -107.5t-10.5 -162v-318zM809 676h532v82q0 64 -3 107.5t-12.5 89t-27.5 74t-46.5 52.5t-72 34.5t-102.5 10.5q-81 0 -133 -19.5t-81.5 -64.5t-41 -106t-12.5 -156v-24v-80z" />
<glyph unicode="&#x154;" d="M143 0v1585h381q101 0 169 -21t116.5 -73.5t71 -142.5t22.5 -226v-125q0 -213 -72.5 -305t-232.5 -106l334 -586h-127l-324 584h-229v-584h-109zM252 680h272q165 0 221 64.5t56 254.5v123q0 104 -10 166.5t-40 109t-84.5 65t-142.5 18.5h-272v-801zM412 1694v8l90 219 h102v-6l-115 -221h-77z" />
<glyph unicode="&#x155;" horiz-adv-x="600" d="M123 0v1208h92l6 -143q39 77 126.5 118.5t193.5 22.5v-96q-135 22 -224.5 -53.5t-89.5 -204.5l-2 -852h-102zM274 1358v10l88 209h99v-4l-111 -215h-76z" />
<glyph unicode="&#x156;" d="M143 0v1585h381q101 0 169 -21t116.5 -73.5t71 -142.5t22.5 -226v-125q0 -213 -72.5 -305t-232.5 -106l334 -586h-127l-324 584h-229v-584h-109zM252 680h272q165 0 221 64.5t56 254.5v123q0 104 -10 166.5t-40 109t-84.5 65t-142.5 18.5h-272v-801zM393 -371 q69 32 90 83t13 165h102q0 -73 -5 -114.5t-24 -77t-49.5 -59t-87.5 -52.5z" />
<glyph unicode="&#x157;" horiz-adv-x="579" d="M2 -352q72 31 93.5 76.5t13.5 150.5h104q0 -127 -30 -177.5t-140 -100.5zM123 0v1208h92l6 -143q39 77 126.5 118.5t193.5 22.5v-96q-135 22 -224.5 -53.5t-89.5 -204.5l-2 -852h-102z" />
<glyph unicode="&#x158;" d="M143 0v1585h381q101 0 169 -21t116.5 -73.5t71 -142.5t22.5 -226v-125q0 -213 -72.5 -305t-232.5 -106l334 -586h-127l-324 584h-229v-584h-109zM215 1919v8h102l170 -151l168 151h101v-8l-240 -219h-59zM252 680h272q165 0 221 64.5t56 254.5v123q0 104 -10 166.5 t-40 109t-84.5 65t-142.5 18.5h-272v-801z" />
<glyph unicode="&#x159;" horiz-adv-x="600" d="M109 1567v8h86l145 -152l143 152h86v-8l-204 -217h-52zM123 0v1208h92l6 -143q39 77 126.5 118.5t193.5 22.5v-96q-135 22 -224.5 -53.5t-89.5 -204.5l-2 -852h-102z" />
<glyph unicode="&#x15a;" horiz-adv-x="1062" d="M90 358h98q0 -144 80.5 -210t243.5 -66q195 1 274.5 87.5t79.5 291.5q0 59 -12.5 106t-31.5 80t-52.5 58t-65.5 40t-82 26t-89.5 16.5t-98.5 11.5q-69 7 -123.5 26t-106.5 60t-81 117t-29 182q0 219 107 317.5t327 100.5q88 0 155.5 -17t124 -56t88.5 -110.5t36 -173.5 h-98q-3 264 -308 264q-84 0 -142.5 -15t-102.5 -50.5t-65 -100t-21 -159.5q0 -56 9.5 -99.5t23.5 -73t42 -52t52 -35t68 -22t75.5 -14t87.5 -10.5q35 -4 53 -6q173 -23 269 -131.5t96 -281.5q0 -114 -22 -198.5t-60.5 -137t-98.5 -84t-126.5 -43.5t-153.5 -12 q-211 2 -315.5 93.5t-104.5 280.5zM477 1716v10l92 222h107v-6l-121 -226h-78z" />
<glyph unicode="&#x15b;" horiz-adv-x="909" d="M78 334h102q0 -242 283 -242q136 0 206 63.5t70 180.5q0 42 -9 75.5t-23 56t-38.5 40t-46.5 28t-57.5 18.5t-61 12t-65.5 9l-13.5 1.5t-12 1.5t-13.5 2q-57 7 -95.5 15.5t-84 30t-73 53t-46 86t-18.5 128.5q0 150 95.5 234.5t275.5 84.5q362 0 362 -317h-100 q-3 112 -64.5 166.5t-195.5 54.5t-199.5 -58t-65.5 -163q0 -40 8 -72t19 -53.5t33.5 -38.5t40 -26t51 -16.5t53.5 -10.5t60 -8q21 -3 32 -4q45 -7 75 -12.5t71.5 -17t68.5 -26t57 -39.5t47 -56t28.5 -76.5t11.5 -100.5q0 -162 -96 -253t-287 -91q-385 0 -385 340zM375 1331 v10l100 242h115v-6l-129 -246h-86z" />
<glyph unicode="&#x15c;" horiz-adv-x="1062" d="M90 358h98q0 -144 80.5 -210t243.5 -66q195 1 274.5 87.5t79.5 291.5q0 59 -12.5 106t-31.5 80t-52.5 58t-65.5 40t-82 26t-89.5 16.5t-98.5 11.5q-69 7 -123.5 26t-106.5 60t-81 117t-29 182q0 219 107 317.5t327 100.5q88 0 155.5 -17t124 -56t88.5 -110.5t36 -173.5 h-98q-3 264 -308 264q-84 0 -142.5 -15t-102.5 -50.5t-65 -100t-21 -159.5q0 -56 9.5 -99.5t23.5 -73t42 -52t52 -35t68 -22t75.5 -14t87.5 -10.5q35 -4 53 -6q173 -23 269 -131.5t96 -281.5q0 -114 -22 -198.5t-60.5 -137t-98.5 -84t-126.5 -43.5t-153.5 -12 q-211 2 -315.5 93.5t-104.5 280.5zM254 1724v9l256 233h63l256 -233v-9h-108l-180 162l-179 -162h-108z" />
<glyph unicode="&#x15d;" horiz-adv-x="909" d="M78 334h102q0 -242 283 -242q136 0 206 63.5t70 180.5q0 42 -9 75.5t-23 56t-38.5 40t-46.5 28t-57.5 18.5t-61 12t-65.5 9l-13.5 1.5t-12 1.5t-13.5 2q-57 7 -95.5 15.5t-84 30t-73 53t-46 86t-18.5 128.5q0 150 95.5 234.5t275.5 84.5q362 0 362 -317h-100 q-3 112 -64.5 166.5t-195.5 54.5t-199.5 -58t-65.5 -163q0 -40 8 -72t19 -53.5t33.5 -38.5t40 -26t51 -16.5t53.5 -10.5t60 -8q21 -3 32 -4q45 -7 75 -12.5t71.5 -17t68.5 -26t57 -39.5t47 -56t28.5 -76.5t11.5 -100.5q0 -162 -96 -253t-287 -91q-385 0 -385 340zM197 1341 v9l237 249h60l237 -249v-9h-100l-168 172l-166 -172h-100z" />
<glyph unicode="&#x15e;" horiz-adv-x="1062" d="M90 358h98q0 -144 80.5 -210t243.5 -66q195 1 274.5 87.5t79.5 291.5q0 59 -12.5 106t-31.5 80t-52.5 58t-65.5 40t-82 26t-89.5 16.5t-98.5 11.5q-69 7 -123.5 26t-106.5 60t-81 117t-29 182q0 219 107 317.5t327 100.5q88 0 155.5 -17t124 -56t88.5 -110.5t36 -173.5 h-98q-3 264 -308 264q-84 0 -142.5 -15t-102.5 -50.5t-65 -100t-21 -159.5q0 -56 9.5 -99.5t23.5 -73t42 -52t52 -35t68 -22t75.5 -14t87.5 -10.5q35 -4 53 -6q173 -23 269 -131.5t96 -281.5q0 -110 -20.5 -192t-56 -134t-90.5 -85t-117 -46.5t-142 -15.5l-17 -78 q53 -1 92.5 -20.5t59.5 -50.5t27.5 -65t1.5 -67q-15 -81 -76 -119t-152 -32q-125 4 -182 98l45 53q21 -36 63 -59t80 -23q68 0 101.5 22t44.5 64q6 25 -1.5 50.5t-29.5 49t-62.5 31t-101.5 -3.5l33 150q-192 9 -286.5 99.5t-94.5 272.5z" />
<glyph unicode="&#x15f;" horiz-adv-x="909" d="M78 334h102q0 -242 283 -242q136 0 206 63.5t70 180.5q0 42 -9 75.5t-23 56t-38.5 40t-46.5 28t-57.5 18.5t-61 12t-65.5 9l-13.5 1.5t-12 1.5t-13.5 2q-57 7 -95.5 15.5t-84 30t-73 53t-46 86t-18.5 128.5q0 150 95.5 234.5t275.5 84.5q362 0 362 -317h-100 q-3 112 -64.5 166.5t-195.5 54.5t-199.5 -58t-65.5 -163q0 -40 8 -72t19 -53.5t33.5 -38.5t40 -26t51 -16.5t53.5 -10.5t60 -8q21 -3 32 -4q45 -7 75 -12.5t71.5 -17t68.5 -26t57 -39.5t47 -56t28.5 -76.5t11.5 -100.5q0 -155 -88.5 -245.5t-263.5 -96.5l-15 -76 q68 0 112.5 -33t59 -76.5t6.5 -86.5q-17 -81 -75.5 -119t-147.5 -33q-126 8 -182 98l45 54q21 -37 62.5 -59.5t80.5 -22.5q67 0 99 21.5t43 62.5q13 57 -34.5 101.5t-156.5 22.5l33 146q-346 13 -346 338z" />
<glyph unicode="&#x160;" horiz-adv-x="1062" d="M90 358h98q0 -144 80.5 -210t243.5 -66q195 1 274.5 87.5t79.5 291.5q0 59 -12.5 106t-31.5 80t-52.5 58t-65.5 40t-82 26t-89.5 16.5t-98.5 11.5q-69 7 -123.5 26t-106.5 60t-81 117t-29 182q0 219 107 317.5t327 100.5q88 0 155.5 -17t124 -56t88.5 -110.5t36 -173.5 h-98q-3 264 -308 264q-84 0 -142.5 -15t-102.5 -50.5t-65 -100t-21 -159.5q0 -56 9.5 -99.5t23.5 -73t42 -52t52 -35t68 -22t75.5 -14t87.5 -10.5q35 -4 53 -6q173 -23 269 -131.5t96 -281.5q0 -114 -22 -198.5t-60.5 -137t-98.5 -84t-126.5 -43.5t-153.5 -12 q-211 2 -315.5 93.5t-104.5 280.5zM252 1935v9h108l181 -162l178 162h108v-9l-256 -233h-63z" />
<glyph unicode="&#x161;" horiz-adv-x="909" d="M78 334h102q0 -242 283 -242q136 0 206 63.5t70 180.5q0 42 -9 75.5t-23 56t-38.5 40t-46.5 28t-57.5 18.5t-61 12t-65.5 9l-13.5 1.5t-12 1.5t-13.5 2q-57 7 -95.5 15.5t-84 30t-73 53t-46 86t-18.5 128.5q0 150 95.5 234.5t275.5 84.5q362 0 362 -317h-100 q-3 112 -64.5 166.5t-195.5 54.5t-199.5 -58t-65.5 -163q0 -40 8 -72t19 -53.5t33.5 -38.5t40 -26t51 -16.5t53.5 -10.5t60 -8q21 -3 32 -4q45 -7 75 -12.5t71.5 -17t68.5 -26t57 -39.5t47 -56t28.5 -76.5t11.5 -100.5q0 -162 -96 -253t-287 -91q-385 0 -385 340zM197 1556 v9h102l170 -156l168 156h102v-9l-241 -225h-62z" />
<glyph unicode="&#x162;" horiz-adv-x="794" d="M16 1475v96h762v-96h-329v-1475h-103v1475h-330z" />
<glyph unicode="&#x163;" horiz-adv-x="559" d="M131 336v1141l102 14v-283h248v-96h-248v-774q0 -84 13 -135.5t46 -79.5t80 -35.5t124 -1.5v-90q-202 -20 -283.5 58.5t-81.5 281.5z" />
<glyph unicode="&#x164;" horiz-adv-x="794" d="M16 1475v96h762v-96h-329v-1475h-103v1475h-330zM100 1901v8h109l180 -162l178 162h109v-8l-256 -234h-64z" />
<glyph unicode="&#x165;" horiz-adv-x="700" d="M131 336v1141l102 14v-283h197v-92h-197v-778q0 -84 13 -135.5t46 -79.5t80 -35.5t124 -1.5v-90q-202 -20 -283.5 58.5t-81.5 281.5zM551 1102l55 350h105l-82 -350h-78z" />
<glyph unicode="&#x166;" horiz-adv-x="794" d="M16 1475v96h762v-96h-329v-635h188v-82h-188v-758h-103v758h-178v82h178v635h-330z" />
<glyph unicode="&#x167;" horiz-adv-x="559" d="M39 594v70h92v813l102 14v-283h248v-96h-248v-448h203v-70h-203v-256q0 -84 13 -135.5t46 -79.5t80 -35.5t124 -1.5v-90q-202 -20 -283.5 58.5t-81.5 281.5v258h-92z" />
<glyph unicode="&#x168;" horiz-adv-x="1110" d="M123 512v1073h104v-1073q0 -65 2 -108.5t9.5 -92t21 -79.5t37 -61t57.5 -46.5t83 -26.5t112 -10t111.5 10t82.5 26.5t57.5 46.5t37 61t21 79.5t9.5 92t2 108.5v1073h105v-1073q0 -112 -10 -189t-36.5 -143t-74 -104t-123 -59t-182.5 -21t-182.5 21t-123 59t-74 104 t-36.5 143t-10 189zM319 1739q27 71 86 103t138 -1l84 -37q22 -8 35 -11t32 -2.5t32 13t22 37.5l71 -16q-12 -59 -46.5 -90t-76.5 -30.5t-88 17.5l-84 39q-88 40 -135 -49z" />
<glyph unicode="&#x169;" horiz-adv-x="1044" d="M135 418v774h103v-774q0 -201 57 -273.5t217 -72.5q77 0 135 25t90 67t47 91t15 103v834h102v-1192h-90l-8 131q-93 -149 -301 -149q-207 0 -287 99.5t-80 336.5zM283 1427q29 70 85 101.5t132 -0.5l84 -37q18 -6 26.5 -8.5t25 -4t25.5 3t19.5 15.5t17.5 31l70 -17 q-11 -57 -44 -87t-74 -29.5t-85 16.5l-82 37q-88 41 -131 -47z" />
<glyph unicode="&#x16a;" horiz-adv-x="1110" d="M123 512v1073h104v-1073q0 -65 2 -108.5t9.5 -92t21 -79.5t37 -61t57.5 -46.5t83 -26.5t112 -10t111.5 10t82.5 26.5t57.5 46.5t37 61t21 79.5t9.5 92t2 108.5v1073h105v-1073q0 -112 -10 -189t-36.5 -143t-74 -104t-123 -59t-182.5 -21t-182.5 21t-123 59t-74 104 t-36.5 143t-10 189zM328 1720v92h469v-92h-469z" />
<glyph unicode="&#x16b;" horiz-adv-x="1044" d="M135 418v774h103v-774q0 -201 57 -273.5t217 -72.5q77 0 135 25t90 67t47 91t15 103v834h102v-1192h-90l-8 131q-93 -149 -301 -149q-207 0 -287 99.5t-80 336.5zM303 1434v86h438v-86h-438z" />
<glyph unicode="&#x16c;" horiz-adv-x="1110" d="M123 512v1073h104v-1073q0 -65 2 -108.5t9.5 -92t21 -79.5t37 -61t57.5 -46.5t83 -26.5t112 -10t111.5 10t82.5 26.5t57.5 46.5t37 61t21 79.5t9.5 92t2 108.5v1073h105v-1073q0 -112 -10 -189t-36.5 -143t-74 -104t-123 -59t-182.5 -21t-182.5 21t-123 59t-74 104 t-36.5 143t-10 189zM322 1888h77q9 -139 154 -139t154 139h77q-8 -214 -231 -217q-220 3 -231 217z" />
<glyph unicode="&#x16d;" horiz-adv-x="1044" d="M135 418v774h103v-774q0 -201 57 -273.5t217 -72.5q77 0 135 25t90 67t47 91t15 103v834h102v-1192h-90l-8 131q-93 -149 -301 -149q-207 0 -287 99.5t-80 336.5zM303 1548h78q9 -139 154 -139q144 0 153 139h78q-8 -214 -231 -217q-221 3 -232 217z" />
<glyph unicode="&#x16e;" horiz-adv-x="1110" d="M123 512v1073h104v-1073q0 -65 2 -108.5t9.5 -92t21 -79.5t37 -61t57.5 -46.5t83 -26.5t112 -10t111.5 10t82.5 26.5t57.5 46.5t37 61t21 79.5t9.5 92t2 108.5v1073h105v-1073q0 -112 -10 -189t-36.5 -143t-74 -104t-123 -59t-182.5 -21t-182.5 21t-123 59t-74 104 t-36.5 143t-10 189zM356 1790q0 84 58.5 132t140.5 48q80 0 140.5 -47.5t60.5 -130.5q0 -84 -58.5 -132t-144.5 -48q-85 0 -141.5 47.5t-55.5 130.5zM432.5 1757q7.5 -34 41 -58t81.5 -24q50 0 84 24t41.5 58t-0.5 68t-42 58t-83 24q-48 0 -81.5 -24t-41 -58t0 -68z" />
<glyph unicode="&#x16f;" horiz-adv-x="1044" d="M135 418v774h103v-774q0 -201 57 -273.5t217 -72.5q77 0 135 25t90 67t47 91t15 103v834h102v-1192h-90l-8 131q-93 -149 -301 -149q-207 0 -287 99.5t-80 336.5zM336 1452q0 82 54.5 129t129.5 47t132 -46.5t57 -127.5q0 -84 -55 -132t-134 -48q-80 0 -132.5 47.5 t-51.5 130.5zM399 1451q0 -43 32 -78.5t89 -35.5q59 0 91.5 35.5t32 78.5t-33.5 78.5t-90 35.5t-89 -35.5t-32 -78.5z" />
<glyph unicode="&#x170;" horiz-adv-x="1110" d="M123 512v1073h104v-1073q0 -65 2 -108.5t9.5 -92t21 -79.5t37 -61t57.5 -46.5t83 -26.5t112 -10t111.5 10t82.5 26.5t57.5 46.5t37 61t21 79.5t9.5 92t2 108.5v1073h105v-1073q0 -112 -10 -189t-36.5 -143t-74 -104t-123 -59t-182.5 -21t-182.5 21t-123 59t-74 104 t-36.5 143t-10 189zM369 1688l114 192h117v-4l-133 -188h-98zM598 1686l123 194h115v-4l-142 -190h-96z" />
<glyph unicode="&#x171;" horiz-adv-x="1044" d="M135 418v774h103v-774q0 -201 57 -273.5t217 -72.5q77 0 135 25t90 67t47 91t15 103v834h102v-1192h-90l-8 131q-93 -149 -301 -149q-207 0 -287 99.5t-80 336.5zM379 1395l104 176h107v-4l-123 -172h-88zM588 1393l110 178h107v-4l-129 -174h-88z" />
<glyph unicode="&#x172;" horiz-adv-x="1110" d="M123 512v1073h104v-1073q0 -65 2 -108.5t9.5 -92t21 -79.5t37 -61t57.5 -46.5t83 -26.5t112 -10t111.5 10t82.5 26.5t57.5 46.5t37 61t21 79.5t9.5 92t2 108.5v1073h105v-1073q0 -113 -10 -191t-37 -143t-76 -104.5t-125 -59.5q-68 -17 -91.5 -57t-4.5 -94q12 -37 51 -50 t85.5 -4.5t86.5 31.5l16 -69q-58 -31 -122 -39t-120 17.5t-75 86.5q-37 96 41 162q-14 -2 -45 -2q-107 0 -182.5 21t-123 59t-74 104t-36.5 143t-10 189z" />
<glyph unicode="&#x173;" horiz-adv-x="1044" d="M135 418v774h103v-774q0 -201 57 -273.5t217 -72.5q77 0 135 25t90 67t47 91t15 103v834h102v-1235q-96 -13 -132 -55.5t-15 -102.5q12 -37 51 -50t85.5 -4t86.5 32l16 -70q-43 -23 -91 -32.5t-93.5 -5t-81.5 31t-51 72.5q-23 69 12.5 134.5t122.5 92.5l-8 131 q-93 -149 -301 -149q-207 0 -287 99.5t-80 336.5z" />
<glyph unicode="&#x174;" horiz-adv-x="1556" d="M18 1585h113l170 -749l135 -652h4l293 1315h82l293 -1315h4l135 652l170 749h113l-367 -1587h-112l-166 727l-111 557l-108 -547l-168 -737h-113zM496 1645v8l247 225h62l248 -225v-8h-105l-174 157l-174 -157h-104z" />
<glyph unicode="&#x175;" horiz-adv-x="1245" d="M16 1192h107l137 -596l86 -446h2l230 1042h88l247 -1042h2l84 458l125 584h103l-254 -1194h-121l-139 594l-90 407l-88 -417l-132 -584h-114zM334 1331v8l256 234h63l256 -234v-8h-108l-180 162l-179 -162h-108z" />
<glyph unicode="&#x176;" horiz-adv-x="806" d="M-4 1585h119l145 -387l141 -407l144 407l149 387h119l-356 -911v-676h-111v676zM117 1690v8l256 233h63l256 -233v-8h-108l-181 161l-178 -161h-108z" />
<glyph unicode="&#x177;" horiz-adv-x="843" d="M31 1190h112l131 -483l162 -553h2l137 553l132 483h112l-393 -1419q-44 -159 -136.5 -208.5t-250.5 1.5l35 90q110 -37 163.5 -7.5t88.5 136.5l55 211zM154 1360v8l256 234h63l256 -234v-8h-108l-181 162l-178 -162h-108z" />
<glyph unicode="&#x178;" horiz-adv-x="806" d="M-4 1585h119l145 -387l141 -407l144 407l149 387h119l-356 -911v-676h-111v676zM147 1780q0 34 23.5 53.5t51.5 20t51.5 -19t23.5 -54.5q0 -44 -37.5 -63t-75 -0.5t-37.5 63.5zM520 1780q0 34 23.5 53.5t51.5 20t51.5 -19t23.5 -54.5q0 -44 -37.5 -63t-75 -0.5 t-37.5 63.5z" />
<glyph unicode="&#x179;" horiz-adv-x="831" d="M29 0l618 1485h-528v98h686l-623 -1485h623v-98h-776zM401 1692v10l101 242h114v-7l-129 -245h-86z" />
<glyph unicode="&#x17a;" horiz-adv-x="884" d="M63 0v18l621 1080h-578v94h732v-21l-623 -1075h629v-96h-781zM424 1331v10l100 242h115v-6l-129 -246h-86z" />
<glyph unicode="&#x17b;" horiz-adv-x="831" d="M29 0l618 1483h-528v98h686l-623 -1483h623v-98h-776zM391 1790q0 34 23.5 53.5t52.5 20t52.5 -19t23.5 -54.5q0 -34 -23.5 -53.5t-52.5 -20t-52.5 19t-23.5 54.5z" />
<glyph unicode="&#x17c;" horiz-adv-x="884" d="M63 0v18l621 1078h-578v94h732v-21l-623 -1073h629v-96h-781zM391 1511q0 34 23.5 53.5t52.5 20t52.5 -19t23.5 -54.5q0 -34 -23.5 -53.5t-52.5 -20t-52.5 19t-23.5 54.5z" />
<glyph unicode="&#x17d;" horiz-adv-x="831" d="M29 0l618 1485h-528v98h686l-623 -1485h623v-98h-776zM199 1901v8h104l174 -144l170 144h105v-8l-246 -205h-62z" />
<glyph unicode="&#x17e;" horiz-adv-x="884" d="M63 0v18l621 1080h-578v94h732v-21l-623 -1075h629v-96h-781zM203 1550v9h108l181 -162l178 162h108v-9l-256 -233h-63z" />
<glyph unicode="&#x17f;" horiz-adv-x="530" d="M121 -2v1169q0 233 91 335t288 89v-90q-84 5 -137.5 -11t-84.5 -58.5t-43 -105t-12 -161.5v-1167h-102z" />
<glyph unicode="&#x192;" horiz-adv-x="647" d="M-55 -315q69 -4 114.5 3t78.5 26t50.5 56.5t25 89.5t7.5 130v1009h-201v88h201v80q0 233 91 335t288 89v-90q-84 5 -137.5 -11t-84.5 -58.5t-42.5 -105t-11.5 -161.5v-78h233v-88h-233v-1011q0 -229 -89 -318.5t-290 -75.5v91z" />
<glyph unicode="&#x1fa;" horiz-adv-x="952" d="M18 -2l390 1515q-115 39 -115 158q0 75 55 116.5t133 41.5q74 0 129.5 -40.5t55.5 -115.5q0 -113 -115 -157l391 -1518h-108l-103 391h-506l-100 -391h-107zM250 485h459l-226 940h-2zM364.5 1671.5q-1.5 -34.5 26 -64.5t76.5 -34h12q55 0 86 29.5t30 65.5t-32 65.5 t-84 29.5q-52 0 -82.5 -28.5t-32 -63zM432 1864l98 106h103l-109 -106h-92z" />
<glyph unicode="&#x1fb;" horiz-adv-x="1050" d="M88 307q0 109 46.5 181t134 106t212.5 44t283 -5v172q2 160 -59 231.5t-201 71.5q-67 0 -113 -12t-80.5 -43t-50.5 -86.5t-16 -139.5h-99q0 192 84 282.5t275 90.5q184 0 271 -93t87 -300v-807h-86l-2 160q-59 -96 -142 -133t-210 -37q-156 0 -245 77t-89 240zM190 305 q0 -114 66 -166.5t203 -52.5q65 0 118.5 19t87.5 49.5t57 70t32.5 78.5t9.5 78v154q-298 30 -436 -23t-138 -207zM324 1438q0 81 58 126.5t140 45.5q80 0 140.5 -45t60.5 -125t-58.5 -126t-144.5 -46q-85 0 -141 45.5t-55 124.5zM399.5 1406q7.5 -32 41 -54.5t81.5 -22.5 q62 0 97 34t34.5 75.5t-35.5 75.5t-96 34q-48 0 -81.5 -22.5t-41 -55t0 -64.5zM465 1677v6l117 150h106l-141 -156h-82z" />
<glyph unicode="&#x1fc;" horiz-adv-x="1275" d="M8 -2l617 1583h585v-90h-465v-598h422v-96h-422v-697h506v-100h-608v387h-375l-149 -389h-111zM303 485h340l4 899zM786 1677v9l101 223h114v-6l-129 -226h-86z" />
<glyph unicode="&#x1fd;" horiz-adv-x="1538" d="M102 307q0 110 40 181t120 106t199 44t276 -5v172q2 168 -45 238.5t-182 70.5q-134 0 -193 -61.5t-59 -225.5h-98q0 194 80.5 286.5t269.5 92.5q113 0 179.5 -40.5t98.5 -135.5q58 182 306 182q102 0 170.5 -29t107 -89t54.5 -139.5t16 -194.5v-178h-606v-170 q0 -182 54 -254t204 -72q64 0 109 12t70.5 31t39.5 52t18 65t4 80h92q0 -168 -77.5 -250t-255.5 -82q-126 0 -204.5 41t-115.5 133q-56 -97 -140 -137.5t-200 -40.5q-156 0 -244 77t-88 240zM205 305q0 -114 65 -166.5t201 -52.5q103 0 171 55.5t101 149.5q-6 55 -6 123v121 q-294 29 -413 -22t-119 -208zM731 1348v8l98 221h113v-6l-127 -223h-84zM834 838q0 -5 1 -15.5t1 -15.5v-131h516v82q0 51 -1.5 87.5t-8 77.5t-17 69t-30 55t-46.5 43t-66 26t-89 10q-74 0 -123 -16.5t-78 -53.5t-42 -88.5t-17 -129.5z" />
<glyph unicode="&#x1fe;" horiz-adv-x="1142" d="M121 506v571q0 115 11.5 194t40.5 144.5t81 103.5t132 58t194 20q162 0 251 -38l62 153h98l-80 -199q72 -59 99.5 -163.5t27.5 -274.5v-567q0 -112 -11.5 -191.5t-41.5 -145.5t-82 -104.5t-131.5 -59.5t-191.5 -21q-163 0 -261 43l-57 -148h-98l78 197q-67 60 -94 163 t-27 265zM223 512q0 -128 11 -203t51 -127l510 1284q-75 37 -215 37q-57 0 -103 -6.5t-81.5 -16t-62 -29t-45 -38t-30.5 -50.5t-19 -58t-10.5 -69.5t-4.5 -77t-1 -87.5v-559zM356 121q77 -41 224 -41q57 0 103.5 7t81 17t61.5 30.5t45 39.5t30.5 51.5t19 58.5t10 69t4.5 75 t1 84v559q0 131 -12 209.5t-54 130.5zM551 1708v8l90 201h102v-4l-114 -205h-78z" />
<glyph unicode="&#x1ff;" horiz-adv-x="954" d="M102 434v328q0 167 42 266t123 139.5t214 40.5q118 0 189 -28l57 143h88l-74 -184q119 -98 119 -383v-322q0 -244 -90.5 -346t-288.5 -102q-112 0 -186 26l-59 -149h-89l76 190q-121 93 -121 381zM205 442q0 -110 12.5 -178.5t44.5 -109.5l371 933q-61 25 -152 25 q-83 0 -136.5 -19t-84.5 -63.5t-43 -107.5t-12 -162v-318zM330 102q54 -22 151 -22q161 0 219 81t58 277v318q0 208 -56 282zM432 1368v8l96 195h113v-4l-125 -199h-84z" />
<glyph unicode="&#x218;" horiz-adv-x="1058" d="M90 358h98q0 -144 80.5 -210t243.5 -66q195 1 274.5 87.5t79.5 291.5q0 59 -12.5 106t-31.5 80t-52.5 58t-65.5 40t-82 26t-89.5 16.5t-98.5 11.5q-69 7 -123.5 26t-106.5 60t-81 117t-29 182q0 219 107 317.5t327 100.5q88 0 155.5 -17t124 -56t88.5 -110.5t36 -173.5 h-98q-3 264 -308 264q-84 0 -142.5 -15t-102.5 -50.5t-65 -100t-21 -159.5q0 -56 9.5 -99.5t23.5 -73t42 -52t52 -35t68 -22t75.5 -14t87.5 -10.5q35 -4 53 -6q173 -23 269 -131.5t96 -281.5q0 -114 -22 -198.5t-60.5 -137t-98.5 -84t-126.5 -43.5t-153.5 -12 q-211 2 -315.5 93.5t-104.5 280.5zM379 -381q64 34 86.5 89.5t17.5 168.5h101q-2 -139 -33 -200.5t-133 -122.5z" />
<glyph unicode="&#x219;" horiz-adv-x="917" d="M78 334h102q0 -242 283 -242q136 0 206 63.5t70 180.5q0 42 -9 75.5t-23 56t-38.5 40t-46.5 28t-57.5 18.5t-61 12t-65.5 9l-13.5 1.5t-12 1.5t-13.5 2q-57 7 -95.5 15.5t-84 30t-73 53t-46 86t-18.5 128.5q0 150 95.5 234.5t275.5 84.5q362 0 362 -317h-100 q-3 112 -64.5 166.5t-195.5 54.5t-199.5 -58t-65.5 -163q0 -40 8 -72t19 -53.5t33.5 -38.5t40 -26t51 -16.5t53.5 -10.5t60 -8q21 -3 32 -4q45 -7 75 -12.5t71.5 -17t68.5 -26t57 -39.5t47 -56t28.5 -76.5t11.5 -100.5q0 -162 -96 -253t-287 -91q-385 0 -385 340zM328 -381 q64 34 86.5 89.5t17.5 168.5h100q-2 -139 -32.5 -200.5t-132.5 -122.5z" />
<glyph unicode="&#x21a;" horiz-adv-x="800" d="M16 1475v96h762v-96h-329v-1475h-103v1475h-330zM254 -369q64 34 86.5 89.5t17.5 168.5h101q-2 -139 -33 -200.5t-133 -122.5z" />
<glyph unicode="&#x21b;" horiz-adv-x="550" d="M131 336v1141l102 14v-283h248v-96h-248v-774q0 -84 13 -135.5t46 -79.5t80 -35.5t124 -1.5v-90q-202 -20 -283.5 58.5t-81.5 281.5zM184 -385q64 34 87 89.5t18 168.5h100q-2 -139 -33 -201t-133 -123z" />
<glyph unicode="&#x2c6;" horiz-adv-x="727" d="M59 1360v8l256 234h64l256 -234v-8h-109l-180 162l-178 -162h-109z" />
<glyph unicode="&#x2c7;" horiz-adv-x="659" d="M51 1571v8h109l180 -162l178 162h109v-8l-256 -234h-64z" />
<glyph unicode="&#x2d8;" horiz-adv-x="614" d="M80 1581h78q9 -139 153 -139q145 0 154 139h78q-8 -214 -232 -217q-220 3 -231 217z" />
<glyph unicode="&#x2d9;" horiz-adv-x="319" d="M76 1511q0 29 16.5 49.5t40.5 25.5t48 0.5t40.5 -25t16.5 -50.5q0 -29 -16.5 -49t-40.5 -25t-48 -0.5t-40.5 24.5t-16.5 50z" />
<glyph unicode="&#x2da;" horiz-adv-x="655" d="M111 1378q0 99 64.5 156t154.5 57q89 0 155 -56.5t66 -154.5q0 -100 -64.5 -157.5t-158.5 -57.5q-95 0 -156.5 57t-60.5 156zM188 1378.5q0 -51.5 37.5 -94.5t104.5 -43q69 0 107.5 43t37.5 94.5t-39.5 94.5t-105.5 43t-104.5 -43t-37.5 -94.5z" />
<glyph unicode="&#x2db;" horiz-adv-x="610" d="M193 -225q0 75 67 143t143 107l74 -25q-101 -70 -142.5 -119t-41.5 -92q0 -40 27 -56t77 -16q48 0 80 4v-94q-52 -6 -103 -2t-91 15.5t-65 45.5t-25 89z" />
<glyph unicode="&#x2dc;" horiz-adv-x="731" d="M90 1468q31 77 94 112t148 -1l92 -41q18 -6 25.5 -8t23 -5t24.5 -1t21 7t20 17.5t15 30.5l78 -18q-10 -48 -33.5 -78.5t-55.5 -41.5t-67.5 -8.5t-71.5 17.5l-90 41q-99 43 -147 -53z" />
<glyph unicode="&#x2dd;" horiz-adv-x="593" d="M80 1395l115 192h116v-4l-133 -188h-98zM309 1393l123 194h115v-4l-141 -190h-97z" />
<glyph unicode="&#x401;" d="M143 0v1585h715v-94h-612v-598h551v-96h-551v-697h653v-100h-756zM262 1778q0 34 23.5 53.5t51.5 20t51.5 -19t23.5 -54.5q0 -44 -37.5 -63t-75 -0.5t-37.5 63.5zM635 1778q0 34 23.5 53.5t51 20t51 -19t23.5 -54.5q0 -44 -37 -63t-74.5 -0.5t-37.5 63.5z" />
<glyph unicode="&#x402;" horiz-adv-x="1214" d="M16 1485v96h762v-96h-327v-436q35 62 112 93.5t156 31.5q201 0 286 -103t85 -352v-340q0 -107 -11.5 -176t-42 -119.5t-85.5 -71t-140 -16.5v94q75 -1 110 19t50.5 79.5t15.5 184.5v348q0 80 -6.5 134.5t-24 99t-48 70t-77 39t-112.5 13.5q-137 0 -202 -66t-68 -218v-793 h-103v1485h-330z" />
<glyph unicode="&#x403;" horiz-adv-x="813" d="M143 0v1581h621v-96h-518v-1485h-103zM399 1696v10l95 223h110v-6l-123 -227h-82z" />
<glyph unicode="&#x404;" horiz-adv-x="1103" d="M125 508v557q0 111 10.5 190.5t39.5 147.5t78.5 108.5t127.5 63t188 22.5q120 0 200 -24.5t127 -79t66 -130t19 -187.5h-94q0 87 -14 145.5t-49.5 102t-98 63.5t-156.5 20q-68 0 -121 -11.5t-89 -29.5t-61.5 -50.5t-39.5 -64.5t-21.5 -81.5t-9.5 -91.5t-2 -105v-221h437 v-94h-437v-246q0 -51 1 -86t5 -76t11 -69t19.5 -58.5t30.5 -50t44 -38.5t59 -29t76.5 -16.5t97.5 -6.5q78 0 133 13.5t90 38t55.5 67t29.5 91.5t12 122h92q-3 -89 -15 -153.5t-40 -117.5t-74.5 -85.5t-116 -50t-166.5 -17.5q-108 0 -185 21t-127.5 59.5t-79.5 104t-40.5 144 t-11.5 189.5z" />
<glyph unicode="&#x405;" horiz-adv-x="1062" d="M90 358h98q0 -144 80.5 -210t243.5 -66q195 1 274.5 87.5t79.5 291.5q0 59 -12.5 106t-31.5 80t-52.5 58t-65.5 40t-82 26t-89.5 16.5t-98.5 11.5q-69 7 -123.5 26t-106.5 60t-81 117t-29 182q0 219 107 317.5t327 100.5q88 0 155.5 -17t124 -56t88.5 -110.5t36 -173.5 h-98q-3 264 -308 264q-84 0 -142.5 -15t-102.5 -50.5t-65 -100t-21 -159.5q0 -56 9.5 -99.5t23.5 -73t42 -52t52 -35t68 -22t75.5 -14t87.5 -10.5q35 -4 53 -6q173 -23 269 -131.5t96 -281.5q0 -114 -22 -198.5t-60.5 -137t-98.5 -84t-126.5 -43.5t-153.5 -12 q-211 2 -315.5 93.5t-104.5 280.5z" />
<glyph unicode="&#x406;" horiz-adv-x="395" d="M143 0v1581h109v-1581h-109z" />
<glyph unicode="&#x407;" horiz-adv-x="395" d="M-23 1767q0 34 23.5 53.5t51.5 20t51.5 -19t23.5 -54.5q0 -44 -37.5 -63t-75 -0.5t-37.5 63.5zM143 -2v1585h109v-1585h-109zM281 1767q0 34 23.5 53.5t51 20t51 -19t23.5 -54.5q0 -44 -37 -63t-74.5 -0.5t-37.5 63.5z" />
<glyph unicode="&#x408;" horiz-adv-x="897" d="M16 379h99q0 -54 5.5 -94t23 -79t47 -63t79.5 -38.5t119 -14.5t119.5 13.5t81 36t49 59t25.5 75t8 91.5v1216h102v-1212q0 -197 -94.5 -289t-290.5 -92q-193 0 -283 95.5t-90 295.5z" />
<glyph unicode="&#x409;" horiz-adv-x="1470" d="M27 -2l6 100q43 -2 79 9t61.5 28.5t45.5 49.5t33 60.5t21.5 75t13 79.5t6 87t1.5 84.5t-0.5 84t-0.5 75.5q-2 285 -2 850h547v-661h180q99 0 167.5 -21.5t116.5 -73t70.5 -138.5t22.5 -216v-29q0 -134 -22 -221t-71.5 -135.5t-116 -67t-167.5 -18.5h-289v1481h-332 q0 -81 -0.5 -235.5t-0.5 -280.5t1 -234q2 -228 -8 -321q-33 -323 -220 -393q-62 -23 -142 -19zM838 98h180q87 0 141 19t83.5 65t39.5 108t10 163v20q0 197 -56.5 272.5t-217.5 75.5h-180v-723z" />
<glyph unicode="&#x40a;" horiz-adv-x="1429" d="M125 0v1581h106v-659h457v659h109v-661h180q99 0 167.5 -21.5t116.5 -73t70.5 -138.5t22.5 -216v-29q0 -134 -22 -221t-71.5 -135.5t-116 -67t-167.5 -18.5h-289v819h-457v-819h-106zM797 98h180q87 0 141 19t83.5 65t39.5 108t10 163v20q0 197 -56.5 272.5t-217.5 75.5 h-180v-723z" />
<glyph unicode="&#x40b;" horiz-adv-x="1214" d="M16 1485v96h762v-96h-327v-436q35 62 112 93.5t156 31.5q201 0 286 -103t85 -352v-719h-103v721q0 80 -6.5 134.5t-24 99t-48 70t-77 39t-112.5 13.5q-137 0 -202 -66t-68 -218v-793h-103v1485h-330z" />
<glyph unicode="&#x40c;" horiz-adv-x="968" d="M133 0v1581h107v-709h84q25 0 47.5 7t40 16t35 29t29 34.5t26 44.5t21.5 46.5t20 53.5t18 52.5t17 56.5q12 42 19 63.5t20 59.5t22.5 58.5t24.5 51.5t29.5 47t34.5 36.5t41.5 29.5t48 16.5t58 6t66.5 -9.5l-16 -88q-46 10 -83.5 -3t-60.5 -35.5t-43.5 -65t-30.5 -73.5 t-24 -80q-8 -29 -12 -42q-22 -71 -35 -108.5t-36.5 -92.5t-53 -92.5t-66.5 -63.5l480 -827h-111l-461 774h-149v-774h-107zM436 1649v10l94 223h111v-6l-123 -227h-82z" />
<glyph unicode="&#x40e;" horiz-adv-x="897" d="M25 1581h108l189 -551l151 -483h2l133 475l174 559h109l-424 -1368q-50 -157 -143.5 -205t-251.5 4l37 92q109 -40 167 -10.5t89 135.5l55 191zM207 1896l88 2q0 -76 46 -106.5t126 -30.5q78 0 121.5 31t44.5 106l88 -2q-3 -223 -254 -223q-254 0 -260 223z" />
<glyph unicode="&#x40f;" horiz-adv-x="1046" d="M143 0v1581h105v-1485h551v1487h106v-1583h-332v-213h-100v213h-330z" />
<glyph unicode="&#x410;" horiz-adv-x="960" d="M18 0l406 1581h113l405 -1581h-108l-103 389h-506l-100 -389h-107zM250 485h459l-226 947h-2z" />
<glyph unicode="&#x411;" horiz-adv-x="997" d="M123 6l2 1575h704v-96h-604v-580h226q131 0 217 -21t145.5 -72.5t85 -137.5t25.5 -217t-25.5 -217.5t-84.5 -138.5t-145.5 -73.5t-217.5 -21.5h-328zM223 106h228q78 0 132.5 6t97.5 22t68.5 40.5t42.5 65.5t23 92t6 125q0 110 -14.5 174.5t-57.5 105t-111.5 54.5 t-186.5 14h-226q-2 -231 -2 -699z" />
<glyph unicode="&#x412;" horiz-adv-x="997" d="M123 4l2 1577h342q209 0 307 -94t98 -295q0 -71 -17.5 -137t-63 -123.5t-111.5 -75.5q65 -10 111 -37t71.5 -60.5t39.5 -85.5t18 -97.5t4 -110.5q0 -131 -21.5 -215t-75.5 -141t-144.5 -81t-231.5 -24h-328zM225 104h226q64 0 114.5 5t88.5 16.5t65 25.5t45.5 38.5 t29.5 47.5t17.5 60.5t8.5 70.5t3 83q1 99 -8.5 157.5t-40.5 104t-90 64t-156 18.5h-303v-691zM225 889h230q174 0 246.5 77t72.5 226q0 163 -71.5 230t-235.5 67h-240z" />
<glyph unicode="&#x413;" horiz-adv-x="813" d="M143 0v1581h621v-96h-518v-1485h-103z" />
<glyph unicode="&#x414;" horiz-adv-x="1134" d="M10 94h90q61 54 101 127t57.5 161t23 160t5.5 169v870h686v-1487h112v-340h-96v246h-887v-246h-92v340zM219 94h653v1393h-485v-776q0 -100 -5 -170t-21 -154t-51.5 -156.5t-90.5 -136.5z" />
<glyph unicode="&#x415;" d="M143 0v1581h715v-94h-612v-594h551v-96h-551v-697h653v-100h-756z" />
<glyph unicode="&#x416;" horiz-adv-x="1488" d="M10 0l502 823q-70 50 -110 136.5t-80 224.5q-6 19 -17 62q-13 51 -21 77.5t-26.5 68t-39.5 61t-55.5 31.5t-78.5 3l-18 88q37 8 69.5 8t57.5 -4.5t48.5 -22.5t39 -30t33 -44t26.5 -48.5t23.5 -59t20 -60t19.5 -65.5q7 -25 11 -37q13 -43 19.5 -64t20 -60t24 -59.5 t26.5 -50.5t32 -46t36.5 -33t45 -24t52.5 -7h28v713h105v-713h24q28 0 52.5 7t45.5 24t37 32.5t32 46.5t26 50t23.5 60t19.5 59.5t20 64.5q48 162 70 210q56 129 149 155q56 15 130 -2l-19 -88q-25 8 -48 3.5t-40 -9t-33 -20t-26.5 -29t-21 -35.5t-17.5 -40.5t-14.5 -43.5 t-12 -44.5t-11 -44t-11.5 -40.5q-27 -91 -46.5 -144.5t-58 -117.5t-86.5 -99l500 -823h-127l-467 772h-90v-772h-105v772h-94l-465 -772h-129z" />
<glyph unicode="&#x417;" horiz-adv-x="991" d="M80 395h106q0 -143 70 -225t215 -82q177 0 254.5 82t77.5 272q0 177 -87.5 272t-258.5 95h-113v98h113q43 0 83 6.5t83.5 25.5t75.5 49t52.5 80.5t20.5 115.5q0 148 -70 227t-219 78q-155 -1 -215.5 -64.5t-66.5 -220.5h-103q0 192 93 288.5t292 96.5q192 0 287.5 -104.5 t95.5 -296.5q0 -120 -50.5 -205.5t-149.5 -124.5q239 -97 239 -403q0 -247 -101 -358t-335 -111q-187 0 -288 101.5t-101 307.5z" />
<glyph unicode="&#x418;" horiz-adv-x="1048" d="M143 0v1581h107v-795l-17 -579h5l561 1374h108v-1581h-108v850l14 510h-6l-545 -1360h-119z" />
<glyph unicode="&#x419;" horiz-adv-x="1048" d="M143 0v1581h107v-795l-17 -579h5l561 1374h108v-1581h-108v850l14 510h-6l-545 -1360h-119zM285 1915l88 2q0 -76 45 -104.5t127 -28.5q79 0 122 29t44 104l88 -2q-3 -223 -254 -223q-254 0 -260 223z" />
<glyph unicode="&#x41a;" horiz-adv-x="968" d="M133 0v1581h107v-709h84q25 0 47.5 7t40 16t35 29t29 34.5t26 44.5t21.5 46.5t20 53.5t18 52.5t17 56.5q12 42 19 63.5t20 59.5t22.5 58.5t24.5 51.5t29.5 47t34.5 36.5t41.5 29.5t48 16.5t58 6t66.5 -9.5l-16 -88q-46 10 -83.5 -3t-60.5 -35.5t-43.5 -65t-30.5 -73.5 t-24 -80q-8 -29 -12 -42q-22 -71 -35 -108.5t-36.5 -92.5t-53 -92.5t-66.5 -63.5l480 -827h-111l-461 774h-149v-774h-107z" />
<glyph unicode="&#x41b;" horiz-adv-x="1101" d="M10 -2l6 100q43 -2 79 9t61.5 28.5t45.5 49.5t33 60.5t21.5 75t13 79.5t6 87t1.5 84.5t-0.5 84t-0.5 75.5q-2 285 -2 850h687v-1581h-103v1479h-477q0 -81 -0.5 -235t-0.5 -279.5t1 -233.5q2 -230 -9 -325q-34 -325 -226 -391q-60 -20 -136 -17z" />
<glyph unicode="&#x41c;" horiz-adv-x="1191" d="M143 0v1581h113l340 -995l342 995h113v-1581h-105v913l12 416l-344 -969h-34l-344 969l14 -416v-913h-107z" />
<glyph unicode="&#x41d;" horiz-adv-x="1046" d="M143 0v1581h107v-690h553v690h102v-1581h-102v788h-553v-788h-107z" />
<glyph unicode="&#x41e;" horiz-adv-x="1165" d="M121 506v571q0 115 11.5 194t40.5 144.5t81 103.5t132 58t194 20q142 0 232 -29t140 -96.5t68 -159.5t18 -237v-567q0 -112 -11.5 -191.5t-41.5 -145.5t-82 -104.5t-131.5 -59.5t-191.5 -21q-94 0 -164.5 13.5t-121.5 43t-84.5 70.5t-53 101.5t-27.5 129.5t-8 162z M223 512q0 -66 1.5 -105t9 -91t21 -82t39.5 -63t64 -50.5t93.5 -29t128.5 -11.5q57 0 103.5 7t81 17t61.5 30.5t45 39.5t30.5 51.5t19 58.5t10 69t4.5 75t1 84v559q0 69 -1.5 109t-8.5 92.5t-21 82t-39.5 62t-63.5 48.5t-93.5 27t-128.5 11q-57 0 -103 -6.5t-81.5 -16 t-62 -29t-45 -38t-30.5 -50.5t-19 -58t-10.5 -69.5t-4.5 -77t-1 -87.5v-559z" />
<glyph unicode="&#x41f;" horiz-adv-x="1046" d="M143 -2v1583h762v-1581h-104v1485h-551v-1487h-107z" />
<glyph unicode="&#x420;" horiz-adv-x="989" d="M143 0v1581h381q102 0 169 -18.5t116.5 -67t71.5 -135.5t22 -221v-138q0 -170 -42 -268.5t-122.5 -138t-214.5 -39.5h-272v-555h-109zM252 653h272q162 0 219.5 76t57.5 270v129q0 81 -6 134.5t-23 98.5t-48.5 70t-80 38.5t-119.5 13.5h-272v-830z" />
<glyph unicode="&#x421;" horiz-adv-x="1071" d="M121 508v559q0 112 10.5 191.5t39.5 148t78.5 109.5t127.5 63.5t188 22.5q121 0 201.5 -25t128 -80t67 -131t19.5 -188h-96q0 88 -14 147t-49 102.5t-98 63.5t-159 20q-68 0 -120.5 -11.5t-88.5 -29.5t-61.5 -50.5t-39.5 -64.5t-22 -82t-10 -92.5t-2 -105.5v-563 q0 -66 2 -110t10 -94t22 -81t39.5 -62t61.5 -47.5t88.5 -27t120.5 -10.5q79 0 134.5 13.5t90.5 38t56 67.5t29.5 92t11.5 123h94q-4 -113 -23.5 -188t-65.5 -131.5t-126 -82.5t-201 -26q-135 0 -222 30.5t-136 98.5t-67.5 160t-18.5 233z" />
<glyph unicode="&#x422;" horiz-adv-x="794" d="M16 1485v96h762v-96h-329v-1485h-103v1485h-330z" />
<glyph unicode="&#x423;" horiz-adv-x="897" d="M25 1581h108l189 -551l151 -483h2l133 475l174 559h109l-424 -1368q-50 -157 -143.5 -205t-251.5 4l37 92q109 -40 167 -10.5t89 135.5l55 191z" />
<glyph unicode="&#x424;" horiz-adv-x="1484" d="M121 610v373q0 133 22 218.5t71 134t116 67t170 18.5h186v166h105v-166h190q81 0 138.5 -11.5t105 -40t75.5 -78.5t43 -126t15 -182v-373q0 -169 -41.5 -266.5t-121.5 -136.5t-214 -39h-190v-174h-105v174h-186q-101 0 -169.5 21t-117 71.5t-70.5 136t-22 213.5zM223 608 q0 -98 12 -159.5t43 -104.5t84.5 -60.5t137.5 -17.5h186v1057h-186q-72 0 -120.5 -13t-79.5 -37.5t-48 -69t-23 -97.5t-6 -133v-365zM791 266h190q83 0 136 17.5t84.5 60.5t43.5 104.5t12 159.5v365q0 101 -10 161.5t-39.5 106t-84 64t-142.5 18.5h-190v-1057z" />
<glyph unicode="&#x425;" horiz-adv-x="892" d="M18 0l365 784l-332 797h111l157 -371l127 -327l129 327l156 371h111l-332 -797l364 -784h-114l-146 309l-168 381l-172 -391l-141 -299h-115z" />
<glyph unicode="&#x426;" horiz-adv-x="1062" d="M143 0v1581h101v-1485h553v1485h102v-1485h113v-340h-97v244h-772z" />
<glyph unicode="&#x427;" horiz-adv-x="1028" d="M127 1001v580h102v-582q0 -92 10 -150t39.5 -105t87 -68t148.5 -21q164 0 264 45v881h109v-1577h-109v600q-95 -45 -266 -45q-115 0 -191 27.5t-118.5 86t-59 136.5t-16.5 192z" />
<glyph unicode="&#x428;" horiz-adv-x="1591" d="M143 0v1581h105v-1485h497v1485h101v-1485h497v1485h107v-1581h-1307z" />
<glyph unicode="&#x429;" horiz-adv-x="1615" d="M143 0v1581h109v-1485h496v1485h100v-1485h498v1485h108v-1485h111v-340h-95v244h-1327z" />
<glyph unicode="&#x42a;" horiz-adv-x="1144" d="M-4 1485v96h416v-553h270q134 0 214 -39.5t121.5 -138.5t41.5 -270v-138q0 -134 -21.5 -220.5t-71 -135.5t-116 -67.5t-168.5 -18.5h-379v1485h-307zM412 98h270q88 0 142.5 19t84 65.5t39.5 107.5t10 163v129q0 197 -57 272.5t-219 75.5h-270v-832z" />
<glyph unicode="&#x42b;" horiz-adv-x="1380" d="M143 0v1581h109v-553h272q133 0 213 -39.5t122 -138.5t42 -270v-138q0 -134 -22 -221t-71.5 -135.5t-116 -67t-167.5 -18.5h-381zM252 98h272q87 0 141 19t84 65t40 108t10 163v129q0 196 -57 272t-218 76h-272v-832zM1139 0v1581h106v-1581h-106z" />
<glyph unicode="&#x42c;" horiz-adv-x="987" d="M143 0v1581h109v-553h272q133 0 213 -39.5t122 -138.5t42 -270v-138q0 -134 -22 -221t-71.5 -135.5t-116 -67t-167.5 -18.5h-381zM252 98h272q87 0 141 19t84 65t40 108t10 163v129q0 196 -57 272t-218 76h-272v-832z" />
<glyph unicode="&#x42d;" horiz-adv-x="1103" d="M121 414h92q3 -73 12 -121.5t29.5 -91.5t55 -67.5t89.5 -38t133 -13.5q60 0 107.5 7t83 23t61 35t42.5 50t27.5 60.5t15.5 74.5t6.5 84t1.5 96v246h-437v94h437v221q0 63 -2 105t-9.5 91.5t-22 81.5t-40 64.5t-61.5 50.5t-89 29.5t-121 11.5q-94 0 -156.5 -20 t-97.5 -63.5t-49 -102t-14 -145.5h-94q0 112 19 187.5t65.5 130t126.5 79t200 24.5q110 0 188 -22.5t128 -63t78.5 -108.5t39.5 -147.5t11 -190.5v-557q0 -111 -11.5 -190t-41 -144t-79.5 -104t-127.5 -59.5t-185.5 -20.5q-120 0 -199.5 25.5t-125 81.5t-64.5 130.5 t-22 186.5z" />
<glyph unicode="&#x42e;" horiz-adv-x="1501" d="M143 0v1579h107v-721h268v217q0 112 10 189.5t37.5 143.5t75.5 104.5t123 59.5t182 21q89 0 155.5 -13.5t114 -43.5t78 -70.5t48.5 -101t25 -129t7 -160.5v-569q0 -136 -18 -226.5t-65 -158.5t-131.5 -99.5t-213.5 -31.5q-104 0 -179 21.5t-123 61t-76 105t-39 143 t-11 185.5v250h-268v-756h-107zM621 512q0 -44 0.5 -71.5t3 -66t7 -63t12.5 -55.5t20.5 -50t30 -41t41.5 -35t54.5 -24.5t69.5 -16.5t86 -5q52 0 95 7t75 18t56.5 32t41 40.5t27.5 52.5t17 58.5t9.5 68t4 72t0.5 79.5v557q0 72 -1 108t-7 91t-18.5 82t-35.5 61.5t-57.5 50 t-86.5 26.5t-120 11t-120 -11.5t-86.5 -26.5t-57.5 -49.5t-35 -61t-18 -82t-7 -91t-1 -108.5v-557z" />
<glyph unicode="&#x42f;" horiz-adv-x="1017" d="M92 2l332 584q-159 14 -231 106t-72 303v125q0 135 22 224.5t71 141.5t116.5 73.5t167.5 21.5h379v-1579h-109v582h-227l-322 -582h-127zM223 997q0 -188 55 -252.5t220 -64.5h270v797h-270q-89 0 -143 -18.5t-83 -64.5t-39 -108t-10 -166v-123z" />
<glyph unicode="&#x430;" horiz-adv-x="991" d="M88 307q0 109 46.5 181t134 106t212.5 44t283 -5v178q2 160 -59 231.5t-201 71.5q-68 0 -113 -11t-80 -40.5t-51 -84t-16 -138.5h-99q0 191 84 278.5t275 87.5q184 0 271 -93t87 -300v-813h-86l-2 160q-59 -96 -142 -133t-210 -37q-156 0 -245 77t-89 240zM190 305 q0 -114 66 -166.5t203 -52.5q65 0 118.5 19t87.5 49.5t57 70t32.5 78.5t9.5 78v154q-298 30 -436 -23t-138 -207z" />
<glyph unicode="&#x431;" horiz-adv-x="960" d="M102 440v660q0 77 7.5 141t18.5 111t31.5 84.5t39 62.5t49.5 44t53.5 29t60.5 17t62 9.5t65 5.5q11 1 40 3.5t40.5 4t35 5.5t36.5 9.5t31 13.5t32 20t27 28l64 -72q-38 -42 -92 -67t-94 -32.5t-107 -13.5q-43 -2 -61 -3.5t-52.5 -7.5t-57.5 -19t-42 -33q-84 -87 -84 -340 v-56q41 71 116 102.5t160 31.5q201 0 289 -106t88 -357v-287q0 -235 -90.5 -339.5t-286.5 -104.5q-100 0 -168 20.5t-117 71.5t-71.5 140t-22.5 224zM205 438q0 -200 57 -276t219 -76t219.5 77t57.5 271v283q0 199 -57.5 278.5t-219.5 79.5q-142 0 -209 -70t-67 -239v-328z " />
<glyph unicode="&#x432;" horiz-adv-x="923" d="M113 -8v1204h348q161 0 248.5 -74t87.5 -223q0 -87 -33.5 -158t-108.5 -94q41 -7 72 -21t50 -37.5t31 -47t17.5 -59t7 -63.5t1.5 -71q0 -131 -34.5 -206.5t-118.5 -112.5t-232 -37h-336zM217 86h232q76 0 127.5 11.5t81 29.5t45 53.5t19.5 69.5t5 92q2 70 -5 112 t-30 75.5t-68 47t-118 13.5h-289v-504zM217 680h234q131 0 186 54t55 157q0 115 -54 163t-177 48h-244v-422z" />
<glyph unicode="&#x433;" horiz-adv-x="712" d="M125 0v1190h549v-98h-447v-1092h-102z" />
<glyph unicode="&#x434;" horiz-adv-x="1034" d="M23 94h92q50 44 86 103t55 116t29.5 132.5t13 132t2.5 135.5v477h598v-1096h109v-321h-86v227h-809v-227h-90v321zM233 94h566v1004h-398v-385q0 -98 -5.5 -169.5t-21.5 -155t-51 -156.5t-90 -138z" />
<glyph unicode="&#x435;" horiz-adv-x="964" d="M109 432v322q0 242 90.5 347t287.5 105q203 0 286 -105.5t83 -346.5v-179h-649v-135q0 -192 59.5 -276t220.5 -84q80 0 133 17t81 50.5t38.5 74t10.5 97.5h92q0 -331 -355 -331q-197 0 -287.5 102t-90.5 342zM207 670h559v82q0 94 -10.5 155.5t-39.5 113t-85.5 75.5 t-143.5 24q-161 0 -220.5 -83t-59.5 -279v-88z" />
<glyph unicode="&#x436;" horiz-adv-x="1337" d="M16 0v10l392 631q-28 14 -48.5 34t-36 48t-24.5 49.5t-23 61t-22 59.5q-5 14 -10.5 33.5t-10 34t-10.5 33.5t-12.5 32t-16 28t-20.5 22.5t-27.5 16t-35.5 7t-45 -3.5l-11 94q32 5 59 5t48 -3.5t40 -13.5t32 -20.5t26 -28.5t21 -33t17.5 -38.5t15.5 -41t15.5 -44 t16.5 -44.5q6 -15 15.5 -42t15 -43t15.5 -39t19 -37t23.5 -30t29.5 -24.5t36.5 -14.5t46.5 -6h71v498h95v-498h75q32 0 58 11t42 24t31.5 42t23 46.5t21 57t19.5 55.5q7 18 16.5 44.5t15.5 44t15.5 41t17.5 38.5t21 33t26 28.5t31.5 20.5t39.5 13.5t48 3.5t58 -5l-10 -94 q-43 8 -73 0t-48.5 -33.5t-27.5 -46.5t-21 -63t-19 -60q-9 -22 -26.5 -73t-28 -75.5t-35 -55.5t-57.5 -48l385 -631v-10h-113l-358 596h-127v-596h-99v596h-120l-361 -596h-117z" />
<glyph unicode="&#x437;" horiz-adv-x="882" d="M82 293h96q0 -126 60.5 -172.5t185.5 -46.5q127 0 197.5 57t70.5 195t-66 206t-206 68h-129v90h127q110 0 175.5 52.5t65.5 162.5q0 209 -235 209q-121 0 -175.5 -38.5t-60.5 -155.5h-94q0 154 83.5 221t248.5 67q155 0 245.5 -72t90.5 -229q0 -80 -40.5 -150 t-117.5 -108q187 -72 187 -311q0 -186 -97.5 -272t-269.5 -86q-169 0 -255.5 71.5t-86.5 241.5z" />
<glyph unicode="&#x438;" horiz-adv-x="987" d="M119 8v1184h100v-993l88 163l484 830h83v-1184h-100v993l-149 -274l-418 -719h-88z" />
<glyph unicode="&#x439;" horiz-adv-x="987" d="M119 8v1184h100v-993l88 163l484 830h83v-1184h-100v993l-149 -274l-418 -719h-88zM272 1561h86q0 -72 42.5 -98.5t121.5 -26.5q78 0 118.5 26t41.5 99h86q-5 -211 -246 -211q-245 0 -250 211z" />
<glyph unicode="&#x43a;" horiz-adv-x="892" d="M115 0v1190h104v-522h107q33 0 58 10.5t40.5 25.5t29 42t20.5 48t18 57t18 56q46 124 59 149q53 109 139 131q49 12 113 1l-8 -90q-37 6 -66 -1t-46.5 -19t-33.5 -39.5t-23.5 -47t-20.5 -59.5t-21 -60q-10 -26 -24 -75.5t-24 -78t-33 -60.5t-56 -48l418 -610h-127 l-385 573h-150v-573h-106z" />
<glyph unicode="&#x43b;" horiz-adv-x="997" d="M12 -4l4 96q55 -2 95.5 18.5t63.5 57t37.5 83.5t19 101t5.5 105t0 99q-1 36 -1 52v582h649v-1190h-101v1098h-448v-490q0 -205 -12 -290q-36 -272 -218 -314q-43 -10 -94 -8z" />
<glyph unicode="&#x43c;" horiz-adv-x="1110" d="M121 0v1190h88l221 -508l129 -326l125 316l227 518h86v-1190h-100v543l12 418l-336 -781h-32l-334 781l14 -418v-543h-100z" />
<glyph unicode="&#x43d;" horiz-adv-x="991" d="M121 0v1190h100v-528h557v528h101v-1190h-101v569h-557v-569h-100z" />
<glyph unicode="&#x43e;" horiz-adv-x="962" d="M102 434v328q0 167 42 266t123 139.5t214 40.5q100 0 168.5 -21t117 -72.5t71 -139.5t22.5 -219v-322q0 -244 -90.5 -346t-288.5 -102q-100 0 -168.5 21t-117 72t-71 138t-22.5 217zM205 442q0 -104 10 -166.5t39.5 -110t84 -66.5t142.5 -19q161 0 219 81t58 277v318 q0 83 -6.5 137t-23 99t-48 69.5t-80 37.5t-119.5 13q-83 0 -136.5 -19t-84.5 -63.5t-43 -107.5t-12 -162v-318z" />
<glyph unicode="&#x43f;" horiz-adv-x="993" d="M121 0v1190h760v-1190h-101v1098h-559v-1098h-100z" />
<glyph unicode="&#x440;" horiz-adv-x="1017" d="M135 -373v1579h90l11 -131q93 137 296 137q191 0 276 -99.5t85 -332.5v-387q0 -399 -379 -399q-95 0 -161 25t-115 81v-473h-103zM238 410q-2 -176 56.5 -249t219.5 -73q82 0 136.5 19.5t85 60.5t43 95.5t12.5 133.5v381q0 132 -31 207t-87 103t-151 28q-152 -3 -218 -81 t-66 -230v-395z" />
<glyph unicode="&#x441;" horiz-adv-x="946" d="M102 438v318q0 243 94 345.5t293 102.5q190 0 271.5 -83.5t89.5 -260.5h-96q-3 59 -16 101.5t-41.5 77t-80.5 52t-127 17.5q-160 0 -222 -80t-62 -272v-312q0 -98 11.5 -161t41.5 -109.5t84 -67t139 -20.5q83 0 138 17.5t84.5 54.5t41 83t13.5 115h96q0 -188 -92.5 -279 t-280.5 -91q-197 0 -288 105t-91 347z" />
<glyph unicode="&#x442;" horiz-adv-x="786" d="M10 1096v94h760v-94h-330v-1096h-100v1096h-330z" />
<glyph unicode="&#x443;" horiz-adv-x="843" d="M31 1190h112l131 -483l162 -553h2l137 553l132 483h112l-393 -1419q-44 -159 -136.5 -208.5t-250.5 1.5l35 90q110 -37 163.5 -7.5t88.5 136.5l55 211z" />
<glyph unicode="&#x444;" horiz-adv-x="1513" d="M102 391v383q0 226 77.5 327.5t252.5 102.5q179 3 275 -131v569h98v-569q93 134 276 131q172 -2 251 -103.5t79 -326.5v-383q0 -86 -20.5 -158t-62 -127.5t-110.5 -85.5t-159 -26q-92 3 -146 24t-108 82v-471h-98v471q-54 -62 -107 -82.5t-145 -23.5q-92 -4 -161 26 t-110.5 85.5t-61.5 127.5t-20 158zM201 395q0 -71 12 -124.5t39.5 -96.5t78.5 -65t124 -21q147 3 200.5 76t53.5 242v395q0 145 -68.5 229t-198.5 80q-136 -3 -188.5 -76t-52.5 -262v-377zM803 406q0 -169 54 -242t202 -76q72 -1 122 20.5t77 65.5t38 97t11 124v377 q0 190 -51 262.5t-185 75.5q-131 4 -199.5 -79.5t-68.5 -229.5v-395z" />
<glyph unicode="&#x445;" horiz-adv-x="831" d="M18 0l334 618l-313 572h115l147 -272l113 -230l118 236l150 266h115l-322 -572l340 -618h-119l-164 309l-118 240l-127 -252l-156 -297h-113z" />
<glyph unicode="&#x446;" horiz-adv-x="1024" d="M121 0v1190h104v-1098h537v1098h100v-1098h113v-321h-96v229h-758z" />
<glyph unicode="&#x447;" horiz-adv-x="942" d="M90 817v373h105v-375q0 -99 10.5 -160.5t39.5 -106t81 -63t135 -18.5q137 0 201.5 69t64.5 228v426h102v-1190h-104v489q-34 -62 -110 -93t-154 -31q-200 0 -285.5 102t-85.5 350z" />
<glyph unicode="&#x448;" horiz-adv-x="1433" d="M121 0v1190h102v-1098h453v1098h96v-1098h449v1098h100v-1190h-1200z" />
<glyph unicode="&#x449;" horiz-adv-x="1480" d="M121 0v1190h98v-1098h453v1098h98v-1098h449v1098h98v-1098h115v-321h-97v229h-1214z" />
<glyph unicode="&#x44a;" horiz-adv-x="1093" d="M2 1096v94h371v-477h262q375 0 375 -359q0 -354 -375 -354h-365v1096h-268zM373 92h262q141 0 206.5 63.5t65.5 198.5q0 137 -65.5 200.5t-206.5 63.5h-262v-526z" />
<glyph unicode="&#x44b;" horiz-adv-x="1286" d="M121 0v1190h100v-477h262q377 0 377 -359q0 -185 -97 -269.5t-280 -84.5h-362zM221 92h262q142 0 208.5 63.5t66.5 198.5q0 137 -66.5 200.5t-208.5 63.5h-262v-526zM1073 0v1190h101v-1190h-101z" />
<glyph unicode="&#x44c;" horiz-adv-x="931" d="M123 0v1190h100v-477h262q377 0 377 -359q0 -185 -97 -269.5t-280 -84.5h-362zM223 92h262q142 0 208.5 63.5t66.5 198.5q0 137 -66.5 200.5t-208.5 63.5h-262v-526z" />
<glyph unicode="&#x44d;" horiz-adv-x="954" d="M102 354h97q2 -68 13.5 -114t40.5 -83.5t83.5 -55t136.5 -17.5q85 0 139 20.5t84.5 67t42 109.5t11.5 161v117h-381v94h381v101q0 192 -62.5 271t-222.5 79q-76 0 -127 -17t-79 -51.5t-40.5 -76t-15.5 -101.5h-97q8 176 89 259t270 83q199 0 293 -102.5t94 -343.5v-318 q0 -241 -91 -345.5t-288 -104.5q-187 0 -279 90.5t-92 277.5z" />
<glyph unicode="&#x44e;" horiz-adv-x="1302" d="M129 0v1190h100v-528h224v96q0 168 42 266.5t122.5 139t213.5 40.5t213 -39t122 -138.5t42 -272.5v-322q0 -243 -90 -344.5t-287 -101.5q-134 0 -214 38.5t-122 137t-42 270.5v135h-224v-567h-100zM553 440q0 -82 6.5 -137t23.5 -101t48.5 -71.5t80 -39t119.5 -13.5 q159 0 217 81.5t58 276.5v318q0 103 -10 165t-40 107.5t-83.5 63.5t-141.5 18q-161 0 -219.5 -78.5t-58.5 -273.5v-316z" />
<glyph unicode="&#x44f;" horiz-adv-x="876" d="M51 0l248 481q-66 8 -110.5 34.5t-67.5 69.5t-32 92t-9 116v47q0 88 12 148t43 108t89 71t145 23h395v-1190h-100v479h-256l-238 -479h-119zM176 793q0 -65 6.5 -103t26.5 -67t58 -40.5t102 -11.5h295v521h-295q-53 0 -89 -12t-56.5 -30.5t-31.5 -53.5t-13.5 -68 t-2.5 -88v-47z" />
<glyph unicode="&#x451;" horiz-adv-x="964" d="M109 438v322q0 242 90.5 347t287.5 105q203 0 286 -105.5t83 -346.5v-178h-649v-136q0 -192 59.5 -276t220.5 -84q80 0 133 17t81 51t38.5 74.5t10.5 97.5h92q0 -332 -355 -332q-197 0 -287.5 102t-90.5 342zM207 676h559v82q0 94 -10.5 155.5t-39.5 113t-85.5 75.5 t-143.5 24q-161 0 -220.5 -83t-59.5 -279v-88zM240 1446q0 34 23.5 53.5t51 20t51 -19t23.5 -54.5q0 -44 -37 -63t-74.5 -0.5t-37.5 63.5zM612 1446q0 34 23.5 53.5t51.5 20t51.5 -19t23.5 -54.5q0 -44 -37.5 -63t-75 -0.5t-37.5 63.5z" />
<glyph unicode="&#x452;" horiz-adv-x="1013" d="M-4 1321v86h149v174h105v-174h254v-86h-254v-272q35 62 112 93.5t156 31.5q201 0 286 -103t85 -352v-522q0 -107 -11.5 -176t-42 -119.5t-85.5 -71t-140 -16.5v94q75 -1 110 19t50.5 79t15.5 184v531q0 80 -6.5 134.5t-24 99t-48 70t-77 39t-112.5 13.5q-137 0 -202 -66 t-68 -218v-793h-103v1321h-149z" />
<glyph unicode="&#x453;" horiz-adv-x="712" d="M125 0h102v1092h447v98h-549v-1190zM340 1337v11l94 223h111v-6l-123 -228h-82z" />
<glyph unicode="&#x454;" horiz-adv-x="954" d="M111 436v318q0 241 94 343.5t293 102.5q189 0 269.5 -83t88.5 -259h-96q-3 60 -15.5 101.5t-40.5 76t-79 51.5t-127 17q-160 0 -222.5 -79t-62.5 -271v-101h381v-94h-381v-117q0 -98 11.5 -161t41.5 -109.5t84 -67t139 -20.5q66 0 114.5 12.5t78.5 34t48 56.5t25.5 74 t8.5 93h96q0 -187 -92 -277.5t-279 -90.5q-197 0 -287.5 104.5t-90.5 345.5z" />
<glyph unicode="&#x455;" horiz-adv-x="909" d="M78 334h102q0 -242 283 -242q136 0 206 63.5t70 180.5q0 42 -9 75.5t-23 56t-38.5 40t-46.5 28t-57.5 18.5t-61 12t-65.5 9l-13.5 1.5t-12 1.5t-13.5 2q-57 7 -95.5 15.5t-84 30t-73 53t-46 86t-18.5 128.5q0 150 95.5 234.5t275.5 84.5q362 0 362 -317h-100 q-3 112 -64.5 166.5t-195.5 54.5t-199.5 -58t-65.5 -163q0 -40 8 -72t19 -53.5t33.5 -38.5t40 -26t51 -16.5t53.5 -10.5t60 -8q21 -3 32 -4q45 -7 75 -12.5t71.5 -17t68.5 -26t57 -39.5t47 -56t28.5 -76.5t11.5 -100.5q0 -162 -96 -253t-287 -91q-385 0 -385 340z" />
<glyph unicode="&#x456;" horiz-adv-x="407" d="M129 1511q0 34 23.5 53.5t52.5 20t52.5 -19t23.5 -54.5q0 -34 -23.5 -53.5t-52.5 -20t-52.5 19t-23.5 54.5zM158 0v1208h100v-1208h-100z" />
<glyph unicode="&#x457;" horiz-adv-x="417" d="M-2 1505q0 34 23.5 53.5t51 20t51 -19t23.5 -54.5q0 -44 -37 -63t-74.5 -0.5t-37.5 63.5zM158 0v1208h100v-1208h-100zM268 1505q0 34 23.5 53.5t51.5 20t51.5 -19t23.5 -54.5q0 -44 -37.5 -63t-75 -0.5t-37.5 63.5z" />
<glyph unicode="&#x458;" horiz-adv-x="421" d="M2 -279q75 -1 110 19t50.5 79.5t15.5 184.5v1204h103v-1198q0 -107 -11.5 -176t-42 -119.5t-85.5 -71t-140 -16.5v94zM152 1526q0 34 23.5 53.5t52 20t52 -19t23.5 -54.5q0 -34 -23.5 -53.5t-52 -20t-52 19t-23.5 54.5z" />
<glyph unicode="&#x459;" horiz-adv-x="1452" d="M8 -4l4 96q37 -1 67 8t52 24.5t38.5 42t27.5 51.5t18.5 63t10.5 66t4.5 70.5t1.5 67.5t-0.5 66t-0.5 57v582h560v-510h182q185 0 281 -77.5t96 -260.5q0 -184 -96 -263t-281 -79h-283v1098h-358v-490q0 -205 -12 -290q-36 -272 -218 -314q-43 -10 -94 -8zM791 92h182 q144 0 209 58t65 192t-64.5 189t-209.5 55h-182v-494z" />
<glyph unicode="&#x45a;" horiz-adv-x="1413" d="M121 0v1190h100v-514h463v514h100v-510h183q185 0 280.5 -77t95.5 -261t-96 -263t-280 -79h-283v584h-463v-584h-100zM784 92h183q144 0 209 58t65 192t-64.5 189t-209.5 55h-183v-494z" />
<glyph unicode="&#x45b;" horiz-adv-x="1013" d="M-4 1321v86h149v174h105v-174h254v-86h-254v-272q35 62 112 93.5t156 31.5q201 0 286 -103t85 -352v-719h-103v721q0 80 -6.5 134.5t-24 99t-48 70t-77 39t-112.5 13.5q-137 0 -202 -66t-68 -218v-793h-103v1321h-149z" />
<glyph unicode="&#x45c;" horiz-adv-x="892" d="M115 0v1190h104v-522h107q33 0 58 10.5t40.5 25.5t29 42t20.5 48t18 57t18 56q46 124 59 149q53 109 139 131q49 12 113 1l-8 -90q-37 6 -66 -1t-46.5 -19t-33.5 -39.5t-23.5 -47t-20.5 -59.5t-21 -60q-10 -26 -24 -75.5t-24 -78t-33 -60.5t-56 -48l418 -610h-127 l-385 573h-150v-573h-106zM383 1337v11l94 223h111v-6l-123 -228h-82z" />
<glyph unicode="&#x45e;" horiz-adv-x="843" d="M31 1190h112l131 -483l162 -553h2l137 553l132 483h112l-393 -1419q-44 -159 -136.5 -208.5t-250.5 1.5l35 90q110 -37 163.5 -7.5t88.5 136.5l55 211zM168 1567l88 2q0 -76 45 -104.5t127 -28.5q79 0 122 29t44 104l88 -2q-3 -224 -254 -224q-254 0 -260 224z" />
<glyph unicode="&#x45f;" horiz-adv-x="993" d="M119 0v1190h100v-1098h559v1098h101v-1190h-328v-170h-96v170h-336z" />
<glyph unicode="&#x490;" horiz-adv-x="813" d="M143 0v1581h527v160h94v-256h-518v-1485h-103z" />
<glyph unicode="&#x491;" horiz-adv-x="712" d="M125 0v1190h459v141h90v-239h-447v-1092h-102z" />
<glyph unicode="&#x1e80;" horiz-adv-x="1533" d="M18 1585h113l170 -749l135 -652h4l293 1315h82l293 -1315h4l135 652l170 749h113l-367 -1587h-112l-166 727l-111 557l-108 -547l-168 -737h-113zM629 1921v6h114l101 -241v-11h-86z" />
<glyph unicode="&#x1e81;" horiz-adv-x="1241" d="M16 1192h107l137 -596l86 -446h2l230 1042h88l247 -1042h2l84 458l125 584h103l-254 -1194h-121l-139 594l-90 407l-88 -417l-132 -584h-114zM469 1593v6h115l100 -241v-10h-86z" />
<glyph unicode="&#x1e82;" horiz-adv-x="1544" d="M18 1585h113l170 -749l135 -652h4l293 1315h82l293 -1315h4l135 652l170 749h113l-367 -1587h-112l-166 727l-111 557l-108 -547l-168 -737h-113zM737 1659v10l101 242h114v-6l-129 -246h-86z" />
<glyph unicode="&#x1e83;" horiz-adv-x="1245" d="M16 1192h107l137 -596l86 -446h2l230 1042h88l247 -1042h2l84 458l125 584h103l-254 -1194h-121l-139 594l-90 407l-88 -417l-132 -584h-114zM571 1343v11l101 241h114v-6l-129 -246h-86z" />
<glyph unicode="&#x1e84;" horiz-adv-x="1550" d="M18 1585h113l170 -749l135 -652h4l293 1315h82l293 -1315h4l135 652l170 749h113l-367 -1587h-112l-166 727l-111 557l-108 -547l-168 -737h-113zM514 1749q0 34 23.5 53.5t51.5 20t51.5 -19t23.5 -54.5q0 -44 -37.5 -63t-75 -0.5t-37.5 63.5zM887 1749q0 34 23.5 53.5 t51 20t51 -19t23.5 -54.5q0 -44 -37 -63t-74.5 -0.5t-37.5 63.5z" />
<glyph unicode="&#x1e85;" horiz-adv-x="1241" d="M16 1192h107l137 -596l86 -446h2l230 1042h88l247 -1042h2l84 458l125 584h103l-254 -1194h-121l-139 594l-90 407l-88 -417l-132 -584h-114zM362 1516q0 34 23.5 53.5t51.5 20t51.5 -19t23.5 -54.5q0 -44 -37.5 -63t-75 -0.5t-37.5 63.5zM735 1516q0 34 23.5 53.5 t51.5 20t51.5 -19t23.5 -54.5q0 -44 -37.5 -63t-75 -0.5t-37.5 63.5z" />
<glyph unicode="&#x1ef2;" horiz-adv-x="825" d="M-4 1585h119l145 -387l141 -407l144 407l149 387h119l-356 -911v-676h-111v676zM256 1913v6h115l100 -242v-10h-86z" />
<glyph unicode="&#x1ef3;" horiz-adv-x="843" d="M31 1190h112l131 -483l162 -553h2l137 553l132 483h112l-393 -1419q-44 -159 -136.5 -208.5t-250.5 1.5l35 90q110 -37 163.5 -7.5t88.5 136.5l55 211zM266 1589v6h115l100 -241v-11h-86z" />
<glyph unicode="&#x2000;" horiz-adv-x="996" />
<glyph unicode="&#x2001;" horiz-adv-x="1993" />
<glyph unicode="&#x2002;" horiz-adv-x="996" />
<glyph unicode="&#x2003;" horiz-adv-x="1993" />
<glyph unicode="&#x2004;" horiz-adv-x="664" />
<glyph unicode="&#x2005;" horiz-adv-x="498" />
<glyph unicode="&#x2006;" horiz-adv-x="332" />
<glyph unicode="&#x2007;" horiz-adv-x="332" />
<glyph unicode="&#x2008;" horiz-adv-x="249" />
<glyph unicode="&#x2009;" horiz-adv-x="398" />
<glyph unicode="&#x200a;" horiz-adv-x="110" />
<glyph unicode="&#x2010;" horiz-adv-x="831" d="M125 598v92h592v-92h-592z" />
<glyph unicode="&#x2011;" horiz-adv-x="831" d="M125 598v92h592v-92h-592z" />
<glyph unicode="&#x2012;" horiz-adv-x="831" d="M125 598v92h592v-92h-592z" />
<glyph unicode="&#x2013;" horiz-adv-x="1073" d="M72 580v88h909v-88h-909z" />
<glyph unicode="&#x2014;" horiz-adv-x="1347" d="M72 580v88h1175v-88h-1175z" />
<glyph unicode="&#x2018;" horiz-adv-x="382" d="M86 1239l121 342h86l-105 -342h-102z" />
<glyph unicode="&#x2019;" horiz-adv-x="356" d="M84 1237l104 342h103l-121 -342h-86z" />
<glyph unicode="&#x201a;" horiz-adv-x="317" d="M18 -203q69 37 90 95.5t13 189.5h102q0 -111 -12 -167.5t-45.5 -97.5t-108.5 -85z" />
<glyph unicode="&#x201c;" horiz-adv-x="546" d="M90 1239l117 342h84l-105 -342h-96zM293 1239l117 342h84l-103 -342h-98z" />
<glyph unicode="&#x201d;" horiz-adv-x="544" d="M88 1237l102 342h99l-117 -342h-84zM291 1237l104 342h97l-117 -342h-84z" />
<glyph unicode="&#x201e;" horiz-adv-x="587" d="M18 -203q70 37 94 97t17 188h94q0 -111 -12 -167.5t-45.5 -97.5t-108.5 -85zM258 -203q70 37 93 96.5t16 188.5h96q0 -111 -12 -167.5t-45.5 -97.5t-108.5 -85z" />
<glyph unicode="&#x2020;" horiz-adv-x="800" d="M14 551v104h324v609h102v-609h336v-104h-336v-1098h-102v1098h-324z" />
<glyph unicode="&#x2021;" horiz-adv-x="905" d="M51 221v105h324v225h-324v104h324v609h102v-609h336v-104h-336v-225h336v-105h-336v-768h-102v768h-324z" />
<glyph unicode="&#x2022;" horiz-adv-x="538" d="M113 664q0 74 48 119.5t122 45.5q72 0 119 -46t47 -121q0 -73 -47.5 -118.5t-118.5 -45.5q-74 0 -122 46t-48 120z" />
<glyph unicode="&#x2026;" horiz-adv-x="1011" d="M104 68q0 34 24 53.5t52 20t52 -19t24 -54.5q0 -34 -24 -53.5t-52 -20t-52 19t-24 54.5zM416 68q0 34 23.5 53.5t52 20t52 -19t23.5 -54.5q0 -34 -23.5 -53.5t-52 -20t-52 19t-23.5 54.5zM727 68q0 34 23.5 53.5t52.5 20t52.5 -19t23.5 -54.5q0 -34 -23.5 -53.5 t-52.5 -20t-52.5 19t-23.5 54.5z" />
<glyph unicode="&#x202f;" horiz-adv-x="398" />
<glyph unicode="&#x2030;" horiz-adv-x="1970" d="M72 1206v135q0 131 62.5 194.5t191.5 63.5q130 0 192 -62.5t62 -195.5v-135q0 -130 -62.5 -193t-191.5 -63q-130 0 -192 61.5t-62 194.5zM154 1260q0 -130 32 -177t140 -47q103 0 137.5 48.5t34.5 172.5v29q0 67 -5.5 106t-24 68t-52.5 40t-90 11q-103 0 -137.5 -48.5 t-34.5 -172.5v-30zM276 -2l668 1622h94l-669 -1626zM729 246v135q0 131 62.5 194.5t191.5 63.5q130 0 192 -62.5t62 -195.5v-135q0 -130 -62.5 -193t-191.5 -63q-130 0 -192 61.5t-62 194.5zM811 299q0 -130 32 -176.5t140 -46.5q103 0 137.5 48.5t34.5 172.5v29 q0 67 -5.5 106t-24 68t-52.5 40t-90 11q-103 0 -137.5 -48.5t-34.5 -172.5v-31zM1378 246v135q0 131 62.5 194.5t191.5 63.5q130 0 192 -62.5t62 -195.5v-135q0 -130 -62.5 -193t-191.5 -63q-130 0 -192 61.5t-62 194.5zM1460 299q0 -130 32 -176.5t140 -46.5 q103 0 137.5 48.5t34.5 172.5v29q0 67 -5.5 106t-24 68t-52.5 40t-90 11q-103 0 -137.5 -48.5t-34.5 -172.5v-31z" />
<glyph unicode="&#x2039;" horiz-adv-x="565" d="M76 657l282 451h109l-281 -451l281 -452h-109z" />
<glyph unicode="&#x203a;" horiz-adv-x="565" d="M86 205l281 452l-281 451h109l282 -451l-282 -452h-109z" />
<glyph unicode="&#x2044;" horiz-adv-x="256" d="M-166 -23l471 1600h98l-471 -1600h-98z" />
<glyph unicode="&#x205f;" horiz-adv-x="498" />
<glyph unicode="&#x20ac;" horiz-adv-x="1060" d="M68 608v92h139v160h-139v92h139v135q0 112 32 205t86.5 155.5t128.5 101t156.5 46t172 -14.5t173.5 -75l-47 -75q-86 53 -174.5 69t-163.5 -6t-134.5 -73.5t-93.5 -136.5t-34 -191v-140h439v-92h-439v-160h439v-92h-439v-125q0 -280 172 -377.5t459 29.5l43 -88 q-100 -43 -195.5 -62t-182 -13t-159.5 41t-126 96.5t-83 157.5t-30 220v121h-139z" />
<glyph unicode="&#x2122;" horiz-adv-x="929" d="M41 1540v43h309v-43h-131v-584h-47v584h-131zM449 954v631h79l107 -411l106 411h82v-631h-47v574l-117 -451h-47l-116 449v-572h-47z" />
<glyph unicode="&#x25fc;" horiz-adv-x="1187" d="M0 0v1188h1188v-1188h-1188z" />
<glyph unicode="&#xfb01;" horiz-adv-x="792" d="M121 -2v1192q0 214 78 305.5t252 91.5v-88q-137 -1 -182.5 -66.5t-45.5 -244.5h455v-1188h-100v1096h-355v-1098h-102zM553 1518q0 34 23.5 53.5t52.5 20t52.5 -19t23.5 -54.5q0 -34 -23.5 -53.5t-52.5 -20t-52.5 19t-23.5 54.5z" />
<glyph unicode="&#xfb02;" horiz-adv-x="933" d="M121 -2v1169q0 233 91 335t288 89v-90q-84 5 -137.5 -11t-84.5 -58.5t-43 -105t-12 -161.5v-78h234v-92h-234v-997h-102zM608 336v1243h103v-1249q0 -84 5.5 -127.5t28 -71t57 -34.5t101.5 -7v-92q-76 -5 -127 4t-84.5 31t-51.5 65.5t-25 98t-7 139.5z" />
</font>
</defs>
</svg>
