<svg width="50" height="50" viewBox="0 0 50 50" fill="none" xmlns="http://www.w3.org/2000/svg"><g clip-path="url(#a)" fill="#fff"><path d="M36.739 9.285a.976.976 0 1 0 1.38 1.381.976.976 0 0 0-1.38-1.38zm-25.549.691a.976.976 0 1 0 1.38 1.38.976.976 0 1 0-1.38-1.38z"/><path d="M49.141 12.074l-8.286-8.286a2.928 2.928 0 0 0-4.142 0L32.13 8.37a6.85 6.85 0 0 0-6.779 1.278 8.78 8.78 0 0 0-7.593-.009l-4.472-4.483a2.928 2.928 0 0 0-4.142 0L.859 13.442a2.928 2.928 0 0 0-.001 4.142l4.808 4.82a4.901 4.901 0 0 0 1.38 4.145l-1.38 1.38a3.906 3.906 0 0 0 0 5.526 3.893 3.893 0 0 0 3.007 1.132 3.878 3.878 0 0 0 1.135 3.01 3.877 3.877 0 0 0 3.008 1.136 3.882 3.882 0 0 0 1.135 3.007 3.881 3.881 0 0 0 3.008 1.136 3.882 3.882 0 0 0 1.136 3.008 3.913 3.913 0 0 0 5.524 0L25 44.501l1.38 1.382a3.913 3.913 0 0 0 5.525 0 3.9 3.9 0 0 0 1.134-3.006 3.884 3.884 0 0 0 3.227-1.374c.658-.774.94-1.777.862-2.776a3.88 3.88 0 0 0 3.063-1.131 3.881 3.881 0 0 0 1.136-3.01 3.895 3.895 0 0 0 3.008-1.133 3.913 3.913 0 0 0 0-5.525l-.74-.74a6.854 6.854 0 0 0 .965-6.39l4.58-4.582a2.927 2.927 0 0 0 .001-4.143zm-42.094 20c-.763-.763-.763-2 0-2.763l4.143-4.144a1.952 1.952 0 1 1 2.763 2.761l-.002.001-4.142 4.144a1.957 1.957 0 0 1-2.762 0zm4.143 4.142a1.95 1.95 0 0 1 0-2.761l4.142-4.144a1.958 1.958 0 0 1 2.763 0c.765.765.762 2 0 2.762l-4.144 4.143a1.95 1.95 0 0 1-2.761 0zm4.143 4.143a1.953 1.953 0 0 1-.001-2.762l4.144-4.143a1.953 1.953 0 1 1 2.762 2.761v.001l-4.143 4.143c-.764.764-2 .763-2.762 0zm6.905 4.143a1.957 1.957 0 0 1-2.762 0 1.952 1.952 0 0 1 0-2.762l4.142-4.143h.002a1.952 1.952 0 1 1 2.76 2.762c-1.397 1.399-2.603 2.604-4.142 4.143zm8.286 0a1.957 1.957 0 0 1-2.762 0l-1.38-1.381 1.38-1.38a3.882 3.882 0 0 0 1.011-1.752l1.751 1.751c.762.762.762 2 0 2.762zm12.43-12.43a1.957 1.957 0 0 1-2.762.001l-4.143-4.143a.977.977 0 0 0-1.381 1.38l4.143 4.145a1.95 1.95 0 0 1-.001 2.761 1.95 1.95 0 0 1-2.765-.004l-.093-.093-4.047-4.046a.977.977 0 0 0-1.38 1.381l4.04 4.04c.751.799.846 2.002.213 2.744a1.949 1.949 0 0 1-2.135.585c-.73-.253-.64-.452-4.881-4.607a3.88 3.88 0 0 0-3.008-1.136 3.884 3.884 0 0 0-1.135-3.007 3.896 3.896 0 0 0-3.007-1.134 3.899 3.899 0 0 0-4.144-4.143 3.882 3.882 0 0 0-1.136-3.01 3.91 3.91 0 0 0-5.523 0l-1.382 1.382a2.94 2.94 0 0 1-.758-2.832.977.977 0 0 0-.252-.942L4.98 18.95l4.83-4.83a.977.977 0 0 0-1.38-1.382L3.6 17.567l-1.359-1.364a.975.975 0 0 1 0-1.38l8.286-8.287a.976.976 0 0 1 1.38 0l4.98 4.995a.977.977 0 0 0 1.19.15 6.826 6.826 0 0 1 5.768-.55l-5.059 5.06a3.913 3.913 0 0 0 0 5.524 3.913 3.913 0 0 0 5.525 0l2.071-2.072a4.878 4.878 0 0 1 6.905 0l9.667 9.667a1.958 1.958 0 0 1 .001 2.763zm4.806-17.236l-2.045 2.045-4.833-4.833a.977.977 0 0 0-1.382 1.381l4.834 4.833-1.617 1.617a.977.977 0 0 0-.19 1.112 4.891 4.891 0 0 1-.334 4.797l-7.526-7.525a6.83 6.83 0 0 0-9.667 0l-2.071 2.07a1.957 1.957 0 0 1-2.763.001 1.957 1.957 0 0 1 0-2.762l6.215-6.215a4.89 4.89 0 0 1 5.558-.954.977.977 0 0 0 1.112-.19l5.043-5.044a.976.976 0 0 1 1.38 0l8.286 8.287a.974.974 0 0 1 0 1.38z"/></g><defs><clipPath id="a"><path fill="#fff" d="M0 0h50v50H0z"/></clipPath></defs></svg>