<svg width="50" height="50" viewBox="0 0 50 50" fill="none" xmlns="http://www.w3.org/2000/svg"><g clip-path="url(#a)" fill="#fff"><path d="M25 17.072a.977.977 0 1 0 0 1.954.977.977 0 0 0 0-1.954z"/><path d="M47.07 22.931h-3.8c-2.003-5.72-4.909-15.749-10.174-18.587-2.633-1.418-5.122-.428-6.059 1.584A2.21 2.21 0 0 1 25 7.233a2.21 2.21 0 0 1-2.037-1.304c-.903-1.943-3.333-3.025-5.874-1.791-5.35 2.598-8.34 13.03-10.36 18.793h-3.8a2.929 2.929 0 1 0 0 5.86H47.07a2.929 2.929 0 1 0 0-5.86zm-36.91-3.906h10.934a.977.977 0 0 0 0-1.953H10.843c2.944-8.132 5.694-10.495 7.099-11.177 1.533-.744 2.795-.121 3.25.857A4.163 4.163 0 0 0 25 9.186a4.162 4.162 0 0 0 3.808-2.434c.468-1.006 1.737-1.564 3.361-.689 1.412.761 4.154 3.203 6.988 11.009h-10.25a.977.977 0 0 0 0 1.953H39.84c.494 1.424 1.007 2.893 1.361 3.906H8.8c.354-1.01.865-2.476 1.361-3.906zm36.91 7.813H2.93a.978.978 0 0 1 0-1.954h44.14a.978.978 0 0 1 0 1.953zm-24.023 5.859H7.422a.977.977 0 0 0-.977.976v3.907c0 4.846 3.943 8.789 8.79 8.789a8.77 8.77 0 0 0 8.214-5.662 3.748 3.748 0 0 1 3.102 0 8.77 8.77 0 0 0 8.215 5.661c4.846 0 8.789-3.942 8.789-8.789v-3.906a.977.977 0 0 0-.977-.977H26.953a.976.976 0 0 0-.976.977v.977h-1.954v-.977a.976.976 0 0 0-.976-.976zm-7.813 11.719a6.844 6.844 0 0 1-6.836-6.836v-2.93H22.07v2.93a6.827 6.827 0 0 1-6.836 6.836zM27.93 34.65h13.672v2.93a6.844 6.844 0 0 1-6.836 6.836 6.827 6.827 0 0 1-6.836-6.836v-2.93zm-1.953 1.953v.977c0 .312.017.623.05.931a5.716 5.716 0 0 0-2.054 0c.033-.308.05-.62.05-.931v-.977h1.954z"/><path d="M15.234 40.51a2.933 2.933 0 0 1-2.93-2.93.977.977 0 1 0-1.952 0 4.889 4.889 0 0 0 4.882 4.883.977.977 0 0 0 0-1.954zm19.532 1.952a4.889 4.889 0 0 0 4.882-4.882.976.976 0 1 0-1.953 0 2.933 2.933 0 0 1-2.93 2.93.976.976 0 1 0 0 1.953z"/></g><defs><clipPath id="a"><path fill="#fff" d="M0 0h50v50H0z"/></clipPath></defs></svg>