<svg width="24" height="24" viewBox="0 0 24 24" fill="none" xmlns="http://www.w3.org/2000/svg"><path d="M6.412 5.813A5.591 5.591 0 0 0 12 11.4a5.591 5.591 0 0 0 5.587-5.588A5.591 5.591 0 0 0 12 .226a5.591 5.591 0 0 0-5.588 5.588zm1.05 0A4.54 4.54 0 0 1 12 1.274a4.54 4.54 0 0 1 4.538 4.537A4.54 4.54 0 0 1 12 10.35a4.54 4.54 0 0 1-4.537-4.537zm2.325 0A2.23 2.23 0 0 0 12 8.024a2.23 2.23 0 0 0 2.213-2.213A2.23 2.23 0 0 0 12 3.6a2.23 2.23 0 0 0-2.213 2.212zm1.05 0c0-.63.533-1.163 1.163-1.163s1.162.533 1.162 1.162c0 .63-.532 1.163-1.162 1.163-.63 0-1.162-.533-1.162-1.162z" fill="#F16A51" stroke="#F16A51" stroke-width=".3"/><path d="M19.53 13.47l.002-.004c.162-.566.08-1.131-.2-1.65-.566-1.051-1.897-1.41-2.94-.848h-.002c-2.73 1.513-6.087 1.513-8.778-.036l-.003-.002c-.519-.279-1.084-.361-1.65-.2a2.167 2.167 0 0 0-1.289 1.007 2.139 2.139 0 0 0-.202 1.654 2.167 2.167 0 0 0 1.006 1.288 11.934 11.934 0 0 0 3.333 1.315l-3.374 4.2c-.601.76-.648 1.96-.078 2.696.407.568 1.055.848 1.732.848.642 0 1.287-.28 1.693-.808l3.183-3.978 3.22 3.98.002.002c.439.518 1.082.844 1.774.803a2.24 2.24 0 0 0 1.728-1.003c.528-.773.441-1.821-.196-2.58l-3.372-4.16a12.605 12.605 0 0 0 3.358-1.308c.535-.21.895-.701 1.054-1.217zm-5.738 2.557l.007.009.007.008.145.144 3.782 4.681.002.002c.335.402.363.93.103 1.32l-.004.007c-.196.326-.523.494-.898.528-.355.032-.685-.128-.921-.398l-3.636-4.46-.005-.006-.006-.006-.003-.004c-.077-.076-.19-.19-.402-.19-.146 0-.31.05-.421.211L7.947 22.33a1.12 1.12 0 0 1-.86.396c-.358 0-.654-.16-.892-.465-.124-.171-.185-.424-.172-.69.013-.267.1-.524.243-.7l.001-.001 3.75-4.688.145-.182a.492.492 0 0 0 .131-.39.504.504 0 0 0-.183-.348.44.44 0 0 0-.269-.11 13.325 13.325 0 0 1-3.84-1.368 1.307 1.307 0 0 1-.532-.663 1.3 1.3 0 0 1 .103-.865c.125-.25.382-.42.665-.526a.907.907 0 0 1 .288-.029c.17 0 .313.048.504.113l.072.025c3.006 1.706 6.768 1.703 9.772.03a1.134 1.134 0 0 1 1.52.427c.132.267.166.568.098.872-.064.29-.259.52-.49.652a13.162 13.162 0 0 1-3.88 1.369c-.127.005-.198.077-.237.115l-.003.003c-.187.188-.258.496-.088.722zm3.008-4.29a1.283 1.283 0 0 1 1.725.488c.15.3.188.638.113.975-.076.338-.3.6-.563.75L16.8 11.738z" fill="#F16A51" stroke="#F16A51" stroke-width=".3"/></svg>