<svg width="24" height="24" viewBox="0 0 24 24" fill="none" xmlns="http://www.w3.org/2000/svg"><g clip-path="url(#a)" fill="#fff"><path d="M10.898 18.296a.469.469 0 1 0 .663.663.469.469 0 0 0-.663-.663z"/><path d="M22.919 17.482l-3.559-3.026a.482.482 0 0 0-.052-.038 2.33 2.33 0 0 0-2.915.32l-1.94 1.94a.468.468 0 0 1-.511.102c-2.191-.907-3.991-2.271-5.35-4.056-1.036-1.36-1.41-2.441-1.459-2.594a.467.467 0 0 0-.028-.097.466.466 0 0 1 .101-.51l1.94-1.94a2.33 2.33 0 0 0 .306-2.938l-2.57-3.571A2.344 2.344 0 0 0 3.255.687l-.389.388v.001L1.477 2.463C-.176 4.118-.447 6.603.696 9.653c.978 2.611 2.937 5.47 5.515 8.048 2.64 2.64 5.575 4.634 8.267 5.618 2.663.973 5.497 1.093 7.502-.913l1.309-1.308a2.344 2.344 0 0 0-.37-3.616zm-4.14-2.29l3.556 3.024a.454.454 0 0 0 .052.038c.76.484.874 1.546.239 2.181l-.097.098-6.065-4.541.592-.592a1.397 1.397 0 0 1 1.723-.207zM6.1 1.59l.014.022 2.57 3.57a1.397 1.397 0 0 1-.2 1.739l-.572.573L3.808 1.46l.11-.11a1.406 1.406 0 0 1 2.18.24zm8.7 20.85c-2.566-.938-5.38-2.856-7.925-5.4-2.486-2.487-4.368-5.226-5.3-7.715-.7-1.869-1.17-4.46.567-6.198l.992-.992 4.103 6.034-.692.692a1.4 1.4 0 0 0-.321 1.492c.148.608.829 1.868 1.515 2.797 1.011 1.366 2.846 3.256 5.846 4.497a1.402 1.402 0 0 0 1.531-.305l.68-.68 6.064 4.541-.541.541c-1.863 1.863-4.573 1.406-6.519.695z"/><path d="M10.018 17.177c-.495-.434-1.351-1.18-1.802-1.644-1.106-1.137-2.267-2.515-2.957-3.51a.469.469 0 1 0-.77.534c.87 1.255 2.148 2.698 3.055 3.629.476.49 1.34 1.243 1.856 1.696a.469.469 0 0 0 .618-.705z"/></g><defs><clipPath id="a"><path fill="#fff" d="M0 0h24v24H0z"/></clipPath></defs></svg>