<svg width="24" height="24" viewBox="0 0 24 24" fill="none" xmlns="http://www.w3.org/2000/svg"><g clip-path="url(#a)"><path d="M23.802 3.154a.87.87 0 0 0-.972-.265L.815 10.845a1.233 1.233 0 0 0-.276 2.18l3.146 2.148a.99.99 0 0 0 1.023.058l6.827-3.6-5.32 3.973a.998.998 0 0 0-.4.796v3.68a1.033 1.033 0 0 0 1.603.86l2.391-1.586 2.352 1.603a1.24 1.24 0 0 0 1.75-.37l9.96-16.424a.872.872 0 0 0-.07-1.009zm-10.995 16.54l-2.435-1.66a.991.991 0 0 0-1.108-.006L7.222 19.38v-2.773l9.395-7.015a.986.986 0 0 0 .245-1.326.986.986 0 0 0-1.303-.348L4.273 13.87 1.61 12.054l20.273-7.327-9.077 14.968z" fill="#F16A51"/></g><defs><clipPath id="a"><path fill="#fff" d="M0 0h24v23.953H0z"/></clipPath></defs></svg>